G75*
%MOIN*%
%OFA0B0*%
%FSLAX25Y25*%
%IPPOS*%
%LPD*%
%AMOC8*
5,1,8,0,0,1.08239X$1,22.5*
%
%ADD10R,0.03900X0.01200*%
%ADD11OC8,0.05200*%
%ADD12C,0.05200*%
%ADD13R,0.20000X0.10000*%
%ADD14C,0.02978*%
%ADD15C,0.01200*%
%ADD16C,0.06750*%
%ADD17C,0.08000*%
%ADD18C,0.01600*%
D10*
X0125113Y0287466D03*
X0125113Y0290025D03*
X0125113Y0292584D03*
X0125113Y0295143D03*
X0125113Y0297702D03*
X0125113Y0300261D03*
X0125113Y0302820D03*
X0125113Y0305380D03*
X0125113Y0307939D03*
X0125113Y0310498D03*
X0125113Y0313057D03*
X0125113Y0315616D03*
X0125113Y0318175D03*
X0125113Y0320734D03*
X0148087Y0320734D03*
X0148087Y0318175D03*
X0148087Y0315616D03*
X0148087Y0313057D03*
X0148087Y0310498D03*
X0148087Y0307939D03*
X0148087Y0305380D03*
X0148087Y0302820D03*
X0148087Y0300261D03*
X0148087Y0297702D03*
X0148087Y0295143D03*
X0148087Y0292584D03*
X0148087Y0290025D03*
X0148087Y0287466D03*
D11*
X0166600Y0244100D03*
X0166600Y0234100D03*
X0166600Y0219100D03*
X0166600Y0209100D03*
X0166600Y0194100D03*
X0166600Y0184100D03*
X0181600Y0169100D03*
X0191600Y0169100D03*
X0206600Y0169100D03*
X0216600Y0169100D03*
X0231600Y0169100D03*
X0241600Y0169100D03*
X0256600Y0154100D03*
X0256600Y0144100D03*
X0256600Y0129100D03*
X0256600Y0119100D03*
X0256600Y0104100D03*
X0256600Y0094100D03*
X0241600Y0079100D03*
X0231600Y0079100D03*
X0216600Y0079100D03*
X0206600Y0079100D03*
X0191600Y0079100D03*
X0181600Y0079100D03*
X0166600Y0094100D03*
X0166600Y0104100D03*
X0166600Y0119100D03*
X0166600Y0129100D03*
X0166600Y0144100D03*
X0166600Y0154100D03*
X0146600Y0144100D03*
X0136600Y0144100D03*
X0116600Y0144100D03*
X0116600Y0154100D03*
X0101600Y0169100D03*
X0091600Y0169100D03*
X0076600Y0169100D03*
X0066600Y0169100D03*
X0051600Y0169100D03*
X0041600Y0169100D03*
X0026600Y0154100D03*
X0026600Y0144100D03*
X0026600Y0129100D03*
X0026600Y0119100D03*
X0026600Y0104100D03*
X0026600Y0094100D03*
X0041600Y0079100D03*
X0051600Y0079100D03*
X0066600Y0079100D03*
X0076600Y0079100D03*
X0091600Y0079100D03*
X0101600Y0079100D03*
X0116600Y0094100D03*
X0116600Y0104100D03*
X0116600Y0119100D03*
X0116600Y0129100D03*
X0096600Y0139100D03*
X0096600Y0109100D03*
X0071600Y0104100D03*
X0071600Y0114100D03*
X0071600Y0134100D03*
X0071600Y0144100D03*
X0046600Y0139100D03*
X0046600Y0109100D03*
X0056600Y0054100D03*
X0086600Y0054100D03*
X0136600Y0114100D03*
X0146600Y0114100D03*
X0186600Y0109100D03*
X0186600Y0139100D03*
X0211600Y0134100D03*
X0211600Y0144100D03*
X0211600Y0114100D03*
X0211600Y0104100D03*
X0236600Y0109100D03*
X0236600Y0139100D03*
X0256600Y0184100D03*
X0256600Y0194100D03*
X0256600Y0209100D03*
X0256600Y0219100D03*
X0256600Y0234100D03*
X0256600Y0244100D03*
X0241600Y0259100D03*
X0231600Y0259100D03*
X0216600Y0259100D03*
X0206600Y0259100D03*
X0191600Y0259100D03*
X0181600Y0259100D03*
X0191600Y0234100D03*
X0211600Y0234100D03*
X0231600Y0234100D03*
X0231600Y0204100D03*
X0226600Y0189100D03*
X0211600Y0204100D03*
X0196600Y0189100D03*
X0191600Y0204100D03*
X0116600Y0209100D03*
X0116600Y0219100D03*
X0116600Y0234100D03*
X0116600Y0244100D03*
X0101600Y0259100D03*
X0091600Y0259100D03*
X0076600Y0259100D03*
X0066600Y0259100D03*
X0051600Y0259100D03*
X0041600Y0259100D03*
X0026600Y0244100D03*
X0026600Y0234100D03*
X0026600Y0219100D03*
X0026600Y0209100D03*
X0026600Y0194100D03*
X0026600Y0184100D03*
X0051600Y0204100D03*
X0056600Y0189100D03*
X0076600Y0204100D03*
X0086600Y0189100D03*
X0096600Y0204100D03*
X0116600Y0194100D03*
X0116600Y0184100D03*
X0096600Y0234100D03*
X0076600Y0234100D03*
X0051600Y0234100D03*
X0196600Y0054100D03*
X0226600Y0054100D03*
D12*
X0226600Y0286500D02*
X0226600Y0291700D01*
X0236600Y0291700D02*
X0236600Y0286500D01*
X0246600Y0286500D02*
X0246600Y0291700D01*
X0256600Y0291700D02*
X0256600Y0286500D01*
X0256600Y0316500D02*
X0256600Y0321700D01*
X0246600Y0321700D02*
X0246600Y0316500D01*
X0236600Y0316500D02*
X0236600Y0321700D01*
X0226600Y0321700D02*
X0226600Y0316500D01*
X0216600Y0316500D02*
X0216600Y0321700D01*
X0206600Y0321700D02*
X0206600Y0316500D01*
X0196600Y0316500D02*
X0196600Y0321700D01*
X0186600Y0321700D02*
X0186600Y0316500D01*
X0176600Y0316500D02*
X0176600Y0321700D01*
X0176600Y0291700D02*
X0176600Y0286500D01*
X0186600Y0286500D02*
X0186600Y0291700D01*
X0196600Y0291700D02*
X0196600Y0286500D01*
X0206600Y0286500D02*
X0206600Y0291700D01*
X0216600Y0291700D02*
X0216600Y0286500D01*
D13*
X0021600Y0019100D03*
X0021600Y0052850D03*
X0021600Y0334100D03*
X0021600Y0364100D03*
X0261600Y0364100D03*
X0261600Y0334100D03*
X0261600Y0052850D03*
X0261600Y0019100D03*
D14*
X0171600Y0169100D03*
X0121600Y0282850D03*
X0107596Y0288846D03*
X0105350Y0292354D03*
X0106332Y0296332D03*
X0104100Y0300350D03*
X0103818Y0305068D03*
X0105054Y0310054D03*
X0103811Y0318872D03*
X0105122Y0322850D03*
X0109100Y0324100D03*
X0111600Y0329100D03*
X0126600Y0329100D03*
X0131600Y0317850D03*
X0140350Y0320350D03*
X0141600Y0329100D03*
X0147850Y0325350D03*
X0156600Y0329100D03*
X0157850Y0311600D03*
X0156600Y0294100D03*
X0161600Y0294100D03*
X0165578Y0294100D03*
X0169556Y0294100D03*
X0176600Y0339100D03*
X0176600Y0364100D03*
X0070350Y0304100D03*
X0057850Y0197850D03*
D15*
X0055350Y0197850D01*
X0041600Y0184100D01*
X0041600Y0169100D01*
X0044545Y0166105D02*
X0048655Y0166105D01*
X0047457Y0167303D02*
X0045743Y0167303D01*
X0045800Y0167360D02*
X0045800Y0170840D01*
X0043800Y0172840D01*
X0043800Y0183189D01*
X0055971Y0195360D01*
X0056100Y0195231D01*
X0057236Y0194761D01*
X0058464Y0194761D01*
X0059600Y0195231D01*
X0060469Y0196100D01*
X0060939Y0197236D01*
X0060939Y0198464D01*
X0060469Y0199600D01*
X0059600Y0200469D01*
X0058464Y0200939D01*
X0057236Y0200939D01*
X0056100Y0200469D01*
X0055682Y0200050D01*
X0054439Y0200050D01*
X0040689Y0186300D01*
X0039400Y0185011D01*
X0039400Y0172840D01*
X0037400Y0170840D01*
X0037400Y0167360D01*
X0039860Y0164900D01*
X0043340Y0164900D01*
X0045800Y0167360D01*
X0045800Y0168502D02*
X0047400Y0168502D01*
X0047400Y0167360D02*
X0047400Y0170840D01*
X0049860Y0173300D01*
X0053340Y0173300D01*
X0055140Y0171500D01*
X0063060Y0171500D01*
X0064860Y0173300D01*
X0068340Y0173300D01*
X0070800Y0170840D01*
X0070800Y0167360D01*
X0068340Y0164900D01*
X0064860Y0164900D01*
X0063060Y0166700D01*
X0055140Y0166700D01*
X0053340Y0164900D01*
X0049860Y0164900D01*
X0047400Y0167360D01*
X0047400Y0169701D02*
X0045800Y0169701D01*
X0045741Y0170899D02*
X0047459Y0170899D01*
X0048658Y0172098D02*
X0044542Y0172098D01*
X0043800Y0173296D02*
X0049856Y0173296D01*
X0053344Y0173296D02*
X0064856Y0173296D01*
X0063658Y0172098D02*
X0054542Y0172098D01*
X0054545Y0166105D02*
X0063655Y0166105D01*
X0064854Y0164906D02*
X0053346Y0164906D01*
X0049854Y0164906D02*
X0043346Y0164906D01*
X0039854Y0164906D02*
X0011500Y0164906D01*
X0011500Y0163708D02*
X0271700Y0163708D01*
X0271700Y0164906D02*
X0243346Y0164906D01*
X0243340Y0164900D02*
X0245800Y0167360D01*
X0245800Y0170840D01*
X0243340Y0173300D01*
X0240794Y0173300D01*
X0229000Y0185094D01*
X0229000Y0185560D01*
X0230800Y0187360D01*
X0230800Y0190840D01*
X0228340Y0193300D01*
X0224860Y0193300D01*
X0222400Y0190840D01*
X0222400Y0187360D01*
X0224200Y0185560D01*
X0224200Y0183623D01*
X0224565Y0182741D01*
X0237400Y0169906D01*
X0237400Y0167360D01*
X0239860Y0164900D01*
X0243340Y0164900D01*
X0244545Y0166105D02*
X0271700Y0166105D01*
X0271700Y0167303D02*
X0245743Y0167303D01*
X0245800Y0168502D02*
X0271700Y0168502D01*
X0271700Y0169701D02*
X0245800Y0169701D01*
X0245741Y0170899D02*
X0271700Y0170899D01*
X0271700Y0172098D02*
X0244542Y0172098D01*
X0243344Y0173296D02*
X0271700Y0173296D01*
X0271700Y0174495D02*
X0239600Y0174495D01*
X0238401Y0175693D02*
X0271700Y0175693D01*
X0271700Y0176892D02*
X0237203Y0176892D01*
X0236004Y0178090D02*
X0271700Y0178090D01*
X0271700Y0179289D02*
X0234805Y0179289D01*
X0233607Y0180487D02*
X0254273Y0180487D01*
X0254860Y0179900D02*
X0258340Y0179900D01*
X0260800Y0182360D01*
X0260800Y0185840D01*
X0258340Y0188300D01*
X0255794Y0188300D01*
X0252959Y0191135D01*
X0252077Y0191500D01*
X0237594Y0191500D01*
X0227959Y0201135D01*
X0227077Y0201500D01*
X0214940Y0201500D01*
X0215800Y0202360D01*
X0215800Y0205840D01*
X0213340Y0208300D01*
X0209860Y0208300D01*
X0207400Y0205840D01*
X0207400Y0202360D01*
X0209200Y0200560D01*
X0209200Y0198623D01*
X0209565Y0197741D01*
X0210241Y0197065D01*
X0211123Y0196700D01*
X0225606Y0196700D01*
X0234565Y0187741D01*
X0235241Y0187065D01*
X0236123Y0186700D01*
X0250606Y0186700D01*
X0252400Y0184906D01*
X0252400Y0182360D01*
X0254860Y0179900D01*
X0253075Y0181686D02*
X0232408Y0181686D01*
X0231210Y0182884D02*
X0252400Y0182884D01*
X0252400Y0184083D02*
X0230011Y0184083D01*
X0229000Y0185281D02*
X0252025Y0185281D01*
X0250826Y0186480D02*
X0229919Y0186480D01*
X0230800Y0187678D02*
X0234628Y0187678D01*
X0233429Y0188877D02*
X0230800Y0188877D01*
X0230800Y0190075D02*
X0232231Y0190075D01*
X0231032Y0191274D02*
X0230366Y0191274D01*
X0229834Y0192472D02*
X0229167Y0192472D01*
X0228635Y0193671D02*
X0170800Y0193671D01*
X0170800Y0194869D02*
X0227437Y0194869D01*
X0226238Y0196068D02*
X0170572Y0196068D01*
X0170800Y0195840D02*
X0169000Y0197640D01*
X0169000Y0205560D01*
X0170800Y0207360D01*
X0170800Y0210840D01*
X0168340Y0213300D01*
X0164860Y0213300D01*
X0162400Y0210840D01*
X0162400Y0207360D01*
X0164200Y0205560D01*
X0164200Y0197640D01*
X0162400Y0195840D01*
X0162400Y0192360D01*
X0164860Y0189900D01*
X0168340Y0189900D01*
X0170800Y0192360D01*
X0170800Y0195840D01*
X0169373Y0197266D02*
X0210040Y0197266D01*
X0209265Y0198465D02*
X0169000Y0198465D01*
X0169000Y0199663D02*
X0209200Y0199663D01*
X0208898Y0200862D02*
X0194302Y0200862D01*
X0193340Y0199900D02*
X0195800Y0202360D01*
X0195800Y0203900D01*
X0191800Y0203900D01*
X0191800Y0204300D01*
X0191400Y0204300D01*
X0191400Y0208300D01*
X0189860Y0208300D01*
X0187400Y0205840D01*
X0187400Y0204300D01*
X0191400Y0204300D01*
X0191400Y0203900D01*
X0187400Y0203900D01*
X0187400Y0202360D01*
X0189860Y0199900D01*
X0191400Y0199900D01*
X0191400Y0203900D01*
X0191800Y0203900D01*
X0191800Y0199900D01*
X0193340Y0199900D01*
X0191800Y0200862D02*
X0191400Y0200862D01*
X0191400Y0202060D02*
X0191800Y0202060D01*
X0191800Y0203259D02*
X0191400Y0203259D01*
X0191800Y0204300D02*
X0195800Y0204300D01*
X0195800Y0205840D01*
X0193340Y0208300D01*
X0191800Y0208300D01*
X0191800Y0204300D01*
X0191800Y0204457D02*
X0191400Y0204457D01*
X0191400Y0205656D02*
X0191800Y0205656D01*
X0191800Y0206854D02*
X0191400Y0206854D01*
X0191400Y0208053D02*
X0191800Y0208053D01*
X0193587Y0208053D02*
X0209613Y0208053D01*
X0208415Y0206854D02*
X0194785Y0206854D01*
X0195800Y0205656D02*
X0207400Y0205656D01*
X0207400Y0204457D02*
X0195800Y0204457D01*
X0195800Y0203259D02*
X0207400Y0203259D01*
X0207700Y0202060D02*
X0195500Y0202060D01*
X0188898Y0200862D02*
X0169000Y0200862D01*
X0169000Y0202060D02*
X0187700Y0202060D01*
X0187400Y0203259D02*
X0169000Y0203259D01*
X0169000Y0204457D02*
X0187400Y0204457D01*
X0187400Y0205656D02*
X0169096Y0205656D01*
X0170294Y0206854D02*
X0188415Y0206854D01*
X0189613Y0208053D02*
X0170800Y0208053D01*
X0170800Y0209251D02*
X0252400Y0209251D01*
X0252400Y0208053D02*
X0233587Y0208053D01*
X0233340Y0208300D02*
X0231800Y0208300D01*
X0231800Y0204300D01*
X0231400Y0204300D01*
X0231400Y0208300D01*
X0229860Y0208300D01*
X0227400Y0205840D01*
X0227400Y0204300D01*
X0231400Y0204300D01*
X0231400Y0203900D01*
X0227400Y0203900D01*
X0227400Y0202360D01*
X0229860Y0199900D01*
X0231400Y0199900D01*
X0231400Y0203900D01*
X0231800Y0203900D01*
X0231800Y0204300D01*
X0235800Y0204300D01*
X0235800Y0205840D01*
X0233340Y0208300D01*
X0231800Y0208053D02*
X0231400Y0208053D01*
X0231400Y0206854D02*
X0231800Y0206854D01*
X0231800Y0205656D02*
X0231400Y0205656D01*
X0231400Y0204457D02*
X0231800Y0204457D01*
X0231800Y0203900D02*
X0235800Y0203900D01*
X0235800Y0202360D01*
X0233340Y0199900D01*
X0231800Y0199900D01*
X0231800Y0203900D01*
X0231800Y0203259D02*
X0231400Y0203259D01*
X0231400Y0202060D02*
X0231800Y0202060D01*
X0231800Y0200862D02*
X0231400Y0200862D01*
X0229431Y0199663D02*
X0254200Y0199663D01*
X0254200Y0198465D02*
X0230629Y0198465D01*
X0231828Y0197266D02*
X0253827Y0197266D01*
X0254200Y0197640D02*
X0252400Y0195840D01*
X0252400Y0192360D01*
X0254860Y0189900D01*
X0258340Y0189900D01*
X0260800Y0192360D01*
X0260800Y0195840D01*
X0259000Y0197640D01*
X0259000Y0205560D01*
X0260800Y0207360D01*
X0260800Y0210840D01*
X0258340Y0213300D01*
X0254860Y0213300D01*
X0252400Y0210840D01*
X0252400Y0207360D01*
X0254200Y0205560D01*
X0254200Y0197640D01*
X0252628Y0196068D02*
X0233026Y0196068D01*
X0234225Y0194869D02*
X0252400Y0194869D01*
X0252400Y0193671D02*
X0235423Y0193671D01*
X0236622Y0192472D02*
X0252400Y0192472D01*
X0252624Y0191274D02*
X0253487Y0191274D01*
X0254019Y0190075D02*
X0254685Y0190075D01*
X0255217Y0188877D02*
X0271700Y0188877D01*
X0271700Y0190075D02*
X0258515Y0190075D01*
X0259713Y0191274D02*
X0271700Y0191274D01*
X0271700Y0192472D02*
X0260800Y0192472D01*
X0260800Y0193671D02*
X0271700Y0193671D01*
X0271700Y0194869D02*
X0260800Y0194869D01*
X0260572Y0196068D02*
X0271700Y0196068D01*
X0271700Y0197266D02*
X0259373Y0197266D01*
X0259000Y0198465D02*
X0271700Y0198465D01*
X0271700Y0199663D02*
X0259000Y0199663D01*
X0259000Y0200862D02*
X0271700Y0200862D01*
X0271700Y0202060D02*
X0259000Y0202060D01*
X0259000Y0203259D02*
X0271700Y0203259D01*
X0271700Y0204457D02*
X0259000Y0204457D01*
X0259096Y0205656D02*
X0271700Y0205656D01*
X0271700Y0206854D02*
X0260294Y0206854D01*
X0260800Y0208053D02*
X0271700Y0208053D01*
X0271700Y0209251D02*
X0260800Y0209251D01*
X0260800Y0210450D02*
X0271700Y0210450D01*
X0271700Y0211648D02*
X0259991Y0211648D01*
X0258793Y0212847D02*
X0271700Y0212847D01*
X0271700Y0214045D02*
X0016300Y0214045D01*
X0016300Y0212847D02*
X0024407Y0212847D01*
X0024860Y0213300D02*
X0022400Y0210840D01*
X0022400Y0207360D01*
X0024200Y0205560D01*
X0024200Y0197640D01*
X0022400Y0195840D01*
X0022400Y0192360D01*
X0024860Y0189900D01*
X0028340Y0189900D01*
X0030800Y0192360D01*
X0030800Y0195840D01*
X0029000Y0197640D01*
X0029000Y0205560D01*
X0030800Y0207360D01*
X0030800Y0210840D01*
X0028340Y0213300D01*
X0024860Y0213300D01*
X0024860Y0214900D02*
X0028340Y0214900D01*
X0030800Y0217360D01*
X0030800Y0220840D01*
X0029000Y0222640D01*
X0029000Y0230560D01*
X0030800Y0232360D01*
X0030800Y0235840D01*
X0028340Y0238300D01*
X0024860Y0238300D01*
X0022400Y0235840D01*
X0022400Y0232360D01*
X0024200Y0230560D01*
X0024200Y0222640D01*
X0022400Y0220840D01*
X0022400Y0217360D01*
X0024860Y0214900D01*
X0024516Y0215244D02*
X0016300Y0215244D01*
X0016300Y0216442D02*
X0023318Y0216442D01*
X0022400Y0217641D02*
X0016300Y0217641D01*
X0016300Y0218839D02*
X0022400Y0218839D01*
X0022400Y0220038D02*
X0016300Y0220038D01*
X0016300Y0221237D02*
X0022797Y0221237D01*
X0023995Y0222435D02*
X0016300Y0222435D01*
X0016300Y0223634D02*
X0024200Y0223634D01*
X0024200Y0224832D02*
X0016300Y0224832D01*
X0016300Y0226031D02*
X0024200Y0226031D01*
X0024200Y0227229D02*
X0016300Y0227229D01*
X0016300Y0228428D02*
X0024200Y0228428D01*
X0024200Y0229626D02*
X0016300Y0229626D01*
X0016300Y0230825D02*
X0023936Y0230825D01*
X0022737Y0232023D02*
X0016300Y0232023D01*
X0016300Y0233222D02*
X0022400Y0233222D01*
X0022400Y0234420D02*
X0016300Y0234420D01*
X0016300Y0235619D02*
X0022400Y0235619D01*
X0023377Y0236817D02*
X0016300Y0236817D01*
X0016300Y0238016D02*
X0024576Y0238016D01*
X0024860Y0239900D02*
X0022400Y0242360D01*
X0022400Y0245840D01*
X0024860Y0248300D01*
X0028340Y0248300D01*
X0030140Y0246500D01*
X0052077Y0246500D01*
X0052959Y0246135D01*
X0053635Y0245459D01*
X0054000Y0244577D01*
X0054000Y0237640D01*
X0055800Y0235840D01*
X0055800Y0232360D01*
X0053340Y0229900D01*
X0049860Y0229900D01*
X0047400Y0232360D01*
X0047400Y0235840D01*
X0049200Y0237640D01*
X0049200Y0241700D01*
X0030140Y0241700D01*
X0028340Y0239900D01*
X0024860Y0239900D01*
X0024348Y0240413D02*
X0016300Y0240413D01*
X0016300Y0241611D02*
X0023149Y0241611D01*
X0022400Y0242810D02*
X0016300Y0242810D01*
X0016300Y0244008D02*
X0022400Y0244008D01*
X0022400Y0245207D02*
X0016300Y0245207D01*
X0016300Y0246405D02*
X0022966Y0246405D01*
X0024164Y0247604D02*
X0016300Y0247604D01*
X0016300Y0248802D02*
X0094200Y0248802D01*
X0094200Y0247604D02*
X0029036Y0247604D01*
X0030051Y0241611D02*
X0049200Y0241611D01*
X0049200Y0240413D02*
X0028852Y0240413D01*
X0028624Y0238016D02*
X0049200Y0238016D01*
X0049200Y0239214D02*
X0016300Y0239214D01*
X0011900Y0239214D02*
X0011500Y0239214D01*
X0011500Y0238016D02*
X0011900Y0238016D01*
X0011900Y0236817D02*
X0011500Y0236817D01*
X0011500Y0235619D02*
X0011900Y0235619D01*
X0011900Y0234420D02*
X0011500Y0234420D01*
X0011500Y0233222D02*
X0011900Y0233222D01*
X0011900Y0232023D02*
X0011500Y0232023D01*
X0011500Y0230825D02*
X0011900Y0230825D01*
X0011900Y0229626D02*
X0011500Y0229626D01*
X0011500Y0228428D02*
X0011900Y0228428D01*
X0011900Y0227229D02*
X0011500Y0227229D01*
X0011500Y0226031D02*
X0011900Y0226031D01*
X0011900Y0224832D02*
X0011500Y0224832D01*
X0011500Y0223634D02*
X0011900Y0223634D01*
X0011900Y0222435D02*
X0011500Y0222435D01*
X0011500Y0221237D02*
X0011900Y0221237D01*
X0011900Y0220038D02*
X0011500Y0220038D01*
X0011500Y0218839D02*
X0011900Y0218839D01*
X0011900Y0217641D02*
X0011500Y0217641D01*
X0011500Y0216442D02*
X0011900Y0216442D01*
X0011900Y0215244D02*
X0011500Y0215244D01*
X0011500Y0214045D02*
X0011900Y0214045D01*
X0011900Y0212847D02*
X0011500Y0212847D01*
X0011500Y0211648D02*
X0011900Y0211648D01*
X0011900Y0210450D02*
X0011500Y0210450D01*
X0011500Y0209251D02*
X0011900Y0209251D01*
X0011900Y0208053D02*
X0011500Y0208053D01*
X0011500Y0206854D02*
X0011900Y0206854D01*
X0011900Y0205656D02*
X0011500Y0205656D01*
X0011500Y0204457D02*
X0011900Y0204457D01*
X0011900Y0203259D02*
X0011500Y0203259D01*
X0011500Y0202060D02*
X0011900Y0202060D01*
X0011900Y0200862D02*
X0011500Y0200862D01*
X0011500Y0199663D02*
X0011900Y0199663D01*
X0011900Y0198465D02*
X0011500Y0198465D01*
X0011500Y0197266D02*
X0011900Y0197266D01*
X0011900Y0196068D02*
X0011500Y0196068D01*
X0011900Y0195689D02*
X0022400Y0185189D01*
X0022400Y0182360D01*
X0024860Y0179900D01*
X0028340Y0179900D01*
X0030800Y0182360D01*
X0030800Y0185840D01*
X0028340Y0188300D01*
X0025511Y0188300D01*
X0016300Y0197511D01*
X0016300Y0298189D01*
X0020011Y0301900D01*
X0068182Y0301900D01*
X0068600Y0301481D01*
X0069736Y0301011D01*
X0070964Y0301011D01*
X0072100Y0301481D01*
X0072969Y0302350D01*
X0073439Y0303486D01*
X0073439Y0304714D01*
X0072969Y0305850D01*
X0072100Y0306719D01*
X0070964Y0307189D01*
X0069736Y0307189D01*
X0068600Y0306719D01*
X0068182Y0306300D01*
X0018189Y0306300D01*
X0013189Y0301300D01*
X0011900Y0300011D01*
X0011900Y0195689D01*
X0011500Y0194869D02*
X0012719Y0194869D01*
X0013918Y0193671D02*
X0011500Y0193671D01*
X0011500Y0192472D02*
X0015116Y0192472D01*
X0016315Y0191274D02*
X0011500Y0191274D01*
X0011500Y0190075D02*
X0017514Y0190075D01*
X0018712Y0188877D02*
X0011500Y0188877D01*
X0011500Y0187678D02*
X0019911Y0187678D01*
X0021109Y0186480D02*
X0011500Y0186480D01*
X0011500Y0185281D02*
X0022308Y0185281D01*
X0022400Y0184083D02*
X0011500Y0184083D01*
X0011500Y0182884D02*
X0022400Y0182884D01*
X0023075Y0181686D02*
X0011500Y0181686D01*
X0011500Y0180487D02*
X0024273Y0180487D01*
X0026600Y0184100D02*
X0014100Y0196600D01*
X0014100Y0299100D01*
X0019100Y0304100D01*
X0070350Y0304100D01*
X0068212Y0306331D02*
X0011500Y0306331D01*
X0011500Y0307529D02*
X0101911Y0307529D01*
X0102068Y0307687D02*
X0101199Y0306818D01*
X0100729Y0305683D01*
X0100729Y0304454D01*
X0101199Y0303318D01*
X0101950Y0302568D01*
X0101481Y0302100D01*
X0101011Y0300964D01*
X0101011Y0299736D01*
X0101481Y0298600D01*
X0102350Y0297731D01*
X0103390Y0297301D01*
X0103243Y0296946D01*
X0103243Y0295717D01*
X0103566Y0294938D01*
X0102731Y0294104D01*
X0102261Y0292968D01*
X0102261Y0291739D01*
X0102731Y0290604D01*
X0103600Y0289735D01*
X0104507Y0289360D01*
X0104507Y0288231D01*
X0104977Y0287096D01*
X0105846Y0286227D01*
X0106981Y0285757D01*
X0108210Y0285757D01*
X0108649Y0285938D01*
X0108962Y0285625D01*
X0122141Y0285625D01*
X0122500Y0285266D01*
X0127725Y0285266D01*
X0128663Y0286203D01*
X0128663Y0288729D01*
X0128646Y0288746D01*
X0128663Y0288762D01*
X0128663Y0291288D01*
X0128646Y0291305D01*
X0128663Y0291322D01*
X0128663Y0293847D01*
X0128646Y0293864D01*
X0128663Y0293881D01*
X0128663Y0296406D01*
X0128646Y0296423D01*
X0128663Y0296440D01*
X0128663Y0298965D01*
X0128646Y0298982D01*
X0128663Y0298999D01*
X0128663Y0301524D01*
X0128646Y0301541D01*
X0128663Y0301558D01*
X0128663Y0304083D01*
X0128646Y0304100D01*
X0128663Y0304117D01*
X0128663Y0306642D01*
X0128646Y0306659D01*
X0128663Y0306676D01*
X0128663Y0308683D01*
X0130863Y0310883D01*
X0130863Y0314001D01*
X0131622Y0314761D01*
X0132214Y0314761D01*
X0133350Y0315231D01*
X0134219Y0316100D01*
X0134689Y0317236D01*
X0134689Y0318464D01*
X0134219Y0319600D01*
X0133350Y0320469D01*
X0132214Y0320939D01*
X0130986Y0320939D01*
X0129850Y0320469D01*
X0128981Y0319600D01*
X0128663Y0318830D01*
X0128663Y0319438D01*
X0128646Y0319454D01*
X0128663Y0319471D01*
X0128663Y0320950D01*
X0137261Y0320950D01*
X0137261Y0319736D01*
X0137731Y0318600D01*
X0138600Y0317731D01*
X0139736Y0317261D01*
X0140964Y0317261D01*
X0142100Y0317731D01*
X0142518Y0318150D01*
X0144537Y0318150D01*
X0144537Y0316912D01*
X0144554Y0316895D01*
X0144537Y0316878D01*
X0144537Y0314353D01*
X0144554Y0314336D01*
X0144537Y0314319D01*
X0144537Y0311794D01*
X0144554Y0311777D01*
X0144537Y0311760D01*
X0144537Y0309235D01*
X0144554Y0309218D01*
X0144537Y0309201D01*
X0144537Y0306676D01*
X0144554Y0306659D01*
X0144537Y0306642D01*
X0144537Y0304117D01*
X0144554Y0304100D01*
X0144537Y0304083D01*
X0144537Y0301558D01*
X0144554Y0301541D01*
X0144537Y0301524D01*
X0144537Y0298999D01*
X0144554Y0298982D01*
X0144537Y0298965D01*
X0144537Y0296440D01*
X0144554Y0296423D01*
X0144537Y0296406D01*
X0144537Y0293881D01*
X0144554Y0293864D01*
X0144537Y0293847D01*
X0144537Y0291322D01*
X0144554Y0291305D01*
X0144537Y0291288D01*
X0144537Y0288762D01*
X0144554Y0288746D01*
X0144537Y0288729D01*
X0144537Y0286203D01*
X0145475Y0285266D01*
X0151732Y0285266D01*
X0152587Y0284411D01*
X0163369Y0284411D01*
X0169969Y0291011D01*
X0170170Y0291011D01*
X0171306Y0291481D01*
X0172175Y0292350D01*
X0172645Y0293486D01*
X0172645Y0294714D01*
X0172175Y0295850D01*
X0171818Y0296207D01*
X0175311Y0299700D01*
X0195311Y0299700D01*
X0205711Y0310100D01*
X0210711Y0310100D01*
X0213886Y0313275D01*
X0214221Y0312939D01*
X0215765Y0312300D01*
X0217435Y0312300D01*
X0218979Y0312939D01*
X0220161Y0314121D01*
X0220800Y0315665D01*
X0220800Y0322535D01*
X0220161Y0324079D01*
X0218979Y0325261D01*
X0217435Y0325900D01*
X0215765Y0325900D01*
X0214221Y0325261D01*
X0213039Y0324079D01*
X0212400Y0322535D01*
X0212400Y0318011D01*
X0210800Y0316411D01*
X0210800Y0322535D01*
X0210161Y0324079D01*
X0208979Y0325261D01*
X0207435Y0325900D01*
X0205765Y0325900D01*
X0204221Y0325261D01*
X0203039Y0324079D01*
X0202400Y0322535D01*
X0202400Y0321300D01*
X0200800Y0321300D01*
X0200800Y0322535D01*
X0200161Y0324079D01*
X0198979Y0325261D01*
X0197435Y0325900D01*
X0195765Y0325900D01*
X0194221Y0325261D01*
X0193039Y0324079D01*
X0192400Y0322535D01*
X0192400Y0315665D01*
X0193039Y0314121D01*
X0193275Y0313886D01*
X0190689Y0311300D01*
X0186911Y0311300D01*
X0187511Y0311900D01*
X0188248Y0312636D01*
X0188979Y0312939D01*
X0190161Y0314121D01*
X0190800Y0315665D01*
X0190800Y0322535D01*
X0190161Y0324079D01*
X0188979Y0325261D01*
X0187435Y0325900D01*
X0185765Y0325900D01*
X0184221Y0325261D01*
X0183039Y0324079D01*
X0182400Y0322535D01*
X0182400Y0315665D01*
X0183039Y0314121D01*
X0183275Y0313886D01*
X0180689Y0311300D01*
X0165689Y0311300D01*
X0164400Y0310011D01*
X0161968Y0307580D01*
X0151637Y0307580D01*
X0151637Y0309201D01*
X0151621Y0309218D01*
X0151637Y0309235D01*
X0151637Y0310857D01*
X0154814Y0310857D01*
X0155231Y0309850D01*
X0156100Y0308981D01*
X0157236Y0308511D01*
X0158464Y0308511D01*
X0159600Y0308981D01*
X0160469Y0309850D01*
X0160939Y0310986D01*
X0160939Y0312214D01*
X0160469Y0313350D01*
X0159715Y0314104D01*
X0182511Y0336900D01*
X0182511Y0336900D01*
X0183800Y0338189D01*
X0183800Y0343500D01*
X0235530Y0343500D01*
X0248103Y0330928D01*
X0249678Y0329353D01*
X0250000Y0329219D01*
X0250000Y0328437D01*
X0250937Y0327500D01*
X0271700Y0327500D01*
X0271700Y0059450D01*
X0262200Y0059450D01*
X0262200Y0053450D01*
X0261000Y0053450D01*
X0261000Y0059450D01*
X0251389Y0059450D01*
X0250982Y0059341D01*
X0250618Y0059130D01*
X0250320Y0058832D01*
X0250109Y0058468D01*
X0250000Y0058061D01*
X0250000Y0053450D01*
X0261000Y0053450D01*
X0261000Y0052250D01*
X0262200Y0052250D01*
X0262200Y0046250D01*
X0271700Y0046250D01*
X0271700Y0041357D01*
X0270551Y0042506D01*
X0268155Y0043890D01*
X0265483Y0044605D01*
X0262717Y0044605D01*
X0260045Y0043890D01*
X0257649Y0042506D01*
X0255693Y0040551D01*
X0254310Y0038155D01*
X0253594Y0035483D01*
X0253594Y0032717D01*
X0254310Y0030045D01*
X0255693Y0027649D01*
X0257643Y0025700D01*
X0250937Y0025700D01*
X0250000Y0024763D01*
X0250000Y0024700D01*
X0140950Y0024700D01*
X0140950Y0025214D01*
X0140097Y0027272D01*
X0138522Y0028847D01*
X0136464Y0029700D01*
X0134236Y0029700D01*
X0132178Y0028847D01*
X0129353Y0026022D01*
X0128805Y0024700D01*
X0033200Y0024700D01*
X0033200Y0024763D01*
X0032263Y0025700D01*
X0025557Y0025700D01*
X0027506Y0027649D01*
X0028890Y0030045D01*
X0029605Y0032717D01*
X0029605Y0035483D01*
X0028890Y0038155D01*
X0027506Y0040551D01*
X0025551Y0042506D01*
X0023155Y0043890D01*
X0020483Y0044605D01*
X0017717Y0044605D01*
X0015045Y0043890D01*
X0012649Y0042506D01*
X0011500Y0041357D01*
X0011500Y0046250D01*
X0021000Y0046250D01*
X0021000Y0052250D01*
X0022200Y0052250D01*
X0022200Y0053450D01*
X0021000Y0053450D01*
X0021000Y0059450D01*
X0011500Y0059450D01*
X0011500Y0327500D01*
X0032263Y0327500D01*
X0033200Y0328437D01*
X0033200Y0328701D01*
X0034772Y0329353D01*
X0048920Y0343500D01*
X0179400Y0343500D01*
X0179400Y0340412D01*
X0179219Y0340850D01*
X0178350Y0341719D01*
X0177214Y0342189D01*
X0175986Y0342189D01*
X0174850Y0341719D01*
X0173981Y0340850D01*
X0173511Y0339714D01*
X0173511Y0339122D01*
X0154764Y0320375D01*
X0151637Y0320375D01*
X0151637Y0321997D01*
X0150700Y0322934D01*
X0150287Y0322934D01*
X0150287Y0323419D01*
X0150469Y0323600D01*
X0150939Y0324736D01*
X0150939Y0325964D01*
X0150551Y0326900D01*
X0154432Y0326900D01*
X0154850Y0326481D01*
X0155986Y0326011D01*
X0157214Y0326011D01*
X0158350Y0326481D01*
X0159219Y0327350D01*
X0159689Y0328486D01*
X0159689Y0329714D01*
X0159219Y0330850D01*
X0158350Y0331719D01*
X0157214Y0332189D01*
X0155986Y0332189D01*
X0154850Y0331719D01*
X0154432Y0331300D01*
X0145689Y0331300D01*
X0144517Y0330129D01*
X0144219Y0330850D01*
X0143350Y0331719D01*
X0142214Y0332189D01*
X0140986Y0332189D01*
X0139850Y0331719D01*
X0138981Y0330850D01*
X0138511Y0329714D01*
X0138511Y0329122D01*
X0136939Y0327550D01*
X0129301Y0327550D01*
X0129689Y0328486D01*
X0129689Y0329714D01*
X0129219Y0330850D01*
X0128350Y0331719D01*
X0127214Y0332189D01*
X0125986Y0332189D01*
X0124850Y0331719D01*
X0124432Y0331300D01*
X0115689Y0331300D01*
X0114517Y0330129D01*
X0114219Y0330850D01*
X0113350Y0331719D01*
X0112214Y0332189D01*
X0110986Y0332189D01*
X0109850Y0331719D01*
X0108981Y0330850D01*
X0108511Y0329714D01*
X0108511Y0328486D01*
X0108981Y0327350D01*
X0109143Y0327189D01*
X0108486Y0327189D01*
X0107350Y0326719D01*
X0106481Y0325850D01*
X0106404Y0325663D01*
X0105736Y0325939D01*
X0104508Y0325939D01*
X0103372Y0325469D01*
X0102503Y0324600D01*
X0102033Y0323464D01*
X0102033Y0322236D01*
X0102301Y0321590D01*
X0102061Y0321491D01*
X0101192Y0320622D01*
X0100722Y0319486D01*
X0100722Y0318258D01*
X0101192Y0317122D01*
X0102061Y0316253D01*
X0102500Y0316072D01*
X0102500Y0313866D01*
X0103579Y0312787D01*
X0103305Y0312673D01*
X0102436Y0311804D01*
X0101965Y0310669D01*
X0101965Y0309440D01*
X0102436Y0308305D01*
X0102765Y0307975D01*
X0102068Y0307687D01*
X0102260Y0308728D02*
X0011500Y0308728D01*
X0011500Y0309926D02*
X0101965Y0309926D01*
X0102154Y0311125D02*
X0011500Y0311125D01*
X0011500Y0312323D02*
X0102955Y0312323D01*
X0102844Y0313522D02*
X0011500Y0313522D01*
X0011500Y0314720D02*
X0102500Y0314720D01*
X0102500Y0315919D02*
X0011500Y0315919D01*
X0011500Y0317117D02*
X0101197Y0317117D01*
X0100722Y0318316D02*
X0011500Y0318316D01*
X0011500Y0319514D02*
X0100734Y0319514D01*
X0101283Y0320713D02*
X0011500Y0320713D01*
X0011500Y0321911D02*
X0102167Y0321911D01*
X0102033Y0323110D02*
X0011500Y0323110D01*
X0011500Y0324308D02*
X0102383Y0324308D01*
X0103465Y0325507D02*
X0011500Y0325507D01*
X0011500Y0326705D02*
X0107337Y0326705D01*
X0108752Y0327904D02*
X0032667Y0327904D01*
X0034169Y0329103D02*
X0108511Y0329103D01*
X0108754Y0330301D02*
X0035721Y0330301D01*
X0036919Y0331500D02*
X0109631Y0331500D01*
X0111600Y0329100D02*
X0111600Y0327850D01*
X0112850Y0326600D01*
X0112850Y0315961D01*
X0112877Y0315961D01*
X0115689Y0313150D01*
X0124606Y0313150D01*
X0124906Y0312850D01*
X0125113Y0313057D01*
X0124847Y0315350D02*
X0125113Y0315616D01*
X0124847Y0315350D02*
X0116600Y0315350D01*
X0115350Y0316600D01*
X0115350Y0327850D01*
X0116600Y0329100D01*
X0126600Y0329100D01*
X0129689Y0329103D02*
X0138491Y0329103D01*
X0138754Y0330301D02*
X0129446Y0330301D01*
X0128569Y0331500D02*
X0139631Y0331500D01*
X0141600Y0329100D02*
X0137850Y0325350D01*
X0117850Y0325350D01*
X0117850Y0319100D01*
X0118775Y0318175D01*
X0125113Y0318175D01*
X0125113Y0320734D02*
X0127529Y0323150D01*
X0138761Y0323150D01*
X0139711Y0324100D01*
X0141600Y0324100D01*
X0146600Y0329100D01*
X0156600Y0329100D01*
X0159689Y0329103D02*
X0163491Y0329103D01*
X0164690Y0330301D02*
X0159446Y0330301D01*
X0158569Y0331500D02*
X0165888Y0331500D01*
X0167087Y0332698D02*
X0038118Y0332698D01*
X0039316Y0333897D02*
X0168285Y0333897D01*
X0169484Y0335095D02*
X0040515Y0335095D01*
X0041713Y0336294D02*
X0170682Y0336294D01*
X0171881Y0337492D02*
X0042912Y0337492D01*
X0044110Y0338691D02*
X0173079Y0338691D01*
X0173583Y0339889D02*
X0045309Y0339889D01*
X0046507Y0341088D02*
X0174219Y0341088D01*
X0176600Y0339100D02*
X0155675Y0318175D01*
X0148087Y0318175D01*
X0147928Y0320575D02*
X0145675Y0320575D01*
X0145450Y0320350D01*
X0140350Y0320350D01*
X0138016Y0318316D02*
X0134689Y0318316D01*
X0134640Y0317117D02*
X0144537Y0317117D01*
X0144537Y0315919D02*
X0134037Y0315919D01*
X0131582Y0314720D02*
X0144537Y0314720D01*
X0144537Y0313522D02*
X0130863Y0313522D01*
X0130863Y0312323D02*
X0144537Y0312323D01*
X0144537Y0311125D02*
X0130863Y0311125D01*
X0129906Y0309926D02*
X0144537Y0309926D01*
X0144537Y0308728D02*
X0128708Y0308728D01*
X0128663Y0307529D02*
X0144537Y0307529D01*
X0144537Y0306331D02*
X0128663Y0306331D01*
X0128663Y0305132D02*
X0144537Y0305132D01*
X0144537Y0303934D02*
X0128663Y0303934D01*
X0128663Y0302735D02*
X0144537Y0302735D01*
X0144550Y0301537D02*
X0128650Y0301537D01*
X0128663Y0300338D02*
X0144537Y0300338D01*
X0144537Y0299140D02*
X0128663Y0299140D01*
X0128663Y0297941D02*
X0144537Y0297941D01*
X0144537Y0296743D02*
X0128663Y0296743D01*
X0128663Y0295544D02*
X0144537Y0295544D01*
X0144537Y0294346D02*
X0128663Y0294346D01*
X0128663Y0293147D02*
X0144537Y0293147D01*
X0144537Y0291949D02*
X0128663Y0291949D01*
X0128663Y0290750D02*
X0144537Y0290750D01*
X0144537Y0289552D02*
X0128663Y0289552D01*
X0128663Y0288353D02*
X0144537Y0288353D01*
X0144537Y0287155D02*
X0128663Y0287155D01*
X0128415Y0285956D02*
X0144785Y0285956D01*
X0148087Y0287466D02*
X0152643Y0287466D01*
X0153498Y0286611D01*
X0162457Y0286611D01*
X0168667Y0292820D01*
X0168667Y0293211D01*
X0169556Y0294100D01*
X0171773Y0291949D02*
X0172400Y0291949D01*
X0172400Y0292535D02*
X0172400Y0285665D01*
X0173039Y0284121D01*
X0174221Y0282939D01*
X0175765Y0282300D01*
X0177435Y0282300D01*
X0178979Y0282939D01*
X0180161Y0284121D01*
X0180800Y0285665D01*
X0180800Y0292535D01*
X0180161Y0294079D01*
X0178979Y0295261D01*
X0177435Y0295900D01*
X0175765Y0295900D01*
X0174221Y0295261D01*
X0173039Y0294079D01*
X0172400Y0292535D01*
X0172505Y0293147D02*
X0172653Y0293147D01*
X0172645Y0294346D02*
X0173306Y0294346D01*
X0172301Y0295544D02*
X0174906Y0295544D01*
X0173552Y0297941D02*
X0271700Y0297941D01*
X0271700Y0296743D02*
X0172354Y0296743D01*
X0170202Y0297702D02*
X0174400Y0301900D01*
X0194400Y0301900D01*
X0204830Y0312330D01*
X0204860Y0312300D01*
X0209800Y0312300D01*
X0216600Y0319100D01*
X0220800Y0319514D02*
X0222400Y0319514D01*
X0222400Y0318316D02*
X0220800Y0318316D01*
X0220800Y0317117D02*
X0222400Y0317117D01*
X0222400Y0315919D02*
X0220800Y0315919D01*
X0220409Y0314720D02*
X0222791Y0314720D01*
X0223039Y0314121D02*
X0224221Y0312939D01*
X0225765Y0312300D01*
X0227435Y0312300D01*
X0228979Y0312939D01*
X0230161Y0314121D01*
X0230800Y0315665D01*
X0230800Y0322535D01*
X0230161Y0324079D01*
X0228979Y0325261D01*
X0227435Y0325900D01*
X0225765Y0325900D01*
X0224221Y0325261D01*
X0223039Y0324079D01*
X0222400Y0322535D01*
X0222400Y0315665D01*
X0223039Y0314121D01*
X0223638Y0313522D02*
X0219562Y0313522D01*
X0217492Y0312323D02*
X0225708Y0312323D01*
X0227492Y0312323D02*
X0235708Y0312323D01*
X0235765Y0312300D02*
X0237435Y0312300D01*
X0238979Y0312939D01*
X0240161Y0314121D01*
X0240800Y0315665D01*
X0240800Y0322535D01*
X0240161Y0324079D01*
X0238979Y0325261D01*
X0237435Y0325900D01*
X0235765Y0325900D01*
X0234221Y0325261D01*
X0233039Y0324079D01*
X0232400Y0322535D01*
X0232400Y0315665D01*
X0233039Y0314121D01*
X0234221Y0312939D01*
X0235765Y0312300D01*
X0237492Y0312323D02*
X0245708Y0312323D01*
X0245765Y0312300D02*
X0247435Y0312300D01*
X0248979Y0312939D01*
X0250161Y0314121D01*
X0250800Y0315665D01*
X0250800Y0322535D01*
X0250161Y0324079D01*
X0248979Y0325261D01*
X0247435Y0325900D01*
X0245765Y0325900D01*
X0244221Y0325261D01*
X0243039Y0324079D01*
X0242400Y0322535D01*
X0242400Y0315665D01*
X0243039Y0314121D01*
X0244221Y0312939D01*
X0245765Y0312300D01*
X0247492Y0312323D02*
X0255708Y0312323D01*
X0255765Y0312300D02*
X0257435Y0312300D01*
X0258979Y0312939D01*
X0260161Y0314121D01*
X0260800Y0315665D01*
X0260800Y0322535D01*
X0260161Y0324079D01*
X0258979Y0325261D01*
X0257435Y0325900D01*
X0255765Y0325900D01*
X0254221Y0325261D01*
X0253039Y0324079D01*
X0252400Y0322535D01*
X0252400Y0315665D01*
X0253039Y0314121D01*
X0254221Y0312939D01*
X0255765Y0312300D01*
X0257492Y0312323D02*
X0271700Y0312323D01*
X0271700Y0311125D02*
X0211736Y0311125D01*
X0212935Y0312323D02*
X0215708Y0312323D01*
X0212400Y0318316D02*
X0210800Y0318316D01*
X0210800Y0319514D02*
X0212400Y0319514D01*
X0212400Y0320713D02*
X0210800Y0320713D01*
X0210800Y0321911D02*
X0212400Y0321911D01*
X0212638Y0323110D02*
X0210562Y0323110D01*
X0209931Y0324308D02*
X0213269Y0324308D01*
X0214816Y0325507D02*
X0208384Y0325507D01*
X0204816Y0325507D02*
X0198384Y0325507D01*
X0199931Y0324308D02*
X0203269Y0324308D01*
X0202638Y0323110D02*
X0200562Y0323110D01*
X0200800Y0321911D02*
X0202400Y0321911D01*
X0201600Y0319100D02*
X0200800Y0318300D01*
X0200800Y0314760D01*
X0190140Y0304100D01*
X0171600Y0304100D01*
X0167761Y0300261D01*
X0148087Y0300261D01*
X0148087Y0297702D02*
X0170202Y0297702D01*
X0174751Y0299140D02*
X0271700Y0299140D01*
X0271700Y0300338D02*
X0195950Y0300338D01*
X0197148Y0301537D02*
X0271700Y0301537D01*
X0271700Y0302735D02*
X0198347Y0302735D01*
X0199545Y0303934D02*
X0271700Y0303934D01*
X0271700Y0305132D02*
X0200744Y0305132D01*
X0201942Y0306331D02*
X0271700Y0306331D01*
X0271700Y0307529D02*
X0203141Y0307529D01*
X0204339Y0308728D02*
X0271700Y0308728D01*
X0271700Y0309926D02*
X0205538Y0309926D01*
X0210800Y0317117D02*
X0211506Y0317117D01*
X0206600Y0319100D02*
X0201600Y0319100D01*
X0196600Y0319100D02*
X0196600Y0314100D01*
X0191600Y0309100D01*
X0186600Y0309100D01*
X0184400Y0306900D01*
X0169400Y0306900D01*
X0165320Y0302820D01*
X0148087Y0302820D01*
X0148087Y0305380D02*
X0162880Y0305380D01*
X0166600Y0309100D01*
X0181600Y0309100D01*
X0186600Y0314100D01*
X0186600Y0319100D01*
X0182400Y0319514D02*
X0180800Y0319514D01*
X0180800Y0318316D02*
X0182400Y0318316D01*
X0182400Y0317117D02*
X0180800Y0317117D01*
X0180800Y0315919D02*
X0182400Y0315919D01*
X0182791Y0314720D02*
X0180409Y0314720D01*
X0180161Y0314121D02*
X0180800Y0315665D01*
X0180800Y0322535D01*
X0180161Y0324079D01*
X0178979Y0325261D01*
X0177435Y0325900D01*
X0175765Y0325900D01*
X0174221Y0325261D01*
X0173039Y0324079D01*
X0172400Y0322535D01*
X0172400Y0315665D01*
X0173039Y0314121D01*
X0174221Y0312939D01*
X0175765Y0312300D01*
X0177435Y0312300D01*
X0178979Y0312939D01*
X0180161Y0314121D01*
X0179562Y0313522D02*
X0182911Y0313522D01*
X0181712Y0312323D02*
X0177492Y0312323D01*
X0175708Y0312323D02*
X0160894Y0312323D01*
X0160939Y0311125D02*
X0165514Y0311125D01*
X0164315Y0309926D02*
X0160500Y0309926D01*
X0158988Y0308728D02*
X0163117Y0308728D01*
X0160297Y0313522D02*
X0173638Y0313522D01*
X0172791Y0314720D02*
X0160332Y0314720D01*
X0161530Y0315919D02*
X0172400Y0315919D01*
X0172400Y0317117D02*
X0162729Y0317117D01*
X0163927Y0318316D02*
X0172400Y0318316D01*
X0172400Y0319514D02*
X0165126Y0319514D01*
X0166324Y0320713D02*
X0172400Y0320713D01*
X0172400Y0321911D02*
X0167523Y0321911D01*
X0168721Y0323110D02*
X0172638Y0323110D01*
X0173269Y0324308D02*
X0169920Y0324308D01*
X0171118Y0325507D02*
X0174816Y0325507D01*
X0173515Y0327904D02*
X0250533Y0327904D01*
X0250000Y0329103D02*
X0174714Y0329103D01*
X0175912Y0330301D02*
X0248729Y0330301D01*
X0247531Y0331500D02*
X0177111Y0331500D01*
X0178309Y0332698D02*
X0246332Y0332698D01*
X0245134Y0333897D02*
X0179508Y0333897D01*
X0180706Y0335095D02*
X0243935Y0335095D01*
X0242737Y0336294D02*
X0181905Y0336294D01*
X0183103Y0337492D02*
X0241538Y0337492D01*
X0240340Y0338691D02*
X0183800Y0338691D01*
X0183800Y0339889D02*
X0239141Y0339889D01*
X0237943Y0341088D02*
X0183800Y0341088D01*
X0183800Y0342286D02*
X0236744Y0342286D01*
X0235546Y0343485D02*
X0183800Y0343485D01*
X0179400Y0343485D02*
X0048904Y0343485D01*
X0047706Y0342286D02*
X0179400Y0342286D01*
X0179400Y0341088D02*
X0178981Y0341088D01*
X0181600Y0339100D02*
X0181600Y0347850D01*
X0182850Y0349100D01*
X0181600Y0339100D02*
X0158116Y0315616D01*
X0148087Y0315616D01*
X0148087Y0313057D02*
X0156393Y0313057D01*
X0157850Y0311600D01*
X0156712Y0308728D02*
X0151637Y0308728D01*
X0151637Y0309926D02*
X0155200Y0309926D01*
X0148087Y0310498D02*
X0148087Y0307939D01*
X0148087Y0310498D02*
X0148087Y0313057D01*
X0147928Y0320575D02*
X0148087Y0320734D01*
X0148087Y0325113D01*
X0147850Y0325350D01*
X0150762Y0324308D02*
X0158697Y0324308D01*
X0157499Y0323110D02*
X0150287Y0323110D01*
X0151637Y0321911D02*
X0156300Y0321911D01*
X0155102Y0320713D02*
X0151637Y0320713D01*
X0150939Y0325507D02*
X0159896Y0325507D01*
X0161094Y0326705D02*
X0158574Y0326705D01*
X0159448Y0327904D02*
X0162293Y0327904D01*
X0154626Y0326705D02*
X0150632Y0326705D01*
X0154631Y0331500D02*
X0143569Y0331500D01*
X0144446Y0330301D02*
X0144690Y0330301D01*
X0137293Y0327904D02*
X0129448Y0327904D01*
X0124631Y0331500D02*
X0113569Y0331500D01*
X0114446Y0330301D02*
X0114690Y0330301D01*
X0109100Y0324100D02*
X0109100Y0316600D01*
X0116600Y0309100D01*
X0121697Y0309100D01*
X0122500Y0308298D01*
X0124754Y0308298D01*
X0125113Y0307939D01*
X0124754Y0305739D02*
X0116850Y0305739D01*
X0106900Y0315689D01*
X0106900Y0321300D01*
X0105350Y0322850D01*
X0105122Y0322850D01*
X0103811Y0318872D02*
X0104700Y0317983D01*
X0104700Y0314777D01*
X0116298Y0303180D01*
X0124754Y0303180D01*
X0125113Y0302820D01*
X0125024Y0300350D02*
X0125113Y0300261D01*
X0125024Y0300350D02*
X0115350Y0300350D01*
X0105646Y0310054D01*
X0105054Y0310054D01*
X0105075Y0305068D02*
X0103818Y0305068D01*
X0105075Y0305068D02*
X0112082Y0298061D01*
X0124754Y0298061D01*
X0125113Y0297702D01*
X0124754Y0295502D02*
X0111530Y0295502D01*
X0106682Y0300350D01*
X0104100Y0300350D01*
X0101248Y0301537D02*
X0072155Y0301537D01*
X0073128Y0302735D02*
X0101783Y0302735D01*
X0100945Y0303934D02*
X0073439Y0303934D01*
X0073266Y0305132D02*
X0100729Y0305132D01*
X0100998Y0306331D02*
X0072488Y0306331D01*
X0068545Y0301537D02*
X0019648Y0301537D01*
X0018450Y0300338D02*
X0101011Y0300338D01*
X0101258Y0299140D02*
X0017251Y0299140D01*
X0016300Y0297941D02*
X0102140Y0297941D01*
X0103243Y0296743D02*
X0016300Y0296743D01*
X0016300Y0295544D02*
X0103315Y0295544D01*
X0102973Y0294346D02*
X0016300Y0294346D01*
X0016300Y0293147D02*
X0102335Y0293147D01*
X0102261Y0291949D02*
X0016300Y0291949D01*
X0016300Y0290750D02*
X0102671Y0290750D01*
X0104043Y0289552D02*
X0016300Y0289552D01*
X0016300Y0288353D02*
X0104507Y0288353D01*
X0104953Y0287155D02*
X0016300Y0287155D01*
X0016300Y0285956D02*
X0106499Y0285956D01*
X0107596Y0288846D02*
X0108853Y0288846D01*
X0109873Y0287825D01*
X0124754Y0287825D01*
X0125113Y0287466D01*
X0125113Y0290025D02*
X0124754Y0290384D01*
X0110425Y0290384D01*
X0108456Y0292354D01*
X0105350Y0292354D01*
X0106332Y0296332D02*
X0107589Y0296332D01*
X0110978Y0292943D01*
X0124754Y0292943D01*
X0125113Y0292584D01*
X0125113Y0295143D02*
X0124754Y0295502D01*
X0125113Y0305380D02*
X0124754Y0305739D01*
X0125113Y0310498D02*
X0125265Y0310650D01*
X0127519Y0310650D01*
X0128663Y0311794D01*
X0128663Y0314913D01*
X0131600Y0317850D01*
X0130440Y0320713D02*
X0128663Y0320713D01*
X0128663Y0319514D02*
X0128946Y0319514D01*
X0132760Y0320713D02*
X0137261Y0320713D01*
X0137353Y0319514D02*
X0134254Y0319514D01*
X0148087Y0295143D02*
X0155557Y0295143D01*
X0156600Y0294100D01*
X0153747Y0292584D02*
X0155320Y0291011D01*
X0158511Y0291011D01*
X0161600Y0294100D01*
X0164689Y0293211D02*
X0164689Y0292820D01*
X0160680Y0288811D01*
X0154409Y0288811D01*
X0153195Y0290025D01*
X0148087Y0290025D01*
X0148087Y0292584D02*
X0153747Y0292584D01*
X0152240Y0284758D02*
X0016300Y0284758D01*
X0016300Y0283559D02*
X0173601Y0283559D01*
X0172776Y0284758D02*
X0163715Y0284758D01*
X0164914Y0285956D02*
X0172400Y0285956D01*
X0172400Y0287155D02*
X0166112Y0287155D01*
X0167311Y0288353D02*
X0172400Y0288353D01*
X0172400Y0289552D02*
X0168509Y0289552D01*
X0169708Y0290750D02*
X0172400Y0290750D01*
X0178294Y0295544D02*
X0184906Y0295544D01*
X0184221Y0295261D02*
X0183039Y0294079D01*
X0182400Y0292535D01*
X0182400Y0285665D01*
X0183039Y0284121D01*
X0184221Y0282939D01*
X0185765Y0282300D01*
X0187435Y0282300D01*
X0188979Y0282939D01*
X0190161Y0284121D01*
X0190800Y0285665D01*
X0190800Y0292535D01*
X0190161Y0294079D01*
X0188979Y0295261D01*
X0187435Y0295900D01*
X0185765Y0295900D01*
X0184221Y0295261D01*
X0183306Y0294346D02*
X0179894Y0294346D01*
X0180547Y0293147D02*
X0182653Y0293147D01*
X0182400Y0291949D02*
X0180800Y0291949D01*
X0180800Y0290750D02*
X0182400Y0290750D01*
X0182400Y0289552D02*
X0180800Y0289552D01*
X0180800Y0288353D02*
X0182400Y0288353D01*
X0182400Y0287155D02*
X0180800Y0287155D01*
X0180800Y0285956D02*
X0182400Y0285956D01*
X0182776Y0284758D02*
X0180424Y0284758D01*
X0179599Y0283559D02*
X0183601Y0283559D01*
X0185618Y0282361D02*
X0177582Y0282361D01*
X0175618Y0282361D02*
X0016300Y0282361D01*
X0016300Y0281162D02*
X0271700Y0281162D01*
X0271700Y0279964D02*
X0016300Y0279964D01*
X0016300Y0278765D02*
X0271700Y0278765D01*
X0271700Y0277567D02*
X0016300Y0277567D01*
X0016300Y0276368D02*
X0271700Y0276368D01*
X0271700Y0275170D02*
X0016300Y0275170D01*
X0016300Y0273971D02*
X0271700Y0273971D01*
X0271700Y0272772D02*
X0016300Y0272772D01*
X0016300Y0271574D02*
X0271700Y0271574D01*
X0271700Y0270375D02*
X0016300Y0270375D01*
X0016300Y0269177D02*
X0271700Y0269177D01*
X0271700Y0267978D02*
X0016300Y0267978D01*
X0016300Y0266780D02*
X0271700Y0266780D01*
X0271700Y0265581D02*
X0016300Y0265581D01*
X0016300Y0264383D02*
X0271700Y0264383D01*
X0271700Y0263184D02*
X0243455Y0263184D01*
X0243340Y0263300D02*
X0239860Y0263300D01*
X0237400Y0260840D01*
X0237400Y0257360D01*
X0239860Y0254900D01*
X0243340Y0254900D01*
X0245800Y0257360D01*
X0245800Y0260840D01*
X0243340Y0263300D01*
X0244654Y0261986D02*
X0271700Y0261986D01*
X0271700Y0260787D02*
X0245800Y0260787D01*
X0245800Y0259589D02*
X0271700Y0259589D01*
X0271700Y0258390D02*
X0245800Y0258390D01*
X0245632Y0257192D02*
X0271700Y0257192D01*
X0271700Y0255993D02*
X0244433Y0255993D01*
X0238767Y0255993D02*
X0234433Y0255993D01*
X0233340Y0254900D02*
X0229860Y0254900D01*
X0228060Y0256700D01*
X0220140Y0256700D01*
X0218340Y0254900D01*
X0216672Y0254900D01*
X0216709Y0254885D01*
X0216789Y0254805D01*
X0216888Y0254753D01*
X0217124Y0254470D01*
X0217385Y0254209D01*
X0217428Y0254106D01*
X0223419Y0246916D01*
X0231078Y0238300D01*
X0233340Y0238300D01*
X0235800Y0235840D01*
X0235800Y0232360D01*
X0233340Y0229900D01*
X0229860Y0229900D01*
X0227400Y0232360D01*
X0227400Y0235213D01*
X0220097Y0243428D01*
X0220062Y0243447D01*
X0219781Y0243784D01*
X0219489Y0244112D01*
X0219476Y0244150D01*
X0214226Y0250450D01*
X0186941Y0250450D01*
X0186809Y0250412D01*
X0186467Y0250450D01*
X0186123Y0250450D01*
X0185996Y0250502D01*
X0185860Y0250517D01*
X0185559Y0250684D01*
X0185241Y0250815D01*
X0185144Y0250912D01*
X0185024Y0250978D01*
X0184809Y0251247D01*
X0184565Y0251491D01*
X0184513Y0251617D01*
X0181887Y0254900D01*
X0179860Y0254900D01*
X0177400Y0257360D01*
X0177400Y0260840D01*
X0179860Y0263300D01*
X0183340Y0263300D01*
X0185800Y0260840D01*
X0185800Y0257692D01*
X0187753Y0255250D01*
X0189510Y0255250D01*
X0187400Y0257360D01*
X0187400Y0260840D01*
X0189860Y0263300D01*
X0193340Y0263300D01*
X0195140Y0261500D01*
X0203060Y0261500D01*
X0204860Y0263300D01*
X0208340Y0263300D01*
X0210800Y0260840D01*
X0210800Y0257360D01*
X0208690Y0255250D01*
X0214510Y0255250D01*
X0212400Y0257360D01*
X0212400Y0260840D01*
X0214860Y0263300D01*
X0218340Y0263300D01*
X0220140Y0261500D01*
X0228060Y0261500D01*
X0229860Y0263300D01*
X0233340Y0263300D01*
X0235800Y0260840D01*
X0235800Y0257360D01*
X0233340Y0254900D01*
X0235632Y0257192D02*
X0237568Y0257192D01*
X0237400Y0258390D02*
X0235800Y0258390D01*
X0235800Y0259589D02*
X0237400Y0259589D01*
X0237400Y0260787D02*
X0235800Y0260787D01*
X0234654Y0261986D02*
X0238546Y0261986D01*
X0239745Y0263184D02*
X0233455Y0263184D01*
X0229745Y0263184D02*
X0218455Y0263184D01*
X0219654Y0261986D02*
X0228546Y0261986D01*
X0228767Y0255993D02*
X0219433Y0255993D01*
X0217852Y0253596D02*
X0271700Y0253596D01*
X0271700Y0252398D02*
X0218851Y0252398D01*
X0219850Y0251199D02*
X0271700Y0251199D01*
X0271700Y0250001D02*
X0220848Y0250001D01*
X0221847Y0248802D02*
X0271700Y0248802D01*
X0271700Y0247604D02*
X0259036Y0247604D01*
X0258340Y0248300D02*
X0254860Y0248300D01*
X0252400Y0245840D01*
X0252400Y0242360D01*
X0254860Y0239900D01*
X0258340Y0239900D01*
X0260800Y0242360D01*
X0260800Y0245840D01*
X0258340Y0248300D01*
X0260234Y0246405D02*
X0271700Y0246405D01*
X0271700Y0245207D02*
X0260800Y0245207D01*
X0260800Y0244008D02*
X0271700Y0244008D01*
X0271700Y0242810D02*
X0260800Y0242810D01*
X0260051Y0241611D02*
X0271700Y0241611D01*
X0271700Y0240413D02*
X0258852Y0240413D01*
X0258340Y0238300D02*
X0254860Y0238300D01*
X0252400Y0235840D01*
X0252400Y0232360D01*
X0254200Y0230560D01*
X0254200Y0222640D01*
X0252400Y0220840D01*
X0252400Y0217360D01*
X0254860Y0214900D01*
X0258340Y0214900D01*
X0260800Y0217360D01*
X0260800Y0220840D01*
X0259000Y0222640D01*
X0259000Y0230560D01*
X0260800Y0232360D01*
X0260800Y0235840D01*
X0258340Y0238300D01*
X0258624Y0238016D02*
X0271700Y0238016D01*
X0271700Y0239214D02*
X0230265Y0239214D01*
X0229200Y0240413D02*
X0254348Y0240413D01*
X0253149Y0241611D02*
X0228134Y0241611D01*
X0227069Y0242810D02*
X0252400Y0242810D01*
X0252400Y0244008D02*
X0226004Y0244008D01*
X0224938Y0245207D02*
X0252400Y0245207D01*
X0252966Y0246405D02*
X0223873Y0246405D01*
X0222846Y0247604D02*
X0254164Y0247604D01*
X0254576Y0238016D02*
X0233624Y0238016D01*
X0234823Y0236817D02*
X0253377Y0236817D01*
X0252400Y0235619D02*
X0235800Y0235619D01*
X0235800Y0234420D02*
X0252400Y0234420D01*
X0252400Y0233222D02*
X0235800Y0233222D01*
X0235463Y0232023D02*
X0252737Y0232023D01*
X0253936Y0230825D02*
X0234264Y0230825D01*
X0228936Y0230825D02*
X0214264Y0230825D01*
X0213340Y0229900D02*
X0215800Y0232360D01*
X0215800Y0233900D01*
X0211800Y0233900D01*
X0211800Y0234300D01*
X0211400Y0234300D01*
X0211400Y0238300D01*
X0209860Y0238300D01*
X0207400Y0235840D01*
X0207400Y0234300D01*
X0211400Y0234300D01*
X0211400Y0233900D01*
X0207400Y0233900D01*
X0207400Y0232360D01*
X0209860Y0229900D01*
X0211400Y0229900D01*
X0211400Y0233900D01*
X0211800Y0233900D01*
X0211800Y0229900D01*
X0213340Y0229900D01*
X0211800Y0230825D02*
X0211400Y0230825D01*
X0211400Y0232023D02*
X0211800Y0232023D01*
X0211800Y0233222D02*
X0211400Y0233222D01*
X0211800Y0234300D02*
X0215800Y0234300D01*
X0215800Y0235840D01*
X0213340Y0238300D01*
X0211800Y0238300D01*
X0211800Y0234300D01*
X0211800Y0234420D02*
X0211400Y0234420D01*
X0211400Y0235619D02*
X0211800Y0235619D01*
X0211800Y0236817D02*
X0211400Y0236817D01*
X0211400Y0238016D02*
X0211800Y0238016D01*
X0213624Y0238016D02*
X0224908Y0238016D01*
X0223843Y0239214D02*
X0189880Y0239214D01*
X0190794Y0238300D02*
X0182959Y0246135D01*
X0182077Y0246500D01*
X0170140Y0246500D01*
X0168340Y0248300D01*
X0164860Y0248300D01*
X0162400Y0245840D01*
X0162400Y0242360D01*
X0164860Y0239900D01*
X0168340Y0239900D01*
X0170140Y0241700D01*
X0180606Y0241700D01*
X0187400Y0234906D01*
X0187400Y0232360D01*
X0189860Y0229900D01*
X0193340Y0229900D01*
X0195800Y0232360D01*
X0195800Y0235840D01*
X0193340Y0238300D01*
X0190794Y0238300D01*
X0193624Y0238016D02*
X0209576Y0238016D01*
X0208377Y0236817D02*
X0194823Y0236817D01*
X0195800Y0235619D02*
X0207400Y0235619D01*
X0207400Y0234420D02*
X0195800Y0234420D01*
X0195800Y0233222D02*
X0207400Y0233222D01*
X0207737Y0232023D02*
X0195463Y0232023D01*
X0194264Y0230825D02*
X0208936Y0230825D01*
X0214823Y0236817D02*
X0225974Y0236817D01*
X0227039Y0235619D02*
X0215800Y0235619D01*
X0215800Y0234420D02*
X0227400Y0234420D01*
X0227400Y0233222D02*
X0215800Y0233222D01*
X0215463Y0232023D02*
X0227737Y0232023D01*
X0222778Y0240413D02*
X0188681Y0240413D01*
X0187483Y0241611D02*
X0221712Y0241611D01*
X0220647Y0242810D02*
X0186284Y0242810D01*
X0185086Y0244008D02*
X0219582Y0244008D01*
X0218595Y0245207D02*
X0183887Y0245207D01*
X0182306Y0246405D02*
X0217597Y0246405D01*
X0216598Y0247604D02*
X0169036Y0247604D01*
X0164164Y0247604D02*
X0119036Y0247604D01*
X0118340Y0248300D02*
X0120800Y0245840D01*
X0120800Y0242360D01*
X0118340Y0239900D01*
X0114860Y0239900D01*
X0112400Y0242360D01*
X0112400Y0245840D01*
X0114860Y0248300D01*
X0118340Y0248300D01*
X0120234Y0246405D02*
X0162966Y0246405D01*
X0162400Y0245207D02*
X0120800Y0245207D01*
X0120800Y0244008D02*
X0162400Y0244008D01*
X0162400Y0242810D02*
X0120800Y0242810D01*
X0120051Y0241611D02*
X0163149Y0241611D01*
X0164348Y0240413D02*
X0118852Y0240413D01*
X0118340Y0238300D02*
X0114860Y0238300D01*
X0112400Y0235840D01*
X0112400Y0232360D01*
X0114200Y0230560D01*
X0114200Y0222640D01*
X0112400Y0220840D01*
X0112400Y0217360D01*
X0114860Y0214900D01*
X0118340Y0214900D01*
X0120800Y0217360D01*
X0120800Y0220840D01*
X0119000Y0222640D01*
X0119000Y0230560D01*
X0120800Y0232360D01*
X0120800Y0235840D01*
X0118340Y0238300D01*
X0118624Y0238016D02*
X0164576Y0238016D01*
X0164860Y0238300D02*
X0162400Y0235840D01*
X0162400Y0232360D01*
X0164200Y0230560D01*
X0164200Y0222640D01*
X0162400Y0220840D01*
X0162400Y0217360D01*
X0164860Y0214900D01*
X0168340Y0214900D01*
X0170800Y0217360D01*
X0170800Y0220840D01*
X0169000Y0222640D01*
X0169000Y0230560D01*
X0170800Y0232360D01*
X0170800Y0235840D01*
X0168340Y0238300D01*
X0164860Y0238300D01*
X0163377Y0236817D02*
X0119823Y0236817D01*
X0120800Y0235619D02*
X0162400Y0235619D01*
X0162400Y0234420D02*
X0120800Y0234420D01*
X0120800Y0233222D02*
X0162400Y0233222D01*
X0162737Y0232023D02*
X0120463Y0232023D01*
X0119264Y0230825D02*
X0163936Y0230825D01*
X0164200Y0229626D02*
X0119000Y0229626D01*
X0119000Y0228428D02*
X0164200Y0228428D01*
X0164200Y0227229D02*
X0119000Y0227229D01*
X0119000Y0226031D02*
X0164200Y0226031D01*
X0164200Y0224832D02*
X0119000Y0224832D01*
X0119000Y0223634D02*
X0164200Y0223634D01*
X0163995Y0222435D02*
X0119205Y0222435D01*
X0120403Y0221237D02*
X0162797Y0221237D01*
X0162400Y0220038D02*
X0120800Y0220038D01*
X0120800Y0218839D02*
X0162400Y0218839D01*
X0162400Y0217641D02*
X0120800Y0217641D01*
X0119882Y0216442D02*
X0163318Y0216442D01*
X0164516Y0215244D02*
X0118684Y0215244D01*
X0118340Y0213300D02*
X0114860Y0213300D01*
X0112400Y0210840D01*
X0112400Y0207360D01*
X0114200Y0205560D01*
X0114200Y0197640D01*
X0112400Y0195840D01*
X0112400Y0192360D01*
X0114860Y0189900D01*
X0118340Y0189900D01*
X0120800Y0192360D01*
X0120800Y0195840D01*
X0119000Y0197640D01*
X0119000Y0205560D01*
X0120800Y0207360D01*
X0120800Y0210840D01*
X0118340Y0213300D01*
X0118793Y0212847D02*
X0164407Y0212847D01*
X0163209Y0211648D02*
X0119991Y0211648D01*
X0120800Y0210450D02*
X0162400Y0210450D01*
X0162400Y0209251D02*
X0120800Y0209251D01*
X0120800Y0208053D02*
X0162400Y0208053D01*
X0162906Y0206854D02*
X0120294Y0206854D01*
X0119096Y0205656D02*
X0164104Y0205656D01*
X0164200Y0204457D02*
X0119000Y0204457D01*
X0119000Y0203259D02*
X0164200Y0203259D01*
X0164200Y0202060D02*
X0119000Y0202060D01*
X0119000Y0200862D02*
X0164200Y0200862D01*
X0164200Y0199663D02*
X0119000Y0199663D01*
X0119000Y0198465D02*
X0164200Y0198465D01*
X0163827Y0197266D02*
X0119373Y0197266D01*
X0120572Y0196068D02*
X0162628Y0196068D01*
X0162400Y0194869D02*
X0120800Y0194869D01*
X0120800Y0193671D02*
X0162400Y0193671D01*
X0162400Y0192472D02*
X0120800Y0192472D01*
X0119713Y0191274D02*
X0163487Y0191274D01*
X0164685Y0190075D02*
X0118515Y0190075D01*
X0118340Y0188300D02*
X0115794Y0188300D01*
X0112959Y0191135D01*
X0112077Y0191500D01*
X0097594Y0191500D01*
X0087959Y0201135D01*
X0087077Y0201500D01*
X0079940Y0201500D01*
X0080800Y0202360D01*
X0080800Y0205840D01*
X0078340Y0208300D01*
X0074860Y0208300D01*
X0072400Y0205840D01*
X0072400Y0202360D01*
X0074200Y0200560D01*
X0074200Y0198623D01*
X0074565Y0197741D01*
X0075241Y0197065D01*
X0076123Y0196700D01*
X0085606Y0196700D01*
X0094565Y0187741D01*
X0095241Y0187065D01*
X0096123Y0186700D01*
X0110606Y0186700D01*
X0112400Y0184906D01*
X0112400Y0182360D01*
X0114860Y0179900D01*
X0118340Y0179900D01*
X0120800Y0182360D01*
X0120800Y0185840D01*
X0118340Y0188300D01*
X0118961Y0187678D02*
X0164238Y0187678D01*
X0164860Y0188300D02*
X0162400Y0185840D01*
X0162400Y0182360D01*
X0164860Y0179900D01*
X0168340Y0179900D01*
X0170800Y0182360D01*
X0170800Y0185840D01*
X0168340Y0188300D01*
X0164860Y0188300D01*
X0163040Y0186480D02*
X0120160Y0186480D01*
X0120800Y0185281D02*
X0162400Y0185281D01*
X0162400Y0184083D02*
X0120800Y0184083D01*
X0120800Y0182884D02*
X0162400Y0182884D01*
X0163075Y0181686D02*
X0120125Y0181686D01*
X0118927Y0180487D02*
X0164273Y0180487D01*
X0168927Y0180487D02*
X0226819Y0180487D01*
X0228017Y0179289D02*
X0094805Y0179289D01*
X0093607Y0180487D02*
X0114273Y0180487D01*
X0113075Y0181686D02*
X0092408Y0181686D01*
X0091210Y0182884D02*
X0112400Y0182884D01*
X0112400Y0184083D02*
X0090011Y0184083D01*
X0089000Y0185094D02*
X0089000Y0185560D01*
X0090800Y0187360D01*
X0090800Y0190840D01*
X0088340Y0193300D01*
X0084860Y0193300D01*
X0082400Y0190840D01*
X0082400Y0187360D01*
X0084200Y0185560D01*
X0084200Y0183623D01*
X0084565Y0182741D01*
X0097400Y0169906D01*
X0097400Y0167360D01*
X0099860Y0164900D01*
X0103340Y0164900D01*
X0105800Y0167360D01*
X0105800Y0170840D01*
X0103340Y0173300D01*
X0100794Y0173300D01*
X0089000Y0185094D01*
X0089000Y0185281D02*
X0112025Y0185281D01*
X0110826Y0186480D02*
X0089919Y0186480D01*
X0090800Y0187678D02*
X0094628Y0187678D01*
X0093429Y0188877D02*
X0090800Y0188877D01*
X0090800Y0190075D02*
X0092231Y0190075D01*
X0091032Y0191274D02*
X0090366Y0191274D01*
X0089834Y0192472D02*
X0089167Y0192472D01*
X0088635Y0193671D02*
X0054282Y0193671D01*
X0054860Y0193300D02*
X0052400Y0190840D01*
X0052400Y0189300D01*
X0056400Y0189300D01*
X0056400Y0193300D01*
X0054860Y0193300D01*
X0054033Y0192472D02*
X0053083Y0192472D01*
X0052834Y0191274D02*
X0051885Y0191274D01*
X0052400Y0190075D02*
X0050686Y0190075D01*
X0049488Y0188877D02*
X0052400Y0188877D01*
X0052400Y0188900D02*
X0052400Y0187360D01*
X0054860Y0184900D01*
X0056400Y0184900D01*
X0056400Y0188900D01*
X0056800Y0188900D01*
X0056800Y0189300D01*
X0060800Y0189300D01*
X0060800Y0190840D01*
X0058340Y0193300D01*
X0056800Y0193300D01*
X0056800Y0189300D01*
X0056400Y0189300D01*
X0056400Y0188900D01*
X0052400Y0188900D01*
X0052400Y0187678D02*
X0048289Y0187678D01*
X0047091Y0186480D02*
X0053281Y0186480D01*
X0054479Y0185281D02*
X0045892Y0185281D01*
X0044694Y0184083D02*
X0084200Y0184083D01*
X0084200Y0185281D02*
X0058721Y0185281D01*
X0058340Y0184900D02*
X0060800Y0187360D01*
X0060800Y0188900D01*
X0056800Y0188900D01*
X0056800Y0184900D01*
X0058340Y0184900D01*
X0056800Y0185281D02*
X0056400Y0185281D01*
X0056400Y0186480D02*
X0056800Y0186480D01*
X0056800Y0187678D02*
X0056400Y0187678D01*
X0056400Y0188877D02*
X0056800Y0188877D01*
X0056800Y0190075D02*
X0056400Y0190075D01*
X0056400Y0191274D02*
X0056800Y0191274D01*
X0056800Y0192472D02*
X0056400Y0192472D01*
X0056974Y0194869D02*
X0055481Y0194869D01*
X0058726Y0194869D02*
X0087437Y0194869D01*
X0086238Y0196068D02*
X0060436Y0196068D01*
X0060939Y0197266D02*
X0075040Y0197266D01*
X0074265Y0198465D02*
X0060939Y0198465D01*
X0060405Y0199663D02*
X0074200Y0199663D01*
X0073898Y0200862D02*
X0058651Y0200862D01*
X0057049Y0200862D02*
X0054302Y0200862D01*
X0054052Y0199663D02*
X0029000Y0199663D01*
X0029000Y0198465D02*
X0052854Y0198465D01*
X0053340Y0199900D02*
X0055800Y0202360D01*
X0055800Y0203900D01*
X0051800Y0203900D01*
X0051800Y0204300D01*
X0051400Y0204300D01*
X0051400Y0208300D01*
X0049860Y0208300D01*
X0047400Y0205840D01*
X0047400Y0204300D01*
X0051400Y0204300D01*
X0051400Y0203900D01*
X0047400Y0203900D01*
X0047400Y0202360D01*
X0049860Y0199900D01*
X0051400Y0199900D01*
X0051400Y0203900D01*
X0051800Y0203900D01*
X0051800Y0199900D01*
X0053340Y0199900D01*
X0051800Y0200862D02*
X0051400Y0200862D01*
X0051400Y0202060D02*
X0051800Y0202060D01*
X0051800Y0203259D02*
X0051400Y0203259D01*
X0051800Y0204300D02*
X0055800Y0204300D01*
X0055800Y0205840D01*
X0053340Y0208300D01*
X0051800Y0208300D01*
X0051800Y0204300D01*
X0051800Y0204457D02*
X0051400Y0204457D01*
X0051400Y0205656D02*
X0051800Y0205656D01*
X0051800Y0206854D02*
X0051400Y0206854D01*
X0051400Y0208053D02*
X0051800Y0208053D01*
X0053587Y0208053D02*
X0074613Y0208053D01*
X0073415Y0206854D02*
X0054785Y0206854D01*
X0055800Y0205656D02*
X0072400Y0205656D01*
X0072400Y0204457D02*
X0055800Y0204457D01*
X0055800Y0203259D02*
X0072400Y0203259D01*
X0072700Y0202060D02*
X0055500Y0202060D01*
X0051655Y0197266D02*
X0029373Y0197266D01*
X0030572Y0196068D02*
X0050456Y0196068D01*
X0049258Y0194869D02*
X0030800Y0194869D01*
X0030800Y0193671D02*
X0048059Y0193671D01*
X0046861Y0192472D02*
X0030800Y0192472D01*
X0029713Y0191274D02*
X0045662Y0191274D01*
X0044464Y0190075D02*
X0028515Y0190075D01*
X0028961Y0187678D02*
X0042067Y0187678D01*
X0040868Y0186480D02*
X0030160Y0186480D01*
X0030800Y0185281D02*
X0039670Y0185281D01*
X0039400Y0184083D02*
X0030800Y0184083D01*
X0030800Y0182884D02*
X0039400Y0182884D01*
X0039400Y0181686D02*
X0030125Y0181686D01*
X0028927Y0180487D02*
X0039400Y0180487D01*
X0039400Y0179289D02*
X0011500Y0179289D01*
X0011500Y0178090D02*
X0039400Y0178090D01*
X0039400Y0176892D02*
X0011500Y0176892D01*
X0011500Y0175693D02*
X0039400Y0175693D01*
X0039400Y0174495D02*
X0011500Y0174495D01*
X0011500Y0173296D02*
X0039400Y0173296D01*
X0038658Y0172098D02*
X0011500Y0172098D01*
X0011500Y0170899D02*
X0037459Y0170899D01*
X0037400Y0169701D02*
X0011500Y0169701D01*
X0011500Y0168502D02*
X0037400Y0168502D01*
X0037457Y0167303D02*
X0011500Y0167303D01*
X0011500Y0166105D02*
X0038655Y0166105D01*
X0043800Y0174495D02*
X0092811Y0174495D01*
X0093340Y0173300D02*
X0089860Y0173300D01*
X0088060Y0171500D01*
X0080140Y0171500D01*
X0078340Y0173300D01*
X0074860Y0173300D01*
X0072400Y0170840D01*
X0072400Y0167360D01*
X0074860Y0164900D01*
X0078340Y0164900D01*
X0080140Y0166700D01*
X0088060Y0166700D01*
X0089860Y0164900D01*
X0093340Y0164900D01*
X0095800Y0167360D01*
X0095800Y0170840D01*
X0093340Y0173300D01*
X0093344Y0173296D02*
X0094010Y0173296D01*
X0094542Y0172098D02*
X0095208Y0172098D01*
X0095741Y0170899D02*
X0096407Y0170899D01*
X0095800Y0169701D02*
X0097400Y0169701D01*
X0097400Y0168502D02*
X0095800Y0168502D01*
X0095743Y0167303D02*
X0097457Y0167303D01*
X0098655Y0166105D02*
X0094545Y0166105D01*
X0093346Y0164906D02*
X0099854Y0164906D01*
X0103346Y0164906D02*
X0179854Y0164906D01*
X0179860Y0164900D02*
X0183340Y0164900D01*
X0185800Y0167360D01*
X0185800Y0170840D01*
X0183340Y0173300D01*
X0179860Y0173300D01*
X0178060Y0171500D01*
X0173568Y0171500D01*
X0173350Y0171719D01*
X0172214Y0172189D01*
X0170986Y0172189D01*
X0169850Y0171719D01*
X0168981Y0170850D01*
X0168511Y0169714D01*
X0168511Y0168486D01*
X0168981Y0167350D01*
X0169850Y0166481D01*
X0170986Y0166011D01*
X0172214Y0166011D01*
X0173350Y0166481D01*
X0173568Y0166700D01*
X0178060Y0166700D01*
X0179860Y0164900D01*
X0178655Y0166105D02*
X0172441Y0166105D01*
X0170759Y0166105D02*
X0104545Y0166105D01*
X0105743Y0167303D02*
X0169028Y0167303D01*
X0168511Y0168502D02*
X0105800Y0168502D01*
X0105800Y0169701D02*
X0168511Y0169701D01*
X0169031Y0170899D02*
X0105741Y0170899D01*
X0104542Y0172098D02*
X0170765Y0172098D01*
X0172435Y0172098D02*
X0178658Y0172098D01*
X0179856Y0173296D02*
X0103344Y0173296D01*
X0099600Y0174495D02*
X0232811Y0174495D01*
X0233340Y0173300D02*
X0229860Y0173300D01*
X0228060Y0171500D01*
X0220140Y0171500D01*
X0218340Y0173300D01*
X0214860Y0173300D01*
X0212400Y0170840D01*
X0212400Y0167360D01*
X0214860Y0164900D01*
X0218340Y0164900D01*
X0220140Y0166700D01*
X0228060Y0166700D01*
X0229860Y0164900D01*
X0233340Y0164900D01*
X0235800Y0167360D01*
X0235800Y0170840D01*
X0233340Y0173300D01*
X0233344Y0173296D02*
X0234010Y0173296D01*
X0234542Y0172098D02*
X0235208Y0172098D01*
X0235741Y0170899D02*
X0236407Y0170899D01*
X0235800Y0169701D02*
X0237400Y0169701D01*
X0237400Y0168502D02*
X0235800Y0168502D01*
X0235743Y0167303D02*
X0237457Y0167303D01*
X0238655Y0166105D02*
X0234545Y0166105D01*
X0233346Y0164906D02*
X0239854Y0164906D01*
X0229854Y0164906D02*
X0218346Y0164906D01*
X0219545Y0166105D02*
X0228655Y0166105D01*
X0228658Y0172098D02*
X0219542Y0172098D01*
X0218344Y0173296D02*
X0229856Y0173296D01*
X0231613Y0175693D02*
X0098401Y0175693D01*
X0097203Y0176892D02*
X0230414Y0176892D01*
X0229216Y0178090D02*
X0096004Y0178090D01*
X0091613Y0175693D02*
X0043800Y0175693D01*
X0043800Y0176892D02*
X0090414Y0176892D01*
X0089216Y0178090D02*
X0043800Y0178090D01*
X0043800Y0179289D02*
X0088017Y0179289D01*
X0086819Y0180487D02*
X0043800Y0180487D01*
X0043800Y0181686D02*
X0085620Y0181686D01*
X0084506Y0182884D02*
X0043800Y0182884D01*
X0043265Y0188877D02*
X0024935Y0188877D01*
X0024685Y0190075D02*
X0023736Y0190075D01*
X0023487Y0191274D02*
X0022538Y0191274D01*
X0022400Y0192472D02*
X0021339Y0192472D01*
X0022400Y0193671D02*
X0020141Y0193671D01*
X0018942Y0194869D02*
X0022400Y0194869D01*
X0022628Y0196068D02*
X0017743Y0196068D01*
X0016545Y0197266D02*
X0023827Y0197266D01*
X0024200Y0198465D02*
X0016300Y0198465D01*
X0016300Y0199663D02*
X0024200Y0199663D01*
X0024200Y0200862D02*
X0016300Y0200862D01*
X0016300Y0202060D02*
X0024200Y0202060D01*
X0024200Y0203259D02*
X0016300Y0203259D01*
X0016300Y0204457D02*
X0024200Y0204457D01*
X0024104Y0205656D02*
X0016300Y0205656D01*
X0016300Y0206854D02*
X0022906Y0206854D01*
X0022400Y0208053D02*
X0016300Y0208053D01*
X0016300Y0209251D02*
X0022400Y0209251D01*
X0022400Y0210450D02*
X0016300Y0210450D01*
X0016300Y0211648D02*
X0023209Y0211648D01*
X0028793Y0212847D02*
X0114407Y0212847D01*
X0113209Y0211648D02*
X0029991Y0211648D01*
X0030800Y0210450D02*
X0112400Y0210450D01*
X0112400Y0209251D02*
X0030800Y0209251D01*
X0030800Y0208053D02*
X0049613Y0208053D01*
X0048415Y0206854D02*
X0030294Y0206854D01*
X0029096Y0205656D02*
X0047400Y0205656D01*
X0047400Y0204457D02*
X0029000Y0204457D01*
X0029000Y0203259D02*
X0047400Y0203259D01*
X0047700Y0202060D02*
X0029000Y0202060D01*
X0029000Y0200862D02*
X0048898Y0200862D01*
X0059167Y0192472D02*
X0084033Y0192472D01*
X0082834Y0191274D02*
X0060366Y0191274D01*
X0060800Y0190075D02*
X0082400Y0190075D01*
X0082400Y0188877D02*
X0060800Y0188877D01*
X0060800Y0187678D02*
X0082400Y0187678D01*
X0083281Y0186480D02*
X0059919Y0186480D01*
X0068344Y0173296D02*
X0074856Y0173296D01*
X0073658Y0172098D02*
X0069542Y0172098D01*
X0070741Y0170899D02*
X0072459Y0170899D01*
X0072400Y0169701D02*
X0070800Y0169701D01*
X0070800Y0168502D02*
X0072400Y0168502D01*
X0072457Y0167303D02*
X0070743Y0167303D01*
X0069545Y0166105D02*
X0073655Y0166105D01*
X0074854Y0164906D02*
X0068346Y0164906D01*
X0078346Y0164906D02*
X0089854Y0164906D01*
X0088655Y0166105D02*
X0079545Y0166105D01*
X0079542Y0172098D02*
X0088658Y0172098D01*
X0089856Y0173296D02*
X0078344Y0173296D01*
X0095423Y0193671D02*
X0112400Y0193671D01*
X0112400Y0194869D02*
X0094225Y0194869D01*
X0093026Y0196068D02*
X0112628Y0196068D01*
X0113827Y0197266D02*
X0091828Y0197266D01*
X0090629Y0198465D02*
X0114200Y0198465D01*
X0114200Y0199663D02*
X0089431Y0199663D01*
X0088232Y0200862D02*
X0093898Y0200862D01*
X0094860Y0199900D02*
X0092400Y0202360D01*
X0092400Y0203900D01*
X0096400Y0203900D01*
X0096400Y0204300D01*
X0096400Y0208300D01*
X0094860Y0208300D01*
X0092400Y0205840D01*
X0092400Y0204300D01*
X0096400Y0204300D01*
X0096800Y0204300D01*
X0096800Y0208300D01*
X0098340Y0208300D01*
X0100800Y0205840D01*
X0100800Y0204300D01*
X0096800Y0204300D01*
X0096800Y0203900D01*
X0100800Y0203900D01*
X0100800Y0202360D01*
X0098340Y0199900D01*
X0096800Y0199900D01*
X0096800Y0203900D01*
X0096400Y0203900D01*
X0096400Y0199900D01*
X0094860Y0199900D01*
X0096400Y0200862D02*
X0096800Y0200862D01*
X0096800Y0202060D02*
X0096400Y0202060D01*
X0096400Y0203259D02*
X0096800Y0203259D01*
X0096800Y0204457D02*
X0096400Y0204457D01*
X0096400Y0205656D02*
X0096800Y0205656D01*
X0096800Y0206854D02*
X0096400Y0206854D01*
X0096400Y0208053D02*
X0096800Y0208053D01*
X0098587Y0208053D02*
X0112400Y0208053D01*
X0112906Y0206854D02*
X0099785Y0206854D01*
X0100800Y0205656D02*
X0114104Y0205656D01*
X0114200Y0204457D02*
X0100800Y0204457D01*
X0100800Y0203259D02*
X0114200Y0203259D01*
X0114200Y0202060D02*
X0100500Y0202060D01*
X0099302Y0200862D02*
X0114200Y0200862D01*
X0112400Y0192472D02*
X0096622Y0192472D01*
X0092700Y0202060D02*
X0080500Y0202060D01*
X0080800Y0203259D02*
X0092400Y0203259D01*
X0092400Y0204457D02*
X0080800Y0204457D01*
X0080800Y0205656D02*
X0092400Y0205656D01*
X0093415Y0206854D02*
X0079785Y0206854D01*
X0078587Y0208053D02*
X0094613Y0208053D01*
X0112400Y0217641D02*
X0030800Y0217641D01*
X0030800Y0218839D02*
X0112400Y0218839D01*
X0112400Y0220038D02*
X0030800Y0220038D01*
X0030403Y0221237D02*
X0112797Y0221237D01*
X0113995Y0222435D02*
X0029205Y0222435D01*
X0029000Y0223634D02*
X0114200Y0223634D01*
X0114200Y0224832D02*
X0029000Y0224832D01*
X0029000Y0226031D02*
X0114200Y0226031D01*
X0114200Y0227229D02*
X0029000Y0227229D01*
X0029000Y0228428D02*
X0114200Y0228428D01*
X0114200Y0229626D02*
X0029000Y0229626D01*
X0029264Y0230825D02*
X0048936Y0230825D01*
X0047737Y0232023D02*
X0030463Y0232023D01*
X0030800Y0233222D02*
X0047400Y0233222D01*
X0047400Y0234420D02*
X0030800Y0234420D01*
X0030800Y0235619D02*
X0047400Y0235619D01*
X0048377Y0236817D02*
X0029823Y0236817D01*
X0039860Y0254900D02*
X0043340Y0254900D01*
X0045800Y0257360D01*
X0045800Y0260840D01*
X0043340Y0263300D01*
X0039860Y0263300D01*
X0037400Y0260840D01*
X0037400Y0257360D01*
X0039860Y0254900D01*
X0038767Y0255993D02*
X0016300Y0255993D01*
X0016300Y0254795D02*
X0094290Y0254795D01*
X0094200Y0254577D02*
X0094200Y0237640D01*
X0092400Y0235840D01*
X0092400Y0232360D01*
X0094860Y0229900D01*
X0098340Y0229900D01*
X0100800Y0232360D01*
X0100800Y0235840D01*
X0099000Y0237640D01*
X0099000Y0253106D01*
X0100794Y0254900D01*
X0103340Y0254900D01*
X0105800Y0257360D01*
X0105800Y0260840D01*
X0103340Y0263300D01*
X0099860Y0263300D01*
X0097400Y0260840D01*
X0097400Y0258294D01*
X0094565Y0255459D01*
X0094200Y0254577D01*
X0093340Y0254900D02*
X0095800Y0257360D01*
X0095800Y0260840D01*
X0093340Y0263300D01*
X0089860Y0263300D01*
X0088060Y0261500D01*
X0080140Y0261500D01*
X0078340Y0263300D01*
X0074860Y0263300D01*
X0072400Y0260840D01*
X0072400Y0257360D01*
X0074860Y0254900D01*
X0078340Y0254900D01*
X0080140Y0256700D01*
X0088060Y0256700D01*
X0089860Y0254900D01*
X0093340Y0254900D01*
X0094433Y0255993D02*
X0095099Y0255993D01*
X0095632Y0257192D02*
X0096298Y0257192D01*
X0095800Y0258390D02*
X0097400Y0258390D01*
X0097400Y0259589D02*
X0095800Y0259589D01*
X0095800Y0260787D02*
X0097400Y0260787D01*
X0098546Y0261986D02*
X0094654Y0261986D01*
X0093455Y0263184D02*
X0099745Y0263184D01*
X0103455Y0263184D02*
X0179745Y0263184D01*
X0178546Y0261986D02*
X0104654Y0261986D01*
X0105800Y0260787D02*
X0177400Y0260787D01*
X0177400Y0259589D02*
X0105800Y0259589D01*
X0105800Y0258390D02*
X0177400Y0258390D01*
X0177568Y0257192D02*
X0105632Y0257192D01*
X0104433Y0255993D02*
X0178767Y0255993D01*
X0181971Y0254795D02*
X0100689Y0254795D01*
X0099490Y0253596D02*
X0182929Y0253596D01*
X0183888Y0252398D02*
X0099000Y0252398D01*
X0099000Y0251199D02*
X0184847Y0251199D01*
X0187159Y0255993D02*
X0188767Y0255993D01*
X0187568Y0257192D02*
X0186200Y0257192D01*
X0185800Y0258390D02*
X0187400Y0258390D01*
X0187400Y0259589D02*
X0185800Y0259589D01*
X0185800Y0260787D02*
X0187400Y0260787D01*
X0188546Y0261986D02*
X0184654Y0261986D01*
X0183455Y0263184D02*
X0189745Y0263184D01*
X0193455Y0263184D02*
X0204745Y0263184D01*
X0203546Y0261986D02*
X0194654Y0261986D01*
X0208455Y0263184D02*
X0214745Y0263184D01*
X0213546Y0261986D02*
X0209654Y0261986D01*
X0210800Y0260787D02*
X0212400Y0260787D01*
X0212400Y0259589D02*
X0210800Y0259589D01*
X0210800Y0258390D02*
X0212400Y0258390D01*
X0212568Y0257192D02*
X0210632Y0257192D01*
X0209433Y0255993D02*
X0213767Y0255993D01*
X0216809Y0254795D02*
X0271700Y0254795D01*
X0271700Y0236817D02*
X0259823Y0236817D01*
X0260800Y0235619D02*
X0271700Y0235619D01*
X0271700Y0234420D02*
X0260800Y0234420D01*
X0260800Y0233222D02*
X0271700Y0233222D01*
X0271700Y0232023D02*
X0260463Y0232023D01*
X0259264Y0230825D02*
X0271700Y0230825D01*
X0271700Y0229626D02*
X0259000Y0229626D01*
X0259000Y0228428D02*
X0271700Y0228428D01*
X0271700Y0227229D02*
X0259000Y0227229D01*
X0259000Y0226031D02*
X0271700Y0226031D01*
X0271700Y0224832D02*
X0259000Y0224832D01*
X0259000Y0223634D02*
X0271700Y0223634D01*
X0271700Y0222435D02*
X0259205Y0222435D01*
X0260403Y0221237D02*
X0271700Y0221237D01*
X0271700Y0220038D02*
X0260800Y0220038D01*
X0260800Y0218839D02*
X0271700Y0218839D01*
X0271700Y0217641D02*
X0260800Y0217641D01*
X0259882Y0216442D02*
X0271700Y0216442D01*
X0271700Y0215244D02*
X0258684Y0215244D01*
X0254516Y0215244D02*
X0168684Y0215244D01*
X0169882Y0216442D02*
X0253318Y0216442D01*
X0252400Y0217641D02*
X0170800Y0217641D01*
X0170800Y0218839D02*
X0252400Y0218839D01*
X0252400Y0220038D02*
X0170800Y0220038D01*
X0170403Y0221237D02*
X0252797Y0221237D01*
X0253995Y0222435D02*
X0169205Y0222435D01*
X0169000Y0223634D02*
X0254200Y0223634D01*
X0254200Y0224832D02*
X0169000Y0224832D01*
X0169000Y0226031D02*
X0254200Y0226031D01*
X0254200Y0227229D02*
X0169000Y0227229D01*
X0169000Y0228428D02*
X0254200Y0228428D01*
X0254200Y0229626D02*
X0169000Y0229626D01*
X0169264Y0230825D02*
X0188936Y0230825D01*
X0187737Y0232023D02*
X0170463Y0232023D01*
X0170800Y0233222D02*
X0187400Y0233222D01*
X0187400Y0234420D02*
X0170800Y0234420D01*
X0170800Y0235619D02*
X0186687Y0235619D01*
X0185489Y0236817D02*
X0169823Y0236817D01*
X0168624Y0238016D02*
X0184290Y0238016D01*
X0183092Y0239214D02*
X0099000Y0239214D01*
X0099000Y0238016D02*
X0114576Y0238016D01*
X0113377Y0236817D02*
X0099823Y0236817D01*
X0100800Y0235619D02*
X0112400Y0235619D01*
X0112400Y0234420D02*
X0100800Y0234420D01*
X0100800Y0233222D02*
X0112400Y0233222D01*
X0112737Y0232023D02*
X0100463Y0232023D01*
X0099264Y0230825D02*
X0113936Y0230825D01*
X0114348Y0240413D02*
X0099000Y0240413D01*
X0099000Y0241611D02*
X0113149Y0241611D01*
X0112400Y0242810D02*
X0099000Y0242810D01*
X0099000Y0244008D02*
X0112400Y0244008D01*
X0112400Y0245207D02*
X0099000Y0245207D01*
X0099000Y0246405D02*
X0112966Y0246405D01*
X0114164Y0247604D02*
X0099000Y0247604D01*
X0099000Y0248802D02*
X0215599Y0248802D01*
X0214600Y0250001D02*
X0099000Y0250001D01*
X0094200Y0250001D02*
X0016300Y0250001D01*
X0016300Y0251199D02*
X0094200Y0251199D01*
X0094200Y0252398D02*
X0016300Y0252398D01*
X0016300Y0253596D02*
X0094200Y0253596D01*
X0088767Y0255993D02*
X0079433Y0255993D01*
X0079654Y0261986D02*
X0088546Y0261986D01*
X0089745Y0263184D02*
X0078455Y0263184D01*
X0074745Y0263184D02*
X0068455Y0263184D01*
X0068340Y0263300D02*
X0064860Y0263300D01*
X0063060Y0261500D01*
X0055140Y0261500D01*
X0053340Y0263300D01*
X0049860Y0263300D01*
X0047400Y0260840D01*
X0047400Y0257360D01*
X0049860Y0254900D01*
X0053340Y0254900D01*
X0055140Y0256700D01*
X0063060Y0256700D01*
X0064860Y0254900D01*
X0068340Y0254900D01*
X0070800Y0257360D01*
X0070800Y0260840D01*
X0068340Y0263300D01*
X0069654Y0261986D02*
X0073546Y0261986D01*
X0072400Y0260787D02*
X0070800Y0260787D01*
X0070800Y0259589D02*
X0072400Y0259589D01*
X0072400Y0258390D02*
X0070800Y0258390D01*
X0070632Y0257192D02*
X0072568Y0257192D01*
X0073767Y0255993D02*
X0069433Y0255993D01*
X0063767Y0255993D02*
X0054433Y0255993D01*
X0054654Y0261986D02*
X0063546Y0261986D01*
X0064745Y0263184D02*
X0053455Y0263184D01*
X0049745Y0263184D02*
X0043455Y0263184D01*
X0044654Y0261986D02*
X0048546Y0261986D01*
X0047400Y0260787D02*
X0045800Y0260787D01*
X0045800Y0259589D02*
X0047400Y0259589D01*
X0047400Y0258390D02*
X0045800Y0258390D01*
X0045632Y0257192D02*
X0047568Y0257192D01*
X0048767Y0255993D02*
X0044433Y0255993D01*
X0037568Y0257192D02*
X0016300Y0257192D01*
X0016300Y0258390D02*
X0037400Y0258390D01*
X0037400Y0259589D02*
X0016300Y0259589D01*
X0016300Y0260787D02*
X0037400Y0260787D01*
X0038546Y0261986D02*
X0016300Y0261986D01*
X0016300Y0263184D02*
X0039745Y0263184D01*
X0052306Y0246405D02*
X0094200Y0246405D01*
X0094200Y0245207D02*
X0053739Y0245207D01*
X0054000Y0244008D02*
X0094200Y0244008D01*
X0094200Y0242810D02*
X0054000Y0242810D01*
X0054000Y0241611D02*
X0094200Y0241611D01*
X0094200Y0240413D02*
X0054000Y0240413D01*
X0054000Y0239214D02*
X0094200Y0239214D01*
X0094200Y0238016D02*
X0078624Y0238016D01*
X0078340Y0238300D02*
X0076800Y0238300D01*
X0076800Y0234300D01*
X0076400Y0234300D01*
X0076400Y0238300D01*
X0074860Y0238300D01*
X0072400Y0235840D01*
X0072400Y0234300D01*
X0076400Y0234300D01*
X0076400Y0233900D01*
X0072400Y0233900D01*
X0072400Y0232360D01*
X0074860Y0229900D01*
X0076400Y0229900D01*
X0076400Y0233900D01*
X0076800Y0233900D01*
X0076800Y0234300D01*
X0080800Y0234300D01*
X0080800Y0235840D01*
X0078340Y0238300D01*
X0076800Y0238016D02*
X0076400Y0238016D01*
X0076400Y0236817D02*
X0076800Y0236817D01*
X0076800Y0235619D02*
X0076400Y0235619D01*
X0076400Y0234420D02*
X0076800Y0234420D01*
X0076800Y0233900D02*
X0080800Y0233900D01*
X0080800Y0232360D01*
X0078340Y0229900D01*
X0076800Y0229900D01*
X0076800Y0233900D01*
X0076800Y0233222D02*
X0076400Y0233222D01*
X0076400Y0232023D02*
X0076800Y0232023D01*
X0076800Y0230825D02*
X0076400Y0230825D01*
X0073936Y0230825D02*
X0054264Y0230825D01*
X0055463Y0232023D02*
X0072737Y0232023D01*
X0072400Y0233222D02*
X0055800Y0233222D01*
X0055800Y0234420D02*
X0072400Y0234420D01*
X0072400Y0235619D02*
X0055800Y0235619D01*
X0054823Y0236817D02*
X0073377Y0236817D01*
X0074576Y0238016D02*
X0054000Y0238016D01*
X0079264Y0230825D02*
X0093936Y0230825D01*
X0092737Y0232023D02*
X0080463Y0232023D01*
X0080800Y0233222D02*
X0092400Y0233222D01*
X0092400Y0234420D02*
X0080800Y0234420D01*
X0080800Y0235619D02*
X0092400Y0235619D01*
X0093377Y0236817D02*
X0079823Y0236817D01*
X0113318Y0216442D02*
X0029882Y0216442D01*
X0028684Y0215244D02*
X0114516Y0215244D01*
X0113487Y0191274D02*
X0112624Y0191274D01*
X0114019Y0190075D02*
X0114685Y0190075D01*
X0115217Y0188877D02*
X0192400Y0188877D01*
X0192400Y0188900D02*
X0192400Y0187360D01*
X0194860Y0184900D01*
X0196400Y0184900D01*
X0196400Y0188900D01*
X0196800Y0188900D01*
X0196800Y0189300D01*
X0200800Y0189300D01*
X0200800Y0190840D01*
X0198340Y0193300D01*
X0196800Y0193300D01*
X0196800Y0189300D01*
X0196400Y0189300D01*
X0196400Y0193300D01*
X0194860Y0193300D01*
X0192400Y0190840D01*
X0192400Y0189300D01*
X0196400Y0189300D01*
X0196400Y0188900D01*
X0192400Y0188900D01*
X0192400Y0190075D02*
X0168515Y0190075D01*
X0169713Y0191274D02*
X0192834Y0191274D01*
X0194033Y0192472D02*
X0170800Y0192472D01*
X0168961Y0187678D02*
X0192400Y0187678D01*
X0193281Y0186480D02*
X0170160Y0186480D01*
X0170800Y0185281D02*
X0194479Y0185281D01*
X0196400Y0185281D02*
X0196800Y0185281D01*
X0196800Y0184900D02*
X0198340Y0184900D01*
X0200800Y0187360D01*
X0200800Y0188900D01*
X0196800Y0188900D01*
X0196800Y0184900D01*
X0196800Y0186480D02*
X0196400Y0186480D01*
X0196400Y0187678D02*
X0196800Y0187678D01*
X0196800Y0188877D02*
X0196400Y0188877D01*
X0196400Y0190075D02*
X0196800Y0190075D01*
X0196800Y0191274D02*
X0196400Y0191274D01*
X0196400Y0192472D02*
X0196800Y0192472D01*
X0199167Y0192472D02*
X0224033Y0192472D01*
X0222834Y0191274D02*
X0200366Y0191274D01*
X0200800Y0190075D02*
X0222400Y0190075D01*
X0222400Y0188877D02*
X0200800Y0188877D01*
X0200800Y0187678D02*
X0222400Y0187678D01*
X0223281Y0186480D02*
X0199919Y0186480D01*
X0198721Y0185281D02*
X0224200Y0185281D01*
X0224200Y0184083D02*
X0170800Y0184083D01*
X0170800Y0182884D02*
X0224506Y0182884D01*
X0225620Y0181686D02*
X0170125Y0181686D01*
X0183344Y0173296D02*
X0189856Y0173296D01*
X0189860Y0173300D02*
X0187400Y0170840D01*
X0187400Y0167360D01*
X0189860Y0164900D01*
X0193340Y0164900D01*
X0195140Y0166700D01*
X0203060Y0166700D01*
X0204860Y0164900D01*
X0208340Y0164900D01*
X0210800Y0167360D01*
X0210800Y0170840D01*
X0208340Y0173300D01*
X0204860Y0173300D01*
X0203060Y0171500D01*
X0195140Y0171500D01*
X0193340Y0173300D01*
X0189860Y0173300D01*
X0188658Y0172098D02*
X0184542Y0172098D01*
X0185741Y0170899D02*
X0187459Y0170899D01*
X0187400Y0169701D02*
X0185800Y0169701D01*
X0185800Y0168502D02*
X0187400Y0168502D01*
X0187457Y0167303D02*
X0185743Y0167303D01*
X0184545Y0166105D02*
X0188655Y0166105D01*
X0189854Y0164906D02*
X0183346Y0164906D01*
X0193346Y0164906D02*
X0204854Y0164906D01*
X0203655Y0166105D02*
X0194545Y0166105D01*
X0194542Y0172098D02*
X0203658Y0172098D01*
X0204856Y0173296D02*
X0193344Y0173296D01*
X0208344Y0173296D02*
X0214856Y0173296D01*
X0213658Y0172098D02*
X0209542Y0172098D01*
X0210741Y0170899D02*
X0212459Y0170899D01*
X0212400Y0169701D02*
X0210800Y0169701D01*
X0210800Y0168502D02*
X0212400Y0168502D01*
X0212457Y0167303D02*
X0210743Y0167303D01*
X0209545Y0166105D02*
X0213655Y0166105D01*
X0214854Y0164906D02*
X0208346Y0164906D01*
X0209860Y0148300D02*
X0207400Y0145840D01*
X0207400Y0142360D01*
X0209860Y0139900D01*
X0213340Y0139900D01*
X0215800Y0142360D01*
X0215800Y0145840D01*
X0213340Y0148300D01*
X0209860Y0148300D01*
X0209688Y0148127D02*
X0168512Y0148127D01*
X0168340Y0148300D02*
X0164860Y0148300D01*
X0162400Y0145840D01*
X0162400Y0142360D01*
X0164200Y0140560D01*
X0164200Y0132640D01*
X0162400Y0130840D01*
X0162400Y0127360D01*
X0164860Y0124900D01*
X0168340Y0124900D01*
X0170800Y0127360D01*
X0170800Y0130840D01*
X0169000Y0132640D01*
X0169000Y0140560D01*
X0170800Y0142360D01*
X0170800Y0145840D01*
X0168340Y0148300D01*
X0168340Y0149900D02*
X0165794Y0149900D01*
X0157959Y0142065D01*
X0157077Y0141700D01*
X0150140Y0141700D01*
X0148340Y0139900D01*
X0144860Y0139900D01*
X0142400Y0142360D01*
X0142400Y0145840D01*
X0144860Y0148300D01*
X0148340Y0148300D01*
X0150140Y0146500D01*
X0155606Y0146500D01*
X0162400Y0153294D01*
X0162400Y0155840D01*
X0164860Y0158300D01*
X0168340Y0158300D01*
X0170800Y0155840D01*
X0170800Y0152360D01*
X0168340Y0149900D01*
X0168964Y0150524D02*
X0254236Y0150524D01*
X0254860Y0149900D02*
X0258340Y0149900D01*
X0260800Y0152360D01*
X0260800Y0155840D01*
X0258340Y0158300D01*
X0254860Y0158300D01*
X0252400Y0155840D01*
X0252400Y0152360D01*
X0254860Y0149900D01*
X0254860Y0148300D02*
X0252400Y0145840D01*
X0252400Y0142360D01*
X0254200Y0140560D01*
X0254200Y0132640D01*
X0252400Y0130840D01*
X0252400Y0127360D01*
X0254860Y0124900D01*
X0258340Y0124900D01*
X0260800Y0127360D01*
X0260800Y0130840D01*
X0259000Y0132640D01*
X0259000Y0140560D01*
X0260800Y0142360D01*
X0260800Y0145840D01*
X0258340Y0148300D01*
X0254860Y0148300D01*
X0254688Y0148127D02*
X0213512Y0148127D01*
X0214711Y0146929D02*
X0253489Y0146929D01*
X0252400Y0145730D02*
X0215800Y0145730D01*
X0215800Y0144532D02*
X0252400Y0144532D01*
X0252400Y0143333D02*
X0215800Y0143333D01*
X0215574Y0142135D02*
X0233695Y0142135D01*
X0234860Y0143300D02*
X0232400Y0140840D01*
X0232400Y0139300D01*
X0236400Y0139300D01*
X0236400Y0143300D01*
X0234860Y0143300D01*
X0236400Y0142135D02*
X0236800Y0142135D01*
X0236800Y0143300D02*
X0236800Y0139300D01*
X0236400Y0139300D01*
X0236400Y0138900D01*
X0232400Y0138900D01*
X0232400Y0137360D01*
X0234860Y0134900D01*
X0236400Y0134900D01*
X0236400Y0138900D01*
X0236800Y0138900D01*
X0236800Y0139300D01*
X0240800Y0139300D01*
X0240800Y0140840D01*
X0238340Y0143300D01*
X0236800Y0143300D01*
X0236800Y0140936D02*
X0236400Y0140936D01*
X0236400Y0139738D02*
X0236800Y0139738D01*
X0236800Y0138900D02*
X0240800Y0138900D01*
X0240800Y0137360D01*
X0238340Y0134900D01*
X0236800Y0134900D01*
X0236800Y0138900D01*
X0236800Y0138539D02*
X0236400Y0138539D01*
X0236400Y0137341D02*
X0236800Y0137341D01*
X0236800Y0136142D02*
X0236400Y0136142D01*
X0236400Y0134944D02*
X0236800Y0134944D01*
X0238383Y0134944D02*
X0254200Y0134944D01*
X0254200Y0136142D02*
X0239582Y0136142D01*
X0240780Y0137341D02*
X0254200Y0137341D01*
X0254200Y0138539D02*
X0240800Y0138539D01*
X0240800Y0139738D02*
X0254200Y0139738D01*
X0253824Y0140936D02*
X0240703Y0140936D01*
X0239505Y0142135D02*
X0252626Y0142135D01*
X0259000Y0139738D02*
X0271700Y0139738D01*
X0271700Y0140936D02*
X0259376Y0140936D01*
X0260574Y0142135D02*
X0271700Y0142135D01*
X0271700Y0143333D02*
X0260800Y0143333D01*
X0260800Y0144532D02*
X0271700Y0144532D01*
X0271700Y0145730D02*
X0260800Y0145730D01*
X0259711Y0146929D02*
X0271700Y0146929D01*
X0271700Y0148127D02*
X0258512Y0148127D01*
X0258964Y0150524D02*
X0271700Y0150524D01*
X0271700Y0149326D02*
X0165220Y0149326D01*
X0164688Y0148127D02*
X0164021Y0148127D01*
X0163489Y0146929D02*
X0162823Y0146929D01*
X0162400Y0145730D02*
X0161624Y0145730D01*
X0162400Y0144532D02*
X0160426Y0144532D01*
X0159227Y0143333D02*
X0162400Y0143333D01*
X0162626Y0142135D02*
X0158029Y0142135D01*
X0156035Y0146929D02*
X0149711Y0146929D01*
X0148512Y0148127D02*
X0157233Y0148127D01*
X0158432Y0149326D02*
X0049000Y0149326D01*
X0049000Y0150524D02*
X0114236Y0150524D01*
X0114860Y0149900D02*
X0118340Y0149900D01*
X0120800Y0152360D01*
X0120800Y0155840D01*
X0118340Y0158300D01*
X0114860Y0158300D01*
X0112400Y0155840D01*
X0112400Y0152360D01*
X0114860Y0149900D01*
X0114860Y0148300D02*
X0112400Y0145840D01*
X0112400Y0142360D01*
X0114200Y0140560D01*
X0114200Y0132640D01*
X0112400Y0130840D01*
X0112400Y0127360D01*
X0114860Y0124900D01*
X0118340Y0124900D01*
X0120800Y0127360D01*
X0120800Y0130840D01*
X0119000Y0132640D01*
X0119000Y0140560D01*
X0120800Y0142360D01*
X0120800Y0145840D01*
X0118340Y0148300D01*
X0114860Y0148300D01*
X0114688Y0148127D02*
X0073512Y0148127D01*
X0073340Y0148300D02*
X0069860Y0148300D01*
X0067400Y0145840D01*
X0067400Y0142360D01*
X0069860Y0139900D01*
X0073340Y0139900D01*
X0075800Y0142360D01*
X0075800Y0145840D01*
X0073340Y0148300D01*
X0074711Y0146929D02*
X0113489Y0146929D01*
X0112400Y0145730D02*
X0075800Y0145730D01*
X0075800Y0144532D02*
X0112400Y0144532D01*
X0112400Y0143333D02*
X0075800Y0143333D01*
X0075574Y0142135D02*
X0093695Y0142135D01*
X0094860Y0143300D02*
X0092400Y0140840D01*
X0092400Y0139300D01*
X0096400Y0139300D01*
X0096400Y0143300D01*
X0094860Y0143300D01*
X0096400Y0142135D02*
X0096800Y0142135D01*
X0096800Y0143300D02*
X0096800Y0139300D01*
X0096400Y0139300D01*
X0096400Y0138900D01*
X0092400Y0138900D01*
X0092400Y0137360D01*
X0094860Y0134900D01*
X0096400Y0134900D01*
X0096400Y0138900D01*
X0096800Y0138900D01*
X0096800Y0139300D01*
X0100800Y0139300D01*
X0100800Y0140840D01*
X0098340Y0143300D01*
X0096800Y0143300D01*
X0096800Y0140936D02*
X0096400Y0140936D01*
X0096400Y0139738D02*
X0096800Y0139738D01*
X0096800Y0138900D02*
X0100800Y0138900D01*
X0100800Y0137360D01*
X0098340Y0134900D01*
X0096800Y0134900D01*
X0096800Y0138900D01*
X0096800Y0138539D02*
X0096400Y0138539D01*
X0096400Y0137341D02*
X0096800Y0137341D01*
X0096800Y0136142D02*
X0096400Y0136142D01*
X0096400Y0134944D02*
X0096800Y0134944D01*
X0098383Y0134944D02*
X0114200Y0134944D01*
X0114200Y0136142D02*
X0099582Y0136142D01*
X0100780Y0137341D02*
X0114200Y0137341D01*
X0114200Y0138539D02*
X0100800Y0138539D01*
X0100800Y0139738D02*
X0114200Y0139738D01*
X0113824Y0140936D02*
X0100703Y0140936D01*
X0099505Y0142135D02*
X0112626Y0142135D01*
X0118512Y0148127D02*
X0134688Y0148127D01*
X0134860Y0148300D02*
X0132400Y0145840D01*
X0132400Y0144300D01*
X0136400Y0144300D01*
X0136400Y0148300D01*
X0134860Y0148300D01*
X0136400Y0148127D02*
X0136800Y0148127D01*
X0136800Y0148300D02*
X0136800Y0144300D01*
X0136400Y0144300D01*
X0136400Y0143900D01*
X0132400Y0143900D01*
X0132400Y0142360D01*
X0134860Y0139900D01*
X0136400Y0139900D01*
X0136400Y0143900D01*
X0136800Y0143900D01*
X0136800Y0144300D01*
X0140800Y0144300D01*
X0140800Y0145840D01*
X0138340Y0148300D01*
X0136800Y0148300D01*
X0136800Y0146929D02*
X0136400Y0146929D01*
X0136400Y0145730D02*
X0136800Y0145730D01*
X0136800Y0144532D02*
X0136400Y0144532D01*
X0136800Y0143900D02*
X0140800Y0143900D01*
X0140800Y0142360D01*
X0138340Y0139900D01*
X0136800Y0139900D01*
X0136800Y0143900D01*
X0136800Y0143333D02*
X0136400Y0143333D01*
X0136400Y0142135D02*
X0136800Y0142135D01*
X0136800Y0140936D02*
X0136400Y0140936D01*
X0133824Y0140936D02*
X0119376Y0140936D01*
X0119000Y0139738D02*
X0164200Y0139738D01*
X0164200Y0138539D02*
X0119000Y0138539D01*
X0119000Y0137341D02*
X0164200Y0137341D01*
X0164200Y0136142D02*
X0119000Y0136142D01*
X0119000Y0134944D02*
X0164200Y0134944D01*
X0164200Y0133745D02*
X0119000Y0133745D01*
X0119093Y0132547D02*
X0164107Y0132547D01*
X0162908Y0131348D02*
X0120292Y0131348D01*
X0120800Y0130150D02*
X0162400Y0130150D01*
X0162400Y0128951D02*
X0120800Y0128951D01*
X0120800Y0127753D02*
X0162400Y0127753D01*
X0163206Y0126554D02*
X0119994Y0126554D01*
X0118795Y0125356D02*
X0164405Y0125356D01*
X0164860Y0123300D02*
X0162400Y0120840D01*
X0162400Y0117360D01*
X0164200Y0115560D01*
X0164200Y0107640D01*
X0162400Y0105840D01*
X0162400Y0102360D01*
X0164860Y0099900D01*
X0168340Y0099900D01*
X0170800Y0102360D01*
X0170800Y0105840D01*
X0169000Y0107640D01*
X0169000Y0115560D01*
X0170800Y0117360D01*
X0170800Y0120840D01*
X0168340Y0123300D01*
X0164860Y0123300D01*
X0164519Y0122959D02*
X0118681Y0122959D01*
X0118340Y0123300D02*
X0114860Y0123300D01*
X0112400Y0120840D01*
X0112400Y0117360D01*
X0114200Y0115560D01*
X0114200Y0107640D01*
X0112400Y0105840D01*
X0112400Y0102360D01*
X0114860Y0099900D01*
X0118340Y0099900D01*
X0120800Y0102360D01*
X0120800Y0105840D01*
X0119000Y0107640D01*
X0119000Y0115560D01*
X0120800Y0117360D01*
X0120800Y0120840D01*
X0118340Y0123300D01*
X0119880Y0121760D02*
X0163320Y0121760D01*
X0162400Y0120562D02*
X0120800Y0120562D01*
X0120800Y0119363D02*
X0162400Y0119363D01*
X0162400Y0118165D02*
X0148475Y0118165D01*
X0148340Y0118300D02*
X0146800Y0118300D01*
X0146800Y0114300D01*
X0146400Y0114300D01*
X0146400Y0118300D01*
X0144860Y0118300D01*
X0142400Y0115840D01*
X0142400Y0114300D01*
X0146400Y0114300D01*
X0146400Y0113900D01*
X0142400Y0113900D01*
X0142400Y0112360D01*
X0144860Y0109900D01*
X0146400Y0109900D01*
X0146400Y0113900D01*
X0146800Y0113900D01*
X0146800Y0114300D01*
X0150800Y0114300D01*
X0150800Y0115840D01*
X0148340Y0118300D01*
X0146800Y0118165D02*
X0146400Y0118165D01*
X0146400Y0116966D02*
X0146800Y0116966D01*
X0146800Y0115768D02*
X0146400Y0115768D01*
X0146400Y0114569D02*
X0146800Y0114569D01*
X0146800Y0113900D02*
X0150800Y0113900D01*
X0150800Y0112360D01*
X0148340Y0109900D01*
X0146800Y0109900D01*
X0146800Y0113900D01*
X0146800Y0113370D02*
X0146400Y0113370D01*
X0146400Y0112172D02*
X0146800Y0112172D01*
X0146800Y0110973D02*
X0146400Y0110973D01*
X0143787Y0110973D02*
X0139413Y0110973D01*
X0138340Y0109900D02*
X0140800Y0112360D01*
X0140800Y0115840D01*
X0138340Y0118300D01*
X0134860Y0118300D01*
X0132400Y0115840D01*
X0132400Y0113294D01*
X0117406Y0098300D01*
X0114860Y0098300D01*
X0112400Y0095840D01*
X0112400Y0092360D01*
X0114860Y0089900D01*
X0118340Y0089900D01*
X0120800Y0092360D01*
X0120800Y0094906D01*
X0135794Y0109900D01*
X0138340Y0109900D01*
X0135669Y0109775D02*
X0164200Y0109775D01*
X0164200Y0110973D02*
X0149413Y0110973D01*
X0150612Y0112172D02*
X0164200Y0112172D01*
X0164200Y0113370D02*
X0150800Y0113370D01*
X0150800Y0114569D02*
X0164200Y0114569D01*
X0163993Y0115768D02*
X0150800Y0115768D01*
X0149674Y0116966D02*
X0162794Y0116966D01*
X0169207Y0115768D02*
X0207400Y0115768D01*
X0207400Y0115840D02*
X0207400Y0112360D01*
X0209860Y0109900D01*
X0213340Y0109900D01*
X0215800Y0112360D01*
X0215800Y0115840D01*
X0214000Y0117640D01*
X0214000Y0130560D01*
X0215800Y0132360D01*
X0215800Y0135840D01*
X0213340Y0138300D01*
X0209860Y0138300D01*
X0207400Y0135840D01*
X0207400Y0132360D01*
X0209200Y0130560D01*
X0209200Y0117640D01*
X0207400Y0115840D01*
X0207400Y0114569D02*
X0169000Y0114569D01*
X0169000Y0113370D02*
X0207400Y0113370D01*
X0207588Y0112172D02*
X0189468Y0112172D01*
X0190140Y0111500D02*
X0188340Y0113300D01*
X0184860Y0113300D01*
X0182400Y0110840D01*
X0182400Y0107360D01*
X0184860Y0104900D01*
X0188340Y0104900D01*
X0190140Y0106700D01*
X0205606Y0106700D01*
X0207400Y0104906D01*
X0207400Y0102360D01*
X0209860Y0099900D01*
X0213340Y0099900D01*
X0215800Y0102360D01*
X0215800Y0105840D01*
X0213340Y0108300D01*
X0210794Y0108300D01*
X0207959Y0111135D01*
X0207077Y0111500D01*
X0190140Y0111500D01*
X0189619Y0106179D02*
X0206126Y0106179D01*
X0207325Y0104981D02*
X0188421Y0104981D01*
X0184779Y0104981D02*
X0170800Y0104981D01*
X0170800Y0103782D02*
X0207400Y0103782D01*
X0207400Y0102584D02*
X0170800Y0102584D01*
X0169825Y0101385D02*
X0208375Y0101385D01*
X0209573Y0100187D02*
X0168627Y0100187D01*
X0168340Y0098300D02*
X0164860Y0098300D01*
X0162400Y0095840D01*
X0162400Y0092360D01*
X0164860Y0089900D01*
X0168340Y0089900D01*
X0170800Y0092360D01*
X0170800Y0095840D01*
X0168340Y0098300D01*
X0168850Y0097790D02*
X0244516Y0097790D01*
X0243318Y0098988D02*
X0124882Y0098988D01*
X0123684Y0097790D02*
X0164350Y0097790D01*
X0163152Y0096591D02*
X0122485Y0096591D01*
X0121287Y0095393D02*
X0162400Y0095393D01*
X0162400Y0094194D02*
X0120800Y0094194D01*
X0120800Y0092996D02*
X0162400Y0092996D01*
X0162963Y0091797D02*
X0120237Y0091797D01*
X0119038Y0090599D02*
X0164162Y0090599D01*
X0169038Y0090599D02*
X0254162Y0090599D01*
X0254860Y0089900D02*
X0258340Y0089900D01*
X0260800Y0092360D01*
X0260800Y0095840D01*
X0258340Y0098300D01*
X0254860Y0098300D01*
X0253060Y0096500D01*
X0252594Y0096500D01*
X0240800Y0108294D01*
X0240800Y0110840D01*
X0238340Y0113300D01*
X0234860Y0113300D01*
X0232400Y0110840D01*
X0232400Y0107360D01*
X0234860Y0104900D01*
X0237406Y0104900D01*
X0250241Y0092065D01*
X0251123Y0091700D01*
X0253060Y0091700D01*
X0254860Y0089900D01*
X0250888Y0091797D02*
X0170237Y0091797D01*
X0170800Y0092996D02*
X0249310Y0092996D01*
X0248112Y0094194D02*
X0170800Y0094194D01*
X0170800Y0095393D02*
X0246913Y0095393D01*
X0245715Y0096591D02*
X0170048Y0096591D01*
X0164573Y0100187D02*
X0126081Y0100187D01*
X0127279Y0101385D02*
X0163375Y0101385D01*
X0162400Y0102584D02*
X0128478Y0102584D01*
X0129677Y0103782D02*
X0162400Y0103782D01*
X0162400Y0104981D02*
X0130875Y0104981D01*
X0132074Y0106179D02*
X0162740Y0106179D01*
X0163938Y0107378D02*
X0133272Y0107378D01*
X0134471Y0108576D02*
X0164200Y0108576D01*
X0169000Y0108576D02*
X0182400Y0108576D01*
X0182400Y0107378D02*
X0169262Y0107378D01*
X0170460Y0106179D02*
X0183581Y0106179D01*
X0182400Y0109775D02*
X0169000Y0109775D01*
X0169000Y0110973D02*
X0182534Y0110973D01*
X0183732Y0112172D02*
X0169000Y0112172D01*
X0170406Y0116966D02*
X0208526Y0116966D01*
X0209200Y0118165D02*
X0170800Y0118165D01*
X0170800Y0119363D02*
X0209200Y0119363D01*
X0209200Y0120562D02*
X0170800Y0120562D01*
X0169880Y0121760D02*
X0209200Y0121760D01*
X0209200Y0122959D02*
X0168681Y0122959D01*
X0168795Y0125356D02*
X0209200Y0125356D01*
X0209200Y0126554D02*
X0169994Y0126554D01*
X0170800Y0127753D02*
X0209200Y0127753D01*
X0209200Y0128951D02*
X0170800Y0128951D01*
X0170800Y0130150D02*
X0209200Y0130150D01*
X0208412Y0131348D02*
X0170292Y0131348D01*
X0169093Y0132547D02*
X0207400Y0132547D01*
X0207400Y0133745D02*
X0169000Y0133745D01*
X0169000Y0134944D02*
X0184817Y0134944D01*
X0184860Y0134900D02*
X0182400Y0137360D01*
X0182400Y0138900D01*
X0186400Y0138900D01*
X0186400Y0139300D01*
X0186400Y0143300D01*
X0184860Y0143300D01*
X0182400Y0140840D01*
X0182400Y0139300D01*
X0186400Y0139300D01*
X0186800Y0139300D01*
X0186800Y0143300D01*
X0188340Y0143300D01*
X0190800Y0140840D01*
X0190800Y0139300D01*
X0186800Y0139300D01*
X0186800Y0138900D01*
X0190800Y0138900D01*
X0190800Y0137360D01*
X0188340Y0134900D01*
X0186800Y0134900D01*
X0186800Y0138900D01*
X0186400Y0138900D01*
X0186400Y0134900D01*
X0184860Y0134900D01*
X0186400Y0134944D02*
X0186800Y0134944D01*
X0186800Y0136142D02*
X0186400Y0136142D01*
X0186400Y0137341D02*
X0186800Y0137341D01*
X0186800Y0138539D02*
X0186400Y0138539D01*
X0186400Y0139738D02*
X0186800Y0139738D01*
X0186800Y0140936D02*
X0186400Y0140936D01*
X0186400Y0142135D02*
X0186800Y0142135D01*
X0189505Y0142135D02*
X0207626Y0142135D01*
X0207400Y0143333D02*
X0170800Y0143333D01*
X0170800Y0144532D02*
X0207400Y0144532D01*
X0207400Y0145730D02*
X0170800Y0145730D01*
X0169711Y0146929D02*
X0208489Y0146929D01*
X0208824Y0140936D02*
X0190703Y0140936D01*
X0190800Y0139738D02*
X0232400Y0139738D01*
X0232400Y0138539D02*
X0190800Y0138539D01*
X0190780Y0137341D02*
X0208901Y0137341D01*
X0207703Y0136142D02*
X0189582Y0136142D01*
X0188383Y0134944D02*
X0207400Y0134944D01*
X0214299Y0137341D02*
X0232420Y0137341D01*
X0233618Y0136142D02*
X0215497Y0136142D01*
X0215800Y0134944D02*
X0234817Y0134944D01*
X0232497Y0140936D02*
X0214376Y0140936D01*
X0215800Y0133745D02*
X0254200Y0133745D01*
X0254107Y0132547D02*
X0215800Y0132547D01*
X0214788Y0131348D02*
X0252908Y0131348D01*
X0252400Y0130150D02*
X0214000Y0130150D01*
X0214000Y0128951D02*
X0252400Y0128951D01*
X0252400Y0127753D02*
X0214000Y0127753D01*
X0214000Y0126554D02*
X0253206Y0126554D01*
X0254405Y0125356D02*
X0214000Y0125356D01*
X0214000Y0124157D02*
X0271700Y0124157D01*
X0271700Y0122959D02*
X0258681Y0122959D01*
X0258340Y0123300D02*
X0254860Y0123300D01*
X0252400Y0120840D01*
X0252400Y0117360D01*
X0254200Y0115560D01*
X0254200Y0107640D01*
X0252400Y0105840D01*
X0252400Y0102360D01*
X0254860Y0099900D01*
X0258340Y0099900D01*
X0260800Y0102360D01*
X0260800Y0105840D01*
X0259000Y0107640D01*
X0259000Y0115560D01*
X0260800Y0117360D01*
X0260800Y0120840D01*
X0258340Y0123300D01*
X0258795Y0125356D02*
X0271700Y0125356D01*
X0271700Y0126554D02*
X0259994Y0126554D01*
X0260800Y0127753D02*
X0271700Y0127753D01*
X0271700Y0128951D02*
X0260800Y0128951D01*
X0260800Y0130150D02*
X0271700Y0130150D01*
X0271700Y0131348D02*
X0260292Y0131348D01*
X0259093Y0132547D02*
X0271700Y0132547D01*
X0271700Y0133745D02*
X0259000Y0133745D01*
X0259000Y0134944D02*
X0271700Y0134944D01*
X0271700Y0136142D02*
X0259000Y0136142D01*
X0259000Y0137341D02*
X0271700Y0137341D01*
X0271700Y0138539D02*
X0259000Y0138539D01*
X0260163Y0151723D02*
X0271700Y0151723D01*
X0271700Y0152921D02*
X0260800Y0152921D01*
X0260800Y0154120D02*
X0271700Y0154120D01*
X0271700Y0155318D02*
X0260800Y0155318D01*
X0260123Y0156517D02*
X0271700Y0156517D01*
X0271700Y0157715D02*
X0258924Y0157715D01*
X0254276Y0157715D02*
X0168924Y0157715D01*
X0170123Y0156517D02*
X0253077Y0156517D01*
X0252400Y0155318D02*
X0170800Y0155318D01*
X0170800Y0154120D02*
X0252400Y0154120D01*
X0252400Y0152921D02*
X0170800Y0152921D01*
X0170163Y0151723D02*
X0253037Y0151723D01*
X0271700Y0158914D02*
X0011500Y0158914D01*
X0011500Y0160112D02*
X0271700Y0160112D01*
X0271700Y0161311D02*
X0011500Y0161311D01*
X0011500Y0162509D02*
X0271700Y0162509D01*
X0271700Y0180487D02*
X0258927Y0180487D01*
X0260125Y0181686D02*
X0271700Y0181686D01*
X0271700Y0182884D02*
X0260800Y0182884D01*
X0260800Y0184083D02*
X0271700Y0184083D01*
X0271700Y0185281D02*
X0260800Y0185281D01*
X0260160Y0186480D02*
X0271700Y0186480D01*
X0271700Y0187678D02*
X0258961Y0187678D01*
X0254200Y0200862D02*
X0234302Y0200862D01*
X0235500Y0202060D02*
X0254200Y0202060D01*
X0254200Y0203259D02*
X0235800Y0203259D01*
X0235800Y0204457D02*
X0254200Y0204457D01*
X0254104Y0205656D02*
X0235800Y0205656D01*
X0234785Y0206854D02*
X0252906Y0206854D01*
X0252400Y0210450D02*
X0170800Y0210450D01*
X0169991Y0211648D02*
X0253209Y0211648D01*
X0254407Y0212847D02*
X0168793Y0212847D01*
X0168852Y0240413D02*
X0181893Y0240413D01*
X0180695Y0241611D02*
X0170051Y0241611D01*
X0187582Y0282361D02*
X0195618Y0282361D01*
X0195765Y0282300D02*
X0197435Y0282300D01*
X0198979Y0282939D01*
X0200161Y0284121D01*
X0200800Y0285665D01*
X0200800Y0292535D01*
X0200161Y0294079D01*
X0198979Y0295261D01*
X0197435Y0295900D01*
X0195765Y0295900D01*
X0194221Y0295261D01*
X0193039Y0294079D01*
X0192400Y0292535D01*
X0192400Y0285665D01*
X0193039Y0284121D01*
X0194221Y0282939D01*
X0195765Y0282300D01*
X0197582Y0282361D02*
X0205618Y0282361D01*
X0205765Y0282300D02*
X0207435Y0282300D01*
X0208979Y0282939D01*
X0210161Y0284121D01*
X0210800Y0285665D01*
X0210800Y0292535D01*
X0210161Y0294079D01*
X0208979Y0295261D01*
X0207435Y0295900D01*
X0205765Y0295900D01*
X0204221Y0295261D01*
X0203039Y0294079D01*
X0202400Y0292535D01*
X0202400Y0285665D01*
X0203039Y0284121D01*
X0204221Y0282939D01*
X0205765Y0282300D01*
X0207582Y0282361D02*
X0215618Y0282361D01*
X0215765Y0282300D02*
X0217435Y0282300D01*
X0218979Y0282939D01*
X0220161Y0284121D01*
X0220800Y0285665D01*
X0220800Y0292535D01*
X0220161Y0294079D01*
X0218979Y0295261D01*
X0217435Y0295900D01*
X0215765Y0295900D01*
X0214221Y0295261D01*
X0213039Y0294079D01*
X0212400Y0292535D01*
X0212400Y0285665D01*
X0213039Y0284121D01*
X0214221Y0282939D01*
X0215765Y0282300D01*
X0217582Y0282361D02*
X0225618Y0282361D01*
X0225765Y0282300D02*
X0227435Y0282300D01*
X0228979Y0282939D01*
X0230161Y0284121D01*
X0230800Y0285665D01*
X0230800Y0292535D01*
X0230161Y0294079D01*
X0228979Y0295261D01*
X0227435Y0295900D01*
X0225765Y0295900D01*
X0224221Y0295261D01*
X0223039Y0294079D01*
X0222400Y0292535D01*
X0222400Y0285665D01*
X0223039Y0284121D01*
X0224221Y0282939D01*
X0225765Y0282300D01*
X0227582Y0282361D02*
X0235618Y0282361D01*
X0235765Y0282300D02*
X0237435Y0282300D01*
X0238979Y0282939D01*
X0240161Y0284121D01*
X0240800Y0285665D01*
X0240800Y0292535D01*
X0240161Y0294079D01*
X0238979Y0295261D01*
X0237435Y0295900D01*
X0235765Y0295900D01*
X0234221Y0295261D01*
X0233039Y0294079D01*
X0232400Y0292535D01*
X0232400Y0285665D01*
X0233039Y0284121D01*
X0234221Y0282939D01*
X0235765Y0282300D01*
X0237582Y0282361D02*
X0245618Y0282361D01*
X0245765Y0282300D02*
X0247435Y0282300D01*
X0248979Y0282939D01*
X0250161Y0284121D01*
X0250800Y0285665D01*
X0250800Y0292535D01*
X0250161Y0294079D01*
X0248979Y0295261D01*
X0247435Y0295900D01*
X0245765Y0295900D01*
X0244221Y0295261D01*
X0243039Y0294079D01*
X0242400Y0292535D01*
X0242400Y0285665D01*
X0243039Y0284121D01*
X0244221Y0282939D01*
X0245765Y0282300D01*
X0247582Y0282361D02*
X0255618Y0282361D01*
X0255765Y0282300D02*
X0257435Y0282300D01*
X0258979Y0282939D01*
X0260161Y0284121D01*
X0260800Y0285665D01*
X0260800Y0292535D01*
X0260161Y0294079D01*
X0258979Y0295261D01*
X0257435Y0295900D01*
X0255765Y0295900D01*
X0254221Y0295261D01*
X0253039Y0294079D01*
X0252400Y0292535D01*
X0252400Y0285665D01*
X0253039Y0284121D01*
X0254221Y0282939D01*
X0255765Y0282300D01*
X0257582Y0282361D02*
X0271700Y0282361D01*
X0271700Y0283559D02*
X0259599Y0283559D01*
X0260424Y0284758D02*
X0271700Y0284758D01*
X0271700Y0285956D02*
X0260800Y0285956D01*
X0260800Y0287155D02*
X0271700Y0287155D01*
X0271700Y0288353D02*
X0260800Y0288353D01*
X0260800Y0289552D02*
X0271700Y0289552D01*
X0271700Y0290750D02*
X0260800Y0290750D01*
X0260800Y0291949D02*
X0271700Y0291949D01*
X0271700Y0293147D02*
X0260547Y0293147D01*
X0259894Y0294346D02*
X0271700Y0294346D01*
X0271700Y0295544D02*
X0258294Y0295544D01*
X0254906Y0295544D02*
X0248294Y0295544D01*
X0249894Y0294346D02*
X0253306Y0294346D01*
X0252653Y0293147D02*
X0250547Y0293147D01*
X0250800Y0291949D02*
X0252400Y0291949D01*
X0252400Y0290750D02*
X0250800Y0290750D01*
X0250800Y0289552D02*
X0252400Y0289552D01*
X0252400Y0288353D02*
X0250800Y0288353D01*
X0250800Y0287155D02*
X0252400Y0287155D01*
X0252400Y0285956D02*
X0250800Y0285956D01*
X0250424Y0284758D02*
X0252776Y0284758D01*
X0253601Y0283559D02*
X0249599Y0283559D01*
X0243601Y0283559D02*
X0239599Y0283559D01*
X0240424Y0284758D02*
X0242776Y0284758D01*
X0242400Y0285956D02*
X0240800Y0285956D01*
X0240800Y0287155D02*
X0242400Y0287155D01*
X0242400Y0288353D02*
X0240800Y0288353D01*
X0240800Y0289552D02*
X0242400Y0289552D01*
X0242400Y0290750D02*
X0240800Y0290750D01*
X0240800Y0291949D02*
X0242400Y0291949D01*
X0242653Y0293147D02*
X0240547Y0293147D01*
X0239894Y0294346D02*
X0243306Y0294346D01*
X0244906Y0295544D02*
X0238294Y0295544D01*
X0234906Y0295544D02*
X0228294Y0295544D01*
X0229894Y0294346D02*
X0233306Y0294346D01*
X0232653Y0293147D02*
X0230547Y0293147D01*
X0230800Y0291949D02*
X0232400Y0291949D01*
X0232400Y0290750D02*
X0230800Y0290750D01*
X0230800Y0289552D02*
X0232400Y0289552D01*
X0232400Y0288353D02*
X0230800Y0288353D01*
X0230800Y0287155D02*
X0232400Y0287155D01*
X0232400Y0285956D02*
X0230800Y0285956D01*
X0230424Y0284758D02*
X0232776Y0284758D01*
X0233601Y0283559D02*
X0229599Y0283559D01*
X0223601Y0283559D02*
X0219599Y0283559D01*
X0220424Y0284758D02*
X0222776Y0284758D01*
X0222400Y0285956D02*
X0220800Y0285956D01*
X0220800Y0287155D02*
X0222400Y0287155D01*
X0222400Y0288353D02*
X0220800Y0288353D01*
X0220800Y0289552D02*
X0222400Y0289552D01*
X0222400Y0290750D02*
X0220800Y0290750D01*
X0220800Y0291949D02*
X0222400Y0291949D01*
X0222653Y0293147D02*
X0220547Y0293147D01*
X0219894Y0294346D02*
X0223306Y0294346D01*
X0224906Y0295544D02*
X0218294Y0295544D01*
X0214906Y0295544D02*
X0208294Y0295544D01*
X0209894Y0294346D02*
X0213306Y0294346D01*
X0212653Y0293147D02*
X0210547Y0293147D01*
X0210800Y0291949D02*
X0212400Y0291949D01*
X0212400Y0290750D02*
X0210800Y0290750D01*
X0210800Y0289552D02*
X0212400Y0289552D01*
X0212400Y0288353D02*
X0210800Y0288353D01*
X0210800Y0287155D02*
X0212400Y0287155D01*
X0212400Y0285956D02*
X0210800Y0285956D01*
X0210424Y0284758D02*
X0212776Y0284758D01*
X0213601Y0283559D02*
X0209599Y0283559D01*
X0203601Y0283559D02*
X0199599Y0283559D01*
X0200424Y0284758D02*
X0202776Y0284758D01*
X0202400Y0285956D02*
X0200800Y0285956D01*
X0200800Y0287155D02*
X0202400Y0287155D01*
X0202400Y0288353D02*
X0200800Y0288353D01*
X0200800Y0289552D02*
X0202400Y0289552D01*
X0202400Y0290750D02*
X0200800Y0290750D01*
X0200800Y0291949D02*
X0202400Y0291949D01*
X0202653Y0293147D02*
X0200547Y0293147D01*
X0199894Y0294346D02*
X0203306Y0294346D01*
X0204906Y0295544D02*
X0198294Y0295544D01*
X0194906Y0295544D02*
X0188294Y0295544D01*
X0189894Y0294346D02*
X0193306Y0294346D01*
X0192653Y0293147D02*
X0190547Y0293147D01*
X0190800Y0291949D02*
X0192400Y0291949D01*
X0192400Y0290750D02*
X0190800Y0290750D01*
X0190800Y0289552D02*
X0192400Y0289552D01*
X0192400Y0288353D02*
X0190800Y0288353D01*
X0190800Y0287155D02*
X0192400Y0287155D01*
X0192400Y0285956D02*
X0190800Y0285956D01*
X0190424Y0284758D02*
X0192776Y0284758D01*
X0193601Y0283559D02*
X0189599Y0283559D01*
X0165578Y0294100D02*
X0164689Y0293211D01*
X0180800Y0320713D02*
X0182400Y0320713D01*
X0182400Y0321911D02*
X0180800Y0321911D01*
X0180562Y0323110D02*
X0182638Y0323110D01*
X0183269Y0324308D02*
X0179931Y0324308D01*
X0178384Y0325507D02*
X0184816Y0325507D01*
X0188384Y0325507D02*
X0194816Y0325507D01*
X0193269Y0324308D02*
X0189931Y0324308D01*
X0190562Y0323110D02*
X0192638Y0323110D01*
X0192400Y0321911D02*
X0190800Y0321911D01*
X0190800Y0320713D02*
X0192400Y0320713D01*
X0192400Y0319514D02*
X0190800Y0319514D01*
X0190800Y0318316D02*
X0192400Y0318316D01*
X0192400Y0317117D02*
X0190800Y0317117D01*
X0190800Y0315919D02*
X0192400Y0315919D01*
X0192791Y0314720D02*
X0190409Y0314720D01*
X0189562Y0313522D02*
X0192911Y0313522D01*
X0191712Y0312323D02*
X0187935Y0312323D01*
X0172317Y0326705D02*
X0271700Y0326705D01*
X0271700Y0325507D02*
X0258384Y0325507D01*
X0259931Y0324308D02*
X0271700Y0324308D01*
X0271700Y0323110D02*
X0260562Y0323110D01*
X0260800Y0321911D02*
X0271700Y0321911D01*
X0271700Y0320713D02*
X0260800Y0320713D01*
X0260800Y0319514D02*
X0271700Y0319514D01*
X0271700Y0318316D02*
X0260800Y0318316D01*
X0260800Y0317117D02*
X0271700Y0317117D01*
X0271700Y0315919D02*
X0260800Y0315919D01*
X0260409Y0314720D02*
X0271700Y0314720D01*
X0271700Y0313522D02*
X0259562Y0313522D01*
X0253638Y0313522D02*
X0249562Y0313522D01*
X0250409Y0314720D02*
X0252791Y0314720D01*
X0252400Y0315919D02*
X0250800Y0315919D01*
X0250800Y0317117D02*
X0252400Y0317117D01*
X0252400Y0318316D02*
X0250800Y0318316D01*
X0250800Y0319514D02*
X0252400Y0319514D01*
X0252400Y0320713D02*
X0250800Y0320713D01*
X0250800Y0321911D02*
X0252400Y0321911D01*
X0252638Y0323110D02*
X0250562Y0323110D01*
X0249931Y0324308D02*
X0253269Y0324308D01*
X0254816Y0325507D02*
X0248384Y0325507D01*
X0244816Y0325507D02*
X0238384Y0325507D01*
X0239931Y0324308D02*
X0243269Y0324308D01*
X0242638Y0323110D02*
X0240562Y0323110D01*
X0240800Y0321911D02*
X0242400Y0321911D01*
X0242400Y0320713D02*
X0240800Y0320713D01*
X0240800Y0319514D02*
X0242400Y0319514D01*
X0242400Y0318316D02*
X0240800Y0318316D01*
X0240800Y0317117D02*
X0242400Y0317117D01*
X0242400Y0315919D02*
X0240800Y0315919D01*
X0240409Y0314720D02*
X0242791Y0314720D01*
X0243638Y0313522D02*
X0239562Y0313522D01*
X0233638Y0313522D02*
X0229562Y0313522D01*
X0230409Y0314720D02*
X0232791Y0314720D01*
X0232400Y0315919D02*
X0230800Y0315919D01*
X0230800Y0317117D02*
X0232400Y0317117D01*
X0232400Y0318316D02*
X0230800Y0318316D01*
X0230800Y0319514D02*
X0232400Y0319514D01*
X0232400Y0320713D02*
X0230800Y0320713D01*
X0230800Y0321911D02*
X0232400Y0321911D01*
X0232638Y0323110D02*
X0230562Y0323110D01*
X0229931Y0324308D02*
X0233269Y0324308D01*
X0234816Y0325507D02*
X0228384Y0325507D01*
X0224816Y0325507D02*
X0218384Y0325507D01*
X0219931Y0324308D02*
X0223269Y0324308D01*
X0222638Y0323110D02*
X0220562Y0323110D01*
X0220800Y0321911D02*
X0222400Y0321911D01*
X0222400Y0320713D02*
X0220800Y0320713D01*
X0213587Y0208053D02*
X0229613Y0208053D01*
X0228415Y0206854D02*
X0214785Y0206854D01*
X0215800Y0205656D02*
X0227400Y0205656D01*
X0227400Y0204457D02*
X0215800Y0204457D01*
X0215800Y0203259D02*
X0227400Y0203259D01*
X0227700Y0202060D02*
X0215500Y0202060D01*
X0228232Y0200862D02*
X0228898Y0200862D01*
X0183695Y0142135D02*
X0170574Y0142135D01*
X0169376Y0140936D02*
X0182497Y0140936D01*
X0182400Y0139738D02*
X0169000Y0139738D01*
X0169000Y0138539D02*
X0182400Y0138539D01*
X0182420Y0137341D02*
X0169000Y0137341D01*
X0169000Y0136142D02*
X0183618Y0136142D01*
X0164276Y0157715D02*
X0118924Y0157715D01*
X0120123Y0156517D02*
X0163077Y0156517D01*
X0162400Y0155318D02*
X0120800Y0155318D01*
X0120800Y0154120D02*
X0162400Y0154120D01*
X0162027Y0152921D02*
X0120800Y0152921D01*
X0120163Y0151723D02*
X0160829Y0151723D01*
X0159630Y0150524D02*
X0118964Y0150524D01*
X0119711Y0146929D02*
X0133489Y0146929D01*
X0132400Y0145730D02*
X0120800Y0145730D01*
X0120800Y0144532D02*
X0132400Y0144532D01*
X0132400Y0143333D02*
X0120800Y0143333D01*
X0120574Y0142135D02*
X0132626Y0142135D01*
X0138512Y0148127D02*
X0144688Y0148127D01*
X0143489Y0146929D02*
X0139711Y0146929D01*
X0140800Y0145730D02*
X0142400Y0145730D01*
X0142400Y0144532D02*
X0140800Y0144532D01*
X0140800Y0143333D02*
X0142400Y0143333D01*
X0142626Y0142135D02*
X0140574Y0142135D01*
X0139376Y0140936D02*
X0143824Y0140936D01*
X0149376Y0140936D02*
X0163824Y0140936D01*
X0144725Y0118165D02*
X0138475Y0118165D01*
X0139674Y0116966D02*
X0143526Y0116966D01*
X0142400Y0115768D02*
X0140800Y0115768D01*
X0140800Y0114569D02*
X0142400Y0114569D01*
X0142400Y0113370D02*
X0140800Y0113370D01*
X0140612Y0112172D02*
X0142588Y0112172D01*
X0134725Y0118165D02*
X0120800Y0118165D01*
X0120406Y0116966D02*
X0133526Y0116966D01*
X0132400Y0115768D02*
X0119207Y0115768D01*
X0119000Y0114569D02*
X0132400Y0114569D01*
X0132400Y0113370D02*
X0119000Y0113370D01*
X0119000Y0112172D02*
X0131278Y0112172D01*
X0130079Y0110973D02*
X0119000Y0110973D01*
X0119000Y0109775D02*
X0128881Y0109775D01*
X0127682Y0108576D02*
X0119000Y0108576D01*
X0119262Y0107378D02*
X0126484Y0107378D01*
X0125285Y0106179D02*
X0120460Y0106179D01*
X0120800Y0104981D02*
X0124087Y0104981D01*
X0122888Y0103782D02*
X0120800Y0103782D01*
X0120800Y0102584D02*
X0121690Y0102584D01*
X0120491Y0101385D02*
X0119825Y0101385D01*
X0119293Y0100187D02*
X0118627Y0100187D01*
X0118094Y0098988D02*
X0011500Y0098988D01*
X0011500Y0097790D02*
X0024350Y0097790D01*
X0024860Y0098300D02*
X0022400Y0095840D01*
X0022400Y0092360D01*
X0024860Y0089900D01*
X0028340Y0089900D01*
X0030800Y0092360D01*
X0030800Y0095840D01*
X0028340Y0098300D01*
X0024860Y0098300D01*
X0024860Y0099900D02*
X0022400Y0102360D01*
X0022400Y0105840D01*
X0024200Y0107640D01*
X0024200Y0115560D01*
X0022400Y0117360D01*
X0022400Y0120840D01*
X0024860Y0123300D01*
X0028340Y0123300D01*
X0030800Y0120840D01*
X0030800Y0117360D01*
X0029000Y0115560D01*
X0029000Y0107640D01*
X0030800Y0105840D01*
X0030800Y0102360D01*
X0028340Y0099900D01*
X0024860Y0099900D01*
X0024573Y0100187D02*
X0011500Y0100187D01*
X0011500Y0101385D02*
X0023375Y0101385D01*
X0022400Y0102584D02*
X0011500Y0102584D01*
X0011500Y0103782D02*
X0022400Y0103782D01*
X0022400Y0104981D02*
X0011500Y0104981D01*
X0011500Y0106179D02*
X0022740Y0106179D01*
X0023938Y0107378D02*
X0011500Y0107378D01*
X0011500Y0108576D02*
X0024200Y0108576D01*
X0024200Y0109775D02*
X0011500Y0109775D01*
X0011500Y0110973D02*
X0024200Y0110973D01*
X0024200Y0112172D02*
X0011500Y0112172D01*
X0011500Y0113370D02*
X0024200Y0113370D01*
X0024200Y0114569D02*
X0011500Y0114569D01*
X0011500Y0115768D02*
X0023993Y0115768D01*
X0022794Y0116966D02*
X0011500Y0116966D01*
X0011500Y0118165D02*
X0022400Y0118165D01*
X0022400Y0119363D02*
X0011500Y0119363D01*
X0011500Y0120562D02*
X0022400Y0120562D01*
X0023320Y0121760D02*
X0011500Y0121760D01*
X0011500Y0122959D02*
X0024519Y0122959D01*
X0024860Y0124900D02*
X0028340Y0124900D01*
X0030800Y0127360D01*
X0030800Y0130840D01*
X0029000Y0132640D01*
X0029000Y0140560D01*
X0030800Y0142360D01*
X0030800Y0145840D01*
X0028340Y0148300D01*
X0024860Y0148300D01*
X0022400Y0145840D01*
X0022400Y0142360D01*
X0024200Y0140560D01*
X0024200Y0132640D01*
X0022400Y0130840D01*
X0022400Y0127360D01*
X0024860Y0124900D01*
X0024405Y0125356D02*
X0011500Y0125356D01*
X0011500Y0126554D02*
X0023206Y0126554D01*
X0022400Y0127753D02*
X0011500Y0127753D01*
X0011500Y0128951D02*
X0022400Y0128951D01*
X0022400Y0130150D02*
X0011500Y0130150D01*
X0011500Y0131348D02*
X0022908Y0131348D01*
X0024107Y0132547D02*
X0011500Y0132547D01*
X0011500Y0133745D02*
X0024200Y0133745D01*
X0024200Y0134944D02*
X0011500Y0134944D01*
X0011500Y0136142D02*
X0024200Y0136142D01*
X0024200Y0137341D02*
X0011500Y0137341D01*
X0011500Y0138539D02*
X0024200Y0138539D01*
X0024200Y0139738D02*
X0011500Y0139738D01*
X0011500Y0140936D02*
X0023824Y0140936D01*
X0022626Y0142135D02*
X0011500Y0142135D01*
X0011500Y0143333D02*
X0022400Y0143333D01*
X0022400Y0144532D02*
X0011500Y0144532D01*
X0011500Y0145730D02*
X0022400Y0145730D01*
X0023489Y0146929D02*
X0011500Y0146929D01*
X0011500Y0148127D02*
X0024688Y0148127D01*
X0024860Y0149900D02*
X0028340Y0149900D01*
X0030140Y0151700D01*
X0044200Y0151700D01*
X0044200Y0142640D01*
X0042400Y0140840D01*
X0042400Y0137360D01*
X0044860Y0134900D01*
X0048340Y0134900D01*
X0050800Y0137360D01*
X0050800Y0140840D01*
X0049000Y0142640D01*
X0049000Y0154577D01*
X0048635Y0155459D01*
X0047959Y0156135D01*
X0047077Y0156500D01*
X0030140Y0156500D01*
X0028340Y0158300D01*
X0024860Y0158300D01*
X0022400Y0155840D01*
X0022400Y0152360D01*
X0024860Y0149900D01*
X0024236Y0150524D02*
X0011500Y0150524D01*
X0011500Y0149326D02*
X0044200Y0149326D01*
X0044200Y0150524D02*
X0028964Y0150524D01*
X0028512Y0148127D02*
X0044200Y0148127D01*
X0044200Y0146929D02*
X0029711Y0146929D01*
X0030800Y0145730D02*
X0044200Y0145730D01*
X0044200Y0144532D02*
X0030800Y0144532D01*
X0030800Y0143333D02*
X0044200Y0143333D01*
X0043695Y0142135D02*
X0030574Y0142135D01*
X0029376Y0140936D02*
X0042497Y0140936D01*
X0042400Y0139738D02*
X0029000Y0139738D01*
X0029000Y0138539D02*
X0042400Y0138539D01*
X0042420Y0137341D02*
X0029000Y0137341D01*
X0029000Y0136142D02*
X0043618Y0136142D01*
X0044817Y0134944D02*
X0029000Y0134944D01*
X0029000Y0133745D02*
X0067400Y0133745D01*
X0067400Y0132547D02*
X0029093Y0132547D01*
X0030292Y0131348D02*
X0068412Y0131348D01*
X0069200Y0130560D02*
X0069200Y0117640D01*
X0067400Y0115840D01*
X0067400Y0112360D01*
X0069860Y0109900D01*
X0073340Y0109900D01*
X0075800Y0112360D01*
X0075800Y0115840D01*
X0074000Y0117640D01*
X0074000Y0130560D01*
X0075800Y0132360D01*
X0075800Y0135840D01*
X0073340Y0138300D01*
X0069860Y0138300D01*
X0067400Y0135840D01*
X0067400Y0132360D01*
X0069200Y0130560D01*
X0069200Y0130150D02*
X0030800Y0130150D01*
X0030800Y0128951D02*
X0069200Y0128951D01*
X0069200Y0127753D02*
X0030800Y0127753D01*
X0029994Y0126554D02*
X0069200Y0126554D01*
X0069200Y0125356D02*
X0028795Y0125356D01*
X0028681Y0122959D02*
X0069200Y0122959D01*
X0069200Y0124157D02*
X0011500Y0124157D01*
X0029880Y0121760D02*
X0069200Y0121760D01*
X0069200Y0120562D02*
X0030800Y0120562D01*
X0030800Y0119363D02*
X0069200Y0119363D01*
X0069200Y0118165D02*
X0030800Y0118165D01*
X0030406Y0116966D02*
X0068526Y0116966D01*
X0067400Y0115768D02*
X0029207Y0115768D01*
X0029000Y0114569D02*
X0067400Y0114569D01*
X0067400Y0113370D02*
X0029000Y0113370D01*
X0029000Y0112172D02*
X0043732Y0112172D01*
X0044860Y0113300D02*
X0042400Y0110840D01*
X0042400Y0109300D01*
X0046400Y0109300D01*
X0046400Y0113300D01*
X0044860Y0113300D01*
X0046400Y0112172D02*
X0046800Y0112172D01*
X0046800Y0113300D02*
X0046800Y0109300D01*
X0046400Y0109300D01*
X0046400Y0108900D01*
X0042400Y0108900D01*
X0042400Y0107360D01*
X0044860Y0104900D01*
X0046400Y0104900D01*
X0046400Y0108900D01*
X0046800Y0108900D01*
X0046800Y0109300D01*
X0050800Y0109300D01*
X0050800Y0110840D01*
X0048340Y0113300D01*
X0046800Y0113300D01*
X0046800Y0110973D02*
X0046400Y0110973D01*
X0046400Y0109775D02*
X0046800Y0109775D01*
X0046800Y0108900D02*
X0050800Y0108900D01*
X0050800Y0107360D01*
X0048340Y0104900D01*
X0046800Y0104900D01*
X0046800Y0108900D01*
X0046800Y0108576D02*
X0046400Y0108576D01*
X0046400Y0107378D02*
X0046800Y0107378D01*
X0046800Y0106179D02*
X0046400Y0106179D01*
X0046400Y0104981D02*
X0046800Y0104981D01*
X0048421Y0104981D02*
X0067400Y0104981D01*
X0067400Y0105840D02*
X0067400Y0102360D01*
X0069860Y0099900D01*
X0073340Y0099900D01*
X0075140Y0101700D01*
X0092077Y0101700D01*
X0092959Y0102065D01*
X0095794Y0104900D01*
X0098340Y0104900D01*
X0100800Y0107360D01*
X0100800Y0110840D01*
X0098340Y0113300D01*
X0094860Y0113300D01*
X0092400Y0110840D01*
X0092400Y0108294D01*
X0090606Y0106500D01*
X0075140Y0106500D01*
X0073340Y0108300D01*
X0069860Y0108300D01*
X0067400Y0105840D01*
X0067740Y0106179D02*
X0049619Y0106179D01*
X0050800Y0107378D02*
X0068938Y0107378D01*
X0068787Y0110973D02*
X0050666Y0110973D01*
X0050800Y0109775D02*
X0092400Y0109775D01*
X0092400Y0108576D02*
X0050800Y0108576D01*
X0049468Y0112172D02*
X0067588Y0112172D01*
X0067400Y0103782D02*
X0030800Y0103782D01*
X0030800Y0102584D02*
X0067400Y0102584D01*
X0068375Y0101385D02*
X0029825Y0101385D01*
X0028627Y0100187D02*
X0069573Y0100187D01*
X0073627Y0100187D02*
X0114573Y0100187D01*
X0113375Y0101385D02*
X0074825Y0101385D01*
X0074262Y0107378D02*
X0091484Y0107378D01*
X0092534Y0110973D02*
X0074413Y0110973D01*
X0075612Y0112172D02*
X0093732Y0112172D01*
X0099468Y0112172D02*
X0114200Y0112172D01*
X0114200Y0113370D02*
X0075800Y0113370D01*
X0075800Y0114569D02*
X0114200Y0114569D01*
X0113993Y0115768D02*
X0075800Y0115768D01*
X0074674Y0116966D02*
X0112794Y0116966D01*
X0112400Y0118165D02*
X0074000Y0118165D01*
X0074000Y0119363D02*
X0112400Y0119363D01*
X0112400Y0120562D02*
X0074000Y0120562D01*
X0074000Y0121760D02*
X0113320Y0121760D01*
X0114519Y0122959D02*
X0074000Y0122959D01*
X0074000Y0124157D02*
X0209200Y0124157D01*
X0214000Y0122959D02*
X0254519Y0122959D01*
X0253320Y0121760D02*
X0214000Y0121760D01*
X0214000Y0120562D02*
X0252400Y0120562D01*
X0252400Y0119363D02*
X0214000Y0119363D01*
X0214000Y0118165D02*
X0252400Y0118165D01*
X0252794Y0116966D02*
X0214674Y0116966D01*
X0215800Y0115768D02*
X0253993Y0115768D01*
X0254200Y0114569D02*
X0215800Y0114569D01*
X0215800Y0113370D02*
X0254200Y0113370D01*
X0254200Y0112172D02*
X0239468Y0112172D01*
X0240666Y0110973D02*
X0254200Y0110973D01*
X0254200Y0109775D02*
X0240800Y0109775D01*
X0240800Y0108576D02*
X0254200Y0108576D01*
X0253938Y0107378D02*
X0241716Y0107378D01*
X0242915Y0106179D02*
X0252740Y0106179D01*
X0252400Y0104981D02*
X0244113Y0104981D01*
X0245312Y0103782D02*
X0252400Y0103782D01*
X0252400Y0102584D02*
X0246510Y0102584D01*
X0247709Y0101385D02*
X0253375Y0101385D01*
X0254573Y0100187D02*
X0248907Y0100187D01*
X0250106Y0098988D02*
X0271700Y0098988D01*
X0271700Y0097790D02*
X0258850Y0097790D01*
X0260048Y0096591D02*
X0271700Y0096591D01*
X0271700Y0095393D02*
X0260800Y0095393D01*
X0260800Y0094194D02*
X0271700Y0094194D01*
X0271700Y0092996D02*
X0260800Y0092996D01*
X0260237Y0091797D02*
X0271700Y0091797D01*
X0271700Y0090599D02*
X0259038Y0090599D01*
X0253152Y0096591D02*
X0252503Y0096591D01*
X0251304Y0097790D02*
X0254350Y0097790D01*
X0258627Y0100187D02*
X0271700Y0100187D01*
X0271700Y0101385D02*
X0259825Y0101385D01*
X0260800Y0102584D02*
X0271700Y0102584D01*
X0271700Y0103782D02*
X0260800Y0103782D01*
X0260800Y0104981D02*
X0271700Y0104981D01*
X0271700Y0106179D02*
X0260460Y0106179D01*
X0259262Y0107378D02*
X0271700Y0107378D01*
X0271700Y0108576D02*
X0259000Y0108576D01*
X0259000Y0109775D02*
X0271700Y0109775D01*
X0271700Y0110973D02*
X0259000Y0110973D01*
X0259000Y0112172D02*
X0271700Y0112172D01*
X0271700Y0113370D02*
X0259000Y0113370D01*
X0259000Y0114569D02*
X0271700Y0114569D01*
X0271700Y0115768D02*
X0259207Y0115768D01*
X0260406Y0116966D02*
X0271700Y0116966D01*
X0271700Y0118165D02*
X0260800Y0118165D01*
X0260800Y0119363D02*
X0271700Y0119363D01*
X0271700Y0120562D02*
X0260800Y0120562D01*
X0259880Y0121760D02*
X0271700Y0121760D01*
X0271700Y0089400D02*
X0011500Y0089400D01*
X0011500Y0088202D02*
X0271700Y0088202D01*
X0271700Y0087003D02*
X0011500Y0087003D01*
X0011500Y0085805D02*
X0271700Y0085805D01*
X0271700Y0084606D02*
X0011500Y0084606D01*
X0011500Y0083408D02*
X0271700Y0083408D01*
X0271700Y0082209D02*
X0244430Y0082209D01*
X0243340Y0083300D02*
X0245800Y0080840D01*
X0245800Y0077360D01*
X0243340Y0074900D01*
X0239860Y0074900D01*
X0237400Y0077360D01*
X0237400Y0080840D01*
X0239860Y0083300D01*
X0243340Y0083300D01*
X0245629Y0081011D02*
X0271700Y0081011D01*
X0271700Y0079812D02*
X0245800Y0079812D01*
X0245800Y0078614D02*
X0271700Y0078614D01*
X0271700Y0077415D02*
X0245800Y0077415D01*
X0244656Y0076217D02*
X0271700Y0076217D01*
X0271700Y0075018D02*
X0243458Y0075018D01*
X0239742Y0075018D02*
X0233458Y0075018D01*
X0233340Y0074900D02*
X0235800Y0077360D01*
X0235800Y0080840D01*
X0233340Y0083300D01*
X0229860Y0083300D01*
X0228060Y0081500D01*
X0220140Y0081500D01*
X0218340Y0083300D01*
X0214860Y0083300D01*
X0212400Y0080840D01*
X0212400Y0077360D01*
X0214860Y0074900D01*
X0218340Y0074900D01*
X0220140Y0076700D01*
X0228060Y0076700D01*
X0229860Y0074900D01*
X0233340Y0074900D01*
X0234656Y0076217D02*
X0238544Y0076217D01*
X0237400Y0077415D02*
X0235800Y0077415D01*
X0235800Y0078614D02*
X0237400Y0078614D01*
X0237400Y0079812D02*
X0235800Y0079812D01*
X0235629Y0081011D02*
X0237571Y0081011D01*
X0238770Y0082209D02*
X0234430Y0082209D01*
X0228770Y0082209D02*
X0219430Y0082209D01*
X0219656Y0076217D02*
X0228544Y0076217D01*
X0229742Y0075018D02*
X0218458Y0075018D01*
X0214742Y0075018D02*
X0208458Y0075018D01*
X0208340Y0074900D02*
X0210800Y0077360D01*
X0210800Y0080840D01*
X0208340Y0083300D01*
X0204860Y0083300D01*
X0203060Y0081500D01*
X0195140Y0081500D01*
X0193340Y0083300D01*
X0189860Y0083300D01*
X0187400Y0080840D01*
X0187400Y0077360D01*
X0189860Y0074900D01*
X0193340Y0074900D01*
X0195140Y0076700D01*
X0203060Y0076700D01*
X0204860Y0074900D01*
X0208340Y0074900D01*
X0209656Y0076217D02*
X0213544Y0076217D01*
X0212400Y0077415D02*
X0210800Y0077415D01*
X0210800Y0078614D02*
X0212400Y0078614D01*
X0212400Y0079812D02*
X0210800Y0079812D01*
X0210629Y0081011D02*
X0212571Y0081011D01*
X0213770Y0082209D02*
X0209430Y0082209D01*
X0203770Y0082209D02*
X0194430Y0082209D01*
X0194656Y0076217D02*
X0203544Y0076217D01*
X0204742Y0075018D02*
X0193458Y0075018D01*
X0191473Y0072621D02*
X0271700Y0072621D01*
X0271700Y0071423D02*
X0192672Y0071423D01*
X0193870Y0070224D02*
X0271700Y0070224D01*
X0271700Y0069026D02*
X0195069Y0069026D01*
X0196267Y0067827D02*
X0271700Y0067827D01*
X0271700Y0066629D02*
X0197466Y0066629D01*
X0198635Y0065459D02*
X0199000Y0064577D01*
X0199000Y0057640D01*
X0200800Y0055840D01*
X0200800Y0052360D01*
X0198340Y0049900D01*
X0194860Y0049900D01*
X0192400Y0052360D01*
X0192400Y0055840D01*
X0194200Y0057640D01*
X0194200Y0063106D01*
X0182406Y0074900D01*
X0179860Y0074900D01*
X0177400Y0077360D01*
X0177400Y0080840D01*
X0179860Y0083300D01*
X0183340Y0083300D01*
X0185800Y0080840D01*
X0185800Y0078294D01*
X0198635Y0065459D01*
X0198647Y0065430D02*
X0271700Y0065430D01*
X0271700Y0064232D02*
X0199000Y0064232D01*
X0199000Y0063033D02*
X0271700Y0063033D01*
X0271700Y0061834D02*
X0199000Y0061834D01*
X0199000Y0060636D02*
X0271700Y0060636D01*
X0262200Y0059437D02*
X0261000Y0059437D01*
X0261000Y0058239D02*
X0262200Y0058239D01*
X0262200Y0057040D02*
X0261000Y0057040D01*
X0261000Y0055842D02*
X0262200Y0055842D01*
X0262200Y0054643D02*
X0261000Y0054643D01*
X0261000Y0053445D02*
X0230800Y0053445D01*
X0230800Y0053900D02*
X0226800Y0053900D01*
X0226800Y0054300D01*
X0230800Y0054300D01*
X0230800Y0055840D01*
X0228340Y0058300D01*
X0226800Y0058300D01*
X0226800Y0054300D01*
X0226400Y0054300D01*
X0226400Y0058300D01*
X0224860Y0058300D01*
X0222400Y0055840D01*
X0222400Y0054300D01*
X0226400Y0054300D01*
X0226400Y0053900D01*
X0226800Y0053900D01*
X0226800Y0049900D01*
X0228340Y0049900D01*
X0230800Y0052360D01*
X0230800Y0053900D01*
X0230800Y0054643D02*
X0250000Y0054643D01*
X0250000Y0055842D02*
X0230798Y0055842D01*
X0229599Y0057040D02*
X0250000Y0057040D01*
X0250048Y0058239D02*
X0228401Y0058239D01*
X0226800Y0058239D02*
X0226400Y0058239D01*
X0226400Y0057040D02*
X0226800Y0057040D01*
X0226800Y0055842D02*
X0226400Y0055842D01*
X0226400Y0054643D02*
X0226800Y0054643D01*
X0226400Y0053900D02*
X0222400Y0053900D01*
X0222400Y0052360D01*
X0224860Y0049900D01*
X0226400Y0049900D01*
X0226400Y0053900D01*
X0226400Y0053445D02*
X0226800Y0053445D01*
X0226800Y0052246D02*
X0226400Y0052246D01*
X0226400Y0051048D02*
X0226800Y0051048D01*
X0229488Y0051048D02*
X0250000Y0051048D01*
X0250000Y0052246D02*
X0230686Y0052246D01*
X0224799Y0058239D02*
X0199000Y0058239D01*
X0199000Y0059437D02*
X0251343Y0059437D01*
X0250000Y0052250D02*
X0250000Y0047639D01*
X0250109Y0047232D01*
X0250320Y0046868D01*
X0250618Y0046570D01*
X0250982Y0046359D01*
X0251389Y0046250D01*
X0261000Y0046250D01*
X0261000Y0052250D01*
X0250000Y0052250D01*
X0250000Y0049849D02*
X0033200Y0049849D01*
X0033200Y0048651D02*
X0250000Y0048651D01*
X0250050Y0047452D02*
X0033150Y0047452D01*
X0033200Y0047639D02*
X0033200Y0052250D01*
X0022200Y0052250D01*
X0022200Y0046250D01*
X0031811Y0046250D01*
X0032218Y0046359D01*
X0032582Y0046570D01*
X0032880Y0046868D01*
X0033091Y0047232D01*
X0033200Y0047639D01*
X0031825Y0046254D02*
X0251375Y0046254D01*
X0256603Y0041460D02*
X0026597Y0041460D01*
X0027673Y0040261D02*
X0255527Y0040261D01*
X0254835Y0039063D02*
X0028365Y0039063D01*
X0028967Y0037864D02*
X0254233Y0037864D01*
X0253911Y0036666D02*
X0029289Y0036666D01*
X0029605Y0035467D02*
X0253594Y0035467D01*
X0253594Y0034269D02*
X0029605Y0034269D01*
X0029605Y0033070D02*
X0253594Y0033070D01*
X0253821Y0031872D02*
X0029379Y0031872D01*
X0029058Y0030673D02*
X0254142Y0030673D01*
X0254640Y0029475D02*
X0137008Y0029475D01*
X0139093Y0028276D02*
X0255332Y0028276D01*
X0256265Y0027078D02*
X0140178Y0027078D01*
X0140674Y0025879D02*
X0257464Y0025879D01*
X0257912Y0042658D02*
X0025288Y0042658D01*
X0023212Y0043857D02*
X0259988Y0043857D01*
X0261000Y0046254D02*
X0262200Y0046254D01*
X0262200Y0047452D02*
X0261000Y0047452D01*
X0261000Y0048651D02*
X0262200Y0048651D01*
X0262200Y0049849D02*
X0261000Y0049849D01*
X0261000Y0051048D02*
X0262200Y0051048D01*
X0262200Y0052246D02*
X0261000Y0052246D01*
X0268212Y0043857D02*
X0271700Y0043857D01*
X0271700Y0045055D02*
X0011500Y0045055D01*
X0011500Y0043857D02*
X0014988Y0043857D01*
X0012912Y0042658D02*
X0011500Y0042658D01*
X0011500Y0041460D02*
X0011603Y0041460D01*
X0021000Y0046254D02*
X0022200Y0046254D01*
X0022200Y0047452D02*
X0021000Y0047452D01*
X0021000Y0048651D02*
X0022200Y0048651D01*
X0022200Y0049849D02*
X0021000Y0049849D01*
X0021000Y0051048D02*
X0022200Y0051048D01*
X0022200Y0052246D02*
X0021000Y0052246D01*
X0022200Y0053445D02*
X0052400Y0053445D01*
X0052400Y0052360D02*
X0052400Y0055840D01*
X0054200Y0057640D01*
X0054200Y0063106D01*
X0042406Y0074900D01*
X0039860Y0074900D01*
X0037400Y0077360D01*
X0037400Y0080840D01*
X0039860Y0083300D01*
X0043340Y0083300D01*
X0045800Y0080840D01*
X0045800Y0078294D01*
X0058635Y0065459D01*
X0059000Y0064577D01*
X0059000Y0057640D01*
X0060800Y0055840D01*
X0060800Y0052360D01*
X0058340Y0049900D01*
X0054860Y0049900D01*
X0052400Y0052360D01*
X0052514Y0052246D02*
X0033200Y0052246D01*
X0033200Y0051048D02*
X0053712Y0051048D01*
X0052400Y0054643D02*
X0033200Y0054643D01*
X0033200Y0053450D02*
X0033200Y0058061D01*
X0033091Y0058468D01*
X0032880Y0058832D01*
X0032582Y0059130D01*
X0032218Y0059341D01*
X0031811Y0059450D01*
X0022200Y0059450D01*
X0022200Y0053450D01*
X0033200Y0053450D01*
X0033200Y0055842D02*
X0052402Y0055842D01*
X0053601Y0057040D02*
X0033200Y0057040D01*
X0033152Y0058239D02*
X0054200Y0058239D01*
X0054200Y0059437D02*
X0031857Y0059437D01*
X0022200Y0059437D02*
X0021000Y0059437D01*
X0021000Y0058239D02*
X0022200Y0058239D01*
X0022200Y0057040D02*
X0021000Y0057040D01*
X0021000Y0055842D02*
X0022200Y0055842D01*
X0022200Y0054643D02*
X0021000Y0054643D01*
X0011500Y0060636D02*
X0054200Y0060636D01*
X0054200Y0061834D02*
X0011500Y0061834D01*
X0011500Y0063033D02*
X0054200Y0063033D01*
X0053074Y0064232D02*
X0011500Y0064232D01*
X0011500Y0065430D02*
X0051876Y0065430D01*
X0050677Y0066629D02*
X0011500Y0066629D01*
X0011500Y0067827D02*
X0049479Y0067827D01*
X0048280Y0069026D02*
X0011500Y0069026D01*
X0011500Y0070224D02*
X0047082Y0070224D01*
X0045883Y0071423D02*
X0011500Y0071423D01*
X0011500Y0072621D02*
X0044685Y0072621D01*
X0043486Y0073820D02*
X0011500Y0073820D01*
X0011500Y0075018D02*
X0039742Y0075018D01*
X0038544Y0076217D02*
X0011500Y0076217D01*
X0011500Y0077415D02*
X0037400Y0077415D01*
X0037400Y0078614D02*
X0011500Y0078614D01*
X0011500Y0079812D02*
X0037400Y0079812D01*
X0037571Y0081011D02*
X0011500Y0081011D01*
X0011500Y0082209D02*
X0038770Y0082209D01*
X0044430Y0082209D02*
X0048770Y0082209D01*
X0049860Y0083300D02*
X0047400Y0080840D01*
X0047400Y0077360D01*
X0049860Y0074900D01*
X0053340Y0074900D01*
X0055140Y0076700D01*
X0063060Y0076700D01*
X0064860Y0074900D01*
X0068340Y0074900D01*
X0070800Y0077360D01*
X0070800Y0080840D01*
X0068340Y0083300D01*
X0064860Y0083300D01*
X0063060Y0081500D01*
X0055140Y0081500D01*
X0053340Y0083300D01*
X0049860Y0083300D01*
X0047571Y0081011D02*
X0045629Y0081011D01*
X0045800Y0079812D02*
X0047400Y0079812D01*
X0047400Y0078614D02*
X0045800Y0078614D01*
X0046679Y0077415D02*
X0047400Y0077415D01*
X0047877Y0076217D02*
X0048544Y0076217D01*
X0049076Y0075018D02*
X0049742Y0075018D01*
X0050274Y0073820D02*
X0183486Y0073820D01*
X0184685Y0072621D02*
X0051473Y0072621D01*
X0052672Y0071423D02*
X0185883Y0071423D01*
X0187082Y0070224D02*
X0053870Y0070224D01*
X0055069Y0069026D02*
X0188280Y0069026D01*
X0189479Y0067827D02*
X0056267Y0067827D01*
X0057466Y0066629D02*
X0190677Y0066629D01*
X0191876Y0065430D02*
X0058647Y0065430D01*
X0059000Y0064232D02*
X0193074Y0064232D01*
X0194200Y0063033D02*
X0059000Y0063033D01*
X0059000Y0061834D02*
X0194200Y0061834D01*
X0194200Y0060636D02*
X0059000Y0060636D01*
X0059000Y0059437D02*
X0194200Y0059437D01*
X0194200Y0058239D02*
X0088401Y0058239D01*
X0088340Y0058300D02*
X0086800Y0058300D01*
X0086800Y0054300D01*
X0090800Y0054300D01*
X0090800Y0055840D01*
X0088340Y0058300D01*
X0086800Y0058239D02*
X0086400Y0058239D01*
X0086400Y0058300D02*
X0084860Y0058300D01*
X0082400Y0055840D01*
X0082400Y0054300D01*
X0086400Y0054300D01*
X0086400Y0058300D01*
X0086400Y0057040D02*
X0086800Y0057040D01*
X0086800Y0055842D02*
X0086400Y0055842D01*
X0086400Y0054643D02*
X0086800Y0054643D01*
X0086800Y0054300D02*
X0086400Y0054300D01*
X0086400Y0053900D01*
X0086800Y0053900D01*
X0086800Y0054300D01*
X0086800Y0053900D02*
X0090800Y0053900D01*
X0090800Y0052360D01*
X0088340Y0049900D01*
X0086800Y0049900D01*
X0086800Y0053900D01*
X0086400Y0053900D02*
X0086400Y0049900D01*
X0084860Y0049900D01*
X0082400Y0052360D01*
X0082400Y0053900D01*
X0086400Y0053900D01*
X0086400Y0053445D02*
X0086800Y0053445D01*
X0086800Y0052246D02*
X0086400Y0052246D01*
X0086400Y0051048D02*
X0086800Y0051048D01*
X0089488Y0051048D02*
X0193712Y0051048D01*
X0192514Y0052246D02*
X0090686Y0052246D01*
X0090800Y0053445D02*
X0192400Y0053445D01*
X0192400Y0054643D02*
X0090800Y0054643D01*
X0090798Y0055842D02*
X0192402Y0055842D01*
X0193601Y0057040D02*
X0089599Y0057040D01*
X0084799Y0058239D02*
X0059000Y0058239D01*
X0059599Y0057040D02*
X0083601Y0057040D01*
X0082402Y0055842D02*
X0060798Y0055842D01*
X0060800Y0054643D02*
X0082400Y0054643D01*
X0082400Y0053445D02*
X0060800Y0053445D01*
X0060686Y0052246D02*
X0082514Y0052246D01*
X0083712Y0051048D02*
X0059488Y0051048D01*
X0064742Y0075018D02*
X0053458Y0075018D01*
X0054656Y0076217D02*
X0063544Y0076217D01*
X0063770Y0082209D02*
X0054430Y0082209D01*
X0069430Y0082209D02*
X0073770Y0082209D01*
X0074860Y0083300D02*
X0072400Y0080840D01*
X0072400Y0077360D01*
X0074860Y0074900D01*
X0078340Y0074900D01*
X0080140Y0076700D01*
X0088060Y0076700D01*
X0089860Y0074900D01*
X0093340Y0074900D01*
X0095800Y0077360D01*
X0095800Y0080840D01*
X0093340Y0083300D01*
X0089860Y0083300D01*
X0088060Y0081500D01*
X0080140Y0081500D01*
X0078340Y0083300D01*
X0074860Y0083300D01*
X0072571Y0081011D02*
X0070629Y0081011D01*
X0070800Y0079812D02*
X0072400Y0079812D01*
X0072400Y0078614D02*
X0070800Y0078614D01*
X0070800Y0077415D02*
X0072400Y0077415D01*
X0073544Y0076217D02*
X0069656Y0076217D01*
X0068458Y0075018D02*
X0074742Y0075018D01*
X0078458Y0075018D02*
X0089742Y0075018D01*
X0088544Y0076217D02*
X0079656Y0076217D01*
X0079430Y0082209D02*
X0088770Y0082209D01*
X0094430Y0082209D02*
X0098770Y0082209D01*
X0099860Y0083300D02*
X0097400Y0080840D01*
X0097400Y0077360D01*
X0099860Y0074900D01*
X0103340Y0074900D01*
X0105800Y0077360D01*
X0105800Y0080840D01*
X0103340Y0083300D01*
X0099860Y0083300D01*
X0097571Y0081011D02*
X0095629Y0081011D01*
X0095800Y0079812D02*
X0097400Y0079812D01*
X0097400Y0078614D02*
X0095800Y0078614D01*
X0095800Y0077415D02*
X0097400Y0077415D01*
X0098544Y0076217D02*
X0094656Y0076217D01*
X0093458Y0075018D02*
X0099742Y0075018D01*
X0103458Y0075018D02*
X0179742Y0075018D01*
X0178544Y0076217D02*
X0104656Y0076217D01*
X0105800Y0077415D02*
X0177400Y0077415D01*
X0177400Y0078614D02*
X0105800Y0078614D01*
X0105800Y0079812D02*
X0177400Y0079812D01*
X0177571Y0081011D02*
X0105629Y0081011D01*
X0104430Y0082209D02*
X0178770Y0082209D01*
X0184430Y0082209D02*
X0188770Y0082209D01*
X0187571Y0081011D02*
X0185629Y0081011D01*
X0185800Y0079812D02*
X0187400Y0079812D01*
X0187400Y0078614D02*
X0185800Y0078614D01*
X0186679Y0077415D02*
X0187400Y0077415D01*
X0187877Y0076217D02*
X0188544Y0076217D01*
X0189076Y0075018D02*
X0189742Y0075018D01*
X0190274Y0073820D02*
X0271700Y0073820D01*
X0271700Y0042658D02*
X0270288Y0042658D01*
X0271597Y0041460D02*
X0271700Y0041460D01*
X0242119Y0100187D02*
X0213627Y0100187D01*
X0214825Y0101385D02*
X0240921Y0101385D01*
X0239722Y0102584D02*
X0215800Y0102584D01*
X0215800Y0103782D02*
X0238523Y0103782D01*
X0234779Y0104981D02*
X0215800Y0104981D01*
X0215460Y0106179D02*
X0233581Y0106179D01*
X0232400Y0107378D02*
X0214262Y0107378D01*
X0214413Y0110973D02*
X0232534Y0110973D01*
X0232400Y0109775D02*
X0209319Y0109775D01*
X0208787Y0110973D02*
X0208121Y0110973D01*
X0210518Y0108576D02*
X0232400Y0108576D01*
X0233732Y0112172D02*
X0215612Y0112172D01*
X0223601Y0057040D02*
X0199599Y0057040D01*
X0200798Y0055842D02*
X0222402Y0055842D01*
X0222400Y0054643D02*
X0200800Y0054643D01*
X0200800Y0053445D02*
X0222400Y0053445D01*
X0222514Y0052246D02*
X0200686Y0052246D01*
X0199488Y0051048D02*
X0223712Y0051048D01*
X0133692Y0029475D02*
X0028560Y0029475D01*
X0027868Y0028276D02*
X0131607Y0028276D01*
X0130408Y0027078D02*
X0026935Y0027078D01*
X0025736Y0025879D02*
X0129293Y0025879D01*
X0114162Y0090599D02*
X0029038Y0090599D01*
X0030237Y0091797D02*
X0112963Y0091797D01*
X0112400Y0092996D02*
X0030800Y0092996D01*
X0030800Y0094194D02*
X0112400Y0094194D01*
X0112400Y0095393D02*
X0030800Y0095393D01*
X0030048Y0096591D02*
X0113152Y0096591D01*
X0114350Y0097790D02*
X0028850Y0097790D01*
X0023152Y0096591D02*
X0011500Y0096591D01*
X0011500Y0095393D02*
X0022400Y0095393D01*
X0022400Y0094194D02*
X0011500Y0094194D01*
X0011500Y0092996D02*
X0022400Y0092996D01*
X0022963Y0091797D02*
X0011500Y0091797D01*
X0011500Y0090599D02*
X0024162Y0090599D01*
X0030800Y0104981D02*
X0044779Y0104981D01*
X0043581Y0106179D02*
X0030460Y0106179D01*
X0029262Y0107378D02*
X0042400Y0107378D01*
X0042400Y0108576D02*
X0029000Y0108576D01*
X0029000Y0109775D02*
X0042400Y0109775D01*
X0042534Y0110973D02*
X0029000Y0110973D01*
X0048383Y0134944D02*
X0067400Y0134944D01*
X0067703Y0136142D02*
X0049582Y0136142D01*
X0050780Y0137341D02*
X0068901Y0137341D01*
X0068824Y0140936D02*
X0050703Y0140936D01*
X0050800Y0139738D02*
X0092400Y0139738D01*
X0092400Y0138539D02*
X0050800Y0138539D01*
X0049505Y0142135D02*
X0067626Y0142135D01*
X0067400Y0143333D02*
X0049000Y0143333D01*
X0049000Y0144532D02*
X0067400Y0144532D01*
X0067400Y0145730D02*
X0049000Y0145730D01*
X0049000Y0146929D02*
X0068489Y0146929D01*
X0069688Y0148127D02*
X0049000Y0148127D01*
X0049000Y0151723D02*
X0113037Y0151723D01*
X0112400Y0152921D02*
X0049000Y0152921D01*
X0049000Y0154120D02*
X0112400Y0154120D01*
X0112400Y0155318D02*
X0048693Y0155318D01*
X0030123Y0156517D02*
X0113077Y0156517D01*
X0114276Y0157715D02*
X0028924Y0157715D01*
X0024276Y0157715D02*
X0011500Y0157715D01*
X0011500Y0156517D02*
X0023077Y0156517D01*
X0022400Y0155318D02*
X0011500Y0155318D01*
X0011500Y0154120D02*
X0022400Y0154120D01*
X0022400Y0152921D02*
X0011500Y0152921D01*
X0011500Y0151723D02*
X0023037Y0151723D01*
X0074376Y0140936D02*
X0092497Y0140936D01*
X0092420Y0137341D02*
X0074299Y0137341D01*
X0075497Y0136142D02*
X0093618Y0136142D01*
X0094817Y0134944D02*
X0075800Y0134944D01*
X0075800Y0133745D02*
X0114200Y0133745D01*
X0114107Y0132547D02*
X0075800Y0132547D01*
X0074788Y0131348D02*
X0112908Y0131348D01*
X0112400Y0130150D02*
X0074000Y0130150D01*
X0074000Y0128951D02*
X0112400Y0128951D01*
X0112400Y0127753D02*
X0074000Y0127753D01*
X0074000Y0126554D02*
X0113206Y0126554D01*
X0114405Y0125356D02*
X0074000Y0125356D01*
X0094677Y0103782D02*
X0112400Y0103782D01*
X0112400Y0102584D02*
X0093478Y0102584D01*
X0098421Y0104981D02*
X0112400Y0104981D01*
X0112740Y0106179D02*
X0099619Y0106179D01*
X0100800Y0107378D02*
X0113938Y0107378D01*
X0114200Y0108576D02*
X0100800Y0108576D01*
X0100800Y0109775D02*
X0114200Y0109775D01*
X0114200Y0110973D02*
X0100666Y0110973D01*
X0011900Y0240413D02*
X0011500Y0240413D01*
X0011500Y0241611D02*
X0011900Y0241611D01*
X0011900Y0242810D02*
X0011500Y0242810D01*
X0011500Y0244008D02*
X0011900Y0244008D01*
X0011900Y0245207D02*
X0011500Y0245207D01*
X0011500Y0246405D02*
X0011900Y0246405D01*
X0011900Y0247604D02*
X0011500Y0247604D01*
X0011500Y0248802D02*
X0011900Y0248802D01*
X0011900Y0250001D02*
X0011500Y0250001D01*
X0011500Y0251199D02*
X0011900Y0251199D01*
X0011900Y0252398D02*
X0011500Y0252398D01*
X0011500Y0253596D02*
X0011900Y0253596D01*
X0011900Y0254795D02*
X0011500Y0254795D01*
X0011500Y0255993D02*
X0011900Y0255993D01*
X0011900Y0257192D02*
X0011500Y0257192D01*
X0011500Y0258390D02*
X0011900Y0258390D01*
X0011900Y0259589D02*
X0011500Y0259589D01*
X0011500Y0260787D02*
X0011900Y0260787D01*
X0011900Y0261986D02*
X0011500Y0261986D01*
X0011500Y0263184D02*
X0011900Y0263184D01*
X0011900Y0264383D02*
X0011500Y0264383D01*
X0011500Y0265581D02*
X0011900Y0265581D01*
X0011900Y0266780D02*
X0011500Y0266780D01*
X0011500Y0267978D02*
X0011900Y0267978D01*
X0011900Y0269177D02*
X0011500Y0269177D01*
X0011500Y0270375D02*
X0011900Y0270375D01*
X0011900Y0271574D02*
X0011500Y0271574D01*
X0011500Y0272772D02*
X0011900Y0272772D01*
X0011900Y0273971D02*
X0011500Y0273971D01*
X0011500Y0275170D02*
X0011900Y0275170D01*
X0011900Y0276368D02*
X0011500Y0276368D01*
X0011500Y0277567D02*
X0011900Y0277567D01*
X0011900Y0278765D02*
X0011500Y0278765D01*
X0011500Y0279964D02*
X0011900Y0279964D01*
X0011900Y0281162D02*
X0011500Y0281162D01*
X0011500Y0282361D02*
X0011900Y0282361D01*
X0011900Y0283559D02*
X0011500Y0283559D01*
X0011500Y0284758D02*
X0011900Y0284758D01*
X0011900Y0285956D02*
X0011500Y0285956D01*
X0011500Y0287155D02*
X0011900Y0287155D01*
X0011900Y0288353D02*
X0011500Y0288353D01*
X0011500Y0289552D02*
X0011900Y0289552D01*
X0011900Y0290750D02*
X0011500Y0290750D01*
X0011500Y0291949D02*
X0011900Y0291949D01*
X0011900Y0293147D02*
X0011500Y0293147D01*
X0011500Y0294346D02*
X0011900Y0294346D01*
X0011900Y0295544D02*
X0011500Y0295544D01*
X0011500Y0296743D02*
X0011900Y0296743D01*
X0011900Y0297941D02*
X0011500Y0297941D01*
X0011500Y0299140D02*
X0011900Y0299140D01*
X0012227Y0300338D02*
X0011500Y0300338D01*
X0011500Y0301537D02*
X0013425Y0301537D01*
X0014624Y0302735D02*
X0011500Y0302735D01*
X0011500Y0303934D02*
X0015823Y0303934D01*
X0017021Y0305132D02*
X0011500Y0305132D01*
D16*
X0135350Y0024100D03*
D17*
X0134100Y0022850D01*
X0134100Y0019100D01*
X0261600Y0019100D01*
X0244100Y0035350D02*
X0040350Y0035350D01*
X0022850Y0052850D01*
X0021600Y0052850D01*
X0021600Y0019100D02*
X0134100Y0019100D01*
X0244100Y0035350D02*
X0261600Y0052850D01*
X0261600Y0334100D02*
X0252850Y0334100D01*
X0237850Y0349100D01*
X0182850Y0349100D01*
X0046600Y0349100D01*
X0031600Y0334100D01*
X0021600Y0334100D01*
X0021600Y0364100D02*
X0176600Y0364100D01*
X0261600Y0364100D01*
D18*
X0231600Y0259100D02*
X0216600Y0259100D01*
X0215350Y0252850D02*
X0221600Y0245350D01*
X0231600Y0234100D01*
X0215350Y0252850D02*
X0186600Y0252850D01*
X0181600Y0259100D01*
X0191600Y0259100D02*
X0206600Y0259100D01*
X0181600Y0244100D02*
X0191600Y0234100D01*
X0181600Y0244100D02*
X0166600Y0244100D01*
X0166600Y0234100D02*
X0166600Y0219100D01*
X0166600Y0209100D02*
X0166600Y0194100D01*
X0171600Y0169100D02*
X0181600Y0169100D01*
X0191600Y0169100D02*
X0206600Y0169100D01*
X0216600Y0169100D02*
X0231600Y0169100D01*
X0241600Y0169100D02*
X0226600Y0184100D01*
X0226600Y0189100D01*
X0226600Y0199100D02*
X0236600Y0189100D01*
X0251600Y0189100D01*
X0256600Y0184100D01*
X0256600Y0194100D02*
X0256600Y0209100D01*
X0256600Y0219100D02*
X0256600Y0234100D01*
X0226600Y0199100D02*
X0211600Y0199100D01*
X0211600Y0204100D01*
X0166600Y0154100D02*
X0156600Y0144100D01*
X0146600Y0144100D01*
X0166600Y0144100D02*
X0166600Y0129100D01*
X0166600Y0119100D02*
X0166600Y0104100D01*
X0186600Y0109100D02*
X0206600Y0109100D01*
X0211600Y0104100D01*
X0211600Y0114100D02*
X0211600Y0134100D01*
X0236600Y0109100D02*
X0251600Y0094100D01*
X0256600Y0094100D01*
X0256600Y0104100D02*
X0256600Y0119100D01*
X0256600Y0129100D02*
X0256600Y0144100D01*
X0231600Y0079100D02*
X0216600Y0079100D01*
X0206600Y0079100D02*
X0191600Y0079100D01*
X0181600Y0079100D02*
X0196600Y0064100D01*
X0196600Y0054100D01*
X0136600Y0114100D02*
X0116600Y0094100D01*
X0116600Y0104100D02*
X0116600Y0119100D01*
X0116600Y0129100D02*
X0116600Y0144100D01*
X0101600Y0169100D02*
X0086600Y0184100D01*
X0086600Y0189100D01*
X0086600Y0199100D02*
X0076600Y0199100D01*
X0076600Y0204100D01*
X0086600Y0199100D02*
X0096600Y0189100D01*
X0111600Y0189100D01*
X0116600Y0184100D01*
X0116600Y0194100D02*
X0116600Y0209100D01*
X0116600Y0219100D02*
X0116600Y0234100D01*
X0096600Y0234100D02*
X0096600Y0254100D01*
X0101600Y0259100D01*
X0091600Y0259100D02*
X0076600Y0259100D01*
X0066600Y0259100D02*
X0051600Y0259100D01*
X0051600Y0244100D02*
X0026600Y0244100D01*
X0026600Y0234100D02*
X0026600Y0219100D01*
X0026600Y0209100D02*
X0026600Y0194100D01*
X0051600Y0169100D02*
X0066600Y0169100D01*
X0076600Y0169100D02*
X0091600Y0169100D01*
X0071600Y0134100D02*
X0071600Y0114100D01*
X0071600Y0104100D02*
X0091600Y0104100D01*
X0096600Y0109100D01*
X0091600Y0079100D02*
X0076600Y0079100D01*
X0066600Y0079100D02*
X0051600Y0079100D01*
X0041600Y0079100D02*
X0056600Y0064100D01*
X0056600Y0054100D01*
X0026600Y0104100D02*
X0026600Y0119100D01*
X0026600Y0129100D02*
X0026600Y0144100D01*
X0026600Y0154100D02*
X0046600Y0154100D01*
X0046600Y0139100D01*
X0051600Y0234100D02*
X0051600Y0244100D01*
M02*
