G75*
%MOIN*%
%OFA0B0*%
%FSLAX25Y25*%
%IPPOS*%
%LPD*%
%AMOC8*
5,1,8,0,0,1.08239X$1,22.5*
%
%ADD10C,0.12611*%
%ADD11R,0.12800X0.03400*%
%ADD12OC8,0.06000*%
%ADD13R,0.03300X0.05800*%
%ADD14C,0.06000*%
%ADD15R,0.07887X0.07099*%
%ADD16R,0.04737X0.06312*%
%ADD17C,0.03778*%
%ADD18C,0.07550*%
D10*
X0019100Y0034100D03*
X0019100Y0349100D03*
X0264100Y0349100D03*
X0264100Y0034100D03*
D11*
X0094800Y0289100D03*
X0094650Y0294100D03*
X0094650Y0299100D03*
X0094650Y0304100D03*
X0094650Y0309100D03*
X0094650Y0314100D03*
X0094650Y0319100D03*
X0094650Y0324100D03*
X0094650Y0329100D03*
X0058550Y0329100D03*
X0058550Y0324100D03*
X0058550Y0319100D03*
X0058550Y0314100D03*
X0058550Y0309100D03*
X0058550Y0304100D03*
X0058550Y0299100D03*
X0058550Y0294100D03*
X0058550Y0289100D03*
D12*
X0051600Y0259100D03*
X0041600Y0259100D03*
X0026600Y0244100D03*
X0026600Y0234100D03*
X0026600Y0219100D03*
X0026600Y0209100D03*
X0026600Y0194100D03*
X0026600Y0184100D03*
X0041600Y0169100D03*
X0051600Y0169100D03*
X0066600Y0169100D03*
X0076600Y0169100D03*
X0091600Y0169100D03*
X0101600Y0169100D03*
X0086600Y0189100D03*
X0076600Y0204100D03*
X0096600Y0204100D03*
X0116600Y0209100D03*
X0116600Y0219100D03*
X0116600Y0234100D03*
X0116600Y0244100D03*
X0101600Y0259100D03*
X0091600Y0259100D03*
X0076600Y0259100D03*
X0066600Y0259100D03*
X0076600Y0234100D03*
X0096600Y0234100D03*
X0116600Y0194100D03*
X0116600Y0184100D03*
X0116600Y0154100D03*
X0116600Y0144100D03*
X0116600Y0129100D03*
X0116600Y0119100D03*
X0116600Y0104100D03*
X0116600Y0094100D03*
X0101600Y0079100D03*
X0091600Y0079100D03*
X0076600Y0079100D03*
X0066600Y0079100D03*
X0051600Y0079100D03*
X0041600Y0079100D03*
X0026600Y0094100D03*
X0026600Y0104100D03*
X0026600Y0119100D03*
X0026600Y0129100D03*
X0026600Y0144100D03*
X0026600Y0154100D03*
X0046600Y0139100D03*
X0046600Y0109100D03*
X0071600Y0104100D03*
X0071600Y0114100D03*
X0071600Y0134100D03*
X0071600Y0144100D03*
X0096600Y0139100D03*
X0096600Y0109100D03*
X0136600Y0114100D03*
X0146600Y0114100D03*
X0166600Y0119100D03*
X0166600Y0129100D03*
X0166600Y0144100D03*
X0166600Y0154100D03*
X0181600Y0169100D03*
X0191600Y0169100D03*
X0206600Y0169100D03*
X0216600Y0169100D03*
X0231600Y0169100D03*
X0241600Y0169100D03*
X0256600Y0154100D03*
X0256600Y0144100D03*
X0256600Y0129100D03*
X0256600Y0119100D03*
X0256600Y0104100D03*
X0256600Y0094100D03*
X0241600Y0079100D03*
X0231600Y0079100D03*
X0216600Y0079100D03*
X0206600Y0079100D03*
X0191600Y0079100D03*
X0181600Y0079100D03*
X0166600Y0094100D03*
X0166600Y0104100D03*
X0186600Y0109100D03*
X0186600Y0139100D03*
X0211600Y0134100D03*
X0211600Y0144100D03*
X0211600Y0114100D03*
X0211600Y0104100D03*
X0236600Y0109100D03*
X0236600Y0139100D03*
X0256600Y0184100D03*
X0256600Y0194100D03*
X0256600Y0209100D03*
X0256600Y0219100D03*
X0256600Y0234100D03*
X0256600Y0244100D03*
X0241600Y0259100D03*
X0231600Y0259100D03*
X0216600Y0259100D03*
X0206600Y0259100D03*
X0191600Y0259100D03*
X0181600Y0259100D03*
X0166600Y0244100D03*
X0166600Y0234100D03*
X0166600Y0219100D03*
X0166600Y0209100D03*
X0166600Y0194100D03*
X0166600Y0184100D03*
X0191600Y0204100D03*
X0196600Y0189100D03*
X0211600Y0204100D03*
X0226600Y0189100D03*
X0231600Y0204100D03*
X0231600Y0234100D03*
X0211600Y0234100D03*
X0191600Y0234100D03*
X0146600Y0144100D03*
X0136600Y0144100D03*
X0086600Y0054100D03*
X0056600Y0054100D03*
X0056600Y0189100D03*
X0051600Y0204100D03*
X0051600Y0234100D03*
X0196600Y0054100D03*
X0226600Y0054100D03*
D13*
X0160100Y0334100D03*
X0156600Y0334100D03*
X0153100Y0334100D03*
X0145100Y0334100D03*
X0141600Y0334100D03*
X0138100Y0334100D03*
X0130100Y0334100D03*
X0126600Y0334100D03*
X0123100Y0334100D03*
X0115100Y0334100D03*
X0111600Y0334100D03*
X0108100Y0334100D03*
D14*
X0176600Y0321700D02*
X0176600Y0316500D01*
X0186600Y0316500D02*
X0186600Y0321700D01*
X0196600Y0321700D02*
X0196600Y0316500D01*
X0206600Y0316500D02*
X0206600Y0321700D01*
X0216600Y0321700D02*
X0216600Y0316500D01*
X0226600Y0316500D02*
X0226600Y0321700D01*
X0236600Y0321700D02*
X0236600Y0316500D01*
X0246600Y0316500D02*
X0246600Y0321700D01*
X0256600Y0321700D02*
X0256600Y0316500D01*
X0256600Y0291700D02*
X0256600Y0286500D01*
X0246600Y0286500D02*
X0246600Y0291700D01*
X0236600Y0291700D02*
X0236600Y0286500D01*
X0226600Y0286500D02*
X0226600Y0291700D01*
X0216600Y0291700D02*
X0216600Y0286500D01*
X0206600Y0286500D02*
X0206600Y0291700D01*
X0196600Y0291700D02*
X0196600Y0286500D01*
X0186600Y0286500D02*
X0186600Y0291700D01*
X0176600Y0291700D02*
X0176600Y0286500D01*
D15*
X0150350Y0301088D03*
X0150350Y0312112D03*
X0121600Y0310862D03*
X0121600Y0299838D03*
D16*
X0132860Y0309681D03*
X0136600Y0301019D03*
X0140340Y0309681D03*
D17*
X0140350Y0320350D03*
X0141600Y0329100D03*
X0147850Y0325350D03*
X0156600Y0329100D03*
X0157850Y0311600D03*
X0156600Y0294100D03*
X0161600Y0294100D03*
X0165578Y0294100D03*
X0169556Y0294100D03*
X0176600Y0339100D03*
X0176600Y0364100D03*
X0131600Y0317850D03*
X0126600Y0329100D03*
X0111600Y0329100D03*
X0109100Y0324100D03*
X0105122Y0322850D03*
X0103811Y0318872D03*
X0105054Y0310054D03*
X0103818Y0305068D03*
X0104100Y0300350D03*
X0106332Y0296332D03*
X0105350Y0292354D03*
X0107596Y0288846D03*
X0121600Y0282850D03*
X0070350Y0304100D03*
X0057850Y0197850D03*
X0171600Y0169100D03*
D18*
X0135350Y0024100D03*
M02*
