G75*
%MOIN*%
%OFA0B0*%
%FSLAX25Y25*%
%IPPOS*%
%LPD*%
%AMOC8*
5,1,8,0,0,1.08239X$1,22.5*
%
%ADD10R,0.12000X0.02600*%
%ADD11OC8,0.05200*%
%ADD12R,0.02500X0.05000*%
%ADD13C,0.05200*%
%ADD14R,0.07087X0.06299*%
%ADD15R,0.03937X0.05512*%
%ADD16C,0.01200*%
%ADD17C,0.02978*%
%ADD18C,0.06750*%
%ADD19C,0.01600*%
D10*
X0058550Y0289100D03*
X0058550Y0294100D03*
X0058550Y0299100D03*
X0058550Y0304100D03*
X0058550Y0309100D03*
X0058550Y0314100D03*
X0058550Y0319100D03*
X0058550Y0324100D03*
X0058550Y0329100D03*
X0094650Y0329100D03*
X0094650Y0324100D03*
X0094650Y0319100D03*
X0094650Y0314100D03*
X0094650Y0309100D03*
X0094650Y0304100D03*
X0094650Y0299100D03*
X0094650Y0294100D03*
X0094800Y0289100D03*
D11*
X0091600Y0259100D03*
X0101600Y0259100D03*
X0116600Y0244100D03*
X0116600Y0234100D03*
X0116600Y0219100D03*
X0116600Y0209100D03*
X0116600Y0194100D03*
X0116600Y0184100D03*
X0101600Y0169100D03*
X0091600Y0169100D03*
X0076600Y0169100D03*
X0066600Y0169100D03*
X0051600Y0169100D03*
X0041600Y0169100D03*
X0026600Y0154100D03*
X0026600Y0144100D03*
X0026600Y0129100D03*
X0026600Y0119100D03*
X0026600Y0104100D03*
X0026600Y0094100D03*
X0041600Y0079100D03*
X0051600Y0079100D03*
X0066600Y0079100D03*
X0076600Y0079100D03*
X0091600Y0079100D03*
X0101600Y0079100D03*
X0116600Y0094100D03*
X0116600Y0104100D03*
X0116600Y0119100D03*
X0116600Y0129100D03*
X0116600Y0144100D03*
X0116600Y0154100D03*
X0136600Y0144100D03*
X0146600Y0144100D03*
X0166600Y0144100D03*
X0166600Y0154100D03*
X0181600Y0169100D03*
X0191600Y0169100D03*
X0206600Y0169100D03*
X0216600Y0169100D03*
X0231600Y0169100D03*
X0241600Y0169100D03*
X0256600Y0154100D03*
X0256600Y0144100D03*
X0256600Y0129100D03*
X0256600Y0119100D03*
X0256600Y0104100D03*
X0256600Y0094100D03*
X0241600Y0079100D03*
X0231600Y0079100D03*
X0216600Y0079100D03*
X0206600Y0079100D03*
X0191600Y0079100D03*
X0181600Y0079100D03*
X0166600Y0094100D03*
X0166600Y0104100D03*
X0166600Y0119100D03*
X0166600Y0129100D03*
X0186600Y0139100D03*
X0186600Y0109100D03*
X0211600Y0104100D03*
X0211600Y0114100D03*
X0211600Y0134100D03*
X0211600Y0144100D03*
X0236600Y0139100D03*
X0236600Y0109100D03*
X0226600Y0054100D03*
X0196600Y0054100D03*
X0146600Y0114100D03*
X0136600Y0114100D03*
X0096600Y0109100D03*
X0096600Y0139100D03*
X0071600Y0134100D03*
X0071600Y0144100D03*
X0071600Y0114100D03*
X0071600Y0104100D03*
X0046600Y0109100D03*
X0046600Y0139100D03*
X0026600Y0184100D03*
X0026600Y0194100D03*
X0026600Y0209100D03*
X0026600Y0219100D03*
X0026600Y0234100D03*
X0026600Y0244100D03*
X0041600Y0259100D03*
X0051600Y0259100D03*
X0066600Y0259100D03*
X0076600Y0259100D03*
X0076600Y0234100D03*
X0096600Y0234100D03*
X0096600Y0204100D03*
X0086600Y0189100D03*
X0076600Y0204100D03*
X0056600Y0189100D03*
X0051600Y0204100D03*
X0051600Y0234100D03*
X0166600Y0234100D03*
X0166600Y0244100D03*
X0181600Y0259100D03*
X0191600Y0259100D03*
X0206600Y0259100D03*
X0216600Y0259100D03*
X0231600Y0259100D03*
X0241600Y0259100D03*
X0256600Y0244100D03*
X0256600Y0234100D03*
X0256600Y0219100D03*
X0256600Y0209100D03*
X0256600Y0194100D03*
X0256600Y0184100D03*
X0231600Y0204100D03*
X0226600Y0189100D03*
X0211600Y0204100D03*
X0196600Y0189100D03*
X0191600Y0204100D03*
X0191600Y0234100D03*
X0211600Y0234100D03*
X0231600Y0234100D03*
X0166600Y0219100D03*
X0166600Y0209100D03*
X0166600Y0194100D03*
X0166600Y0184100D03*
X0086600Y0054100D03*
X0056600Y0054100D03*
D12*
X0108100Y0334100D03*
X0111600Y0334100D03*
X0115100Y0334100D03*
X0123100Y0334100D03*
X0126600Y0334100D03*
X0130100Y0334100D03*
X0138100Y0334100D03*
X0141600Y0334100D03*
X0145100Y0334100D03*
X0153100Y0334100D03*
X0156600Y0334100D03*
X0160100Y0334100D03*
D13*
X0176600Y0321700D02*
X0176600Y0316500D01*
X0186600Y0316500D02*
X0186600Y0321700D01*
X0196600Y0321700D02*
X0196600Y0316500D01*
X0206600Y0316500D02*
X0206600Y0321700D01*
X0216600Y0321700D02*
X0216600Y0316500D01*
X0226600Y0316500D02*
X0226600Y0321700D01*
X0236600Y0321700D02*
X0236600Y0316500D01*
X0246600Y0316500D02*
X0246600Y0321700D01*
X0256600Y0321700D02*
X0256600Y0316500D01*
X0256600Y0291700D02*
X0256600Y0286500D01*
X0246600Y0286500D02*
X0246600Y0291700D01*
X0236600Y0291700D02*
X0236600Y0286500D01*
X0226600Y0286500D02*
X0226600Y0291700D01*
X0216600Y0291700D02*
X0216600Y0286500D01*
X0206600Y0286500D02*
X0206600Y0291700D01*
X0196600Y0291700D02*
X0196600Y0286500D01*
X0186600Y0286500D02*
X0186600Y0291700D01*
X0176600Y0291700D02*
X0176600Y0286500D01*
D14*
X0150350Y0301088D03*
X0150350Y0312112D03*
X0121600Y0310862D03*
X0121600Y0299838D03*
D15*
X0132860Y0309681D03*
X0136600Y0301019D03*
X0140340Y0309681D03*
D16*
X0011500Y0026843D02*
X0011500Y0014000D01*
X0271700Y0014000D01*
X0271700Y0026843D01*
X0270551Y0025693D01*
X0268155Y0024310D01*
X0265483Y0023594D01*
X0262717Y0023594D01*
X0260045Y0024310D01*
X0257649Y0025693D01*
X0255693Y0027649D01*
X0254310Y0030045D01*
X0253594Y0032717D01*
X0253594Y0035483D01*
X0254310Y0038155D01*
X0255693Y0040551D01*
X0257649Y0042506D01*
X0260045Y0043890D01*
X0262717Y0044605D01*
X0265483Y0044605D01*
X0268155Y0043890D01*
X0270551Y0042506D01*
X0271700Y0041357D01*
X0271700Y0256089D01*
X0260800Y0245189D01*
X0260800Y0242360D01*
X0258340Y0239900D01*
X0254860Y0239900D01*
X0252400Y0242360D01*
X0252400Y0245840D01*
X0254860Y0248300D01*
X0257689Y0248300D01*
X0269400Y0260011D01*
X0269400Y0288189D01*
X0260689Y0296900D01*
X0257511Y0296900D01*
X0256511Y0295900D01*
X0257435Y0295900D01*
X0258979Y0295261D01*
X0260161Y0294079D01*
X0260800Y0292535D01*
X0260800Y0285665D01*
X0260161Y0284121D01*
X0258979Y0282939D01*
X0258800Y0282865D01*
X0258800Y0273189D01*
X0245800Y0260189D01*
X0245800Y0257360D01*
X0243340Y0254900D01*
X0239860Y0254900D01*
X0238800Y0255960D01*
X0238800Y0236261D01*
X0251261Y0223800D01*
X0252550Y0222511D01*
X0252550Y0220990D01*
X0254860Y0223300D01*
X0258340Y0223300D01*
X0260800Y0220840D01*
X0260800Y0217360D01*
X0258340Y0214900D01*
X0254860Y0214900D01*
X0252550Y0217210D01*
X0252550Y0210990D01*
X0254860Y0213300D01*
X0258340Y0213300D01*
X0260800Y0210840D01*
X0260800Y0207360D01*
X0258340Y0204900D01*
X0254860Y0204900D01*
X0252550Y0207210D01*
X0252550Y0195990D01*
X0254860Y0198300D01*
X0258340Y0198300D01*
X0260800Y0195840D01*
X0260800Y0192360D01*
X0258340Y0189900D01*
X0254860Y0189900D01*
X0252550Y0192210D01*
X0252550Y0185990D01*
X0254860Y0188300D01*
X0258340Y0188300D01*
X0260800Y0185840D01*
X0260800Y0182360D01*
X0258340Y0179900D01*
X0254860Y0179900D01*
X0252550Y0182210D01*
X0252550Y0161261D01*
X0255511Y0158300D01*
X0258340Y0158300D01*
X0260800Y0155840D01*
X0260800Y0152360D01*
X0258340Y0149900D01*
X0254860Y0149900D01*
X0252400Y0152360D01*
X0252400Y0155189D01*
X0250050Y0157539D01*
X0250050Y0084439D01*
X0245800Y0080189D01*
X0245800Y0077360D01*
X0243340Y0074900D01*
X0239860Y0074900D01*
X0237400Y0077360D01*
X0237400Y0080840D01*
X0239860Y0083300D01*
X0242689Y0083300D01*
X0245650Y0086261D01*
X0245650Y0167210D01*
X0243340Y0164900D01*
X0239860Y0164900D01*
X0237400Y0167360D01*
X0237400Y0170840D01*
X0239860Y0173300D01*
X0243340Y0173300D01*
X0245650Y0170990D01*
X0245650Y0184400D01*
X0239439Y0184400D01*
X0238150Y0185689D01*
X0238150Y0185689D01*
X0224400Y0199439D01*
X0224400Y0282865D01*
X0224221Y0282939D01*
X0223800Y0283360D01*
X0223800Y0192240D01*
X0224860Y0193300D01*
X0228340Y0193300D01*
X0230800Y0190840D01*
X0230800Y0187360D01*
X0228340Y0184900D01*
X0224860Y0184900D01*
X0223800Y0185960D01*
X0223800Y0153189D01*
X0215800Y0145189D01*
X0215800Y0142360D01*
X0213340Y0139900D01*
X0209860Y0139900D01*
X0207400Y0142360D01*
X0207400Y0145840D01*
X0209860Y0148300D01*
X0212689Y0148300D01*
X0219400Y0155011D01*
X0219400Y0165960D01*
X0218340Y0164900D01*
X0214860Y0164900D01*
X0212400Y0167360D01*
X0212400Y0170840D01*
X0214860Y0173300D01*
X0218340Y0173300D01*
X0219400Y0172240D01*
X0219400Y0255960D01*
X0218340Y0254900D01*
X0214860Y0254900D01*
X0212400Y0257360D01*
X0212400Y0260840D01*
X0214860Y0263300D01*
X0218340Y0263300D01*
X0219400Y0262240D01*
X0219400Y0283360D01*
X0218979Y0282939D01*
X0218800Y0282865D01*
X0218800Y0274128D01*
X0207972Y0263300D01*
X0208340Y0263300D01*
X0210800Y0260840D01*
X0210800Y0257360D01*
X0208340Y0254900D01*
X0204860Y0254900D01*
X0204600Y0255160D01*
X0204600Y0173040D01*
X0204860Y0173300D01*
X0208340Y0173300D01*
X0210800Y0170840D01*
X0210800Y0167360D01*
X0208340Y0164900D01*
X0204860Y0164900D01*
X0204600Y0165160D01*
X0204600Y0106489D01*
X0203311Y0105200D01*
X0191300Y0093189D01*
X0190011Y0091900D01*
X0170340Y0091900D01*
X0168340Y0089900D01*
X0164860Y0089900D01*
X0162400Y0092360D01*
X0162400Y0095840D01*
X0164860Y0098300D01*
X0168340Y0098300D01*
X0170340Y0096300D01*
X0188189Y0096300D01*
X0200200Y0108311D01*
X0200200Y0186760D01*
X0198340Y0184900D01*
X0194860Y0184900D01*
X0192400Y0187360D01*
X0192400Y0188039D01*
X0187550Y0183189D01*
X0186261Y0181900D01*
X0170340Y0181900D01*
X0168340Y0179900D01*
X0164860Y0179900D01*
X0162400Y0182360D01*
X0162400Y0185840D01*
X0164860Y0188300D01*
X0168340Y0188300D01*
X0170340Y0186300D01*
X0184439Y0186300D01*
X0195650Y0197511D01*
X0195650Y0202210D01*
X0193340Y0199900D01*
X0189860Y0199900D01*
X0187400Y0202360D01*
X0187400Y0205840D01*
X0189860Y0208300D01*
X0193340Y0208300D01*
X0195650Y0205990D01*
X0195650Y0232210D01*
X0193340Y0229900D01*
X0189860Y0229900D01*
X0187400Y0232360D01*
X0187400Y0235840D01*
X0189860Y0238300D01*
X0193340Y0238300D01*
X0195650Y0235990D01*
X0195650Y0257210D01*
X0193340Y0254900D01*
X0189860Y0254900D01*
X0187400Y0257360D01*
X0187400Y0260840D01*
X0189860Y0263300D01*
X0193340Y0263300D01*
X0195650Y0260990D01*
X0195650Y0261261D01*
X0196939Y0262550D01*
X0204400Y0270011D01*
X0204400Y0282865D01*
X0204221Y0282939D01*
X0203039Y0284121D01*
X0202400Y0285665D01*
X0202400Y0292535D01*
X0203039Y0294079D01*
X0204221Y0295261D01*
X0205161Y0295650D01*
X0198039Y0295650D01*
X0198979Y0295261D01*
X0200161Y0294079D01*
X0200800Y0292535D01*
X0200800Y0285665D01*
X0200161Y0284121D01*
X0198979Y0282939D01*
X0198800Y0282865D01*
X0198800Y0281939D01*
X0180161Y0263300D01*
X0183340Y0263300D01*
X0185800Y0260840D01*
X0185800Y0257360D01*
X0183340Y0254900D01*
X0179860Y0254900D01*
X0177400Y0257360D01*
X0177400Y0260539D01*
X0165161Y0248300D01*
X0168340Y0248300D01*
X0170800Y0245840D01*
X0170800Y0242360D01*
X0168340Y0239900D01*
X0164860Y0239900D01*
X0162400Y0242360D01*
X0162400Y0245539D01*
X0160050Y0243189D01*
X0160050Y0183761D01*
X0171622Y0172189D01*
X0172214Y0172189D01*
X0173350Y0171719D01*
X0174219Y0170850D01*
X0174689Y0169714D01*
X0174689Y0168486D01*
X0174219Y0167350D01*
X0173350Y0166481D01*
X0172214Y0166011D01*
X0170986Y0166011D01*
X0169850Y0166481D01*
X0168981Y0167350D01*
X0168511Y0168486D01*
X0168511Y0169078D01*
X0155650Y0181939D01*
X0155650Y0245011D01*
X0156939Y0246300D01*
X0193900Y0283261D01*
X0193039Y0284121D01*
X0192400Y0285665D01*
X0192400Y0292535D01*
X0193039Y0294079D01*
X0194221Y0295261D01*
X0195161Y0295650D01*
X0191261Y0295650D01*
X0189925Y0294314D01*
X0190161Y0294079D01*
X0190800Y0292535D01*
X0190800Y0285665D01*
X0190161Y0284121D01*
X0188979Y0282939D01*
X0187435Y0282300D01*
X0185765Y0282300D01*
X0184221Y0282939D01*
X0183039Y0284121D01*
X0182400Y0285665D01*
X0182400Y0292535D01*
X0183039Y0294079D01*
X0184221Y0295261D01*
X0184952Y0295564D01*
X0188150Y0298761D01*
X0189089Y0299700D01*
X0175311Y0299700D01*
X0171818Y0296207D01*
X0172175Y0295850D01*
X0172645Y0294714D01*
X0172645Y0293486D01*
X0172175Y0292350D01*
X0171306Y0291481D01*
X0170170Y0291011D01*
X0168941Y0291011D01*
X0167806Y0291481D01*
X0167567Y0291721D01*
X0167328Y0291481D01*
X0166192Y0291011D01*
X0164964Y0291011D01*
X0163828Y0291481D01*
X0163589Y0291721D01*
X0163350Y0291481D01*
X0162214Y0291011D01*
X0160986Y0291011D01*
X0159850Y0291481D01*
X0159100Y0292232D01*
X0158350Y0291481D01*
X0157214Y0291011D01*
X0155986Y0291011D01*
X0154850Y0291481D01*
X0153981Y0292350D01*
X0153511Y0293486D01*
X0153511Y0294714D01*
X0153981Y0295850D01*
X0154400Y0296268D01*
X0154400Y0296418D01*
X0154104Y0296339D01*
X0150950Y0296339D01*
X0150950Y0300488D01*
X0149750Y0300488D01*
X0149750Y0296339D01*
X0146596Y0296339D01*
X0146189Y0296448D01*
X0145824Y0296658D01*
X0145526Y0296956D01*
X0145316Y0297321D01*
X0145207Y0297728D01*
X0145207Y0300488D01*
X0149750Y0300488D01*
X0149750Y0301688D01*
X0145207Y0301688D01*
X0145207Y0304448D01*
X0145316Y0304855D01*
X0145526Y0305220D01*
X0145824Y0305518D01*
X0146189Y0305729D01*
X0146596Y0305838D01*
X0149750Y0305838D01*
X0149750Y0301688D01*
X0150950Y0301688D01*
X0155493Y0301688D01*
X0155493Y0304448D01*
X0155384Y0304855D01*
X0155174Y0305220D01*
X0154876Y0305518D01*
X0154511Y0305729D01*
X0154104Y0305838D01*
X0150950Y0305838D01*
X0150950Y0301688D01*
X0150950Y0300488D01*
X0154877Y0300488D01*
X0164400Y0310011D01*
X0165689Y0311300D01*
X0215689Y0311300D01*
X0216689Y0312300D01*
X0215765Y0312300D01*
X0214221Y0312939D01*
X0213039Y0314121D01*
X0212400Y0315665D01*
X0212400Y0322535D01*
X0213039Y0324079D01*
X0214221Y0325261D01*
X0215765Y0325900D01*
X0217435Y0325900D01*
X0218979Y0325261D01*
X0220161Y0324079D01*
X0220800Y0322535D01*
X0220800Y0316411D01*
X0222400Y0318011D01*
X0222400Y0322535D01*
X0223039Y0324079D01*
X0224221Y0325261D01*
X0225765Y0325900D01*
X0227435Y0325900D01*
X0228979Y0325261D01*
X0230161Y0324079D01*
X0230800Y0322535D01*
X0230800Y0316411D01*
X0232400Y0318011D01*
X0232400Y0322535D01*
X0233039Y0324079D01*
X0234221Y0325261D01*
X0235765Y0325900D01*
X0237435Y0325900D01*
X0238979Y0325261D01*
X0240161Y0324079D01*
X0240800Y0322535D01*
X0240800Y0316411D01*
X0242400Y0318011D01*
X0242400Y0322535D01*
X0243039Y0324079D01*
X0244221Y0325261D01*
X0245765Y0325900D01*
X0247435Y0325900D01*
X0248979Y0325261D01*
X0250161Y0324079D01*
X0250800Y0322535D01*
X0250800Y0316411D01*
X0252400Y0318011D01*
X0252400Y0322535D01*
X0253039Y0324079D01*
X0254221Y0325261D01*
X0255765Y0325900D01*
X0257435Y0325900D01*
X0258979Y0325261D01*
X0260161Y0324079D01*
X0260800Y0322535D01*
X0260800Y0315665D01*
X0260161Y0314121D01*
X0258979Y0312939D01*
X0257435Y0312300D01*
X0255765Y0312300D01*
X0254221Y0312939D01*
X0253886Y0313275D01*
X0241600Y0300989D01*
X0241600Y0300989D01*
X0240311Y0299700D01*
X0220361Y0299700D01*
X0222511Y0297550D01*
X0223800Y0296261D01*
X0223800Y0294840D01*
X0224221Y0295261D01*
X0225765Y0295900D01*
X0227435Y0295900D01*
X0228979Y0295261D01*
X0230161Y0294079D01*
X0230800Y0292535D01*
X0230800Y0285665D01*
X0230161Y0284121D01*
X0228979Y0282939D01*
X0228800Y0282865D01*
X0228800Y0262240D01*
X0229860Y0263300D01*
X0233340Y0263300D01*
X0234400Y0262240D01*
X0234400Y0282865D01*
X0234221Y0282939D01*
X0233039Y0284121D01*
X0232400Y0285665D01*
X0232400Y0292535D01*
X0233039Y0294079D01*
X0234221Y0295261D01*
X0235765Y0295900D01*
X0237435Y0295900D01*
X0238979Y0295261D01*
X0240161Y0294079D01*
X0240800Y0292535D01*
X0240800Y0285665D01*
X0240161Y0284121D01*
X0238979Y0282939D01*
X0238800Y0282865D01*
X0238800Y0262240D01*
X0239860Y0263300D01*
X0242689Y0263300D01*
X0254400Y0275011D01*
X0254400Y0282865D01*
X0254221Y0282939D01*
X0253039Y0284121D01*
X0252400Y0285665D01*
X0252400Y0291789D01*
X0250800Y0290189D01*
X0250800Y0285665D01*
X0250161Y0284121D01*
X0248979Y0282939D01*
X0247435Y0282300D01*
X0245765Y0282300D01*
X0244221Y0282939D01*
X0243039Y0284121D01*
X0242400Y0285665D01*
X0242400Y0292535D01*
X0243039Y0294079D01*
X0244221Y0295261D01*
X0245765Y0295900D01*
X0247435Y0295900D01*
X0248979Y0295261D01*
X0249314Y0294925D01*
X0254400Y0300011D01*
X0255689Y0301300D01*
X0262511Y0301300D01*
X0271700Y0292111D01*
X0271700Y0341843D01*
X0270551Y0340693D01*
X0268155Y0339310D01*
X0265483Y0338594D01*
X0262717Y0338594D01*
X0260045Y0339310D01*
X0257649Y0340693D01*
X0255693Y0342649D01*
X0254310Y0345045D01*
X0253594Y0347717D01*
X0253594Y0350483D01*
X0254310Y0353155D01*
X0255693Y0355551D01*
X0257649Y0357506D01*
X0260045Y0358890D01*
X0262717Y0359605D01*
X0265483Y0359605D01*
X0268155Y0358890D01*
X0270551Y0357506D01*
X0271700Y0356357D01*
X0271700Y0369200D01*
X0011500Y0369200D01*
X0011500Y0356357D01*
X0012649Y0357506D01*
X0015045Y0358890D01*
X0017717Y0359605D01*
X0020483Y0359605D01*
X0023155Y0358890D01*
X0025551Y0357506D01*
X0027506Y0355551D01*
X0028890Y0353155D01*
X0029605Y0350483D01*
X0029605Y0347717D01*
X0028890Y0345045D01*
X0027506Y0342649D01*
X0025551Y0340693D01*
X0023155Y0339310D01*
X0020483Y0338594D01*
X0017717Y0338594D01*
X0015045Y0339310D01*
X0012649Y0340693D01*
X0011500Y0341843D01*
X0011500Y0041357D01*
X0012649Y0042506D01*
X0015045Y0043890D01*
X0017717Y0044605D01*
X0020483Y0044605D01*
X0023155Y0043890D01*
X0025551Y0042506D01*
X0027506Y0040551D01*
X0028890Y0038155D01*
X0029605Y0035483D01*
X0029605Y0032717D01*
X0028890Y0030045D01*
X0027506Y0027649D01*
X0025551Y0025693D01*
X0023155Y0024310D01*
X0020483Y0023594D01*
X0017717Y0023594D01*
X0015045Y0024310D01*
X0012649Y0025693D01*
X0011500Y0026843D01*
X0011500Y0025879D02*
X0012464Y0025879D01*
X0011500Y0024681D02*
X0014404Y0024681D01*
X0011500Y0023482D02*
X0271700Y0023482D01*
X0271700Y0022284D02*
X0011500Y0022284D01*
X0011500Y0021085D02*
X0271700Y0021085D01*
X0271700Y0019887D02*
X0011500Y0019887D01*
X0011500Y0018688D02*
X0271700Y0018688D01*
X0271700Y0017490D02*
X0011500Y0017490D01*
X0011500Y0016291D02*
X0271700Y0016291D01*
X0271700Y0015093D02*
X0011500Y0015093D01*
X0023796Y0024681D02*
X0259404Y0024681D01*
X0257464Y0025879D02*
X0025736Y0025879D01*
X0026935Y0027078D02*
X0256265Y0027078D01*
X0255332Y0028276D02*
X0027868Y0028276D01*
X0028560Y0029475D02*
X0254640Y0029475D01*
X0254142Y0030673D02*
X0029058Y0030673D01*
X0029379Y0031872D02*
X0253821Y0031872D01*
X0253594Y0033070D02*
X0029605Y0033070D01*
X0029605Y0034269D02*
X0253594Y0034269D01*
X0253594Y0035467D02*
X0029605Y0035467D01*
X0029289Y0036666D02*
X0253911Y0036666D01*
X0254233Y0037864D02*
X0028967Y0037864D01*
X0028365Y0039063D02*
X0254835Y0039063D01*
X0255527Y0040261D02*
X0027673Y0040261D01*
X0026597Y0041460D02*
X0256603Y0041460D01*
X0257912Y0042658D02*
X0025288Y0042658D01*
X0023212Y0043857D02*
X0259988Y0043857D01*
X0268212Y0043857D02*
X0271700Y0043857D01*
X0271700Y0045055D02*
X0011500Y0045055D01*
X0011500Y0043857D02*
X0014988Y0043857D01*
X0012912Y0042658D02*
X0011500Y0042658D01*
X0011500Y0041460D02*
X0011603Y0041460D01*
X0011500Y0046254D02*
X0271700Y0046254D01*
X0271700Y0047452D02*
X0011500Y0047452D01*
X0011500Y0048651D02*
X0271700Y0048651D01*
X0271700Y0049849D02*
X0011500Y0049849D01*
X0011500Y0051048D02*
X0053712Y0051048D01*
X0054860Y0049900D02*
X0052400Y0052360D01*
X0052400Y0055840D01*
X0054860Y0058300D01*
X0058340Y0058300D01*
X0060800Y0055840D01*
X0060800Y0052360D01*
X0058340Y0049900D01*
X0054860Y0049900D01*
X0052514Y0052246D02*
X0011500Y0052246D01*
X0011500Y0053445D02*
X0052400Y0053445D01*
X0052400Y0054643D02*
X0011500Y0054643D01*
X0011500Y0055842D02*
X0052402Y0055842D01*
X0053601Y0057040D02*
X0011500Y0057040D01*
X0011500Y0058239D02*
X0054799Y0058239D01*
X0058401Y0058239D02*
X0084799Y0058239D01*
X0084860Y0058300D02*
X0082400Y0055840D01*
X0082400Y0052360D01*
X0084860Y0049900D01*
X0088340Y0049900D01*
X0090800Y0052360D01*
X0090800Y0055840D01*
X0088340Y0058300D01*
X0084860Y0058300D01*
X0083601Y0057040D02*
X0059599Y0057040D01*
X0060798Y0055842D02*
X0082402Y0055842D01*
X0082400Y0054643D02*
X0060800Y0054643D01*
X0060800Y0053445D02*
X0082400Y0053445D01*
X0082514Y0052246D02*
X0060686Y0052246D01*
X0059488Y0051048D02*
X0083712Y0051048D01*
X0089488Y0051048D02*
X0193712Y0051048D01*
X0194860Y0049900D02*
X0198340Y0049900D01*
X0200800Y0052360D01*
X0200800Y0055840D01*
X0198340Y0058300D01*
X0194860Y0058300D01*
X0192400Y0055840D01*
X0192400Y0052360D01*
X0194860Y0049900D01*
X0192514Y0052246D02*
X0090686Y0052246D01*
X0090800Y0053445D02*
X0192400Y0053445D01*
X0192400Y0054643D02*
X0090800Y0054643D01*
X0090798Y0055842D02*
X0192402Y0055842D01*
X0193601Y0057040D02*
X0089599Y0057040D01*
X0088401Y0058239D02*
X0194799Y0058239D01*
X0198401Y0058239D02*
X0224799Y0058239D01*
X0224860Y0058300D02*
X0222400Y0055840D01*
X0222400Y0052360D01*
X0224860Y0049900D01*
X0228340Y0049900D01*
X0230800Y0052360D01*
X0230800Y0055840D01*
X0228340Y0058300D01*
X0224860Y0058300D01*
X0223601Y0057040D02*
X0199599Y0057040D01*
X0200798Y0055842D02*
X0222402Y0055842D01*
X0222400Y0054643D02*
X0200800Y0054643D01*
X0200800Y0053445D02*
X0222400Y0053445D01*
X0222514Y0052246D02*
X0200686Y0052246D01*
X0199488Y0051048D02*
X0223712Y0051048D01*
X0228401Y0058239D02*
X0271700Y0058239D01*
X0271700Y0059437D02*
X0011500Y0059437D01*
X0011500Y0060636D02*
X0271700Y0060636D01*
X0271700Y0061834D02*
X0011500Y0061834D01*
X0011500Y0063033D02*
X0271700Y0063033D01*
X0271700Y0064232D02*
X0011500Y0064232D01*
X0011500Y0065430D02*
X0271700Y0065430D01*
X0271700Y0066629D02*
X0011500Y0066629D01*
X0011500Y0067827D02*
X0271700Y0067827D01*
X0271700Y0069026D02*
X0011500Y0069026D01*
X0011500Y0070224D02*
X0271700Y0070224D01*
X0271700Y0071423D02*
X0011500Y0071423D01*
X0011500Y0072621D02*
X0271700Y0072621D01*
X0271700Y0073820D02*
X0011500Y0073820D01*
X0011500Y0075018D02*
X0039742Y0075018D01*
X0039860Y0074900D02*
X0043340Y0074900D01*
X0045800Y0077360D01*
X0045800Y0080840D01*
X0043340Y0083300D01*
X0039860Y0083300D01*
X0037400Y0080840D01*
X0037400Y0077360D01*
X0039860Y0074900D01*
X0038544Y0076217D02*
X0011500Y0076217D01*
X0011500Y0077415D02*
X0037400Y0077415D01*
X0037400Y0078614D02*
X0011500Y0078614D01*
X0011500Y0079812D02*
X0037400Y0079812D01*
X0037571Y0081011D02*
X0011500Y0081011D01*
X0011500Y0082209D02*
X0038770Y0082209D01*
X0044430Y0082209D02*
X0048770Y0082209D01*
X0049860Y0083300D02*
X0047400Y0080840D01*
X0047400Y0077360D01*
X0049860Y0074900D01*
X0053340Y0074900D01*
X0055800Y0077360D01*
X0055800Y0080840D01*
X0053340Y0083300D01*
X0049860Y0083300D01*
X0047571Y0081011D02*
X0045629Y0081011D01*
X0045800Y0079812D02*
X0047400Y0079812D01*
X0047400Y0078614D02*
X0045800Y0078614D01*
X0045800Y0077415D02*
X0047400Y0077415D01*
X0048544Y0076217D02*
X0044656Y0076217D01*
X0043458Y0075018D02*
X0049742Y0075018D01*
X0053458Y0075018D02*
X0064742Y0075018D01*
X0064860Y0074900D02*
X0068340Y0074900D01*
X0070800Y0077360D01*
X0070800Y0080840D01*
X0068340Y0083300D01*
X0064860Y0083300D01*
X0062400Y0080840D01*
X0062400Y0077360D01*
X0064860Y0074900D01*
X0063544Y0076217D02*
X0054656Y0076217D01*
X0055800Y0077415D02*
X0062400Y0077415D01*
X0062400Y0078614D02*
X0055800Y0078614D01*
X0055800Y0079812D02*
X0062400Y0079812D01*
X0062571Y0081011D02*
X0055629Y0081011D01*
X0054430Y0082209D02*
X0063770Y0082209D01*
X0069430Y0082209D02*
X0073770Y0082209D01*
X0074860Y0083300D02*
X0072400Y0080840D01*
X0072400Y0077360D01*
X0074860Y0074900D01*
X0078340Y0074900D01*
X0080800Y0077360D01*
X0080800Y0080840D01*
X0078340Y0083300D01*
X0074860Y0083300D01*
X0072571Y0081011D02*
X0070629Y0081011D01*
X0070800Y0079812D02*
X0072400Y0079812D01*
X0072400Y0078614D02*
X0070800Y0078614D01*
X0070800Y0077415D02*
X0072400Y0077415D01*
X0073544Y0076217D02*
X0069656Y0076217D01*
X0068458Y0075018D02*
X0074742Y0075018D01*
X0078458Y0075018D02*
X0089742Y0075018D01*
X0089860Y0074900D02*
X0093340Y0074900D01*
X0095800Y0077360D01*
X0095800Y0080840D01*
X0093340Y0083300D01*
X0089860Y0083300D01*
X0087400Y0080840D01*
X0087400Y0077360D01*
X0089860Y0074900D01*
X0088544Y0076217D02*
X0079656Y0076217D01*
X0080800Y0077415D02*
X0087400Y0077415D01*
X0087400Y0078614D02*
X0080800Y0078614D01*
X0080800Y0079812D02*
X0087400Y0079812D01*
X0087571Y0081011D02*
X0080629Y0081011D01*
X0079430Y0082209D02*
X0088770Y0082209D01*
X0094430Y0082209D02*
X0098770Y0082209D01*
X0099860Y0083300D02*
X0097400Y0080840D01*
X0097400Y0077360D01*
X0099860Y0074900D01*
X0103340Y0074900D01*
X0105800Y0077360D01*
X0105800Y0080189D01*
X0111600Y0085989D01*
X0111600Y0155989D01*
X0112400Y0155189D01*
X0112400Y0152360D01*
X0114860Y0149900D01*
X0118340Y0149900D01*
X0120800Y0152360D01*
X0120800Y0155840D01*
X0118340Y0158300D01*
X0115511Y0158300D01*
X0113800Y0160011D01*
X0113800Y0180960D01*
X0114860Y0179900D01*
X0118340Y0179900D01*
X0120800Y0182360D01*
X0120800Y0185840D01*
X0118340Y0188300D01*
X0114860Y0188300D01*
X0113800Y0187240D01*
X0113800Y0190960D01*
X0114860Y0189900D01*
X0118340Y0189900D01*
X0120800Y0192360D01*
X0120800Y0195840D01*
X0118340Y0198300D01*
X0114860Y0198300D01*
X0113800Y0197240D01*
X0113800Y0205960D01*
X0114860Y0204900D01*
X0118340Y0204900D01*
X0120800Y0207360D01*
X0120800Y0210840D01*
X0118340Y0213300D01*
X0114860Y0213300D01*
X0113800Y0212240D01*
X0113800Y0215960D01*
X0114860Y0214900D01*
X0118340Y0214900D01*
X0120800Y0217360D01*
X0120800Y0220840D01*
X0118340Y0223300D01*
X0114860Y0223300D01*
X0113800Y0222240D01*
X0113800Y0230960D01*
X0114860Y0229900D01*
X0118340Y0229900D01*
X0120800Y0232360D01*
X0120800Y0235840D01*
X0118340Y0238300D01*
X0114860Y0238300D01*
X0113800Y0237240D01*
X0113800Y0240960D01*
X0114860Y0239900D01*
X0118340Y0239900D01*
X0120800Y0242360D01*
X0120800Y0245840D01*
X0118800Y0247840D01*
X0118800Y0278761D01*
X0117511Y0280050D01*
X0110893Y0286668D01*
X0109605Y0287957D01*
X0102400Y0287957D01*
X0102400Y0289050D01*
X0094850Y0289050D01*
X0094850Y0289150D01*
X0102400Y0289150D01*
X0102400Y0290611D01*
X0102291Y0291018D01*
X0102080Y0291382D01*
X0101788Y0291675D01*
X0102012Y0291900D01*
X0102261Y0291900D01*
X0102261Y0291739D01*
X0102731Y0290604D01*
X0103600Y0289735D01*
X0104736Y0289265D01*
X0105964Y0289265D01*
X0107100Y0289735D01*
X0107969Y0290604D01*
X0108439Y0291739D01*
X0108439Y0292968D01*
X0108116Y0293748D01*
X0108951Y0294582D01*
X0109421Y0295717D01*
X0109421Y0296946D01*
X0108951Y0298082D01*
X0108082Y0298951D01*
X0107042Y0299381D01*
X0107189Y0299736D01*
X0107189Y0300964D01*
X0106719Y0302100D01*
X0105968Y0302850D01*
X0106437Y0303318D01*
X0106907Y0304454D01*
X0106907Y0305683D01*
X0106437Y0306818D01*
X0106108Y0307147D01*
X0106804Y0307436D01*
X0107673Y0308305D01*
X0108143Y0309440D01*
X0108143Y0310669D01*
X0107673Y0311804D01*
X0106804Y0312673D01*
X0105669Y0313143D01*
X0105077Y0313143D01*
X0102250Y0315971D01*
X0102250Y0316063D01*
X0101713Y0316600D01*
X0101714Y0316601D01*
X0102061Y0316253D01*
X0103197Y0315783D01*
X0104425Y0315783D01*
X0105561Y0316253D01*
X0106430Y0317122D01*
X0106900Y0318258D01*
X0106900Y0319486D01*
X0106633Y0320132D01*
X0106872Y0320231D01*
X0107741Y0321100D01*
X0107818Y0321287D01*
X0108486Y0321011D01*
X0109714Y0321011D01*
X0110850Y0321481D01*
X0111719Y0322350D01*
X0112189Y0323486D01*
X0112189Y0324714D01*
X0111719Y0325850D01*
X0111557Y0326011D01*
X0112214Y0326011D01*
X0113350Y0326481D01*
X0113479Y0326610D01*
X0115650Y0324439D01*
X0116939Y0323150D01*
X0139038Y0323150D01*
X0138600Y0322969D01*
X0137731Y0322100D01*
X0137261Y0320964D01*
X0137261Y0319736D01*
X0137731Y0318600D01*
X0138140Y0318191D01*
X0138140Y0314037D01*
X0137709Y0314037D01*
X0136772Y0313099D01*
X0136772Y0306262D01*
X0137659Y0305375D01*
X0135227Y0305375D01*
X0135446Y0305434D01*
X0135811Y0305644D01*
X0136109Y0305942D01*
X0136319Y0306307D01*
X0136428Y0306714D01*
X0136428Y0309296D01*
X0133244Y0309296D01*
X0133244Y0305325D01*
X0133918Y0305325D01*
X0133031Y0304438D01*
X0133031Y0302038D01*
X0126743Y0302038D01*
X0126743Y0303651D01*
X0125806Y0304588D01*
X0117394Y0304588D01*
X0116457Y0303651D01*
X0116457Y0296026D01*
X0117394Y0295089D01*
X0119400Y0295089D01*
X0119400Y0285018D01*
X0118981Y0284600D01*
X0118511Y0283464D01*
X0118511Y0282236D01*
X0118981Y0281100D01*
X0119850Y0280231D01*
X0120986Y0279761D01*
X0122214Y0279761D01*
X0123350Y0280231D01*
X0124219Y0281100D01*
X0124689Y0282236D01*
X0124689Y0283464D01*
X0124219Y0284600D01*
X0123800Y0285018D01*
X0123800Y0295089D01*
X0125806Y0295089D01*
X0126743Y0296026D01*
X0126743Y0297638D01*
X0133031Y0297638D01*
X0133031Y0297601D01*
X0133969Y0296663D01*
X0139231Y0296663D01*
X0140168Y0297601D01*
X0140168Y0304438D01*
X0139282Y0305325D01*
X0142971Y0305325D01*
X0143909Y0306262D01*
X0143909Y0307481D01*
X0146025Y0307481D01*
X0146144Y0307362D01*
X0154556Y0307362D01*
X0155493Y0308299D01*
X0155493Y0315924D01*
X0154556Y0316861D01*
X0146144Y0316861D01*
X0145207Y0315924D01*
X0145207Y0311881D01*
X0143909Y0311881D01*
X0143909Y0313099D01*
X0142971Y0314037D01*
X0142540Y0314037D01*
X0142540Y0318172D01*
X0142969Y0318600D01*
X0143439Y0319736D01*
X0143439Y0320964D01*
X0142969Y0322100D01*
X0142100Y0322969D01*
X0141662Y0323150D01*
X0145682Y0323150D01*
X0146100Y0322731D01*
X0147236Y0322261D01*
X0148464Y0322261D01*
X0149600Y0322731D01*
X0150018Y0323150D01*
X0158761Y0323150D01*
X0160050Y0324439D01*
X0161261Y0325650D01*
X0162550Y0326939D01*
X0162550Y0330537D01*
X0162950Y0330937D01*
X0162950Y0337263D01*
X0162013Y0338200D01*
X0154687Y0338200D01*
X0154661Y0338173D01*
X0154561Y0338200D01*
X0153125Y0338200D01*
X0153125Y0334125D01*
X0153075Y0334125D01*
X0153075Y0338200D01*
X0151639Y0338200D01*
X0151232Y0338091D01*
X0150868Y0337880D01*
X0150570Y0337582D01*
X0150359Y0337218D01*
X0150250Y0336811D01*
X0150250Y0334125D01*
X0153075Y0334125D01*
X0153075Y0334075D01*
X0153125Y0334075D01*
X0153125Y0330000D01*
X0153629Y0330000D01*
X0153511Y0329714D01*
X0153511Y0328486D01*
X0153899Y0327550D01*
X0150018Y0327550D01*
X0149600Y0327969D01*
X0148464Y0328439D01*
X0147300Y0328439D01*
X0147300Y0330287D01*
X0147950Y0330937D01*
X0147950Y0337263D01*
X0147013Y0338200D01*
X0139687Y0338200D01*
X0139661Y0338173D01*
X0139561Y0338200D01*
X0138125Y0338200D01*
X0138125Y0334125D01*
X0138075Y0334125D01*
X0138075Y0338200D01*
X0136639Y0338200D01*
X0136232Y0338091D01*
X0135868Y0337880D01*
X0135570Y0337582D01*
X0135359Y0337218D01*
X0135250Y0336811D01*
X0135250Y0334125D01*
X0138075Y0334125D01*
X0138075Y0334075D01*
X0138125Y0334075D01*
X0138125Y0330000D01*
X0138629Y0330000D01*
X0138511Y0329714D01*
X0138511Y0328486D01*
X0138899Y0327550D01*
X0132300Y0327550D01*
X0132300Y0330287D01*
X0132950Y0330937D01*
X0132950Y0337263D01*
X0132013Y0338200D01*
X0124687Y0338200D01*
X0124661Y0338173D01*
X0124561Y0338200D01*
X0123125Y0338200D01*
X0123125Y0334125D01*
X0123075Y0334125D01*
X0123075Y0338200D01*
X0121639Y0338200D01*
X0121232Y0338091D01*
X0120868Y0337880D01*
X0120570Y0337582D01*
X0120359Y0337218D01*
X0120250Y0336811D01*
X0120250Y0334125D01*
X0123075Y0334125D01*
X0123075Y0334075D01*
X0123125Y0334075D01*
X0123125Y0330000D01*
X0123629Y0330000D01*
X0123511Y0329714D01*
X0123511Y0328486D01*
X0123899Y0327550D01*
X0118761Y0327550D01*
X0117300Y0329011D01*
X0117300Y0330287D01*
X0117950Y0330937D01*
X0117950Y0337263D01*
X0117013Y0338200D01*
X0109687Y0338200D01*
X0109661Y0338173D01*
X0109561Y0338200D01*
X0108125Y0338200D01*
X0108125Y0334125D01*
X0108075Y0334125D01*
X0108075Y0338200D01*
X0106639Y0338200D01*
X0106232Y0338091D01*
X0105868Y0337880D01*
X0105570Y0337582D01*
X0105359Y0337218D01*
X0105250Y0336811D01*
X0105250Y0334125D01*
X0108075Y0334125D01*
X0108075Y0334075D01*
X0105250Y0334075D01*
X0105250Y0331389D01*
X0105359Y0330982D01*
X0105400Y0330911D01*
X0105011Y0331300D01*
X0102012Y0331300D01*
X0101312Y0332000D01*
X0087987Y0332000D01*
X0087050Y0331063D01*
X0087050Y0327137D01*
X0087587Y0326600D01*
X0087050Y0326063D01*
X0087050Y0324261D01*
X0086261Y0325050D01*
X0085011Y0326300D01*
X0065913Y0326300D01*
X0065613Y0326600D01*
X0066150Y0327137D01*
X0066150Y0331063D01*
X0065213Y0332000D01*
X0051887Y0332000D01*
X0051187Y0331300D01*
X0041939Y0331300D01*
X0040689Y0330050D01*
X0039400Y0328761D01*
X0039400Y0262840D01*
X0037400Y0260840D01*
X0037400Y0257360D01*
X0039860Y0254900D01*
X0043340Y0254900D01*
X0045200Y0256760D01*
X0045200Y0255811D01*
X0044400Y0255011D01*
X0044400Y0172240D01*
X0043340Y0173300D01*
X0039860Y0173300D01*
X0037400Y0170840D01*
X0037400Y0167360D01*
X0039860Y0164900D01*
X0043340Y0164900D01*
X0044400Y0165960D01*
X0044400Y0150011D01*
X0036939Y0142550D01*
X0035650Y0141261D01*
X0035650Y0106261D01*
X0027689Y0098300D01*
X0024860Y0098300D01*
X0022400Y0095840D01*
X0022400Y0092360D01*
X0024860Y0089900D01*
X0028340Y0089900D01*
X0030800Y0092360D01*
X0030800Y0095189D01*
X0040050Y0104439D01*
X0040050Y0139439D01*
X0048800Y0148189D01*
X0048800Y0165960D01*
X0049860Y0164900D01*
X0053340Y0164900D01*
X0055800Y0167360D01*
X0055800Y0170840D01*
X0053340Y0173300D01*
X0049860Y0173300D01*
X0048800Y0172240D01*
X0048800Y0200960D01*
X0049860Y0199900D01*
X0053340Y0199900D01*
X0055650Y0202210D01*
X0055650Y0200018D01*
X0055231Y0199600D01*
X0054761Y0198464D01*
X0054761Y0197236D01*
X0055231Y0196100D01*
X0056100Y0195231D01*
X0057236Y0194761D01*
X0058464Y0194761D01*
X0059600Y0195231D01*
X0060469Y0196100D01*
X0060939Y0197236D01*
X0060939Y0198464D01*
X0060469Y0199600D01*
X0060050Y0200018D01*
X0060050Y0281149D01*
X0058761Y0282437D01*
X0054998Y0286200D01*
X0065213Y0286200D01*
X0066150Y0287137D01*
X0066150Y0291063D01*
X0065613Y0291600D01*
X0065801Y0291788D01*
X0069400Y0288189D01*
X0069400Y0262240D01*
X0068340Y0263300D01*
X0064860Y0263300D01*
X0062400Y0260840D01*
X0062400Y0257360D01*
X0064860Y0254900D01*
X0068340Y0254900D01*
X0069400Y0255960D01*
X0069400Y0172240D01*
X0068340Y0173300D01*
X0064860Y0173300D01*
X0062400Y0170840D01*
X0062400Y0167360D01*
X0064860Y0164900D01*
X0068340Y0164900D01*
X0069400Y0165960D01*
X0069400Y0147840D01*
X0067400Y0145840D01*
X0067400Y0142360D01*
X0069860Y0139900D01*
X0073340Y0139900D01*
X0075800Y0142360D01*
X0075800Y0145840D01*
X0073800Y0147840D01*
X0073800Y0165960D01*
X0074860Y0164900D01*
X0078340Y0164900D01*
X0080800Y0167360D01*
X0080800Y0170840D01*
X0078340Y0173300D01*
X0074860Y0173300D01*
X0073800Y0172240D01*
X0073800Y0200960D01*
X0074860Y0199900D01*
X0078340Y0199900D01*
X0080800Y0202360D01*
X0080800Y0205840D01*
X0078340Y0208300D01*
X0074860Y0208300D01*
X0073800Y0207240D01*
X0073800Y0230960D01*
X0074860Y0229900D01*
X0078340Y0229900D01*
X0080800Y0232360D01*
X0080800Y0235840D01*
X0078340Y0238300D01*
X0074860Y0238300D01*
X0073800Y0237240D01*
X0073800Y0255960D01*
X0074860Y0254900D01*
X0078340Y0254900D01*
X0080800Y0257360D01*
X0080800Y0260840D01*
X0078340Y0263300D01*
X0074860Y0263300D01*
X0073800Y0262240D01*
X0073800Y0290011D01*
X0072511Y0291300D01*
X0067511Y0296300D01*
X0065913Y0296300D01*
X0065613Y0296600D01*
X0066150Y0297137D01*
X0066150Y0301063D01*
X0065613Y0301600D01*
X0065913Y0301900D01*
X0068182Y0301900D01*
X0068600Y0301481D01*
X0069736Y0301011D01*
X0070964Y0301011D01*
X0072100Y0301481D01*
X0072969Y0302350D01*
X0073439Y0303486D01*
X0073439Y0304714D01*
X0072969Y0305850D01*
X0072100Y0306719D01*
X0070964Y0307189D01*
X0069736Y0307189D01*
X0068600Y0306719D01*
X0068182Y0306300D01*
X0065913Y0306300D01*
X0065613Y0306600D01*
X0066150Y0307137D01*
X0066150Y0311063D01*
X0065613Y0311600D01*
X0065913Y0311900D01*
X0076939Y0311900D01*
X0078150Y0310689D01*
X0078150Y0286853D01*
X0085847Y0279157D01*
X0100932Y0279157D01*
X0107200Y0272889D01*
X0107200Y0087811D01*
X0102689Y0083300D01*
X0099860Y0083300D01*
X0102796Y0083408D02*
X0011500Y0083408D01*
X0011500Y0084606D02*
X0103995Y0084606D01*
X0105193Y0085805D02*
X0011500Y0085805D01*
X0011500Y0087003D02*
X0106392Y0087003D01*
X0107200Y0088202D02*
X0011500Y0088202D01*
X0011500Y0089400D02*
X0107200Y0089400D01*
X0107200Y0090599D02*
X0029038Y0090599D01*
X0030237Y0091797D02*
X0107200Y0091797D01*
X0107200Y0092996D02*
X0030800Y0092996D01*
X0030800Y0094194D02*
X0107200Y0094194D01*
X0107200Y0095393D02*
X0031004Y0095393D01*
X0032203Y0096591D02*
X0107200Y0096591D01*
X0107200Y0097790D02*
X0033401Y0097790D01*
X0034600Y0098988D02*
X0107200Y0098988D01*
X0107200Y0100187D02*
X0073627Y0100187D01*
X0073340Y0099900D02*
X0075800Y0102360D01*
X0075800Y0105840D01*
X0073340Y0108300D01*
X0069860Y0108300D01*
X0067400Y0105840D01*
X0067400Y0102360D01*
X0069860Y0099900D01*
X0073340Y0099900D01*
X0074825Y0101385D02*
X0107200Y0101385D01*
X0107200Y0102584D02*
X0075800Y0102584D01*
X0075800Y0103782D02*
X0107200Y0103782D01*
X0107200Y0104981D02*
X0098421Y0104981D01*
X0098340Y0104900D02*
X0100800Y0107360D01*
X0100800Y0110840D01*
X0098340Y0113300D01*
X0094860Y0113300D01*
X0092400Y0110840D01*
X0092400Y0107360D01*
X0094860Y0104900D01*
X0098340Y0104900D01*
X0099619Y0106179D02*
X0107200Y0106179D01*
X0107200Y0107378D02*
X0100800Y0107378D01*
X0100800Y0108576D02*
X0107200Y0108576D01*
X0107200Y0109775D02*
X0100800Y0109775D01*
X0100666Y0110973D02*
X0107200Y0110973D01*
X0107200Y0112172D02*
X0099468Y0112172D01*
X0093732Y0112172D02*
X0075612Y0112172D01*
X0075800Y0112360D02*
X0073340Y0109900D01*
X0069860Y0109900D01*
X0067400Y0112360D01*
X0067400Y0115840D01*
X0069860Y0118300D01*
X0073340Y0118300D01*
X0075800Y0115840D01*
X0075800Y0112360D01*
X0075800Y0113370D02*
X0107200Y0113370D01*
X0107200Y0114569D02*
X0075800Y0114569D01*
X0075800Y0115768D02*
X0107200Y0115768D01*
X0107200Y0116966D02*
X0074674Y0116966D01*
X0073475Y0118165D02*
X0107200Y0118165D01*
X0107200Y0119363D02*
X0040050Y0119363D01*
X0040050Y0118165D02*
X0069725Y0118165D01*
X0068526Y0116966D02*
X0040050Y0116966D01*
X0040050Y0115768D02*
X0067400Y0115768D01*
X0067400Y0114569D02*
X0040050Y0114569D01*
X0040050Y0113370D02*
X0067400Y0113370D01*
X0067588Y0112172D02*
X0049468Y0112172D01*
X0048340Y0113300D02*
X0044860Y0113300D01*
X0042400Y0110840D01*
X0042400Y0107360D01*
X0044860Y0104900D01*
X0048340Y0104900D01*
X0050800Y0107360D01*
X0050800Y0110840D01*
X0048340Y0113300D01*
X0050666Y0110973D02*
X0068787Y0110973D01*
X0068938Y0107378D02*
X0050800Y0107378D01*
X0050800Y0108576D02*
X0092400Y0108576D01*
X0092400Y0107378D02*
X0074262Y0107378D01*
X0075460Y0106179D02*
X0093581Y0106179D01*
X0094779Y0104981D02*
X0075800Y0104981D01*
X0074413Y0110973D02*
X0092534Y0110973D01*
X0092400Y0109775D02*
X0050800Y0109775D01*
X0049619Y0106179D02*
X0067740Y0106179D01*
X0067400Y0104981D02*
X0048421Y0104981D01*
X0044779Y0104981D02*
X0040050Y0104981D01*
X0040050Y0106179D02*
X0043581Y0106179D01*
X0042400Y0107378D02*
X0040050Y0107378D01*
X0040050Y0108576D02*
X0042400Y0108576D01*
X0042400Y0109775D02*
X0040050Y0109775D01*
X0040050Y0110973D02*
X0042534Y0110973D01*
X0043732Y0112172D02*
X0040050Y0112172D01*
X0035650Y0112172D02*
X0011500Y0112172D01*
X0011500Y0113370D02*
X0035650Y0113370D01*
X0035650Y0114569D02*
X0011500Y0114569D01*
X0011500Y0115768D02*
X0023993Y0115768D01*
X0024860Y0114900D02*
X0028340Y0114900D01*
X0030800Y0117360D01*
X0030800Y0120840D01*
X0028340Y0123300D01*
X0024860Y0123300D01*
X0022400Y0120840D01*
X0022400Y0117360D01*
X0024860Y0114900D01*
X0022794Y0116966D02*
X0011500Y0116966D01*
X0011500Y0118165D02*
X0022400Y0118165D01*
X0022400Y0119363D02*
X0011500Y0119363D01*
X0011500Y0120562D02*
X0022400Y0120562D01*
X0023320Y0121760D02*
X0011500Y0121760D01*
X0011500Y0122959D02*
X0024519Y0122959D01*
X0024860Y0124900D02*
X0028340Y0124900D01*
X0030800Y0127360D01*
X0030800Y0130840D01*
X0028340Y0133300D01*
X0024860Y0133300D01*
X0022400Y0130840D01*
X0022400Y0127360D01*
X0024860Y0124900D01*
X0024405Y0125356D02*
X0011500Y0125356D01*
X0011500Y0126554D02*
X0023206Y0126554D01*
X0022400Y0127753D02*
X0011500Y0127753D01*
X0011500Y0128951D02*
X0022400Y0128951D01*
X0022400Y0130150D02*
X0011500Y0130150D01*
X0011500Y0131348D02*
X0022908Y0131348D01*
X0024107Y0132547D02*
X0011500Y0132547D01*
X0011500Y0133745D02*
X0035650Y0133745D01*
X0035650Y0132547D02*
X0029093Y0132547D01*
X0030292Y0131348D02*
X0035650Y0131348D01*
X0035650Y0130150D02*
X0030800Y0130150D01*
X0030800Y0128951D02*
X0035650Y0128951D01*
X0035650Y0127753D02*
X0030800Y0127753D01*
X0029994Y0126554D02*
X0035650Y0126554D01*
X0035650Y0125356D02*
X0028795Y0125356D01*
X0028681Y0122959D02*
X0035650Y0122959D01*
X0035650Y0124157D02*
X0011500Y0124157D01*
X0011500Y0134944D02*
X0035650Y0134944D01*
X0035650Y0136142D02*
X0011500Y0136142D01*
X0011500Y0137341D02*
X0035650Y0137341D01*
X0035650Y0138539D02*
X0011500Y0138539D01*
X0011500Y0139738D02*
X0035650Y0139738D01*
X0035650Y0140936D02*
X0029376Y0140936D01*
X0028340Y0139900D02*
X0030800Y0142360D01*
X0030800Y0145840D01*
X0028340Y0148300D01*
X0024860Y0148300D01*
X0022400Y0145840D01*
X0022400Y0142360D01*
X0024860Y0139900D01*
X0028340Y0139900D01*
X0030574Y0142135D02*
X0036523Y0142135D01*
X0037722Y0143333D02*
X0030800Y0143333D01*
X0030800Y0144532D02*
X0038921Y0144532D01*
X0040119Y0145730D02*
X0030800Y0145730D01*
X0029711Y0146929D02*
X0041318Y0146929D01*
X0042516Y0148127D02*
X0028512Y0148127D01*
X0028340Y0149900D02*
X0030800Y0152360D01*
X0030800Y0155840D01*
X0028340Y0158300D01*
X0024860Y0158300D01*
X0022400Y0155840D01*
X0022400Y0152360D01*
X0024860Y0149900D01*
X0028340Y0149900D01*
X0028964Y0150524D02*
X0044400Y0150524D01*
X0044400Y0151723D02*
X0030163Y0151723D01*
X0030800Y0152921D02*
X0044400Y0152921D01*
X0044400Y0154120D02*
X0030800Y0154120D01*
X0030800Y0155318D02*
X0044400Y0155318D01*
X0044400Y0156517D02*
X0030123Y0156517D01*
X0028924Y0157715D02*
X0044400Y0157715D01*
X0044400Y0158914D02*
X0011500Y0158914D01*
X0011500Y0160112D02*
X0044400Y0160112D01*
X0044400Y0161311D02*
X0011500Y0161311D01*
X0011500Y0162509D02*
X0044400Y0162509D01*
X0044400Y0163708D02*
X0011500Y0163708D01*
X0011500Y0164906D02*
X0039854Y0164906D01*
X0038655Y0166105D02*
X0011500Y0166105D01*
X0011500Y0167303D02*
X0037457Y0167303D01*
X0037400Y0168502D02*
X0011500Y0168502D01*
X0011500Y0169701D02*
X0037400Y0169701D01*
X0037459Y0170899D02*
X0011500Y0170899D01*
X0011500Y0172098D02*
X0038658Y0172098D01*
X0039856Y0173296D02*
X0011500Y0173296D01*
X0011500Y0174495D02*
X0044400Y0174495D01*
X0044400Y0175693D02*
X0011500Y0175693D01*
X0011500Y0176892D02*
X0044400Y0176892D01*
X0044400Y0178090D02*
X0011500Y0178090D01*
X0011500Y0179289D02*
X0044400Y0179289D01*
X0044400Y0180487D02*
X0028927Y0180487D01*
X0028340Y0179900D02*
X0030800Y0182360D01*
X0030800Y0185840D01*
X0028340Y0188300D01*
X0024860Y0188300D01*
X0022400Y0185840D01*
X0022400Y0182360D01*
X0024860Y0179900D01*
X0028340Y0179900D01*
X0030125Y0181686D02*
X0044400Y0181686D01*
X0044400Y0182884D02*
X0030800Y0182884D01*
X0030800Y0184083D02*
X0044400Y0184083D01*
X0044400Y0185281D02*
X0030800Y0185281D01*
X0030160Y0186480D02*
X0044400Y0186480D01*
X0044400Y0187678D02*
X0028961Y0187678D01*
X0028340Y0189900D02*
X0030800Y0192360D01*
X0030800Y0195840D01*
X0028340Y0198300D01*
X0024860Y0198300D01*
X0022400Y0195840D01*
X0022400Y0192360D01*
X0024860Y0189900D01*
X0028340Y0189900D01*
X0028515Y0190075D02*
X0044400Y0190075D01*
X0044400Y0188877D02*
X0011500Y0188877D01*
X0011500Y0190075D02*
X0024685Y0190075D01*
X0023487Y0191274D02*
X0011500Y0191274D01*
X0011500Y0192472D02*
X0022400Y0192472D01*
X0022400Y0193671D02*
X0011500Y0193671D01*
X0011500Y0194869D02*
X0022400Y0194869D01*
X0022628Y0196068D02*
X0011500Y0196068D01*
X0011500Y0197266D02*
X0023827Y0197266D01*
X0029373Y0197266D02*
X0044400Y0197266D01*
X0044400Y0196068D02*
X0030572Y0196068D01*
X0030800Y0194869D02*
X0044400Y0194869D01*
X0044400Y0193671D02*
X0030800Y0193671D01*
X0030800Y0192472D02*
X0044400Y0192472D01*
X0044400Y0191274D02*
X0029713Y0191274D01*
X0024238Y0187678D02*
X0011500Y0187678D01*
X0011500Y0186480D02*
X0023040Y0186480D01*
X0022400Y0185281D02*
X0011500Y0185281D01*
X0011500Y0184083D02*
X0022400Y0184083D01*
X0022400Y0182884D02*
X0011500Y0182884D01*
X0011500Y0181686D02*
X0023075Y0181686D01*
X0024273Y0180487D02*
X0011500Y0180487D01*
X0011500Y0198465D02*
X0044400Y0198465D01*
X0044400Y0199663D02*
X0011500Y0199663D01*
X0011500Y0200862D02*
X0044400Y0200862D01*
X0044400Y0202060D02*
X0011500Y0202060D01*
X0011500Y0203259D02*
X0044400Y0203259D01*
X0044400Y0204457D02*
X0011500Y0204457D01*
X0011500Y0205656D02*
X0024104Y0205656D01*
X0024860Y0204900D02*
X0028340Y0204900D01*
X0030800Y0207360D01*
X0030800Y0210840D01*
X0028340Y0213300D01*
X0024860Y0213300D01*
X0022400Y0210840D01*
X0022400Y0207360D01*
X0024860Y0204900D01*
X0022906Y0206854D02*
X0011500Y0206854D01*
X0011500Y0208053D02*
X0022400Y0208053D01*
X0022400Y0209251D02*
X0011500Y0209251D01*
X0011500Y0210450D02*
X0022400Y0210450D01*
X0023209Y0211648D02*
X0011500Y0211648D01*
X0011500Y0212847D02*
X0024407Y0212847D01*
X0024860Y0214900D02*
X0028340Y0214900D01*
X0030800Y0217360D01*
X0030800Y0220840D01*
X0028340Y0223300D01*
X0024860Y0223300D01*
X0022400Y0220840D01*
X0022400Y0217360D01*
X0024860Y0214900D01*
X0024516Y0215244D02*
X0011500Y0215244D01*
X0011500Y0216442D02*
X0023318Y0216442D01*
X0022400Y0217641D02*
X0011500Y0217641D01*
X0011500Y0218839D02*
X0022400Y0218839D01*
X0022400Y0220038D02*
X0011500Y0220038D01*
X0011500Y0221237D02*
X0022797Y0221237D01*
X0023995Y0222435D02*
X0011500Y0222435D01*
X0011500Y0223634D02*
X0044400Y0223634D01*
X0044400Y0224832D02*
X0011500Y0224832D01*
X0011500Y0226031D02*
X0044400Y0226031D01*
X0044400Y0227229D02*
X0011500Y0227229D01*
X0011500Y0228428D02*
X0044400Y0228428D01*
X0044400Y0229626D02*
X0011500Y0229626D01*
X0011500Y0230825D02*
X0023936Y0230825D01*
X0024860Y0229900D02*
X0028340Y0229900D01*
X0030800Y0232360D01*
X0030800Y0235840D01*
X0028340Y0238300D01*
X0024860Y0238300D01*
X0022400Y0235840D01*
X0022400Y0232360D01*
X0024860Y0229900D01*
X0022737Y0232023D02*
X0011500Y0232023D01*
X0011500Y0233222D02*
X0022400Y0233222D01*
X0022400Y0234420D02*
X0011500Y0234420D01*
X0011500Y0235619D02*
X0022400Y0235619D01*
X0023377Y0236817D02*
X0011500Y0236817D01*
X0011500Y0238016D02*
X0024576Y0238016D01*
X0024860Y0239900D02*
X0022400Y0242360D01*
X0022400Y0245840D01*
X0024860Y0248300D01*
X0028340Y0248300D01*
X0030800Y0245840D01*
X0030800Y0242360D01*
X0028340Y0239900D01*
X0024860Y0239900D01*
X0024348Y0240413D02*
X0011500Y0240413D01*
X0011500Y0241611D02*
X0023149Y0241611D01*
X0022400Y0242810D02*
X0011500Y0242810D01*
X0011500Y0244008D02*
X0022400Y0244008D01*
X0022400Y0245207D02*
X0011500Y0245207D01*
X0011500Y0246405D02*
X0022966Y0246405D01*
X0024164Y0247604D02*
X0011500Y0247604D01*
X0011500Y0248802D02*
X0044400Y0248802D01*
X0044400Y0247604D02*
X0029036Y0247604D01*
X0030234Y0246405D02*
X0044400Y0246405D01*
X0044400Y0245207D02*
X0030800Y0245207D01*
X0030800Y0244008D02*
X0044400Y0244008D01*
X0044400Y0242810D02*
X0030800Y0242810D01*
X0030051Y0241611D02*
X0044400Y0241611D01*
X0044400Y0240413D02*
X0028852Y0240413D01*
X0028624Y0238016D02*
X0044400Y0238016D01*
X0044400Y0239214D02*
X0011500Y0239214D01*
X0011500Y0250001D02*
X0044400Y0250001D01*
X0044400Y0251199D02*
X0011500Y0251199D01*
X0011500Y0252398D02*
X0044400Y0252398D01*
X0044400Y0253596D02*
X0011500Y0253596D01*
X0011500Y0254795D02*
X0044400Y0254795D01*
X0044433Y0255993D02*
X0045200Y0255993D01*
X0046600Y0254100D02*
X0046600Y0149100D01*
X0037850Y0140350D01*
X0037850Y0105350D01*
X0026600Y0094100D01*
X0023152Y0096591D02*
X0011500Y0096591D01*
X0011500Y0095393D02*
X0022400Y0095393D01*
X0022400Y0094194D02*
X0011500Y0094194D01*
X0011500Y0092996D02*
X0022400Y0092996D01*
X0022963Y0091797D02*
X0011500Y0091797D01*
X0011500Y0090599D02*
X0024162Y0090599D01*
X0024350Y0097790D02*
X0011500Y0097790D01*
X0011500Y0098988D02*
X0028377Y0098988D01*
X0028340Y0099900D02*
X0030800Y0102360D01*
X0030800Y0105840D01*
X0028340Y0108300D01*
X0024860Y0108300D01*
X0022400Y0105840D01*
X0022400Y0102360D01*
X0024860Y0099900D01*
X0028340Y0099900D01*
X0028627Y0100187D02*
X0029576Y0100187D01*
X0029825Y0101385D02*
X0030774Y0101385D01*
X0030800Y0102584D02*
X0031973Y0102584D01*
X0030800Y0103782D02*
X0033171Y0103782D01*
X0034370Y0104981D02*
X0030800Y0104981D01*
X0030460Y0106179D02*
X0035568Y0106179D01*
X0035650Y0107378D02*
X0029262Y0107378D01*
X0023938Y0107378D02*
X0011500Y0107378D01*
X0011500Y0108576D02*
X0035650Y0108576D01*
X0035650Y0109775D02*
X0011500Y0109775D01*
X0011500Y0110973D02*
X0035650Y0110973D01*
X0035650Y0115768D02*
X0029207Y0115768D01*
X0030406Y0116966D02*
X0035650Y0116966D01*
X0035650Y0118165D02*
X0030800Y0118165D01*
X0030800Y0119363D02*
X0035650Y0119363D01*
X0035650Y0120562D02*
X0030800Y0120562D01*
X0029880Y0121760D02*
X0035650Y0121760D01*
X0040050Y0121760D02*
X0107200Y0121760D01*
X0107200Y0120562D02*
X0040050Y0120562D01*
X0040050Y0122959D02*
X0107200Y0122959D01*
X0107200Y0124157D02*
X0040050Y0124157D01*
X0040050Y0125356D02*
X0107200Y0125356D01*
X0107200Y0126554D02*
X0040050Y0126554D01*
X0040050Y0127753D02*
X0107200Y0127753D01*
X0107200Y0128951D02*
X0040050Y0128951D01*
X0040050Y0130150D02*
X0069611Y0130150D01*
X0069860Y0129900D02*
X0073340Y0129900D01*
X0075800Y0132360D01*
X0075800Y0135840D01*
X0073340Y0138300D01*
X0069860Y0138300D01*
X0067400Y0135840D01*
X0067400Y0132360D01*
X0069860Y0129900D01*
X0068412Y0131348D02*
X0040050Y0131348D01*
X0040050Y0132547D02*
X0067400Y0132547D01*
X0067400Y0133745D02*
X0040050Y0133745D01*
X0040050Y0134944D02*
X0044817Y0134944D01*
X0044860Y0134900D02*
X0048340Y0134900D01*
X0050800Y0137360D01*
X0050800Y0140840D01*
X0048340Y0143300D01*
X0044860Y0143300D01*
X0042400Y0140840D01*
X0042400Y0137360D01*
X0044860Y0134900D01*
X0043618Y0136142D02*
X0040050Y0136142D01*
X0040050Y0137341D02*
X0042420Y0137341D01*
X0042400Y0138539D02*
X0040050Y0138539D01*
X0040349Y0139738D02*
X0042400Y0139738D01*
X0042497Y0140936D02*
X0041548Y0140936D01*
X0042746Y0142135D02*
X0043695Y0142135D01*
X0043945Y0143333D02*
X0067400Y0143333D01*
X0067400Y0144532D02*
X0045143Y0144532D01*
X0046342Y0145730D02*
X0067400Y0145730D01*
X0068489Y0146929D02*
X0047540Y0146929D01*
X0048739Y0148127D02*
X0069400Y0148127D01*
X0069400Y0149326D02*
X0048800Y0149326D01*
X0048800Y0150524D02*
X0069400Y0150524D01*
X0069400Y0151723D02*
X0048800Y0151723D01*
X0048800Y0152921D02*
X0069400Y0152921D01*
X0069400Y0154120D02*
X0048800Y0154120D01*
X0048800Y0155318D02*
X0069400Y0155318D01*
X0069400Y0156517D02*
X0048800Y0156517D01*
X0048800Y0157715D02*
X0069400Y0157715D01*
X0069400Y0158914D02*
X0048800Y0158914D01*
X0048800Y0160112D02*
X0069400Y0160112D01*
X0069400Y0161311D02*
X0048800Y0161311D01*
X0048800Y0162509D02*
X0069400Y0162509D01*
X0069400Y0163708D02*
X0048800Y0163708D01*
X0048800Y0164906D02*
X0049854Y0164906D01*
X0053346Y0164906D02*
X0064854Y0164906D01*
X0063655Y0166105D02*
X0054545Y0166105D01*
X0055743Y0167303D02*
X0062457Y0167303D01*
X0062400Y0168502D02*
X0055800Y0168502D01*
X0055800Y0169701D02*
X0062400Y0169701D01*
X0062459Y0170899D02*
X0055741Y0170899D01*
X0054542Y0172098D02*
X0063658Y0172098D01*
X0064856Y0173296D02*
X0053344Y0173296D01*
X0049856Y0173296D02*
X0048800Y0173296D01*
X0048800Y0174495D02*
X0069400Y0174495D01*
X0069400Y0175693D02*
X0048800Y0175693D01*
X0048800Y0176892D02*
X0069400Y0176892D01*
X0069400Y0178090D02*
X0048800Y0178090D01*
X0048800Y0179289D02*
X0069400Y0179289D01*
X0069400Y0180487D02*
X0048800Y0180487D01*
X0048800Y0181686D02*
X0069400Y0181686D01*
X0069400Y0182884D02*
X0048800Y0182884D01*
X0048800Y0184083D02*
X0069400Y0184083D01*
X0069400Y0185281D02*
X0058721Y0185281D01*
X0058340Y0184900D02*
X0060800Y0187360D01*
X0060800Y0190840D01*
X0058340Y0193300D01*
X0054860Y0193300D01*
X0052400Y0190840D01*
X0052400Y0187360D01*
X0054860Y0184900D01*
X0058340Y0184900D01*
X0059919Y0186480D02*
X0069400Y0186480D01*
X0069400Y0187678D02*
X0060800Y0187678D01*
X0060800Y0188877D02*
X0069400Y0188877D01*
X0069400Y0190075D02*
X0060800Y0190075D01*
X0060366Y0191274D02*
X0069400Y0191274D01*
X0069400Y0192472D02*
X0059167Y0192472D01*
X0058726Y0194869D02*
X0069400Y0194869D01*
X0069400Y0193671D02*
X0048800Y0193671D01*
X0048800Y0194869D02*
X0056974Y0194869D01*
X0055264Y0196068D02*
X0048800Y0196068D01*
X0048800Y0197266D02*
X0054761Y0197266D01*
X0054761Y0198465D02*
X0048800Y0198465D01*
X0048800Y0199663D02*
X0055295Y0199663D01*
X0055650Y0200862D02*
X0054301Y0200862D01*
X0055500Y0202060D02*
X0055650Y0202060D01*
X0060050Y0202060D02*
X0069400Y0202060D01*
X0069400Y0200862D02*
X0060050Y0200862D01*
X0060405Y0199663D02*
X0069400Y0199663D01*
X0069400Y0198465D02*
X0060939Y0198465D01*
X0060939Y0197266D02*
X0069400Y0197266D01*
X0069400Y0196068D02*
X0060436Y0196068D01*
X0057850Y0197850D02*
X0057850Y0280237D01*
X0050950Y0287137D01*
X0050950Y0296063D01*
X0051887Y0297000D01*
X0056450Y0297000D01*
X0058550Y0299100D01*
X0058550Y0294100D02*
X0066600Y0294100D01*
X0071600Y0289100D01*
X0071600Y0144100D01*
X0074711Y0146929D02*
X0107200Y0146929D01*
X0107200Y0148127D02*
X0073800Y0148127D01*
X0073800Y0149326D02*
X0107200Y0149326D01*
X0107200Y0150524D02*
X0073800Y0150524D01*
X0073800Y0151723D02*
X0107200Y0151723D01*
X0107200Y0152921D02*
X0073800Y0152921D01*
X0073800Y0154120D02*
X0107200Y0154120D01*
X0107200Y0155318D02*
X0073800Y0155318D01*
X0073800Y0156517D02*
X0107200Y0156517D01*
X0107200Y0157715D02*
X0073800Y0157715D01*
X0073800Y0158914D02*
X0107200Y0158914D01*
X0107200Y0160112D02*
X0073800Y0160112D01*
X0073800Y0161311D02*
X0107200Y0161311D01*
X0107200Y0162509D02*
X0073800Y0162509D01*
X0073800Y0163708D02*
X0107200Y0163708D01*
X0107200Y0164906D02*
X0103346Y0164906D01*
X0103340Y0164900D02*
X0105800Y0167360D01*
X0105800Y0170840D01*
X0103340Y0173300D01*
X0099860Y0173300D01*
X0097400Y0170840D01*
X0097400Y0167360D01*
X0099860Y0164900D01*
X0103340Y0164900D01*
X0104545Y0166105D02*
X0107200Y0166105D01*
X0107200Y0167303D02*
X0105743Y0167303D01*
X0105800Y0168502D02*
X0107200Y0168502D01*
X0107200Y0169701D02*
X0105800Y0169701D01*
X0105741Y0170899D02*
X0107200Y0170899D01*
X0107200Y0172098D02*
X0104542Y0172098D01*
X0103344Y0173296D02*
X0107200Y0173296D01*
X0107200Y0174495D02*
X0073800Y0174495D01*
X0073800Y0175693D02*
X0107200Y0175693D01*
X0107200Y0176892D02*
X0073800Y0176892D01*
X0073800Y0178090D02*
X0107200Y0178090D01*
X0107200Y0179289D02*
X0073800Y0179289D01*
X0073800Y0180487D02*
X0107200Y0180487D01*
X0107200Y0181686D02*
X0073800Y0181686D01*
X0073800Y0182884D02*
X0107200Y0182884D01*
X0107200Y0184083D02*
X0073800Y0184083D01*
X0073800Y0185281D02*
X0084479Y0185281D01*
X0084860Y0184900D02*
X0088340Y0184900D01*
X0090800Y0187360D01*
X0090800Y0190840D01*
X0088340Y0193300D01*
X0084860Y0193300D01*
X0082400Y0190840D01*
X0082400Y0187360D01*
X0084860Y0184900D01*
X0083281Y0186480D02*
X0073800Y0186480D01*
X0073800Y0187678D02*
X0082400Y0187678D01*
X0082400Y0188877D02*
X0073800Y0188877D01*
X0073800Y0190075D02*
X0082400Y0190075D01*
X0082834Y0191274D02*
X0073800Y0191274D01*
X0073800Y0192472D02*
X0084033Y0192472D01*
X0089167Y0192472D02*
X0107200Y0192472D01*
X0107200Y0191274D02*
X0090366Y0191274D01*
X0090800Y0190075D02*
X0107200Y0190075D01*
X0107200Y0188877D02*
X0090800Y0188877D01*
X0090800Y0187678D02*
X0107200Y0187678D01*
X0107200Y0186480D02*
X0089919Y0186480D01*
X0088721Y0185281D02*
X0107200Y0185281D01*
X0107200Y0193671D02*
X0073800Y0193671D01*
X0073800Y0194869D02*
X0107200Y0194869D01*
X0107200Y0196068D02*
X0073800Y0196068D01*
X0073800Y0197266D02*
X0107200Y0197266D01*
X0107200Y0198465D02*
X0073800Y0198465D01*
X0073800Y0199663D02*
X0107200Y0199663D01*
X0107200Y0200862D02*
X0099302Y0200862D01*
X0098340Y0199900D02*
X0100800Y0202360D01*
X0100800Y0205840D01*
X0098340Y0208300D01*
X0094860Y0208300D01*
X0092400Y0205840D01*
X0092400Y0202360D01*
X0094860Y0199900D01*
X0098340Y0199900D01*
X0100500Y0202060D02*
X0107200Y0202060D01*
X0107200Y0203259D02*
X0100800Y0203259D01*
X0100800Y0204457D02*
X0107200Y0204457D01*
X0107200Y0205656D02*
X0100800Y0205656D01*
X0099785Y0206854D02*
X0107200Y0206854D01*
X0107200Y0208053D02*
X0098587Y0208053D01*
X0094613Y0208053D02*
X0078587Y0208053D01*
X0079785Y0206854D02*
X0093415Y0206854D01*
X0092400Y0205656D02*
X0080800Y0205656D01*
X0080800Y0204457D02*
X0092400Y0204457D01*
X0092400Y0203259D02*
X0080800Y0203259D01*
X0080500Y0202060D02*
X0092700Y0202060D01*
X0093898Y0200862D02*
X0079302Y0200862D01*
X0073898Y0200862D02*
X0073800Y0200862D01*
X0069400Y0203259D02*
X0060050Y0203259D01*
X0060050Y0204457D02*
X0069400Y0204457D01*
X0069400Y0205656D02*
X0060050Y0205656D01*
X0060050Y0206854D02*
X0069400Y0206854D01*
X0069400Y0208053D02*
X0060050Y0208053D01*
X0060050Y0209251D02*
X0069400Y0209251D01*
X0069400Y0210450D02*
X0060050Y0210450D01*
X0060050Y0211648D02*
X0069400Y0211648D01*
X0069400Y0212847D02*
X0060050Y0212847D01*
X0060050Y0214045D02*
X0069400Y0214045D01*
X0069400Y0215244D02*
X0060050Y0215244D01*
X0060050Y0216442D02*
X0069400Y0216442D01*
X0069400Y0217641D02*
X0060050Y0217641D01*
X0060050Y0218839D02*
X0069400Y0218839D01*
X0069400Y0220038D02*
X0060050Y0220038D01*
X0060050Y0221237D02*
X0069400Y0221237D01*
X0069400Y0222435D02*
X0060050Y0222435D01*
X0060050Y0223634D02*
X0069400Y0223634D01*
X0069400Y0224832D02*
X0060050Y0224832D01*
X0060050Y0226031D02*
X0069400Y0226031D01*
X0069400Y0227229D02*
X0060050Y0227229D01*
X0060050Y0228428D02*
X0069400Y0228428D01*
X0069400Y0229626D02*
X0060050Y0229626D01*
X0060050Y0230825D02*
X0069400Y0230825D01*
X0069400Y0232023D02*
X0060050Y0232023D01*
X0060050Y0233222D02*
X0069400Y0233222D01*
X0069400Y0234420D02*
X0060050Y0234420D01*
X0060050Y0235619D02*
X0069400Y0235619D01*
X0069400Y0236817D02*
X0060050Y0236817D01*
X0060050Y0238016D02*
X0069400Y0238016D01*
X0069400Y0239214D02*
X0060050Y0239214D01*
X0060050Y0240413D02*
X0069400Y0240413D01*
X0069400Y0241611D02*
X0060050Y0241611D01*
X0060050Y0242810D02*
X0069400Y0242810D01*
X0069400Y0244008D02*
X0060050Y0244008D01*
X0060050Y0245207D02*
X0069400Y0245207D01*
X0069400Y0246405D02*
X0060050Y0246405D01*
X0060050Y0247604D02*
X0069400Y0247604D01*
X0069400Y0248802D02*
X0060050Y0248802D01*
X0060050Y0250001D02*
X0069400Y0250001D01*
X0069400Y0251199D02*
X0060050Y0251199D01*
X0060050Y0252398D02*
X0069400Y0252398D01*
X0069400Y0253596D02*
X0060050Y0253596D01*
X0060050Y0254795D02*
X0069400Y0254795D01*
X0073800Y0254795D02*
X0107200Y0254795D01*
X0107200Y0255993D02*
X0104433Y0255993D01*
X0103340Y0254900D02*
X0099860Y0254900D01*
X0097400Y0257360D01*
X0097400Y0260840D01*
X0099860Y0263300D01*
X0103340Y0263300D01*
X0105800Y0260840D01*
X0105800Y0257360D01*
X0103340Y0254900D01*
X0105632Y0257192D02*
X0107200Y0257192D01*
X0107200Y0258390D02*
X0105800Y0258390D01*
X0105800Y0259589D02*
X0107200Y0259589D01*
X0107200Y0260787D02*
X0105800Y0260787D01*
X0104654Y0261986D02*
X0107200Y0261986D01*
X0107200Y0263184D02*
X0103455Y0263184D01*
X0099745Y0263184D02*
X0093455Y0263184D01*
X0093340Y0263300D02*
X0089860Y0263300D01*
X0087400Y0260840D01*
X0087400Y0257360D01*
X0089860Y0254900D01*
X0093340Y0254900D01*
X0095800Y0257360D01*
X0095800Y0260840D01*
X0093340Y0263300D01*
X0094654Y0261986D02*
X0098546Y0261986D01*
X0097400Y0260787D02*
X0095800Y0260787D01*
X0095800Y0259589D02*
X0097400Y0259589D01*
X0097400Y0258390D02*
X0095800Y0258390D01*
X0095632Y0257192D02*
X0097568Y0257192D01*
X0098767Y0255993D02*
X0094433Y0255993D01*
X0088767Y0255993D02*
X0079433Y0255993D01*
X0080632Y0257192D02*
X0087568Y0257192D01*
X0087400Y0258390D02*
X0080800Y0258390D01*
X0080800Y0259589D02*
X0087400Y0259589D01*
X0087400Y0260787D02*
X0080800Y0260787D01*
X0079654Y0261986D02*
X0088546Y0261986D01*
X0089745Y0263184D02*
X0078455Y0263184D01*
X0074745Y0263184D02*
X0073800Y0263184D01*
X0073800Y0264383D02*
X0107200Y0264383D01*
X0107200Y0265581D02*
X0073800Y0265581D01*
X0073800Y0266780D02*
X0107200Y0266780D01*
X0107200Y0267978D02*
X0073800Y0267978D01*
X0073800Y0269177D02*
X0107200Y0269177D01*
X0107200Y0270375D02*
X0073800Y0270375D01*
X0073800Y0271574D02*
X0107200Y0271574D01*
X0107200Y0272772D02*
X0073800Y0272772D01*
X0073800Y0273971D02*
X0106118Y0273971D01*
X0104919Y0275170D02*
X0073800Y0275170D01*
X0073800Y0276368D02*
X0103721Y0276368D01*
X0102522Y0277567D02*
X0073800Y0277567D01*
X0073800Y0278765D02*
X0101324Y0278765D01*
X0101843Y0281357D02*
X0086758Y0281357D01*
X0080350Y0287765D01*
X0080350Y0311600D01*
X0077850Y0314100D01*
X0058550Y0314100D01*
X0058550Y0309100D02*
X0056450Y0307000D01*
X0051887Y0307000D01*
X0047400Y0302513D01*
X0047400Y0254900D01*
X0046600Y0254100D01*
X0041600Y0259100D02*
X0041600Y0327850D01*
X0042850Y0329100D01*
X0058550Y0329100D01*
X0058550Y0324100D02*
X0084100Y0324100D01*
X0085350Y0322850D01*
X0085350Y0288987D01*
X0088581Y0285757D01*
X0108693Y0285757D01*
X0116600Y0277850D01*
X0116600Y0244100D01*
X0120800Y0244008D02*
X0155650Y0244008D01*
X0155650Y0242810D02*
X0120800Y0242810D01*
X0120051Y0241611D02*
X0155650Y0241611D01*
X0155650Y0240413D02*
X0118852Y0240413D01*
X0118624Y0238016D02*
X0155650Y0238016D01*
X0155650Y0239214D02*
X0113800Y0239214D01*
X0113800Y0238016D02*
X0114576Y0238016D01*
X0114348Y0240413D02*
X0113800Y0240413D01*
X0119823Y0236817D02*
X0155650Y0236817D01*
X0155650Y0235619D02*
X0120800Y0235619D01*
X0120800Y0234420D02*
X0155650Y0234420D01*
X0155650Y0233222D02*
X0120800Y0233222D01*
X0120463Y0232023D02*
X0155650Y0232023D01*
X0155650Y0230825D02*
X0119264Y0230825D01*
X0113936Y0230825D02*
X0113800Y0230825D01*
X0113800Y0229626D02*
X0155650Y0229626D01*
X0155650Y0228428D02*
X0113800Y0228428D01*
X0113800Y0227229D02*
X0155650Y0227229D01*
X0155650Y0226031D02*
X0113800Y0226031D01*
X0113800Y0224832D02*
X0155650Y0224832D01*
X0155650Y0223634D02*
X0113800Y0223634D01*
X0113800Y0222435D02*
X0113995Y0222435D01*
X0119205Y0222435D02*
X0155650Y0222435D01*
X0155650Y0221237D02*
X0120403Y0221237D01*
X0120800Y0220038D02*
X0155650Y0220038D01*
X0155650Y0218839D02*
X0120800Y0218839D01*
X0120800Y0217641D02*
X0155650Y0217641D01*
X0155650Y0216442D02*
X0119882Y0216442D01*
X0118684Y0215244D02*
X0155650Y0215244D01*
X0155650Y0214045D02*
X0113800Y0214045D01*
X0113800Y0212847D02*
X0114407Y0212847D01*
X0114516Y0215244D02*
X0113800Y0215244D01*
X0118793Y0212847D02*
X0155650Y0212847D01*
X0155650Y0211648D02*
X0119991Y0211648D01*
X0120800Y0210450D02*
X0155650Y0210450D01*
X0155650Y0209251D02*
X0120800Y0209251D01*
X0120800Y0208053D02*
X0155650Y0208053D01*
X0155650Y0206854D02*
X0120294Y0206854D01*
X0119096Y0205656D02*
X0155650Y0205656D01*
X0155650Y0204457D02*
X0113800Y0204457D01*
X0113800Y0203259D02*
X0155650Y0203259D01*
X0155650Y0202060D02*
X0113800Y0202060D01*
X0113800Y0200862D02*
X0155650Y0200862D01*
X0155650Y0199663D02*
X0113800Y0199663D01*
X0113800Y0198465D02*
X0155650Y0198465D01*
X0155650Y0197266D02*
X0119373Y0197266D01*
X0120572Y0196068D02*
X0155650Y0196068D01*
X0155650Y0194869D02*
X0120800Y0194869D01*
X0120800Y0193671D02*
X0155650Y0193671D01*
X0155650Y0192472D02*
X0120800Y0192472D01*
X0119713Y0191274D02*
X0155650Y0191274D01*
X0155650Y0190075D02*
X0118515Y0190075D01*
X0118961Y0187678D02*
X0155650Y0187678D01*
X0155650Y0186480D02*
X0120160Y0186480D01*
X0120800Y0185281D02*
X0155650Y0185281D01*
X0155650Y0184083D02*
X0120800Y0184083D01*
X0120800Y0182884D02*
X0155650Y0182884D01*
X0155903Y0181686D02*
X0120125Y0181686D01*
X0118927Y0180487D02*
X0157102Y0180487D01*
X0158300Y0179289D02*
X0113800Y0179289D01*
X0113800Y0180487D02*
X0114273Y0180487D01*
X0113800Y0178090D02*
X0159499Y0178090D01*
X0160697Y0176892D02*
X0113800Y0176892D01*
X0113800Y0175693D02*
X0161896Y0175693D01*
X0163094Y0174495D02*
X0113800Y0174495D01*
X0113800Y0173296D02*
X0164293Y0173296D01*
X0165491Y0172098D02*
X0113800Y0172098D01*
X0113800Y0170899D02*
X0166690Y0170899D01*
X0167888Y0169701D02*
X0113800Y0169701D01*
X0113800Y0168502D02*
X0168511Y0168502D01*
X0169028Y0167303D02*
X0113800Y0167303D01*
X0113800Y0166105D02*
X0170759Y0166105D01*
X0172441Y0166105D02*
X0178655Y0166105D01*
X0177457Y0167303D02*
X0174172Y0167303D01*
X0174689Y0168502D02*
X0177400Y0168502D01*
X0177400Y0167360D02*
X0177400Y0170840D01*
X0179860Y0173300D01*
X0183340Y0173300D01*
X0185800Y0170840D01*
X0185800Y0167360D01*
X0183340Y0164900D01*
X0179860Y0164900D01*
X0177400Y0167360D01*
X0177400Y0169701D02*
X0174689Y0169701D01*
X0174169Y0170899D02*
X0177459Y0170899D01*
X0178658Y0172098D02*
X0172435Y0172098D01*
X0170515Y0173296D02*
X0179856Y0173296D01*
X0183344Y0173296D02*
X0189856Y0173296D01*
X0189860Y0173300D02*
X0187400Y0170840D01*
X0187400Y0167360D01*
X0189860Y0164900D01*
X0193340Y0164900D01*
X0195800Y0167360D01*
X0195800Y0170840D01*
X0193340Y0173300D01*
X0189860Y0173300D01*
X0188658Y0172098D02*
X0184542Y0172098D01*
X0185741Y0170899D02*
X0187459Y0170899D01*
X0187400Y0169701D02*
X0185800Y0169701D01*
X0185800Y0168502D02*
X0187400Y0168502D01*
X0187457Y0167303D02*
X0185743Y0167303D01*
X0184545Y0166105D02*
X0188655Y0166105D01*
X0189854Y0164906D02*
X0183346Y0164906D01*
X0179854Y0164906D02*
X0113800Y0164906D01*
X0113800Y0163708D02*
X0200200Y0163708D01*
X0200200Y0164906D02*
X0193346Y0164906D01*
X0194545Y0166105D02*
X0200200Y0166105D01*
X0200200Y0167303D02*
X0195743Y0167303D01*
X0195800Y0168502D02*
X0200200Y0168502D01*
X0200200Y0169701D02*
X0195800Y0169701D01*
X0195741Y0170899D02*
X0200200Y0170899D01*
X0200200Y0172098D02*
X0194542Y0172098D01*
X0193344Y0173296D02*
X0200200Y0173296D01*
X0200200Y0174495D02*
X0169317Y0174495D01*
X0168118Y0175693D02*
X0200200Y0175693D01*
X0200200Y0176892D02*
X0166920Y0176892D01*
X0165721Y0178090D02*
X0200200Y0178090D01*
X0200200Y0179289D02*
X0164523Y0179289D01*
X0164273Y0180487D02*
X0163324Y0180487D01*
X0163075Y0181686D02*
X0162126Y0181686D01*
X0162400Y0182884D02*
X0160927Y0182884D01*
X0160050Y0184083D02*
X0162400Y0184083D01*
X0162400Y0185281D02*
X0160050Y0185281D01*
X0160050Y0186480D02*
X0163040Y0186480D01*
X0164238Y0187678D02*
X0160050Y0187678D01*
X0160050Y0188877D02*
X0187015Y0188877D01*
X0185817Y0187678D02*
X0168961Y0187678D01*
X0170160Y0186480D02*
X0184618Y0186480D01*
X0185350Y0184100D02*
X0166600Y0184100D01*
X0168927Y0180487D02*
X0200200Y0180487D01*
X0200200Y0181686D02*
X0170125Y0181686D01*
X0168340Y0189900D02*
X0164860Y0189900D01*
X0162400Y0192360D01*
X0162400Y0195840D01*
X0164860Y0198300D01*
X0168340Y0198300D01*
X0170800Y0195840D01*
X0170800Y0192360D01*
X0168340Y0189900D01*
X0168515Y0190075D02*
X0188214Y0190075D01*
X0189412Y0191274D02*
X0169713Y0191274D01*
X0170800Y0192472D02*
X0190611Y0192472D01*
X0191809Y0193671D02*
X0170800Y0193671D01*
X0170800Y0194869D02*
X0193008Y0194869D01*
X0194206Y0196068D02*
X0170572Y0196068D01*
X0169373Y0197266D02*
X0195405Y0197266D01*
X0195650Y0198465D02*
X0160050Y0198465D01*
X0160050Y0199663D02*
X0195650Y0199663D01*
X0195650Y0200862D02*
X0194301Y0200862D01*
X0195500Y0202060D02*
X0195650Y0202060D01*
X0195650Y0206854D02*
X0194785Y0206854D01*
X0195650Y0208053D02*
X0193587Y0208053D01*
X0195650Y0209251D02*
X0170800Y0209251D01*
X0170800Y0208053D02*
X0189613Y0208053D01*
X0188415Y0206854D02*
X0170294Y0206854D01*
X0170800Y0207360D02*
X0168340Y0204900D01*
X0164860Y0204900D01*
X0162400Y0207360D01*
X0162400Y0210840D01*
X0164860Y0213300D01*
X0168340Y0213300D01*
X0170800Y0210840D01*
X0170800Y0207360D01*
X0169096Y0205656D02*
X0187400Y0205656D01*
X0187400Y0204457D02*
X0160050Y0204457D01*
X0160050Y0203259D02*
X0187400Y0203259D01*
X0187700Y0202060D02*
X0160050Y0202060D01*
X0160050Y0200862D02*
X0188898Y0200862D01*
X0197850Y0196600D02*
X0185350Y0184100D01*
X0187245Y0182884D02*
X0200200Y0182884D01*
X0200200Y0184083D02*
X0188444Y0184083D01*
X0189642Y0185281D02*
X0194479Y0185281D01*
X0193281Y0186480D02*
X0190841Y0186480D01*
X0192039Y0187678D02*
X0192400Y0187678D01*
X0197850Y0196600D02*
X0197850Y0260350D01*
X0206600Y0269100D01*
X0206600Y0289100D01*
X0202400Y0289552D02*
X0200800Y0289552D01*
X0200800Y0290750D02*
X0202400Y0290750D01*
X0202400Y0291949D02*
X0200800Y0291949D01*
X0200547Y0293147D02*
X0202653Y0293147D01*
X0203306Y0294346D02*
X0199894Y0294346D01*
X0198294Y0295544D02*
X0204906Y0295544D01*
X0202400Y0288353D02*
X0200800Y0288353D01*
X0200800Y0287155D02*
X0202400Y0287155D01*
X0202400Y0285956D02*
X0200800Y0285956D01*
X0200424Y0284758D02*
X0202776Y0284758D01*
X0203601Y0283559D02*
X0199599Y0283559D01*
X0198800Y0282361D02*
X0204400Y0282361D01*
X0204400Y0281162D02*
X0198023Y0281162D01*
X0196825Y0279964D02*
X0204400Y0279964D01*
X0204400Y0278765D02*
X0195626Y0278765D01*
X0194428Y0277567D02*
X0204400Y0277567D01*
X0204400Y0276368D02*
X0193229Y0276368D01*
X0192031Y0275170D02*
X0204400Y0275170D01*
X0204400Y0273971D02*
X0190832Y0273971D01*
X0189634Y0272772D02*
X0204400Y0272772D01*
X0204400Y0271574D02*
X0188435Y0271574D01*
X0187237Y0270375D02*
X0204400Y0270375D01*
X0203566Y0269177D02*
X0186038Y0269177D01*
X0184840Y0267978D02*
X0202367Y0267978D01*
X0201169Y0266780D02*
X0183641Y0266780D01*
X0182443Y0265581D02*
X0199970Y0265581D01*
X0198772Y0264383D02*
X0181244Y0264383D01*
X0183455Y0263184D02*
X0189745Y0263184D01*
X0188546Y0261986D02*
X0184654Y0261986D01*
X0185800Y0260787D02*
X0187400Y0260787D01*
X0187400Y0259589D02*
X0185800Y0259589D01*
X0185800Y0258390D02*
X0187400Y0258390D01*
X0187568Y0257192D02*
X0185632Y0257192D01*
X0184433Y0255993D02*
X0188767Y0255993D01*
X0194433Y0255993D02*
X0195650Y0255993D01*
X0195650Y0254795D02*
X0171656Y0254795D01*
X0172855Y0255993D02*
X0178767Y0255993D01*
X0177568Y0257192D02*
X0174053Y0257192D01*
X0175252Y0258390D02*
X0177400Y0258390D01*
X0177400Y0259589D02*
X0176450Y0259589D01*
X0173823Y0263184D02*
X0118800Y0263184D01*
X0118800Y0261986D02*
X0172625Y0261986D01*
X0171426Y0260787D02*
X0118800Y0260787D01*
X0118800Y0259589D02*
X0170228Y0259589D01*
X0169029Y0258390D02*
X0118800Y0258390D01*
X0118800Y0257192D02*
X0167831Y0257192D01*
X0166632Y0255993D02*
X0118800Y0255993D01*
X0118800Y0254795D02*
X0165434Y0254795D01*
X0164235Y0253596D02*
X0118800Y0253596D01*
X0118800Y0252398D02*
X0163037Y0252398D01*
X0161838Y0251199D02*
X0118800Y0251199D01*
X0118800Y0250001D02*
X0160640Y0250001D01*
X0159441Y0248802D02*
X0118800Y0248802D01*
X0119036Y0247604D02*
X0158242Y0247604D01*
X0157044Y0246405D02*
X0120234Y0246405D01*
X0120800Y0245207D02*
X0155845Y0245207D01*
X0157850Y0244100D02*
X0157850Y0182850D01*
X0171600Y0169100D01*
X0168340Y0158300D02*
X0164860Y0158300D01*
X0162400Y0155840D01*
X0162400Y0152360D01*
X0164860Y0149900D01*
X0168340Y0149900D01*
X0170800Y0152360D01*
X0170800Y0155840D01*
X0168340Y0158300D01*
X0168924Y0157715D02*
X0200200Y0157715D01*
X0200200Y0156517D02*
X0170123Y0156517D01*
X0170800Y0155318D02*
X0200200Y0155318D01*
X0200200Y0154120D02*
X0170800Y0154120D01*
X0170800Y0152921D02*
X0200200Y0152921D01*
X0200200Y0151723D02*
X0170163Y0151723D01*
X0168964Y0150524D02*
X0200200Y0150524D01*
X0200200Y0149326D02*
X0111600Y0149326D01*
X0111600Y0150524D02*
X0114236Y0150524D01*
X0113037Y0151723D02*
X0111600Y0151723D01*
X0111600Y0152921D02*
X0112400Y0152921D01*
X0112400Y0154120D02*
X0111600Y0154120D01*
X0111600Y0155318D02*
X0112270Y0155318D01*
X0111600Y0159100D02*
X0116600Y0154100D01*
X0120800Y0154120D02*
X0162400Y0154120D01*
X0162400Y0155318D02*
X0120800Y0155318D01*
X0120123Y0156517D02*
X0163077Y0156517D01*
X0164276Y0157715D02*
X0118924Y0157715D01*
X0114897Y0158914D02*
X0200200Y0158914D01*
X0200200Y0160112D02*
X0113800Y0160112D01*
X0113800Y0161311D02*
X0200200Y0161311D01*
X0200200Y0162509D02*
X0113800Y0162509D01*
X0111600Y0159100D02*
X0111600Y0276600D01*
X0104643Y0283557D01*
X0087669Y0283557D01*
X0082850Y0288376D01*
X0082850Y0316600D01*
X0080350Y0319100D01*
X0058550Y0319100D01*
X0065718Y0326705D02*
X0087481Y0326705D01*
X0087050Y0325507D02*
X0085804Y0325507D01*
X0087003Y0324308D02*
X0087050Y0324308D01*
X0087050Y0327904D02*
X0066150Y0327904D01*
X0066150Y0329103D02*
X0087050Y0329103D01*
X0087050Y0330301D02*
X0066150Y0330301D01*
X0065713Y0331500D02*
X0087486Y0331500D01*
X0094650Y0329100D02*
X0104100Y0329100D01*
X0109100Y0324100D01*
X0111280Y0321911D02*
X0137653Y0321911D01*
X0137261Y0320713D02*
X0107353Y0320713D01*
X0106888Y0319514D02*
X0137353Y0319514D01*
X0138016Y0318316D02*
X0106900Y0318316D01*
X0106425Y0317117D02*
X0138140Y0317117D01*
X0138140Y0315919D02*
X0104753Y0315919D01*
X0103500Y0314720D02*
X0116619Y0314720D01*
X0116566Y0314629D02*
X0116457Y0314222D01*
X0116457Y0311462D01*
X0121000Y0311462D01*
X0121000Y0315611D01*
X0117846Y0315611D01*
X0117439Y0315502D01*
X0117074Y0315292D01*
X0116776Y0314994D01*
X0116566Y0314629D01*
X0116457Y0313522D02*
X0104698Y0313522D01*
X0107154Y0312323D02*
X0116457Y0312323D01*
X0116457Y0310262D02*
X0116457Y0307502D01*
X0116566Y0307095D01*
X0116776Y0306730D01*
X0117074Y0306432D01*
X0117439Y0306221D01*
X0117846Y0306112D01*
X0121000Y0306112D01*
X0121000Y0310262D01*
X0116457Y0310262D01*
X0116457Y0309926D02*
X0108143Y0309926D01*
X0107955Y0311125D02*
X0121000Y0311125D01*
X0121000Y0311462D02*
X0121000Y0310262D01*
X0122200Y0310262D01*
X0122200Y0311462D01*
X0121000Y0311462D01*
X0121000Y0312323D02*
X0122200Y0312323D01*
X0122200Y0311462D02*
X0122200Y0315611D01*
X0125354Y0315611D01*
X0125761Y0315502D01*
X0126126Y0315292D01*
X0126424Y0314994D01*
X0126634Y0314629D01*
X0126743Y0314222D01*
X0126743Y0311462D01*
X0122200Y0311462D01*
X0122200Y0311125D02*
X0129291Y0311125D01*
X0129291Y0310065D02*
X0132476Y0310065D01*
X0132476Y0314037D01*
X0130681Y0314037D01*
X0130274Y0313928D01*
X0129909Y0313717D01*
X0129611Y0313419D01*
X0129400Y0313054D01*
X0129291Y0312647D01*
X0129291Y0310065D01*
X0129291Y0309296D02*
X0129291Y0306714D01*
X0129400Y0306307D01*
X0129611Y0305942D01*
X0129909Y0305644D01*
X0130274Y0305434D01*
X0130681Y0305325D01*
X0132476Y0305325D01*
X0132476Y0309296D01*
X0133244Y0309296D01*
X0133244Y0310065D01*
X0132476Y0310065D01*
X0132476Y0309296D01*
X0129291Y0309296D01*
X0129291Y0308728D02*
X0126743Y0308728D01*
X0126743Y0309926D02*
X0132476Y0309926D01*
X0133244Y0309926D02*
X0136772Y0309926D01*
X0136428Y0310065D02*
X0136428Y0312647D01*
X0136319Y0313054D01*
X0136109Y0313419D01*
X0135811Y0313717D01*
X0135446Y0313928D01*
X0135039Y0314037D01*
X0133244Y0314037D01*
X0133244Y0310065D01*
X0136428Y0310065D01*
X0136428Y0311125D02*
X0136772Y0311125D01*
X0136772Y0312323D02*
X0136428Y0312323D01*
X0136006Y0313522D02*
X0137194Y0313522D01*
X0138140Y0314720D02*
X0126581Y0314720D01*
X0126743Y0313522D02*
X0129714Y0313522D01*
X0129291Y0312323D02*
X0126743Y0312323D01*
X0126743Y0310262D02*
X0122200Y0310262D01*
X0122200Y0306112D01*
X0125354Y0306112D01*
X0125761Y0306221D01*
X0126126Y0306432D01*
X0126424Y0306730D01*
X0126634Y0307095D01*
X0126743Y0307502D01*
X0126743Y0310262D01*
X0126743Y0307529D02*
X0129291Y0307529D01*
X0129394Y0306331D02*
X0125951Y0306331D01*
X0126460Y0303934D02*
X0133031Y0303934D01*
X0133031Y0302735D02*
X0126743Y0302735D01*
X0122200Y0306331D02*
X0121000Y0306331D01*
X0121000Y0307529D02*
X0122200Y0307529D01*
X0122200Y0308728D02*
X0121000Y0308728D01*
X0121000Y0309926D02*
X0122200Y0309926D01*
X0122200Y0313522D02*
X0121000Y0313522D01*
X0121000Y0314720D02*
X0122200Y0314720D01*
X0116457Y0308728D02*
X0107848Y0308728D01*
X0106898Y0307529D02*
X0116457Y0307529D01*
X0117249Y0306331D02*
X0106639Y0306331D01*
X0106907Y0305132D02*
X0133726Y0305132D01*
X0133244Y0306331D02*
X0132476Y0306331D01*
X0132476Y0307529D02*
X0133244Y0307529D01*
X0133244Y0308728D02*
X0132476Y0308728D01*
X0132476Y0311125D02*
X0133244Y0311125D01*
X0133244Y0312323D02*
X0132476Y0312323D01*
X0132476Y0313522D02*
X0133244Y0313522D01*
X0136428Y0308728D02*
X0136772Y0308728D01*
X0136772Y0307529D02*
X0136428Y0307529D01*
X0136326Y0306331D02*
X0136772Y0306331D01*
X0139474Y0305132D02*
X0145476Y0305132D01*
X0145207Y0303934D02*
X0140168Y0303934D01*
X0140168Y0302735D02*
X0145207Y0302735D01*
X0145207Y0300338D02*
X0140168Y0300338D01*
X0140168Y0299140D02*
X0145207Y0299140D01*
X0145207Y0297941D02*
X0140168Y0297941D01*
X0139311Y0296743D02*
X0145740Y0296743D01*
X0149750Y0296743D02*
X0150950Y0296743D01*
X0150950Y0297941D02*
X0149750Y0297941D01*
X0149750Y0299140D02*
X0150950Y0299140D01*
X0150950Y0300338D02*
X0149750Y0300338D01*
X0149750Y0301537D02*
X0140168Y0301537D01*
X0136600Y0301019D02*
X0135419Y0299838D01*
X0121600Y0299838D01*
X0121600Y0282850D01*
X0122703Y0279964D02*
X0190602Y0279964D01*
X0191801Y0281162D02*
X0124244Y0281162D01*
X0124689Y0282361D02*
X0175618Y0282361D01*
X0175765Y0282300D02*
X0177435Y0282300D01*
X0178979Y0282939D01*
X0180161Y0284121D01*
X0180800Y0285665D01*
X0180800Y0292535D01*
X0180161Y0294079D01*
X0178979Y0295261D01*
X0177435Y0295900D01*
X0175765Y0295900D01*
X0174221Y0295261D01*
X0173039Y0294079D01*
X0172400Y0292535D01*
X0172400Y0285665D01*
X0173039Y0284121D01*
X0174221Y0282939D01*
X0175765Y0282300D01*
X0177582Y0282361D02*
X0185618Y0282361D01*
X0187582Y0282361D02*
X0192999Y0282361D01*
X0193601Y0283559D02*
X0189599Y0283559D01*
X0190424Y0284758D02*
X0192776Y0284758D01*
X0192400Y0285956D02*
X0190800Y0285956D01*
X0190800Y0287155D02*
X0192400Y0287155D01*
X0192400Y0288353D02*
X0190800Y0288353D01*
X0190800Y0289552D02*
X0192400Y0289552D01*
X0192400Y0290750D02*
X0190800Y0290750D01*
X0190800Y0291949D02*
X0192400Y0291949D01*
X0192653Y0293147D02*
X0190547Y0293147D01*
X0189957Y0294346D02*
X0193306Y0294346D01*
X0194906Y0295544D02*
X0191155Y0295544D01*
X0190350Y0297850D02*
X0219100Y0297850D01*
X0221600Y0295350D01*
X0221600Y0154100D01*
X0211600Y0144100D01*
X0208489Y0146929D02*
X0204600Y0146929D01*
X0204600Y0148127D02*
X0209688Y0148127D01*
X0207400Y0145730D02*
X0204600Y0145730D01*
X0204600Y0144532D02*
X0207400Y0144532D01*
X0207400Y0143333D02*
X0204600Y0143333D01*
X0204600Y0142135D02*
X0207626Y0142135D01*
X0208824Y0140936D02*
X0204600Y0140936D01*
X0204600Y0139738D02*
X0232400Y0139738D01*
X0232400Y0140840D02*
X0232400Y0137360D01*
X0234860Y0134900D01*
X0238340Y0134900D01*
X0240800Y0137360D01*
X0240800Y0140840D01*
X0238340Y0143300D01*
X0234860Y0143300D01*
X0232400Y0140840D01*
X0232497Y0140936D02*
X0214376Y0140936D01*
X0215574Y0142135D02*
X0233695Y0142135D01*
X0232400Y0138539D02*
X0204600Y0138539D01*
X0204600Y0137341D02*
X0208901Y0137341D01*
X0209860Y0138300D02*
X0207400Y0135840D01*
X0207400Y0132360D01*
X0209860Y0129900D01*
X0213340Y0129900D01*
X0215800Y0132360D01*
X0215800Y0135840D01*
X0213340Y0138300D01*
X0209860Y0138300D01*
X0207703Y0136142D02*
X0204600Y0136142D01*
X0204600Y0134944D02*
X0207400Y0134944D01*
X0207400Y0133745D02*
X0204600Y0133745D01*
X0204600Y0132547D02*
X0207400Y0132547D01*
X0208412Y0131348D02*
X0204600Y0131348D01*
X0204600Y0130150D02*
X0209611Y0130150D01*
X0213589Y0130150D02*
X0245650Y0130150D01*
X0245650Y0131348D02*
X0214788Y0131348D01*
X0215800Y0132547D02*
X0245650Y0132547D01*
X0245650Y0133745D02*
X0215800Y0133745D01*
X0215800Y0134944D02*
X0234817Y0134944D01*
X0233618Y0136142D02*
X0215497Y0136142D01*
X0214299Y0137341D02*
X0232420Y0137341D01*
X0238383Y0134944D02*
X0245650Y0134944D01*
X0245650Y0136142D02*
X0239582Y0136142D01*
X0240780Y0137341D02*
X0245650Y0137341D01*
X0245650Y0138539D02*
X0240800Y0138539D01*
X0240800Y0139738D02*
X0245650Y0139738D01*
X0245650Y0140936D02*
X0240703Y0140936D01*
X0239505Y0142135D02*
X0245650Y0142135D01*
X0245650Y0143333D02*
X0215800Y0143333D01*
X0215800Y0144532D02*
X0245650Y0144532D01*
X0245650Y0145730D02*
X0216342Y0145730D01*
X0217540Y0146929D02*
X0245650Y0146929D01*
X0245650Y0148127D02*
X0218739Y0148127D01*
X0219937Y0149326D02*
X0245650Y0149326D01*
X0245650Y0150524D02*
X0221136Y0150524D01*
X0222334Y0151723D02*
X0245650Y0151723D01*
X0245650Y0152921D02*
X0223533Y0152921D01*
X0223800Y0154120D02*
X0245650Y0154120D01*
X0245650Y0155318D02*
X0223800Y0155318D01*
X0223800Y0156517D02*
X0245650Y0156517D01*
X0245650Y0157715D02*
X0223800Y0157715D01*
X0223800Y0158914D02*
X0245650Y0158914D01*
X0245650Y0160112D02*
X0223800Y0160112D01*
X0223800Y0161311D02*
X0245650Y0161311D01*
X0245650Y0162509D02*
X0223800Y0162509D01*
X0223800Y0163708D02*
X0245650Y0163708D01*
X0245650Y0164906D02*
X0243346Y0164906D01*
X0244545Y0166105D02*
X0245650Y0166105D01*
X0239854Y0164906D02*
X0233346Y0164906D01*
X0233340Y0164900D02*
X0235800Y0167360D01*
X0235800Y0170840D01*
X0233340Y0173300D01*
X0229860Y0173300D01*
X0227400Y0170840D01*
X0227400Y0167360D01*
X0229860Y0164900D01*
X0233340Y0164900D01*
X0234545Y0166105D02*
X0238655Y0166105D01*
X0237457Y0167303D02*
X0235743Y0167303D01*
X0235800Y0168502D02*
X0237400Y0168502D01*
X0237400Y0169701D02*
X0235800Y0169701D01*
X0235741Y0170899D02*
X0237459Y0170899D01*
X0238658Y0172098D02*
X0234542Y0172098D01*
X0233344Y0173296D02*
X0239856Y0173296D01*
X0243344Y0173296D02*
X0245650Y0173296D01*
X0245650Y0172098D02*
X0244542Y0172098D01*
X0245650Y0174495D02*
X0223800Y0174495D01*
X0223800Y0175693D02*
X0245650Y0175693D01*
X0245650Y0176892D02*
X0223800Y0176892D01*
X0223800Y0178090D02*
X0245650Y0178090D01*
X0245650Y0179289D02*
X0223800Y0179289D01*
X0223800Y0180487D02*
X0245650Y0180487D01*
X0245650Y0181686D02*
X0223800Y0181686D01*
X0223800Y0182884D02*
X0245650Y0182884D01*
X0245650Y0184083D02*
X0223800Y0184083D01*
X0223800Y0185281D02*
X0224479Y0185281D01*
X0228721Y0185281D02*
X0238558Y0185281D01*
X0237359Y0186480D02*
X0229919Y0186480D01*
X0230800Y0187678D02*
X0236161Y0187678D01*
X0234962Y0188877D02*
X0230800Y0188877D01*
X0230800Y0190075D02*
X0233764Y0190075D01*
X0232565Y0191274D02*
X0230366Y0191274D01*
X0231366Y0192472D02*
X0229167Y0192472D01*
X0230168Y0193671D02*
X0223800Y0193671D01*
X0223800Y0194869D02*
X0228969Y0194869D01*
X0227771Y0196068D02*
X0223800Y0196068D01*
X0223800Y0197266D02*
X0226572Y0197266D01*
X0225374Y0198465D02*
X0223800Y0198465D01*
X0223800Y0199663D02*
X0224400Y0199663D01*
X0224400Y0200862D02*
X0223800Y0200862D01*
X0223800Y0202060D02*
X0224400Y0202060D01*
X0224400Y0203259D02*
X0223800Y0203259D01*
X0223800Y0204457D02*
X0224400Y0204457D01*
X0224400Y0205656D02*
X0223800Y0205656D01*
X0223800Y0206854D02*
X0224400Y0206854D01*
X0224400Y0208053D02*
X0223800Y0208053D01*
X0223800Y0209251D02*
X0224400Y0209251D01*
X0224400Y0210450D02*
X0223800Y0210450D01*
X0223800Y0211648D02*
X0224400Y0211648D01*
X0224400Y0212847D02*
X0223800Y0212847D01*
X0223800Y0214045D02*
X0224400Y0214045D01*
X0224400Y0215244D02*
X0223800Y0215244D01*
X0223800Y0216442D02*
X0224400Y0216442D01*
X0224400Y0217641D02*
X0223800Y0217641D01*
X0223800Y0218839D02*
X0224400Y0218839D01*
X0224400Y0220038D02*
X0223800Y0220038D01*
X0223800Y0221237D02*
X0224400Y0221237D01*
X0224400Y0222435D02*
X0223800Y0222435D01*
X0223800Y0223634D02*
X0224400Y0223634D01*
X0224400Y0224832D02*
X0223800Y0224832D01*
X0223800Y0226031D02*
X0224400Y0226031D01*
X0224400Y0227229D02*
X0223800Y0227229D01*
X0223800Y0228428D02*
X0224400Y0228428D01*
X0224400Y0229626D02*
X0223800Y0229626D01*
X0223800Y0230825D02*
X0224400Y0230825D01*
X0224400Y0232023D02*
X0223800Y0232023D01*
X0223800Y0233222D02*
X0224400Y0233222D01*
X0224400Y0234420D02*
X0223800Y0234420D01*
X0223800Y0235619D02*
X0224400Y0235619D01*
X0224400Y0236817D02*
X0223800Y0236817D01*
X0223800Y0238016D02*
X0224400Y0238016D01*
X0224400Y0239214D02*
X0223800Y0239214D01*
X0223800Y0240413D02*
X0224400Y0240413D01*
X0224400Y0241611D02*
X0223800Y0241611D01*
X0223800Y0242810D02*
X0224400Y0242810D01*
X0224400Y0244008D02*
X0223800Y0244008D01*
X0223800Y0245207D02*
X0224400Y0245207D01*
X0224400Y0246405D02*
X0223800Y0246405D01*
X0223800Y0247604D02*
X0224400Y0247604D01*
X0224400Y0248802D02*
X0223800Y0248802D01*
X0223800Y0250001D02*
X0224400Y0250001D01*
X0224400Y0251199D02*
X0223800Y0251199D01*
X0223800Y0252398D02*
X0224400Y0252398D01*
X0224400Y0253596D02*
X0223800Y0253596D01*
X0223800Y0254795D02*
X0224400Y0254795D01*
X0224400Y0255993D02*
X0223800Y0255993D01*
X0223800Y0257192D02*
X0224400Y0257192D01*
X0224400Y0258390D02*
X0223800Y0258390D01*
X0223800Y0259589D02*
X0224400Y0259589D01*
X0224400Y0260787D02*
X0223800Y0260787D01*
X0223800Y0261986D02*
X0224400Y0261986D01*
X0224400Y0263184D02*
X0223800Y0263184D01*
X0223800Y0264383D02*
X0224400Y0264383D01*
X0224400Y0265581D02*
X0223800Y0265581D01*
X0223800Y0266780D02*
X0224400Y0266780D01*
X0224400Y0267978D02*
X0223800Y0267978D01*
X0223800Y0269177D02*
X0224400Y0269177D01*
X0224400Y0270375D02*
X0223800Y0270375D01*
X0223800Y0271574D02*
X0224400Y0271574D01*
X0224400Y0272772D02*
X0223800Y0272772D01*
X0223800Y0273971D02*
X0224400Y0273971D01*
X0224400Y0275170D02*
X0223800Y0275170D01*
X0223800Y0276368D02*
X0224400Y0276368D01*
X0224400Y0277567D02*
X0223800Y0277567D01*
X0223800Y0278765D02*
X0224400Y0278765D01*
X0224400Y0279964D02*
X0223800Y0279964D01*
X0223800Y0281162D02*
X0224400Y0281162D01*
X0224400Y0282361D02*
X0223800Y0282361D01*
X0228800Y0282361D02*
X0234400Y0282361D01*
X0234400Y0281162D02*
X0228800Y0281162D01*
X0228800Y0279964D02*
X0234400Y0279964D01*
X0234400Y0278765D02*
X0228800Y0278765D01*
X0228800Y0277567D02*
X0234400Y0277567D01*
X0234400Y0276368D02*
X0228800Y0276368D01*
X0228800Y0275170D02*
X0234400Y0275170D01*
X0234400Y0273971D02*
X0228800Y0273971D01*
X0228800Y0272772D02*
X0234400Y0272772D01*
X0234400Y0271574D02*
X0228800Y0271574D01*
X0228800Y0270375D02*
X0234400Y0270375D01*
X0234400Y0269177D02*
X0228800Y0269177D01*
X0228800Y0267978D02*
X0234400Y0267978D01*
X0234400Y0266780D02*
X0228800Y0266780D01*
X0228800Y0265581D02*
X0234400Y0265581D01*
X0234400Y0264383D02*
X0228800Y0264383D01*
X0228800Y0263184D02*
X0229745Y0263184D01*
X0233455Y0263184D02*
X0234400Y0263184D01*
X0238800Y0263184D02*
X0239745Y0263184D01*
X0238800Y0264383D02*
X0243772Y0264383D01*
X0244970Y0265581D02*
X0238800Y0265581D01*
X0238800Y0266780D02*
X0246169Y0266780D01*
X0247367Y0267978D02*
X0238800Y0267978D01*
X0238800Y0269177D02*
X0248566Y0269177D01*
X0249764Y0270375D02*
X0238800Y0270375D01*
X0238800Y0271574D02*
X0250963Y0271574D01*
X0252161Y0272772D02*
X0238800Y0272772D01*
X0238800Y0273971D02*
X0253360Y0273971D01*
X0254400Y0275170D02*
X0238800Y0275170D01*
X0238800Y0276368D02*
X0254400Y0276368D01*
X0254400Y0277567D02*
X0238800Y0277567D01*
X0238800Y0278765D02*
X0254400Y0278765D01*
X0254400Y0279964D02*
X0238800Y0279964D01*
X0238800Y0281162D02*
X0254400Y0281162D01*
X0254400Y0282361D02*
X0247582Y0282361D01*
X0245618Y0282361D02*
X0238800Y0282361D01*
X0239599Y0283559D02*
X0243601Y0283559D01*
X0242776Y0284758D02*
X0240424Y0284758D01*
X0240800Y0285956D02*
X0242400Y0285956D01*
X0242400Y0287155D02*
X0240800Y0287155D01*
X0240800Y0288353D02*
X0242400Y0288353D01*
X0242400Y0289552D02*
X0240800Y0289552D01*
X0240800Y0290750D02*
X0242400Y0290750D01*
X0242400Y0291949D02*
X0240800Y0291949D01*
X0240547Y0293147D02*
X0242653Y0293147D01*
X0243306Y0294346D02*
X0239894Y0294346D01*
X0238294Y0295544D02*
X0244906Y0295544D01*
X0248294Y0295544D02*
X0249933Y0295544D01*
X0251131Y0296743D02*
X0223319Y0296743D01*
X0223800Y0295544D02*
X0224906Y0295544D01*
X0228294Y0295544D02*
X0234906Y0295544D01*
X0233306Y0294346D02*
X0229894Y0294346D01*
X0230547Y0293147D02*
X0232653Y0293147D01*
X0232400Y0291949D02*
X0230800Y0291949D01*
X0230800Y0290750D02*
X0232400Y0290750D01*
X0232400Y0289552D02*
X0230800Y0289552D01*
X0230800Y0288353D02*
X0232400Y0288353D01*
X0232400Y0287155D02*
X0230800Y0287155D01*
X0230800Y0285956D02*
X0232400Y0285956D01*
X0232776Y0284758D02*
X0230424Y0284758D01*
X0229599Y0283559D02*
X0233601Y0283559D01*
X0236600Y0289100D02*
X0236600Y0235350D01*
X0250350Y0221600D01*
X0250350Y0160350D01*
X0256600Y0154100D01*
X0252400Y0154120D02*
X0250050Y0154120D01*
X0250050Y0155318D02*
X0252270Y0155318D01*
X0251072Y0156517D02*
X0250050Y0156517D01*
X0250050Y0152921D02*
X0252400Y0152921D01*
X0253037Y0151723D02*
X0250050Y0151723D01*
X0250050Y0150524D02*
X0254236Y0150524D01*
X0254860Y0148300D02*
X0252400Y0145840D01*
X0252400Y0142360D01*
X0254860Y0139900D01*
X0258340Y0139900D01*
X0260800Y0142360D01*
X0260800Y0145840D01*
X0258340Y0148300D01*
X0254860Y0148300D01*
X0254688Y0148127D02*
X0250050Y0148127D01*
X0250050Y0146929D02*
X0253489Y0146929D01*
X0252400Y0145730D02*
X0250050Y0145730D01*
X0250050Y0144532D02*
X0252400Y0144532D01*
X0252400Y0143333D02*
X0250050Y0143333D01*
X0250050Y0142135D02*
X0252626Y0142135D01*
X0253824Y0140936D02*
X0250050Y0140936D01*
X0250050Y0139738D02*
X0271700Y0139738D01*
X0271700Y0140936D02*
X0259376Y0140936D01*
X0260574Y0142135D02*
X0271700Y0142135D01*
X0271700Y0143333D02*
X0260800Y0143333D01*
X0260800Y0144532D02*
X0271700Y0144532D01*
X0271700Y0145730D02*
X0260800Y0145730D01*
X0259711Y0146929D02*
X0271700Y0146929D01*
X0271700Y0148127D02*
X0258512Y0148127D01*
X0258964Y0150524D02*
X0271700Y0150524D01*
X0271700Y0149326D02*
X0250050Y0149326D01*
X0254897Y0158914D02*
X0271700Y0158914D01*
X0271700Y0160112D02*
X0253699Y0160112D01*
X0252550Y0161311D02*
X0271700Y0161311D01*
X0271700Y0162509D02*
X0252550Y0162509D01*
X0252550Y0163708D02*
X0271700Y0163708D01*
X0271700Y0164906D02*
X0252550Y0164906D01*
X0252550Y0166105D02*
X0271700Y0166105D01*
X0271700Y0167303D02*
X0252550Y0167303D01*
X0252550Y0168502D02*
X0271700Y0168502D01*
X0271700Y0169701D02*
X0252550Y0169701D01*
X0252550Y0170899D02*
X0271700Y0170899D01*
X0271700Y0172098D02*
X0252550Y0172098D01*
X0252550Y0173296D02*
X0271700Y0173296D01*
X0271700Y0174495D02*
X0252550Y0174495D01*
X0252550Y0175693D02*
X0271700Y0175693D01*
X0271700Y0176892D02*
X0252550Y0176892D01*
X0252550Y0178090D02*
X0271700Y0178090D01*
X0271700Y0179289D02*
X0252550Y0179289D01*
X0252550Y0180487D02*
X0254273Y0180487D01*
X0253075Y0181686D02*
X0252550Y0181686D01*
X0252550Y0186480D02*
X0253040Y0186480D01*
X0252550Y0187678D02*
X0254239Y0187678D01*
X0252550Y0188877D02*
X0271700Y0188877D01*
X0271700Y0190075D02*
X0258515Y0190075D01*
X0259713Y0191274D02*
X0271700Y0191274D01*
X0271700Y0192472D02*
X0260800Y0192472D01*
X0260800Y0193671D02*
X0271700Y0193671D01*
X0271700Y0194869D02*
X0260800Y0194869D01*
X0260572Y0196068D02*
X0271700Y0196068D01*
X0271700Y0197266D02*
X0259373Y0197266D01*
X0253827Y0197266D02*
X0252550Y0197266D01*
X0252550Y0196068D02*
X0252628Y0196068D01*
X0252550Y0198465D02*
X0271700Y0198465D01*
X0271700Y0199663D02*
X0252550Y0199663D01*
X0252550Y0200862D02*
X0271700Y0200862D01*
X0271700Y0202060D02*
X0252550Y0202060D01*
X0252550Y0203259D02*
X0271700Y0203259D01*
X0271700Y0204457D02*
X0252550Y0204457D01*
X0252550Y0205656D02*
X0254104Y0205656D01*
X0252906Y0206854D02*
X0252550Y0206854D01*
X0252550Y0211648D02*
X0253209Y0211648D01*
X0252550Y0212847D02*
X0254407Y0212847D01*
X0252550Y0214045D02*
X0271700Y0214045D01*
X0271700Y0212847D02*
X0258793Y0212847D01*
X0259991Y0211648D02*
X0271700Y0211648D01*
X0271700Y0210450D02*
X0260800Y0210450D01*
X0260800Y0209251D02*
X0271700Y0209251D01*
X0271700Y0208053D02*
X0260800Y0208053D01*
X0260294Y0206854D02*
X0271700Y0206854D01*
X0271700Y0205656D02*
X0259096Y0205656D01*
X0258684Y0215244D02*
X0271700Y0215244D01*
X0271700Y0216442D02*
X0259882Y0216442D01*
X0260800Y0217641D02*
X0271700Y0217641D01*
X0271700Y0218839D02*
X0260800Y0218839D01*
X0260800Y0220038D02*
X0271700Y0220038D01*
X0271700Y0221237D02*
X0260403Y0221237D01*
X0259205Y0222435D02*
X0271700Y0222435D01*
X0271700Y0223634D02*
X0251428Y0223634D01*
X0252550Y0222435D02*
X0253995Y0222435D01*
X0252797Y0221237D02*
X0252550Y0221237D01*
X0250229Y0224832D02*
X0271700Y0224832D01*
X0271700Y0226031D02*
X0249031Y0226031D01*
X0247832Y0227229D02*
X0271700Y0227229D01*
X0271700Y0228428D02*
X0246634Y0228428D01*
X0245435Y0229626D02*
X0271700Y0229626D01*
X0271700Y0230825D02*
X0259264Y0230825D01*
X0258340Y0229900D02*
X0260800Y0232360D01*
X0260800Y0235840D01*
X0258340Y0238300D01*
X0254860Y0238300D01*
X0252400Y0235840D01*
X0252400Y0232360D01*
X0254860Y0229900D01*
X0258340Y0229900D01*
X0260463Y0232023D02*
X0271700Y0232023D01*
X0271700Y0233222D02*
X0260800Y0233222D01*
X0260800Y0234420D02*
X0271700Y0234420D01*
X0271700Y0235619D02*
X0260800Y0235619D01*
X0259823Y0236817D02*
X0271700Y0236817D01*
X0271700Y0238016D02*
X0258624Y0238016D01*
X0258852Y0240413D02*
X0271700Y0240413D01*
X0271700Y0241611D02*
X0260051Y0241611D01*
X0260800Y0242810D02*
X0271700Y0242810D01*
X0271700Y0244008D02*
X0260800Y0244008D01*
X0260818Y0245207D02*
X0271700Y0245207D01*
X0271700Y0246405D02*
X0262016Y0246405D01*
X0263215Y0247604D02*
X0271700Y0247604D01*
X0271700Y0248802D02*
X0264414Y0248802D01*
X0265612Y0250001D02*
X0271700Y0250001D01*
X0271700Y0251199D02*
X0266811Y0251199D01*
X0268009Y0252398D02*
X0271700Y0252398D01*
X0271700Y0253596D02*
X0269208Y0253596D01*
X0270406Y0254795D02*
X0271700Y0254795D01*
X0271700Y0255993D02*
X0271605Y0255993D01*
X0271600Y0259100D02*
X0256600Y0244100D01*
X0252400Y0244008D02*
X0238800Y0244008D01*
X0238800Y0242810D02*
X0252400Y0242810D01*
X0253149Y0241611D02*
X0238800Y0241611D01*
X0238800Y0240413D02*
X0254348Y0240413D01*
X0254576Y0238016D02*
X0238800Y0238016D01*
X0238800Y0239214D02*
X0271700Y0239214D01*
X0260588Y0251199D02*
X0238800Y0251199D01*
X0238800Y0250001D02*
X0259390Y0250001D01*
X0258191Y0248802D02*
X0238800Y0248802D01*
X0238800Y0247604D02*
X0254164Y0247604D01*
X0252966Y0246405D02*
X0238800Y0246405D01*
X0238800Y0245207D02*
X0252400Y0245207D01*
X0253377Y0236817D02*
X0238800Y0236817D01*
X0239443Y0235619D02*
X0252400Y0235619D01*
X0252400Y0234420D02*
X0240641Y0234420D01*
X0241840Y0233222D02*
X0252400Y0233222D01*
X0252737Y0232023D02*
X0243038Y0232023D01*
X0244237Y0230825D02*
X0253936Y0230825D01*
X0253318Y0216442D02*
X0252550Y0216442D01*
X0252550Y0215244D02*
X0254516Y0215244D01*
X0253487Y0191274D02*
X0252550Y0191274D01*
X0252550Y0190075D02*
X0254685Y0190075D01*
X0258961Y0187678D02*
X0271700Y0187678D01*
X0271700Y0186480D02*
X0260160Y0186480D01*
X0260800Y0185281D02*
X0271700Y0185281D01*
X0271700Y0184083D02*
X0260800Y0184083D01*
X0260800Y0182884D02*
X0271700Y0182884D01*
X0271700Y0181686D02*
X0260125Y0181686D01*
X0258927Y0180487D02*
X0271700Y0180487D01*
X0271700Y0157715D02*
X0258924Y0157715D01*
X0260123Y0156517D02*
X0271700Y0156517D01*
X0271700Y0155318D02*
X0260800Y0155318D01*
X0260800Y0154120D02*
X0271700Y0154120D01*
X0271700Y0152921D02*
X0260800Y0152921D01*
X0260163Y0151723D02*
X0271700Y0151723D01*
X0271700Y0138539D02*
X0250050Y0138539D01*
X0250050Y0137341D02*
X0271700Y0137341D01*
X0271700Y0136142D02*
X0250050Y0136142D01*
X0250050Y0134944D02*
X0271700Y0134944D01*
X0271700Y0133745D02*
X0250050Y0133745D01*
X0250050Y0132547D02*
X0254107Y0132547D01*
X0254860Y0133300D02*
X0252400Y0130840D01*
X0252400Y0127360D01*
X0254860Y0124900D01*
X0258340Y0124900D01*
X0260800Y0127360D01*
X0260800Y0130840D01*
X0258340Y0133300D01*
X0254860Y0133300D01*
X0252908Y0131348D02*
X0250050Y0131348D01*
X0250050Y0130150D02*
X0252400Y0130150D01*
X0252400Y0128951D02*
X0250050Y0128951D01*
X0250050Y0127753D02*
X0252400Y0127753D01*
X0253206Y0126554D02*
X0250050Y0126554D01*
X0250050Y0125356D02*
X0254405Y0125356D01*
X0254860Y0123300D02*
X0252400Y0120840D01*
X0252400Y0117360D01*
X0254860Y0114900D01*
X0258340Y0114900D01*
X0260800Y0117360D01*
X0260800Y0120840D01*
X0258340Y0123300D01*
X0254860Y0123300D01*
X0254519Y0122959D02*
X0250050Y0122959D01*
X0250050Y0124157D02*
X0271700Y0124157D01*
X0271700Y0122959D02*
X0258681Y0122959D01*
X0259880Y0121760D02*
X0271700Y0121760D01*
X0271700Y0120562D02*
X0260800Y0120562D01*
X0260800Y0119363D02*
X0271700Y0119363D01*
X0271700Y0118165D02*
X0260800Y0118165D01*
X0260406Y0116966D02*
X0271700Y0116966D01*
X0271700Y0115768D02*
X0259207Y0115768D01*
X0253993Y0115768D02*
X0250050Y0115768D01*
X0250050Y0116966D02*
X0252794Y0116966D01*
X0252400Y0118165D02*
X0250050Y0118165D01*
X0250050Y0119363D02*
X0252400Y0119363D01*
X0252400Y0120562D02*
X0250050Y0120562D01*
X0250050Y0121760D02*
X0253320Y0121760D01*
X0250050Y0114569D02*
X0271700Y0114569D01*
X0271700Y0113370D02*
X0250050Y0113370D01*
X0250050Y0112172D02*
X0271700Y0112172D01*
X0271700Y0110973D02*
X0250050Y0110973D01*
X0250050Y0109775D02*
X0271700Y0109775D01*
X0271700Y0108576D02*
X0250050Y0108576D01*
X0250050Y0107378D02*
X0253938Y0107378D01*
X0254860Y0108300D02*
X0252400Y0105840D01*
X0252400Y0102360D01*
X0254860Y0099900D01*
X0258340Y0099900D01*
X0260800Y0102360D01*
X0260800Y0105840D01*
X0258340Y0108300D01*
X0254860Y0108300D01*
X0252740Y0106179D02*
X0250050Y0106179D01*
X0250050Y0104981D02*
X0252400Y0104981D01*
X0252400Y0103782D02*
X0250050Y0103782D01*
X0250050Y0102584D02*
X0252400Y0102584D01*
X0253375Y0101385D02*
X0250050Y0101385D01*
X0250050Y0100187D02*
X0254573Y0100187D01*
X0254860Y0098300D02*
X0252400Y0095840D01*
X0252400Y0092360D01*
X0254860Y0089900D01*
X0258340Y0089900D01*
X0260800Y0092360D01*
X0260800Y0095840D01*
X0258340Y0098300D01*
X0254860Y0098300D01*
X0254350Y0097790D02*
X0250050Y0097790D01*
X0250050Y0098988D02*
X0271700Y0098988D01*
X0271700Y0097790D02*
X0258850Y0097790D01*
X0260048Y0096591D02*
X0271700Y0096591D01*
X0271700Y0095393D02*
X0260800Y0095393D01*
X0260800Y0094194D02*
X0271700Y0094194D01*
X0271700Y0092996D02*
X0260800Y0092996D01*
X0260237Y0091797D02*
X0271700Y0091797D01*
X0271700Y0090599D02*
X0259038Y0090599D01*
X0254162Y0090599D02*
X0250050Y0090599D01*
X0250050Y0091797D02*
X0252963Y0091797D01*
X0252400Y0092996D02*
X0250050Y0092996D01*
X0250050Y0094194D02*
X0252400Y0094194D01*
X0252400Y0095393D02*
X0250050Y0095393D01*
X0250050Y0096591D02*
X0253152Y0096591D01*
X0258627Y0100187D02*
X0271700Y0100187D01*
X0271700Y0101385D02*
X0259825Y0101385D01*
X0260800Y0102584D02*
X0271700Y0102584D01*
X0271700Y0103782D02*
X0260800Y0103782D01*
X0260800Y0104981D02*
X0271700Y0104981D01*
X0271700Y0106179D02*
X0260460Y0106179D01*
X0259262Y0107378D02*
X0271700Y0107378D01*
X0271700Y0125356D02*
X0258795Y0125356D01*
X0259994Y0126554D02*
X0271700Y0126554D01*
X0271700Y0127753D02*
X0260800Y0127753D01*
X0260800Y0128951D02*
X0271700Y0128951D01*
X0271700Y0130150D02*
X0260800Y0130150D01*
X0260292Y0131348D02*
X0271700Y0131348D01*
X0271700Y0132547D02*
X0259093Y0132547D01*
X0245650Y0128951D02*
X0204600Y0128951D01*
X0204600Y0127753D02*
X0245650Y0127753D01*
X0245650Y0126554D02*
X0204600Y0126554D01*
X0204600Y0125356D02*
X0245650Y0125356D01*
X0245650Y0124157D02*
X0204600Y0124157D01*
X0204600Y0122959D02*
X0245650Y0122959D01*
X0245650Y0121760D02*
X0204600Y0121760D01*
X0204600Y0120562D02*
X0245650Y0120562D01*
X0245650Y0119363D02*
X0204600Y0119363D01*
X0204600Y0118165D02*
X0209725Y0118165D01*
X0209860Y0118300D02*
X0207400Y0115840D01*
X0207400Y0112360D01*
X0209860Y0109900D01*
X0213340Y0109900D01*
X0215800Y0112360D01*
X0215800Y0115840D01*
X0213340Y0118300D01*
X0209860Y0118300D01*
X0208526Y0116966D02*
X0204600Y0116966D01*
X0204600Y0115768D02*
X0207400Y0115768D01*
X0207400Y0114569D02*
X0204600Y0114569D01*
X0204600Y0113370D02*
X0207400Y0113370D01*
X0207588Y0112172D02*
X0204600Y0112172D01*
X0204600Y0110973D02*
X0208787Y0110973D01*
X0209860Y0108300D02*
X0207400Y0105840D01*
X0207400Y0102360D01*
X0209860Y0099900D01*
X0213340Y0099900D01*
X0215800Y0102360D01*
X0215800Y0105840D01*
X0213340Y0108300D01*
X0209860Y0108300D01*
X0208938Y0107378D02*
X0204600Y0107378D01*
X0204600Y0108576D02*
X0232400Y0108576D01*
X0232400Y0107378D02*
X0214262Y0107378D01*
X0215460Y0106179D02*
X0233581Y0106179D01*
X0232400Y0107360D02*
X0234860Y0104900D01*
X0238340Y0104900D01*
X0240800Y0107360D01*
X0240800Y0110840D01*
X0238340Y0113300D01*
X0234860Y0113300D01*
X0232400Y0110840D01*
X0232400Y0107360D01*
X0232400Y0109775D02*
X0204600Y0109775D01*
X0202400Y0107400D02*
X0202400Y0260840D01*
X0216600Y0275040D01*
X0216600Y0289100D01*
X0218800Y0282361D02*
X0219400Y0282361D01*
X0219400Y0281162D02*
X0218800Y0281162D01*
X0218800Y0279964D02*
X0219400Y0279964D01*
X0219400Y0278765D02*
X0218800Y0278765D01*
X0218800Y0277567D02*
X0219400Y0277567D01*
X0219400Y0276368D02*
X0218800Y0276368D01*
X0218800Y0275170D02*
X0219400Y0275170D01*
X0219400Y0273971D02*
X0218643Y0273971D01*
X0219400Y0272772D02*
X0217444Y0272772D01*
X0216246Y0271574D02*
X0219400Y0271574D01*
X0219400Y0270375D02*
X0215047Y0270375D01*
X0213848Y0269177D02*
X0219400Y0269177D01*
X0219400Y0267978D02*
X0212650Y0267978D01*
X0211451Y0266780D02*
X0219400Y0266780D01*
X0219400Y0265581D02*
X0210253Y0265581D01*
X0209054Y0264383D02*
X0219400Y0264383D01*
X0219400Y0263184D02*
X0218455Y0263184D01*
X0214745Y0263184D02*
X0208455Y0263184D01*
X0209654Y0261986D02*
X0213546Y0261986D01*
X0212400Y0260787D02*
X0210800Y0260787D01*
X0210800Y0259589D02*
X0212400Y0259589D01*
X0212400Y0258390D02*
X0210800Y0258390D01*
X0210632Y0257192D02*
X0212568Y0257192D01*
X0213767Y0255993D02*
X0209433Y0255993D01*
X0204600Y0254795D02*
X0219400Y0254795D01*
X0219400Y0253596D02*
X0204600Y0253596D01*
X0204600Y0252398D02*
X0219400Y0252398D01*
X0219400Y0251199D02*
X0204600Y0251199D01*
X0204600Y0250001D02*
X0219400Y0250001D01*
X0219400Y0248802D02*
X0204600Y0248802D01*
X0204600Y0247604D02*
X0219400Y0247604D01*
X0219400Y0246405D02*
X0204600Y0246405D01*
X0204600Y0245207D02*
X0219400Y0245207D01*
X0219400Y0244008D02*
X0204600Y0244008D01*
X0204600Y0242810D02*
X0219400Y0242810D01*
X0219400Y0241611D02*
X0204600Y0241611D01*
X0204600Y0240413D02*
X0219400Y0240413D01*
X0219400Y0239214D02*
X0204600Y0239214D01*
X0204600Y0238016D02*
X0209576Y0238016D01*
X0209860Y0238300D02*
X0207400Y0235840D01*
X0207400Y0232360D01*
X0209860Y0229900D01*
X0213340Y0229900D01*
X0215800Y0232360D01*
X0215800Y0235840D01*
X0213340Y0238300D01*
X0209860Y0238300D01*
X0208377Y0236817D02*
X0204600Y0236817D01*
X0204600Y0235619D02*
X0207400Y0235619D01*
X0207400Y0234420D02*
X0204600Y0234420D01*
X0204600Y0233222D02*
X0207400Y0233222D01*
X0207737Y0232023D02*
X0204600Y0232023D01*
X0204600Y0230825D02*
X0208936Y0230825D01*
X0204600Y0229626D02*
X0219400Y0229626D01*
X0219400Y0228428D02*
X0204600Y0228428D01*
X0204600Y0227229D02*
X0219400Y0227229D01*
X0219400Y0226031D02*
X0204600Y0226031D01*
X0204600Y0224832D02*
X0219400Y0224832D01*
X0219400Y0223634D02*
X0204600Y0223634D01*
X0204600Y0222435D02*
X0219400Y0222435D01*
X0219400Y0221237D02*
X0204600Y0221237D01*
X0204600Y0220038D02*
X0219400Y0220038D01*
X0219400Y0218839D02*
X0204600Y0218839D01*
X0204600Y0217641D02*
X0219400Y0217641D01*
X0219400Y0216442D02*
X0204600Y0216442D01*
X0204600Y0215244D02*
X0219400Y0215244D01*
X0219400Y0214045D02*
X0204600Y0214045D01*
X0204600Y0212847D02*
X0219400Y0212847D01*
X0219400Y0211648D02*
X0204600Y0211648D01*
X0204600Y0210450D02*
X0219400Y0210450D01*
X0219400Y0209251D02*
X0204600Y0209251D01*
X0204600Y0208053D02*
X0209613Y0208053D01*
X0209860Y0208300D02*
X0207400Y0205840D01*
X0207400Y0202360D01*
X0209860Y0199900D01*
X0213340Y0199900D01*
X0215800Y0202360D01*
X0215800Y0205840D01*
X0213340Y0208300D01*
X0209860Y0208300D01*
X0208415Y0206854D02*
X0204600Y0206854D01*
X0204600Y0205656D02*
X0207400Y0205656D01*
X0207400Y0204457D02*
X0204600Y0204457D01*
X0204600Y0203259D02*
X0207400Y0203259D01*
X0207700Y0202060D02*
X0204600Y0202060D01*
X0204600Y0200862D02*
X0208898Y0200862D01*
X0204600Y0199663D02*
X0219400Y0199663D01*
X0219400Y0198465D02*
X0204600Y0198465D01*
X0204600Y0197266D02*
X0219400Y0197266D01*
X0219400Y0196068D02*
X0204600Y0196068D01*
X0204600Y0194869D02*
X0219400Y0194869D01*
X0219400Y0193671D02*
X0204600Y0193671D01*
X0204600Y0192472D02*
X0219400Y0192472D01*
X0219400Y0191274D02*
X0204600Y0191274D01*
X0204600Y0190075D02*
X0219400Y0190075D01*
X0219400Y0188877D02*
X0204600Y0188877D01*
X0204600Y0187678D02*
X0219400Y0187678D01*
X0219400Y0186480D02*
X0204600Y0186480D01*
X0204600Y0185281D02*
X0219400Y0185281D01*
X0219400Y0184083D02*
X0204600Y0184083D01*
X0204600Y0182884D02*
X0219400Y0182884D01*
X0219400Y0181686D02*
X0204600Y0181686D01*
X0204600Y0180487D02*
X0219400Y0180487D01*
X0219400Y0179289D02*
X0204600Y0179289D01*
X0204600Y0178090D02*
X0219400Y0178090D01*
X0219400Y0176892D02*
X0204600Y0176892D01*
X0204600Y0175693D02*
X0219400Y0175693D01*
X0219400Y0174495D02*
X0204600Y0174495D01*
X0204600Y0173296D02*
X0204856Y0173296D01*
X0208344Y0173296D02*
X0214856Y0173296D01*
X0213658Y0172098D02*
X0209542Y0172098D01*
X0210741Y0170899D02*
X0212459Y0170899D01*
X0212400Y0169701D02*
X0210800Y0169701D01*
X0210800Y0168502D02*
X0212400Y0168502D01*
X0212457Y0167303D02*
X0210743Y0167303D01*
X0209545Y0166105D02*
X0213655Y0166105D01*
X0214854Y0164906D02*
X0208346Y0164906D01*
X0204854Y0164906D02*
X0204600Y0164906D01*
X0204600Y0163708D02*
X0219400Y0163708D01*
X0219400Y0164906D02*
X0218346Y0164906D01*
X0219400Y0162509D02*
X0204600Y0162509D01*
X0204600Y0161311D02*
X0219400Y0161311D01*
X0219400Y0160112D02*
X0204600Y0160112D01*
X0204600Y0158914D02*
X0219400Y0158914D01*
X0219400Y0157715D02*
X0204600Y0157715D01*
X0204600Y0156517D02*
X0219400Y0156517D01*
X0219400Y0155318D02*
X0204600Y0155318D01*
X0204600Y0154120D02*
X0218509Y0154120D01*
X0217310Y0152921D02*
X0204600Y0152921D01*
X0204600Y0151723D02*
X0216112Y0151723D01*
X0214913Y0150524D02*
X0204600Y0150524D01*
X0204600Y0149326D02*
X0213715Y0149326D01*
X0223800Y0164906D02*
X0229854Y0164906D01*
X0228655Y0166105D02*
X0223800Y0166105D01*
X0223800Y0167303D02*
X0227457Y0167303D01*
X0227400Y0168502D02*
X0223800Y0168502D01*
X0223800Y0169701D02*
X0227400Y0169701D01*
X0227459Y0170899D02*
X0223800Y0170899D01*
X0223800Y0172098D02*
X0228658Y0172098D01*
X0229856Y0173296D02*
X0223800Y0173296D01*
X0219400Y0173296D02*
X0218344Y0173296D01*
X0223800Y0192472D02*
X0224033Y0192472D01*
X0226600Y0200350D02*
X0240350Y0186600D01*
X0246600Y0186600D01*
X0247850Y0185350D01*
X0247850Y0085350D01*
X0241600Y0079100D01*
X0244656Y0076217D02*
X0271700Y0076217D01*
X0271700Y0077415D02*
X0245800Y0077415D01*
X0245800Y0078614D02*
X0271700Y0078614D01*
X0271700Y0079812D02*
X0245800Y0079812D01*
X0246622Y0081011D02*
X0271700Y0081011D01*
X0271700Y0082209D02*
X0247820Y0082209D01*
X0249019Y0083408D02*
X0271700Y0083408D01*
X0271700Y0084606D02*
X0250050Y0084606D01*
X0250050Y0085805D02*
X0271700Y0085805D01*
X0271700Y0087003D02*
X0250050Y0087003D01*
X0250050Y0088202D02*
X0271700Y0088202D01*
X0271700Y0089400D02*
X0250050Y0089400D01*
X0245650Y0089400D02*
X0111600Y0089400D01*
X0111600Y0088202D02*
X0245650Y0088202D01*
X0245650Y0087003D02*
X0111600Y0087003D01*
X0111416Y0085805D02*
X0245193Y0085805D01*
X0243995Y0084606D02*
X0110217Y0084606D01*
X0109019Y0083408D02*
X0242796Y0083408D01*
X0238770Y0082209D02*
X0234430Y0082209D01*
X0233340Y0083300D02*
X0229860Y0083300D01*
X0227400Y0080840D01*
X0227400Y0077360D01*
X0229860Y0074900D01*
X0233340Y0074900D01*
X0235800Y0077360D01*
X0235800Y0080840D01*
X0233340Y0083300D01*
X0235629Y0081011D02*
X0237571Y0081011D01*
X0237400Y0079812D02*
X0235800Y0079812D01*
X0235800Y0078614D02*
X0237400Y0078614D01*
X0237400Y0077415D02*
X0235800Y0077415D01*
X0234656Y0076217D02*
X0238544Y0076217D01*
X0239742Y0075018D02*
X0233458Y0075018D01*
X0229742Y0075018D02*
X0218458Y0075018D01*
X0218340Y0074900D02*
X0220800Y0077360D01*
X0220800Y0080840D01*
X0218340Y0083300D01*
X0214860Y0083300D01*
X0212400Y0080840D01*
X0212400Y0077360D01*
X0214860Y0074900D01*
X0218340Y0074900D01*
X0219656Y0076217D02*
X0228544Y0076217D01*
X0227400Y0077415D02*
X0220800Y0077415D01*
X0220800Y0078614D02*
X0227400Y0078614D01*
X0227400Y0079812D02*
X0220800Y0079812D01*
X0220629Y0081011D02*
X0227571Y0081011D01*
X0228770Y0082209D02*
X0219430Y0082209D01*
X0213770Y0082209D02*
X0209430Y0082209D01*
X0208340Y0083300D02*
X0204860Y0083300D01*
X0202400Y0080840D01*
X0202400Y0077360D01*
X0204860Y0074900D01*
X0208340Y0074900D01*
X0210800Y0077360D01*
X0210800Y0080840D01*
X0208340Y0083300D01*
X0210629Y0081011D02*
X0212571Y0081011D01*
X0212400Y0079812D02*
X0210800Y0079812D01*
X0210800Y0078614D02*
X0212400Y0078614D01*
X0212400Y0077415D02*
X0210800Y0077415D01*
X0209656Y0076217D02*
X0213544Y0076217D01*
X0214742Y0075018D02*
X0208458Y0075018D01*
X0204742Y0075018D02*
X0193458Y0075018D01*
X0193340Y0074900D02*
X0195800Y0077360D01*
X0195800Y0080840D01*
X0193340Y0083300D01*
X0189860Y0083300D01*
X0187400Y0080840D01*
X0187400Y0077360D01*
X0189860Y0074900D01*
X0193340Y0074900D01*
X0194656Y0076217D02*
X0203544Y0076217D01*
X0202400Y0077415D02*
X0195800Y0077415D01*
X0195800Y0078614D02*
X0202400Y0078614D01*
X0202400Y0079812D02*
X0195800Y0079812D01*
X0195629Y0081011D02*
X0202571Y0081011D01*
X0203770Y0082209D02*
X0194430Y0082209D01*
X0188770Y0082209D02*
X0184430Y0082209D01*
X0183340Y0083300D02*
X0185800Y0080840D01*
X0185800Y0077360D01*
X0183340Y0074900D01*
X0179860Y0074900D01*
X0177400Y0077360D01*
X0177400Y0080840D01*
X0179860Y0083300D01*
X0183340Y0083300D01*
X0185629Y0081011D02*
X0187571Y0081011D01*
X0187400Y0079812D02*
X0185800Y0079812D01*
X0185800Y0078614D02*
X0187400Y0078614D01*
X0187400Y0077415D02*
X0185800Y0077415D01*
X0184656Y0076217D02*
X0188544Y0076217D01*
X0189742Y0075018D02*
X0183458Y0075018D01*
X0179742Y0075018D02*
X0103458Y0075018D01*
X0104656Y0076217D02*
X0178544Y0076217D01*
X0177400Y0077415D02*
X0105800Y0077415D01*
X0105800Y0078614D02*
X0177400Y0078614D01*
X0177400Y0079812D02*
X0105800Y0079812D01*
X0106622Y0081011D02*
X0177571Y0081011D01*
X0178770Y0082209D02*
X0107820Y0082209D01*
X0109400Y0086900D02*
X0101600Y0079100D01*
X0098544Y0076217D02*
X0094656Y0076217D01*
X0095800Y0077415D02*
X0097400Y0077415D01*
X0097400Y0078614D02*
X0095800Y0078614D01*
X0095800Y0079812D02*
X0097400Y0079812D01*
X0097571Y0081011D02*
X0095629Y0081011D01*
X0093458Y0075018D02*
X0099742Y0075018D01*
X0109400Y0086900D02*
X0109400Y0273800D01*
X0101843Y0281357D01*
X0102400Y0288353D02*
X0119400Y0288353D01*
X0119400Y0287155D02*
X0110407Y0287155D01*
X0111605Y0285956D02*
X0119400Y0285956D01*
X0119139Y0284758D02*
X0112804Y0284758D01*
X0114002Y0283559D02*
X0118550Y0283559D01*
X0118511Y0282361D02*
X0115201Y0282361D01*
X0116399Y0281162D02*
X0118956Y0281162D01*
X0117598Y0279964D02*
X0120497Y0279964D01*
X0118796Y0278765D02*
X0189404Y0278765D01*
X0188205Y0277567D02*
X0118800Y0277567D01*
X0118800Y0276368D02*
X0187007Y0276368D01*
X0185808Y0275170D02*
X0118800Y0275170D01*
X0118800Y0273971D02*
X0184610Y0273971D01*
X0183411Y0272772D02*
X0118800Y0272772D01*
X0118800Y0271574D02*
X0182213Y0271574D01*
X0181014Y0270375D02*
X0118800Y0270375D01*
X0118800Y0269177D02*
X0179816Y0269177D01*
X0178617Y0267978D02*
X0118800Y0267978D01*
X0118800Y0266780D02*
X0177419Y0266780D01*
X0176220Y0265581D02*
X0118800Y0265581D01*
X0118800Y0264383D02*
X0175022Y0264383D01*
X0170458Y0253596D02*
X0195650Y0253596D01*
X0195650Y0252398D02*
X0169259Y0252398D01*
X0168061Y0251199D02*
X0195650Y0251199D01*
X0195650Y0250001D02*
X0166862Y0250001D01*
X0165664Y0248802D02*
X0195650Y0248802D01*
X0195650Y0247604D02*
X0169036Y0247604D01*
X0170234Y0246405D02*
X0195650Y0246405D01*
X0195650Y0245207D02*
X0170800Y0245207D01*
X0170800Y0244008D02*
X0195650Y0244008D01*
X0195650Y0242810D02*
X0170800Y0242810D01*
X0170051Y0241611D02*
X0195650Y0241611D01*
X0195650Y0240413D02*
X0168852Y0240413D01*
X0168340Y0238300D02*
X0164860Y0238300D01*
X0162400Y0235840D01*
X0162400Y0232360D01*
X0164860Y0229900D01*
X0168340Y0229900D01*
X0170800Y0232360D01*
X0170800Y0235840D01*
X0168340Y0238300D01*
X0168624Y0238016D02*
X0189576Y0238016D01*
X0188377Y0236817D02*
X0169823Y0236817D01*
X0170800Y0235619D02*
X0187400Y0235619D01*
X0187400Y0234420D02*
X0170800Y0234420D01*
X0170800Y0233222D02*
X0187400Y0233222D01*
X0187737Y0232023D02*
X0170463Y0232023D01*
X0169264Y0230825D02*
X0188936Y0230825D01*
X0194264Y0230825D02*
X0195650Y0230825D01*
X0195650Y0232023D02*
X0195463Y0232023D01*
X0195650Y0229626D02*
X0160050Y0229626D01*
X0160050Y0228428D02*
X0195650Y0228428D01*
X0195650Y0227229D02*
X0160050Y0227229D01*
X0160050Y0226031D02*
X0195650Y0226031D01*
X0195650Y0224832D02*
X0160050Y0224832D01*
X0160050Y0223634D02*
X0195650Y0223634D01*
X0195650Y0222435D02*
X0169205Y0222435D01*
X0168340Y0223300D02*
X0164860Y0223300D01*
X0162400Y0220840D01*
X0162400Y0217360D01*
X0164860Y0214900D01*
X0168340Y0214900D01*
X0170800Y0217360D01*
X0170800Y0220840D01*
X0168340Y0223300D01*
X0170403Y0221237D02*
X0195650Y0221237D01*
X0195650Y0220038D02*
X0170800Y0220038D01*
X0170800Y0218839D02*
X0195650Y0218839D01*
X0195650Y0217641D02*
X0170800Y0217641D01*
X0169882Y0216442D02*
X0195650Y0216442D01*
X0195650Y0215244D02*
X0168684Y0215244D01*
X0168793Y0212847D02*
X0195650Y0212847D01*
X0195650Y0214045D02*
X0160050Y0214045D01*
X0160050Y0212847D02*
X0164407Y0212847D01*
X0163209Y0211648D02*
X0160050Y0211648D01*
X0160050Y0210450D02*
X0162400Y0210450D01*
X0162400Y0209251D02*
X0160050Y0209251D01*
X0160050Y0208053D02*
X0162400Y0208053D01*
X0162906Y0206854D02*
X0160050Y0206854D01*
X0160050Y0205656D02*
X0164104Y0205656D01*
X0164516Y0215244D02*
X0160050Y0215244D01*
X0160050Y0216442D02*
X0163318Y0216442D01*
X0162400Y0217641D02*
X0160050Y0217641D01*
X0160050Y0218839D02*
X0162400Y0218839D01*
X0162400Y0220038D02*
X0160050Y0220038D01*
X0160050Y0221237D02*
X0162797Y0221237D01*
X0163995Y0222435D02*
X0160050Y0222435D01*
X0160050Y0230825D02*
X0163936Y0230825D01*
X0162737Y0232023D02*
X0160050Y0232023D01*
X0160050Y0233222D02*
X0162400Y0233222D01*
X0162400Y0234420D02*
X0160050Y0234420D01*
X0160050Y0235619D02*
X0162400Y0235619D01*
X0163377Y0236817D02*
X0160050Y0236817D01*
X0160050Y0238016D02*
X0164576Y0238016D01*
X0164348Y0240413D02*
X0160050Y0240413D01*
X0160050Y0241611D02*
X0163149Y0241611D01*
X0162400Y0242810D02*
X0160050Y0242810D01*
X0160869Y0244008D02*
X0162400Y0244008D01*
X0162400Y0245207D02*
X0162068Y0245207D01*
X0157850Y0244100D02*
X0196600Y0282850D01*
X0196600Y0289100D01*
X0190350Y0297850D02*
X0186600Y0294100D01*
X0186600Y0289100D01*
X0182400Y0289552D02*
X0180800Y0289552D01*
X0180800Y0290750D02*
X0182400Y0290750D01*
X0182400Y0291949D02*
X0180800Y0291949D01*
X0180547Y0293147D02*
X0182653Y0293147D01*
X0183306Y0294346D02*
X0179894Y0294346D01*
X0178294Y0295544D02*
X0184906Y0295544D01*
X0186131Y0296743D02*
X0172354Y0296743D01*
X0172301Y0295544D02*
X0174906Y0295544D01*
X0173306Y0294346D02*
X0172645Y0294346D01*
X0172653Y0293147D02*
X0172505Y0293147D01*
X0172400Y0291949D02*
X0171773Y0291949D01*
X0172400Y0290750D02*
X0123800Y0290750D01*
X0123800Y0289552D02*
X0172400Y0289552D01*
X0172400Y0288353D02*
X0123800Y0288353D01*
X0123800Y0287155D02*
X0172400Y0287155D01*
X0172400Y0285956D02*
X0123800Y0285956D01*
X0124061Y0284758D02*
X0172776Y0284758D01*
X0173601Y0283559D02*
X0124650Y0283559D01*
X0119400Y0289552D02*
X0106657Y0289552D01*
X0107341Y0289100D02*
X0107596Y0288846D01*
X0107341Y0289100D02*
X0094800Y0289100D01*
X0094650Y0294100D02*
X0103604Y0294100D01*
X0105350Y0292354D01*
X0104043Y0289552D02*
X0102400Y0289552D01*
X0102363Y0290750D02*
X0102671Y0290750D01*
X0106332Y0296332D02*
X0105403Y0297261D01*
X0102820Y0297261D01*
X0100982Y0299100D01*
X0094650Y0299100D01*
X0094650Y0304100D02*
X0100350Y0304100D01*
X0104100Y0300350D01*
X0106952Y0301537D02*
X0116457Y0301537D01*
X0116457Y0302735D02*
X0106083Y0302735D01*
X0106692Y0303934D02*
X0116740Y0303934D01*
X0116457Y0300338D02*
X0107189Y0300338D01*
X0107625Y0299140D02*
X0116457Y0299140D01*
X0116457Y0297941D02*
X0109009Y0297941D01*
X0109421Y0296743D02*
X0116457Y0296743D01*
X0116938Y0295544D02*
X0109349Y0295544D01*
X0108714Y0294346D02*
X0119400Y0294346D01*
X0119400Y0293147D02*
X0108365Y0293147D01*
X0108439Y0291949D02*
X0119400Y0291949D01*
X0119400Y0290750D02*
X0108029Y0290750D01*
X0103818Y0305068D02*
X0099786Y0309100D01*
X0094650Y0309100D01*
X0094650Y0314100D02*
X0101009Y0314100D01*
X0105054Y0310054D01*
X0102869Y0315919D02*
X0102301Y0315919D01*
X0103811Y0318872D02*
X0103583Y0319100D01*
X0094650Y0319100D01*
X0094650Y0324100D02*
X0103872Y0324100D01*
X0105122Y0322850D01*
X0109122Y0327189D02*
X0109143Y0327189D01*
X0108981Y0327350D01*
X0108511Y0328486D01*
X0108511Y0329714D01*
X0108629Y0330000D01*
X0108125Y0330000D01*
X0108125Y0334075D01*
X0108075Y0334075D01*
X0108075Y0330000D01*
X0106639Y0330000D01*
X0106232Y0330109D01*
X0106161Y0330150D01*
X0109122Y0327189D01*
X0108752Y0327904D02*
X0108407Y0327904D01*
X0108511Y0329103D02*
X0107209Y0329103D01*
X0108075Y0330301D02*
X0108125Y0330301D01*
X0108125Y0331500D02*
X0108075Y0331500D01*
X0108075Y0332698D02*
X0108125Y0332698D01*
X0108125Y0333897D02*
X0108075Y0333897D01*
X0108100Y0334100D02*
X0108100Y0338100D01*
X0109100Y0339100D01*
X0122850Y0339100D01*
X0123100Y0338850D01*
X0123100Y0334100D01*
X0123075Y0334075D02*
X0123075Y0330000D01*
X0121639Y0330000D01*
X0121232Y0330109D01*
X0120868Y0330320D01*
X0120570Y0330618D01*
X0120359Y0330982D01*
X0120250Y0331389D01*
X0120250Y0334075D01*
X0123075Y0334075D01*
X0123075Y0333897D02*
X0123125Y0333897D01*
X0123125Y0335095D02*
X0123075Y0335095D01*
X0123075Y0336294D02*
X0123125Y0336294D01*
X0123125Y0337492D02*
X0123075Y0337492D01*
X0122850Y0339100D02*
X0137850Y0339100D01*
X0138100Y0338850D01*
X0138100Y0334100D01*
X0138075Y0334075D02*
X0138075Y0330000D01*
X0136639Y0330000D01*
X0136232Y0330109D01*
X0135868Y0330320D01*
X0135570Y0330618D01*
X0135359Y0330982D01*
X0135250Y0331389D01*
X0135250Y0334075D01*
X0138075Y0334075D01*
X0138075Y0333897D02*
X0138125Y0333897D01*
X0138125Y0335095D02*
X0138075Y0335095D01*
X0138075Y0336294D02*
X0138125Y0336294D01*
X0138125Y0337492D02*
X0138075Y0337492D01*
X0137850Y0339100D02*
X0151600Y0339100D01*
X0152850Y0337850D01*
X0152850Y0334350D01*
X0153100Y0334100D01*
X0153075Y0334075D02*
X0153075Y0330000D01*
X0151639Y0330000D01*
X0151232Y0330109D01*
X0150868Y0330320D01*
X0150570Y0330618D01*
X0150359Y0330982D01*
X0150250Y0331389D01*
X0150250Y0334075D01*
X0153075Y0334075D01*
X0153075Y0333897D02*
X0153125Y0333897D01*
X0153125Y0335095D02*
X0153075Y0335095D01*
X0153075Y0336294D02*
X0153125Y0336294D01*
X0153125Y0337492D02*
X0153075Y0337492D01*
X0150518Y0337492D02*
X0147721Y0337492D01*
X0147950Y0336294D02*
X0150250Y0336294D01*
X0150250Y0335095D02*
X0147950Y0335095D01*
X0147950Y0333897D02*
X0150250Y0333897D01*
X0150250Y0332698D02*
X0147950Y0332698D01*
X0147950Y0331500D02*
X0150250Y0331500D01*
X0150900Y0330301D02*
X0147314Y0330301D01*
X0147300Y0329103D02*
X0153511Y0329103D01*
X0153752Y0327904D02*
X0149664Y0327904D01*
X0147850Y0325350D02*
X0145350Y0325350D01*
X0145100Y0325600D01*
X0145100Y0334100D01*
X0141600Y0334100D02*
X0141600Y0329100D01*
X0145350Y0325350D02*
X0130350Y0325350D01*
X0130100Y0325600D01*
X0130100Y0334100D01*
X0132950Y0333897D02*
X0135250Y0333897D01*
X0135250Y0335095D02*
X0132950Y0335095D01*
X0132950Y0336294D02*
X0135250Y0336294D01*
X0135518Y0337492D02*
X0132721Y0337492D01*
X0132950Y0332698D02*
X0135250Y0332698D01*
X0135250Y0331500D02*
X0132950Y0331500D01*
X0132314Y0330301D02*
X0135900Y0330301D01*
X0138075Y0330301D02*
X0138125Y0330301D01*
X0138125Y0331500D02*
X0138075Y0331500D01*
X0138075Y0332698D02*
X0138125Y0332698D01*
X0138511Y0329103D02*
X0132300Y0329103D01*
X0132300Y0327904D02*
X0138752Y0327904D01*
X0138941Y0323110D02*
X0112033Y0323110D01*
X0112189Y0324308D02*
X0115780Y0324308D01*
X0114582Y0325507D02*
X0111861Y0325507D01*
X0111600Y0329100D02*
X0111600Y0334100D01*
X0115100Y0334100D02*
X0115100Y0328100D01*
X0117850Y0325350D01*
X0130350Y0325350D01*
X0126600Y0329100D02*
X0126600Y0334100D01*
X0123125Y0332698D02*
X0123075Y0332698D01*
X0123075Y0331500D02*
X0123125Y0331500D01*
X0123125Y0330301D02*
X0123075Y0330301D01*
X0123511Y0329103D02*
X0117300Y0329103D01*
X0117314Y0330301D02*
X0120900Y0330301D01*
X0120250Y0331500D02*
X0117950Y0331500D01*
X0117950Y0332698D02*
X0120250Y0332698D01*
X0120250Y0333897D02*
X0117950Y0333897D01*
X0117950Y0335095D02*
X0120250Y0335095D01*
X0120250Y0336294D02*
X0117950Y0336294D01*
X0117721Y0337492D02*
X0120518Y0337492D01*
X0118407Y0327904D02*
X0123752Y0327904D01*
X0108125Y0335095D02*
X0108075Y0335095D01*
X0108075Y0336294D02*
X0108125Y0336294D01*
X0108125Y0337492D02*
X0108075Y0337492D01*
X0105518Y0337492D02*
X0011500Y0337492D01*
X0011500Y0336294D02*
X0105250Y0336294D01*
X0105250Y0335095D02*
X0011500Y0335095D01*
X0011500Y0333897D02*
X0105250Y0333897D01*
X0105250Y0332698D02*
X0011500Y0332698D01*
X0011500Y0331500D02*
X0051387Y0331500D01*
X0040940Y0330301D02*
X0011500Y0330301D01*
X0011500Y0329103D02*
X0039741Y0329103D01*
X0039400Y0327904D02*
X0011500Y0327904D01*
X0011500Y0326705D02*
X0039400Y0326705D01*
X0039400Y0325507D02*
X0011500Y0325507D01*
X0011500Y0324308D02*
X0039400Y0324308D01*
X0039400Y0323110D02*
X0011500Y0323110D01*
X0011500Y0321911D02*
X0039400Y0321911D01*
X0039400Y0320713D02*
X0011500Y0320713D01*
X0011500Y0319514D02*
X0039400Y0319514D01*
X0039400Y0318316D02*
X0011500Y0318316D01*
X0011500Y0317117D02*
X0039400Y0317117D01*
X0039400Y0315919D02*
X0011500Y0315919D01*
X0011500Y0314720D02*
X0039400Y0314720D01*
X0039400Y0313522D02*
X0011500Y0313522D01*
X0011500Y0312323D02*
X0039400Y0312323D01*
X0039400Y0311125D02*
X0011500Y0311125D01*
X0011500Y0309926D02*
X0039400Y0309926D01*
X0039400Y0308728D02*
X0011500Y0308728D01*
X0011500Y0307529D02*
X0039400Y0307529D01*
X0039400Y0306331D02*
X0011500Y0306331D01*
X0011500Y0305132D02*
X0039400Y0305132D01*
X0039400Y0303934D02*
X0011500Y0303934D01*
X0011500Y0302735D02*
X0039400Y0302735D01*
X0039400Y0301537D02*
X0011500Y0301537D01*
X0011500Y0300338D02*
X0039400Y0300338D01*
X0039400Y0299140D02*
X0011500Y0299140D01*
X0011500Y0297941D02*
X0039400Y0297941D01*
X0039400Y0296743D02*
X0011500Y0296743D01*
X0011500Y0295544D02*
X0039400Y0295544D01*
X0039400Y0294346D02*
X0011500Y0294346D01*
X0011500Y0293147D02*
X0039400Y0293147D01*
X0039400Y0291949D02*
X0011500Y0291949D01*
X0011500Y0290750D02*
X0039400Y0290750D01*
X0039400Y0289552D02*
X0011500Y0289552D01*
X0011500Y0288353D02*
X0039400Y0288353D01*
X0039400Y0287155D02*
X0011500Y0287155D01*
X0011500Y0285956D02*
X0039400Y0285956D01*
X0039400Y0284758D02*
X0011500Y0284758D01*
X0011500Y0283559D02*
X0039400Y0283559D01*
X0039400Y0282361D02*
X0011500Y0282361D01*
X0011500Y0281162D02*
X0039400Y0281162D01*
X0039400Y0279964D02*
X0011500Y0279964D01*
X0011500Y0278765D02*
X0039400Y0278765D01*
X0039400Y0277567D02*
X0011500Y0277567D01*
X0011500Y0276368D02*
X0039400Y0276368D01*
X0039400Y0275170D02*
X0011500Y0275170D01*
X0011500Y0273971D02*
X0039400Y0273971D01*
X0039400Y0272772D02*
X0011500Y0272772D01*
X0011500Y0271574D02*
X0039400Y0271574D01*
X0039400Y0270375D02*
X0011500Y0270375D01*
X0011500Y0269177D02*
X0039400Y0269177D01*
X0039400Y0267978D02*
X0011500Y0267978D01*
X0011500Y0266780D02*
X0039400Y0266780D01*
X0039400Y0265581D02*
X0011500Y0265581D01*
X0011500Y0264383D02*
X0039400Y0264383D01*
X0039400Y0263184D02*
X0011500Y0263184D01*
X0011500Y0261986D02*
X0038546Y0261986D01*
X0037400Y0260787D02*
X0011500Y0260787D01*
X0011500Y0259589D02*
X0037400Y0259589D01*
X0037400Y0258390D02*
X0011500Y0258390D01*
X0011500Y0257192D02*
X0037568Y0257192D01*
X0038767Y0255993D02*
X0011500Y0255993D01*
X0029823Y0236817D02*
X0044400Y0236817D01*
X0044400Y0235619D02*
X0030800Y0235619D01*
X0030800Y0234420D02*
X0044400Y0234420D01*
X0044400Y0233222D02*
X0030800Y0233222D01*
X0030463Y0232023D02*
X0044400Y0232023D01*
X0044400Y0230825D02*
X0029264Y0230825D01*
X0029205Y0222435D02*
X0044400Y0222435D01*
X0044400Y0221237D02*
X0030403Y0221237D01*
X0030800Y0220038D02*
X0044400Y0220038D01*
X0044400Y0218839D02*
X0030800Y0218839D01*
X0030800Y0217641D02*
X0044400Y0217641D01*
X0044400Y0216442D02*
X0029882Y0216442D01*
X0028684Y0215244D02*
X0044400Y0215244D01*
X0044400Y0214045D02*
X0011500Y0214045D01*
X0028793Y0212847D02*
X0044400Y0212847D01*
X0044400Y0211648D02*
X0029991Y0211648D01*
X0030800Y0210450D02*
X0044400Y0210450D01*
X0044400Y0209251D02*
X0030800Y0209251D01*
X0030800Y0208053D02*
X0044400Y0208053D01*
X0044400Y0206854D02*
X0030294Y0206854D01*
X0029096Y0205656D02*
X0044400Y0205656D01*
X0048800Y0200862D02*
X0048898Y0200862D01*
X0048800Y0192472D02*
X0054033Y0192472D01*
X0052834Y0191274D02*
X0048800Y0191274D01*
X0048800Y0190075D02*
X0052400Y0190075D01*
X0052400Y0188877D02*
X0048800Y0188877D01*
X0048800Y0187678D02*
X0052400Y0187678D01*
X0053281Y0186480D02*
X0048800Y0186480D01*
X0048800Y0185281D02*
X0054479Y0185281D01*
X0044400Y0173296D02*
X0043344Y0173296D01*
X0043346Y0164906D02*
X0044400Y0164906D01*
X0043715Y0149326D02*
X0011500Y0149326D01*
X0011500Y0150524D02*
X0024236Y0150524D01*
X0023037Y0151723D02*
X0011500Y0151723D01*
X0011500Y0152921D02*
X0022400Y0152921D01*
X0022400Y0154120D02*
X0011500Y0154120D01*
X0011500Y0155318D02*
X0022400Y0155318D01*
X0023077Y0156517D02*
X0011500Y0156517D01*
X0011500Y0157715D02*
X0024276Y0157715D01*
X0024688Y0148127D02*
X0011500Y0148127D01*
X0011500Y0146929D02*
X0023489Y0146929D01*
X0022400Y0145730D02*
X0011500Y0145730D01*
X0011500Y0144532D02*
X0022400Y0144532D01*
X0022400Y0143333D02*
X0011500Y0143333D01*
X0011500Y0142135D02*
X0022626Y0142135D01*
X0023824Y0140936D02*
X0011500Y0140936D01*
X0011500Y0106179D02*
X0022740Y0106179D01*
X0022400Y0104981D02*
X0011500Y0104981D01*
X0011500Y0103782D02*
X0022400Y0103782D01*
X0022400Y0102584D02*
X0011500Y0102584D01*
X0011500Y0101385D02*
X0023375Y0101385D01*
X0024573Y0100187D02*
X0011500Y0100187D01*
X0035798Y0100187D02*
X0069573Y0100187D01*
X0068375Y0101385D02*
X0036997Y0101385D01*
X0038195Y0102584D02*
X0067400Y0102584D01*
X0067400Y0103782D02*
X0039394Y0103782D01*
X0048383Y0134944D02*
X0067400Y0134944D01*
X0067703Y0136142D02*
X0049582Y0136142D01*
X0050780Y0137341D02*
X0068901Y0137341D01*
X0068824Y0140936D02*
X0050703Y0140936D01*
X0050800Y0139738D02*
X0092400Y0139738D01*
X0092400Y0140840D02*
X0092400Y0137360D01*
X0094860Y0134900D01*
X0098340Y0134900D01*
X0100800Y0137360D01*
X0100800Y0140840D01*
X0098340Y0143300D01*
X0094860Y0143300D01*
X0092400Y0140840D01*
X0092497Y0140936D02*
X0074376Y0140936D01*
X0075574Y0142135D02*
X0093695Y0142135D01*
X0092400Y0138539D02*
X0050800Y0138539D01*
X0049505Y0142135D02*
X0067626Y0142135D01*
X0074299Y0137341D02*
X0092420Y0137341D01*
X0093618Y0136142D02*
X0075497Y0136142D01*
X0075800Y0134944D02*
X0094817Y0134944D01*
X0098383Y0134944D02*
X0107200Y0134944D01*
X0107200Y0136142D02*
X0099582Y0136142D01*
X0100780Y0137341D02*
X0107200Y0137341D01*
X0107200Y0138539D02*
X0100800Y0138539D01*
X0100800Y0139738D02*
X0107200Y0139738D01*
X0107200Y0140936D02*
X0100703Y0140936D01*
X0099505Y0142135D02*
X0107200Y0142135D01*
X0107200Y0143333D02*
X0075800Y0143333D01*
X0075800Y0144532D02*
X0107200Y0144532D01*
X0107200Y0145730D02*
X0075800Y0145730D01*
X0075800Y0133745D02*
X0107200Y0133745D01*
X0107200Y0132547D02*
X0075800Y0132547D01*
X0074788Y0131348D02*
X0107200Y0131348D01*
X0107200Y0130150D02*
X0073589Y0130150D01*
X0073800Y0164906D02*
X0074854Y0164906D01*
X0078346Y0164906D02*
X0089854Y0164906D01*
X0089860Y0164900D02*
X0093340Y0164900D01*
X0095800Y0167360D01*
X0095800Y0170840D01*
X0093340Y0173300D01*
X0089860Y0173300D01*
X0087400Y0170840D01*
X0087400Y0167360D01*
X0089860Y0164900D01*
X0088655Y0166105D02*
X0079545Y0166105D01*
X0080743Y0167303D02*
X0087457Y0167303D01*
X0087400Y0168502D02*
X0080800Y0168502D01*
X0080800Y0169701D02*
X0087400Y0169701D01*
X0087459Y0170899D02*
X0080741Y0170899D01*
X0079542Y0172098D02*
X0088658Y0172098D01*
X0089856Y0173296D02*
X0078344Y0173296D01*
X0074856Y0173296D02*
X0073800Y0173296D01*
X0069400Y0173296D02*
X0068344Y0173296D01*
X0068346Y0164906D02*
X0069400Y0164906D01*
X0093346Y0164906D02*
X0099854Y0164906D01*
X0098655Y0166105D02*
X0094545Y0166105D01*
X0095743Y0167303D02*
X0097457Y0167303D01*
X0097400Y0168502D02*
X0095800Y0168502D01*
X0095800Y0169701D02*
X0097400Y0169701D01*
X0097459Y0170899D02*
X0095741Y0170899D01*
X0094542Y0172098D02*
X0098658Y0172098D01*
X0099856Y0173296D02*
X0093344Y0173296D01*
X0111600Y0148127D02*
X0114688Y0148127D01*
X0114860Y0148300D02*
X0112400Y0145840D01*
X0112400Y0142360D01*
X0114860Y0139900D01*
X0118340Y0139900D01*
X0120800Y0142360D01*
X0120800Y0145840D01*
X0118340Y0148300D01*
X0114860Y0148300D01*
X0113489Y0146929D02*
X0111600Y0146929D01*
X0111600Y0145730D02*
X0112400Y0145730D01*
X0112400Y0144532D02*
X0111600Y0144532D01*
X0111600Y0143333D02*
X0112400Y0143333D01*
X0112626Y0142135D02*
X0111600Y0142135D01*
X0111600Y0140936D02*
X0113824Y0140936D01*
X0111600Y0139738D02*
X0182400Y0139738D01*
X0182400Y0140840D02*
X0182400Y0137360D01*
X0184860Y0134900D01*
X0188340Y0134900D01*
X0190800Y0137360D01*
X0190800Y0140840D01*
X0188340Y0143300D01*
X0184860Y0143300D01*
X0182400Y0140840D01*
X0182497Y0140936D02*
X0169376Y0140936D01*
X0168340Y0139900D02*
X0164860Y0139900D01*
X0162400Y0142360D01*
X0162400Y0145840D01*
X0164860Y0148300D01*
X0168340Y0148300D01*
X0170800Y0145840D01*
X0170800Y0142360D01*
X0168340Y0139900D01*
X0170574Y0142135D02*
X0183695Y0142135D01*
X0182400Y0138539D02*
X0111600Y0138539D01*
X0111600Y0137341D02*
X0182420Y0137341D01*
X0183618Y0136142D02*
X0111600Y0136142D01*
X0111600Y0134944D02*
X0184817Y0134944D01*
X0188383Y0134944D02*
X0200200Y0134944D01*
X0200200Y0136142D02*
X0189582Y0136142D01*
X0190780Y0137341D02*
X0200200Y0137341D01*
X0200200Y0138539D02*
X0190800Y0138539D01*
X0190800Y0139738D02*
X0200200Y0139738D01*
X0200200Y0140936D02*
X0190703Y0140936D01*
X0189505Y0142135D02*
X0200200Y0142135D01*
X0200200Y0143333D02*
X0170800Y0143333D01*
X0170800Y0144532D02*
X0200200Y0144532D01*
X0200200Y0145730D02*
X0170800Y0145730D01*
X0169711Y0146929D02*
X0200200Y0146929D01*
X0200200Y0148127D02*
X0168512Y0148127D01*
X0164688Y0148127D02*
X0148512Y0148127D01*
X0148340Y0148300D02*
X0144860Y0148300D01*
X0142400Y0145840D01*
X0142400Y0142360D01*
X0144860Y0139900D01*
X0148340Y0139900D01*
X0150800Y0142360D01*
X0150800Y0145840D01*
X0148340Y0148300D01*
X0149711Y0146929D02*
X0163489Y0146929D01*
X0162400Y0145730D02*
X0150800Y0145730D01*
X0150800Y0144532D02*
X0162400Y0144532D01*
X0162400Y0143333D02*
X0150800Y0143333D01*
X0150574Y0142135D02*
X0162626Y0142135D01*
X0163824Y0140936D02*
X0149376Y0140936D01*
X0144688Y0148127D02*
X0138512Y0148127D01*
X0138340Y0148300D02*
X0134860Y0148300D01*
X0132400Y0145840D01*
X0132400Y0142360D01*
X0134860Y0139900D01*
X0138340Y0139900D01*
X0140800Y0142360D01*
X0140800Y0145840D01*
X0138340Y0148300D01*
X0139711Y0146929D02*
X0143489Y0146929D01*
X0142400Y0145730D02*
X0140800Y0145730D01*
X0140800Y0144532D02*
X0142400Y0144532D01*
X0142400Y0143333D02*
X0140800Y0143333D01*
X0140574Y0142135D02*
X0142626Y0142135D01*
X0143824Y0140936D02*
X0139376Y0140936D01*
X0133824Y0140936D02*
X0119376Y0140936D01*
X0120574Y0142135D02*
X0132626Y0142135D01*
X0132400Y0143333D02*
X0120800Y0143333D01*
X0120800Y0144532D02*
X0132400Y0144532D01*
X0132400Y0145730D02*
X0120800Y0145730D01*
X0119711Y0146929D02*
X0133489Y0146929D01*
X0134688Y0148127D02*
X0118512Y0148127D01*
X0118964Y0150524D02*
X0164236Y0150524D01*
X0163037Y0151723D02*
X0120163Y0151723D01*
X0120800Y0152921D02*
X0162400Y0152921D01*
X0164860Y0133300D02*
X0162400Y0130840D01*
X0162400Y0127360D01*
X0164860Y0124900D01*
X0168340Y0124900D01*
X0170800Y0127360D01*
X0170800Y0130840D01*
X0168340Y0133300D01*
X0164860Y0133300D01*
X0164107Y0132547D02*
X0119093Y0132547D01*
X0118340Y0133300D02*
X0120800Y0130840D01*
X0120800Y0127360D01*
X0118340Y0124900D01*
X0114860Y0124900D01*
X0112400Y0127360D01*
X0112400Y0130840D01*
X0114860Y0133300D01*
X0118340Y0133300D01*
X0120292Y0131348D02*
X0162908Y0131348D01*
X0162400Y0130150D02*
X0120800Y0130150D01*
X0120800Y0128951D02*
X0162400Y0128951D01*
X0162400Y0127753D02*
X0120800Y0127753D01*
X0119994Y0126554D02*
X0163206Y0126554D01*
X0164405Y0125356D02*
X0118795Y0125356D01*
X0118340Y0123300D02*
X0114860Y0123300D01*
X0112400Y0120840D01*
X0112400Y0117360D01*
X0114860Y0114900D01*
X0118340Y0114900D01*
X0120800Y0117360D01*
X0120800Y0120840D01*
X0118340Y0123300D01*
X0118681Y0122959D02*
X0164519Y0122959D01*
X0164860Y0123300D02*
X0162400Y0120840D01*
X0162400Y0117360D01*
X0164860Y0114900D01*
X0168340Y0114900D01*
X0170800Y0117360D01*
X0170800Y0120840D01*
X0168340Y0123300D01*
X0164860Y0123300D01*
X0163320Y0121760D02*
X0119880Y0121760D01*
X0120800Y0120562D02*
X0162400Y0120562D01*
X0162400Y0119363D02*
X0120800Y0119363D01*
X0120800Y0118165D02*
X0134725Y0118165D01*
X0134860Y0118300D02*
X0132400Y0115840D01*
X0132400Y0112360D01*
X0134860Y0109900D01*
X0138340Y0109900D01*
X0140800Y0112360D01*
X0140800Y0115840D01*
X0138340Y0118300D01*
X0134860Y0118300D01*
X0133526Y0116966D02*
X0120406Y0116966D01*
X0119207Y0115768D02*
X0132400Y0115768D01*
X0132400Y0114569D02*
X0111600Y0114569D01*
X0111600Y0115768D02*
X0113993Y0115768D01*
X0112794Y0116966D02*
X0111600Y0116966D01*
X0111600Y0118165D02*
X0112400Y0118165D01*
X0112400Y0119363D02*
X0111600Y0119363D01*
X0111600Y0120562D02*
X0112400Y0120562D01*
X0111600Y0121760D02*
X0113320Y0121760D01*
X0114519Y0122959D02*
X0111600Y0122959D01*
X0111600Y0124157D02*
X0200200Y0124157D01*
X0200200Y0122959D02*
X0168681Y0122959D01*
X0169880Y0121760D02*
X0200200Y0121760D01*
X0200200Y0120562D02*
X0170800Y0120562D01*
X0170800Y0119363D02*
X0200200Y0119363D01*
X0200200Y0118165D02*
X0170800Y0118165D01*
X0170406Y0116966D02*
X0200200Y0116966D01*
X0200200Y0115768D02*
X0169207Y0115768D01*
X0163993Y0115768D02*
X0150800Y0115768D01*
X0150800Y0115840D02*
X0148340Y0118300D01*
X0144860Y0118300D01*
X0142400Y0115840D01*
X0142400Y0112360D01*
X0144860Y0109900D01*
X0148340Y0109900D01*
X0150800Y0112360D01*
X0150800Y0115840D01*
X0150800Y0114569D02*
X0200200Y0114569D01*
X0200200Y0113370D02*
X0150800Y0113370D01*
X0150612Y0112172D02*
X0183732Y0112172D01*
X0184860Y0113300D02*
X0182400Y0110840D01*
X0182400Y0107360D01*
X0184860Y0104900D01*
X0188340Y0104900D01*
X0190800Y0107360D01*
X0190800Y0110840D01*
X0188340Y0113300D01*
X0184860Y0113300D01*
X0182534Y0110973D02*
X0149413Y0110973D01*
X0149674Y0116966D02*
X0162794Y0116966D01*
X0162400Y0118165D02*
X0148475Y0118165D01*
X0144725Y0118165D02*
X0138475Y0118165D01*
X0139674Y0116966D02*
X0143526Y0116966D01*
X0142400Y0115768D02*
X0140800Y0115768D01*
X0140800Y0114569D02*
X0142400Y0114569D01*
X0142400Y0113370D02*
X0140800Y0113370D01*
X0140612Y0112172D02*
X0142588Y0112172D01*
X0143787Y0110973D02*
X0139413Y0110973D01*
X0133787Y0110973D02*
X0111600Y0110973D01*
X0111600Y0109775D02*
X0182400Y0109775D01*
X0182400Y0108576D02*
X0111600Y0108576D01*
X0111600Y0107378D02*
X0113938Y0107378D01*
X0114860Y0108300D02*
X0112400Y0105840D01*
X0112400Y0102360D01*
X0114860Y0099900D01*
X0118340Y0099900D01*
X0120800Y0102360D01*
X0120800Y0105840D01*
X0118340Y0108300D01*
X0114860Y0108300D01*
X0112740Y0106179D02*
X0111600Y0106179D01*
X0111600Y0104981D02*
X0112400Y0104981D01*
X0112400Y0103782D02*
X0111600Y0103782D01*
X0111600Y0102584D02*
X0112400Y0102584D01*
X0111600Y0101385D02*
X0113375Y0101385D01*
X0114573Y0100187D02*
X0111600Y0100187D01*
X0111600Y0098988D02*
X0190877Y0098988D01*
X0189679Y0097790D02*
X0168850Y0097790D01*
X0170048Y0096591D02*
X0188480Y0096591D01*
X0189100Y0094100D02*
X0166600Y0094100D01*
X0162400Y0094194D02*
X0120800Y0094194D01*
X0120800Y0092996D02*
X0162400Y0092996D01*
X0162963Y0091797D02*
X0120237Y0091797D01*
X0120800Y0092360D02*
X0118340Y0089900D01*
X0114860Y0089900D01*
X0112400Y0092360D01*
X0112400Y0095840D01*
X0114860Y0098300D01*
X0118340Y0098300D01*
X0120800Y0095840D01*
X0120800Y0092360D01*
X0119038Y0090599D02*
X0164162Y0090599D01*
X0169038Y0090599D02*
X0245650Y0090599D01*
X0245650Y0091797D02*
X0170237Y0091797D01*
X0168340Y0099900D02*
X0164860Y0099900D01*
X0162400Y0102360D01*
X0162400Y0105840D01*
X0164860Y0108300D01*
X0168340Y0108300D01*
X0170800Y0105840D01*
X0170800Y0102360D01*
X0168340Y0099900D01*
X0168627Y0100187D02*
X0192076Y0100187D01*
X0193274Y0101385D02*
X0169825Y0101385D01*
X0170800Y0102584D02*
X0194473Y0102584D01*
X0195671Y0103782D02*
X0170800Y0103782D01*
X0170800Y0104981D02*
X0184779Y0104981D01*
X0183581Y0106179D02*
X0170460Y0106179D01*
X0169262Y0107378D02*
X0182400Y0107378D01*
X0188421Y0104981D02*
X0196870Y0104981D01*
X0198068Y0106179D02*
X0189619Y0106179D01*
X0190800Y0107378D02*
X0199267Y0107378D01*
X0200200Y0108576D02*
X0190800Y0108576D01*
X0190800Y0109775D02*
X0200200Y0109775D01*
X0200200Y0110973D02*
X0190666Y0110973D01*
X0189468Y0112172D02*
X0200200Y0112172D01*
X0202400Y0107400D02*
X0189100Y0094100D01*
X0191107Y0092996D02*
X0245650Y0092996D01*
X0245650Y0094194D02*
X0192306Y0094194D01*
X0193504Y0095393D02*
X0245650Y0095393D01*
X0245650Y0096591D02*
X0194703Y0096591D01*
X0195901Y0097790D02*
X0245650Y0097790D01*
X0245650Y0098988D02*
X0197100Y0098988D01*
X0198298Y0100187D02*
X0209573Y0100187D01*
X0208375Y0101385D02*
X0199497Y0101385D01*
X0200695Y0102584D02*
X0207400Y0102584D01*
X0207400Y0103782D02*
X0201894Y0103782D01*
X0203092Y0104981D02*
X0207400Y0104981D01*
X0207740Y0106179D02*
X0204291Y0106179D01*
X0213627Y0100187D02*
X0245650Y0100187D01*
X0245650Y0101385D02*
X0214825Y0101385D01*
X0215800Y0102584D02*
X0245650Y0102584D01*
X0245650Y0103782D02*
X0215800Y0103782D01*
X0215800Y0104981D02*
X0234779Y0104981D01*
X0238421Y0104981D02*
X0245650Y0104981D01*
X0245650Y0106179D02*
X0239619Y0106179D01*
X0240800Y0107378D02*
X0245650Y0107378D01*
X0245650Y0108576D02*
X0240800Y0108576D01*
X0240800Y0109775D02*
X0245650Y0109775D01*
X0245650Y0110973D02*
X0240666Y0110973D01*
X0239468Y0112172D02*
X0245650Y0112172D01*
X0245650Y0113370D02*
X0215800Y0113370D01*
X0215800Y0114569D02*
X0245650Y0114569D01*
X0245650Y0115768D02*
X0215800Y0115768D01*
X0214674Y0116966D02*
X0245650Y0116966D01*
X0245650Y0118165D02*
X0213475Y0118165D01*
X0215612Y0112172D02*
X0233732Y0112172D01*
X0232534Y0110973D02*
X0214413Y0110973D01*
X0200200Y0125356D02*
X0168795Y0125356D01*
X0169994Y0126554D02*
X0200200Y0126554D01*
X0200200Y0127753D02*
X0170800Y0127753D01*
X0170800Y0128951D02*
X0200200Y0128951D01*
X0200200Y0130150D02*
X0170800Y0130150D01*
X0170292Y0131348D02*
X0200200Y0131348D01*
X0200200Y0132547D02*
X0169093Y0132547D01*
X0163938Y0107378D02*
X0119262Y0107378D01*
X0120460Y0106179D02*
X0162740Y0106179D01*
X0162400Y0104981D02*
X0120800Y0104981D01*
X0120800Y0103782D02*
X0162400Y0103782D01*
X0162400Y0102584D02*
X0120800Y0102584D01*
X0119825Y0101385D02*
X0163375Y0101385D01*
X0164573Y0100187D02*
X0118627Y0100187D01*
X0118850Y0097790D02*
X0164350Y0097790D01*
X0163152Y0096591D02*
X0120048Y0096591D01*
X0120800Y0095393D02*
X0162400Y0095393D01*
X0132588Y0112172D02*
X0111600Y0112172D01*
X0111600Y0113370D02*
X0132400Y0113370D01*
X0114405Y0125356D02*
X0111600Y0125356D01*
X0111600Y0126554D02*
X0113206Y0126554D01*
X0112400Y0127753D02*
X0111600Y0127753D01*
X0111600Y0128951D02*
X0112400Y0128951D01*
X0112400Y0130150D02*
X0111600Y0130150D01*
X0111600Y0131348D02*
X0112908Y0131348D01*
X0114107Y0132547D02*
X0111600Y0132547D01*
X0111600Y0133745D02*
X0200200Y0133745D01*
X0200200Y0185281D02*
X0198721Y0185281D01*
X0199919Y0186480D02*
X0200200Y0186480D01*
X0214302Y0200862D02*
X0219400Y0200862D01*
X0219400Y0202060D02*
X0215500Y0202060D01*
X0215800Y0203259D02*
X0219400Y0203259D01*
X0219400Y0204457D02*
X0215800Y0204457D01*
X0215800Y0205656D02*
X0219400Y0205656D01*
X0219400Y0206854D02*
X0214785Y0206854D01*
X0213587Y0208053D02*
X0219400Y0208053D01*
X0226600Y0200350D02*
X0226600Y0289100D01*
X0222120Y0297941D02*
X0252330Y0297941D01*
X0253528Y0299140D02*
X0220922Y0299140D01*
X0224400Y0306900D02*
X0236600Y0319100D01*
X0232400Y0319514D02*
X0230800Y0319514D01*
X0230800Y0318316D02*
X0232400Y0318316D01*
X0231506Y0317117D02*
X0230800Y0317117D01*
X0230800Y0320713D02*
X0232400Y0320713D01*
X0232400Y0321911D02*
X0230800Y0321911D01*
X0230562Y0323110D02*
X0232638Y0323110D01*
X0233269Y0324308D02*
X0229931Y0324308D01*
X0228384Y0325507D02*
X0234816Y0325507D01*
X0238384Y0325507D02*
X0244816Y0325507D01*
X0243269Y0324308D02*
X0239931Y0324308D01*
X0240562Y0323110D02*
X0242638Y0323110D01*
X0242400Y0321911D02*
X0240800Y0321911D01*
X0240800Y0320713D02*
X0242400Y0320713D01*
X0242400Y0319514D02*
X0240800Y0319514D01*
X0240800Y0318316D02*
X0242400Y0318316D01*
X0241506Y0317117D02*
X0240800Y0317117D01*
X0246600Y0319100D02*
X0231600Y0304100D01*
X0171600Y0304100D01*
X0165578Y0298078D01*
X0165578Y0294100D01*
X0169556Y0294100D02*
X0169556Y0297056D01*
X0174400Y0301900D01*
X0239400Y0301900D01*
X0256600Y0319100D01*
X0252400Y0319514D02*
X0250800Y0319514D01*
X0250800Y0318316D02*
X0252400Y0318316D01*
X0251506Y0317117D02*
X0250800Y0317117D01*
X0250800Y0320713D02*
X0252400Y0320713D01*
X0252400Y0321911D02*
X0250800Y0321911D01*
X0250562Y0323110D02*
X0252638Y0323110D01*
X0253269Y0324308D02*
X0249931Y0324308D01*
X0248384Y0325507D02*
X0254816Y0325507D01*
X0258384Y0325507D02*
X0271700Y0325507D01*
X0271700Y0326705D02*
X0162317Y0326705D01*
X0162550Y0327904D02*
X0271700Y0327904D01*
X0271700Y0329103D02*
X0162550Y0329103D01*
X0162550Y0330301D02*
X0271700Y0330301D01*
X0271700Y0331500D02*
X0162950Y0331500D01*
X0162950Y0332698D02*
X0271700Y0332698D01*
X0271700Y0333897D02*
X0162950Y0333897D01*
X0162950Y0335095D02*
X0271700Y0335095D01*
X0271700Y0336294D02*
X0177897Y0336294D01*
X0178350Y0336481D02*
X0179219Y0337350D01*
X0179689Y0338486D01*
X0179689Y0339714D01*
X0179219Y0340850D01*
X0179000Y0341068D01*
X0179000Y0362132D01*
X0179219Y0362350D01*
X0179689Y0363486D01*
X0179689Y0364714D01*
X0179219Y0365850D01*
X0178350Y0366719D01*
X0177214Y0367189D01*
X0175986Y0367189D01*
X0174850Y0366719D01*
X0173981Y0365850D01*
X0173511Y0364714D01*
X0173511Y0363486D01*
X0173981Y0362350D01*
X0174200Y0362132D01*
X0174200Y0341068D01*
X0173981Y0340850D01*
X0173511Y0339714D01*
X0173511Y0338486D01*
X0173981Y0337350D01*
X0174850Y0336481D01*
X0175986Y0336011D01*
X0177214Y0336011D01*
X0178350Y0336481D01*
X0179277Y0337492D02*
X0271700Y0337492D01*
X0271700Y0338691D02*
X0265842Y0338691D01*
X0262358Y0338691D02*
X0179689Y0338691D01*
X0179617Y0339889D02*
X0259043Y0339889D01*
X0257255Y0341088D02*
X0179000Y0341088D01*
X0179000Y0342286D02*
X0256057Y0342286D01*
X0255211Y0343485D02*
X0179000Y0343485D01*
X0179000Y0344683D02*
X0254519Y0344683D01*
X0254086Y0345882D02*
X0179000Y0345882D01*
X0179000Y0347080D02*
X0253765Y0347080D01*
X0253594Y0348279D02*
X0179000Y0348279D01*
X0179000Y0349477D02*
X0253594Y0349477D01*
X0253646Y0350676D02*
X0179000Y0350676D01*
X0179000Y0351874D02*
X0253967Y0351874D01*
X0254288Y0353073D02*
X0179000Y0353073D01*
X0179000Y0354271D02*
X0254955Y0354271D01*
X0255647Y0355470D02*
X0179000Y0355470D01*
X0179000Y0356668D02*
X0256811Y0356668D01*
X0258274Y0357867D02*
X0179000Y0357867D01*
X0179000Y0359065D02*
X0260701Y0359065D01*
X0267499Y0359065D02*
X0271700Y0359065D01*
X0271700Y0357867D02*
X0269926Y0357867D01*
X0271389Y0356668D02*
X0271700Y0356668D01*
X0271700Y0360264D02*
X0179000Y0360264D01*
X0179000Y0361462D02*
X0271700Y0361462D01*
X0271700Y0362661D02*
X0179347Y0362661D01*
X0179689Y0363859D02*
X0271700Y0363859D01*
X0271700Y0365058D02*
X0179547Y0365058D01*
X0178812Y0366256D02*
X0271700Y0366256D01*
X0271700Y0367455D02*
X0011500Y0367455D01*
X0011500Y0368653D02*
X0271700Y0368653D01*
X0271700Y0341088D02*
X0270945Y0341088D01*
X0271700Y0339889D02*
X0269157Y0339889D01*
X0271700Y0324308D02*
X0259931Y0324308D01*
X0260562Y0323110D02*
X0271700Y0323110D01*
X0271700Y0321911D02*
X0260800Y0321911D01*
X0260800Y0320713D02*
X0271700Y0320713D01*
X0271700Y0319514D02*
X0260800Y0319514D01*
X0260800Y0318316D02*
X0271700Y0318316D01*
X0271700Y0317117D02*
X0260800Y0317117D01*
X0260800Y0315919D02*
X0271700Y0315919D01*
X0271700Y0314720D02*
X0260409Y0314720D01*
X0259562Y0313522D02*
X0271700Y0313522D01*
X0271700Y0312323D02*
X0257492Y0312323D01*
X0255708Y0312323D02*
X0252935Y0312323D01*
X0251736Y0311125D02*
X0271700Y0311125D01*
X0271700Y0309926D02*
X0250538Y0309926D01*
X0249339Y0308728D02*
X0271700Y0308728D01*
X0271700Y0307529D02*
X0248141Y0307529D01*
X0246942Y0306331D02*
X0271700Y0306331D01*
X0271700Y0305132D02*
X0245744Y0305132D01*
X0244545Y0303934D02*
X0271700Y0303934D01*
X0271700Y0302735D02*
X0243347Y0302735D01*
X0242148Y0301537D02*
X0271700Y0301537D01*
X0271700Y0300338D02*
X0263473Y0300338D01*
X0264672Y0299140D02*
X0271700Y0299140D01*
X0271700Y0297941D02*
X0265870Y0297941D01*
X0267069Y0296743D02*
X0271700Y0296743D01*
X0271700Y0295544D02*
X0268267Y0295544D01*
X0269466Y0294346D02*
X0271700Y0294346D01*
X0271700Y0293147D02*
X0270664Y0293147D01*
X0268037Y0289552D02*
X0260800Y0289552D01*
X0260800Y0290750D02*
X0266839Y0290750D01*
X0265640Y0291949D02*
X0260800Y0291949D01*
X0260547Y0293147D02*
X0264442Y0293147D01*
X0263243Y0294346D02*
X0259894Y0294346D01*
X0258294Y0295544D02*
X0262045Y0295544D01*
X0260846Y0296743D02*
X0257354Y0296743D01*
X0256600Y0299100D02*
X0261600Y0299100D01*
X0271600Y0289100D01*
X0271600Y0259100D01*
X0268978Y0259589D02*
X0245800Y0259589D01*
X0245800Y0258390D02*
X0267779Y0258390D01*
X0266581Y0257192D02*
X0245632Y0257192D01*
X0244433Y0255993D02*
X0265382Y0255993D01*
X0264184Y0254795D02*
X0238800Y0254795D01*
X0238800Y0253596D02*
X0262985Y0253596D01*
X0261787Y0252398D02*
X0238800Y0252398D01*
X0241600Y0259100D02*
X0256600Y0274100D01*
X0256600Y0289100D01*
X0252400Y0289552D02*
X0250800Y0289552D01*
X0250800Y0288353D02*
X0252400Y0288353D01*
X0252400Y0287155D02*
X0250800Y0287155D01*
X0250800Y0285956D02*
X0252400Y0285956D01*
X0252776Y0284758D02*
X0250424Y0284758D01*
X0249599Y0283559D02*
X0253601Y0283559D01*
X0258800Y0282361D02*
X0269400Y0282361D01*
X0269400Y0283559D02*
X0259599Y0283559D01*
X0260424Y0284758D02*
X0269400Y0284758D01*
X0269400Y0285956D02*
X0260800Y0285956D01*
X0260800Y0287155D02*
X0269400Y0287155D01*
X0269236Y0288353D02*
X0260800Y0288353D01*
X0258800Y0281162D02*
X0269400Y0281162D01*
X0269400Y0279964D02*
X0258800Y0279964D01*
X0258800Y0278765D02*
X0269400Y0278765D01*
X0269400Y0277567D02*
X0258800Y0277567D01*
X0258800Y0276368D02*
X0269400Y0276368D01*
X0269400Y0275170D02*
X0258800Y0275170D01*
X0258800Y0273971D02*
X0269400Y0273971D01*
X0269400Y0272772D02*
X0258384Y0272772D01*
X0257185Y0271574D02*
X0269400Y0271574D01*
X0269400Y0270375D02*
X0255987Y0270375D01*
X0254788Y0269177D02*
X0269400Y0269177D01*
X0269400Y0267978D02*
X0253590Y0267978D01*
X0252391Y0266780D02*
X0269400Y0266780D01*
X0269400Y0265581D02*
X0251193Y0265581D01*
X0249994Y0264383D02*
X0269400Y0264383D01*
X0269400Y0263184D02*
X0248796Y0263184D01*
X0247597Y0261986D02*
X0269400Y0261986D01*
X0269400Y0260787D02*
X0246399Y0260787D01*
X0246600Y0289100D02*
X0256600Y0299100D01*
X0254727Y0300338D02*
X0240950Y0300338D01*
X0251361Y0290750D02*
X0252400Y0290750D01*
X0226600Y0319100D02*
X0216600Y0309100D01*
X0166600Y0309100D01*
X0156600Y0299100D01*
X0156600Y0294100D01*
X0154383Y0291949D02*
X0123800Y0291949D01*
X0123800Y0293147D02*
X0153651Y0293147D01*
X0153511Y0294346D02*
X0123800Y0294346D01*
X0126262Y0295544D02*
X0153855Y0295544D01*
X0158817Y0291949D02*
X0159383Y0291949D01*
X0161600Y0294100D02*
X0161600Y0299100D01*
X0169400Y0306900D01*
X0224400Y0306900D01*
X0215708Y0312323D02*
X0207492Y0312323D01*
X0207435Y0312300D02*
X0208979Y0312939D01*
X0210161Y0314121D01*
X0210800Y0315665D01*
X0210800Y0322535D01*
X0210161Y0324079D01*
X0208979Y0325261D01*
X0207435Y0325900D01*
X0205765Y0325900D01*
X0204221Y0325261D01*
X0203039Y0324079D01*
X0202400Y0322535D01*
X0202400Y0315665D01*
X0203039Y0314121D01*
X0204221Y0312939D01*
X0205765Y0312300D01*
X0207435Y0312300D01*
X0205708Y0312323D02*
X0197492Y0312323D01*
X0197435Y0312300D02*
X0198979Y0312939D01*
X0200161Y0314121D01*
X0200800Y0315665D01*
X0200800Y0322535D01*
X0200161Y0324079D01*
X0198979Y0325261D01*
X0197435Y0325900D01*
X0195765Y0325900D01*
X0194221Y0325261D01*
X0193039Y0324079D01*
X0192400Y0322535D01*
X0192400Y0315665D01*
X0193039Y0314121D01*
X0194221Y0312939D01*
X0195765Y0312300D01*
X0197435Y0312300D01*
X0195708Y0312323D02*
X0187492Y0312323D01*
X0187435Y0312300D02*
X0188979Y0312939D01*
X0190161Y0314121D01*
X0190800Y0315665D01*
X0190800Y0322535D01*
X0190161Y0324079D01*
X0188979Y0325261D01*
X0187435Y0325900D01*
X0185765Y0325900D01*
X0184221Y0325261D01*
X0183039Y0324079D01*
X0182400Y0322535D01*
X0182400Y0315665D01*
X0183039Y0314121D01*
X0184221Y0312939D01*
X0185765Y0312300D01*
X0187435Y0312300D01*
X0185708Y0312323D02*
X0177078Y0312323D01*
X0176931Y0312300D02*
X0177584Y0312403D01*
X0178212Y0312608D01*
X0178801Y0312908D01*
X0179336Y0313296D01*
X0179804Y0313764D01*
X0180192Y0314299D01*
X0180492Y0314888D01*
X0180697Y0315516D01*
X0180800Y0316169D01*
X0180800Y0318900D01*
X0176800Y0318900D01*
X0176800Y0319300D01*
X0176400Y0319300D01*
X0176400Y0325900D01*
X0176269Y0325900D01*
X0175616Y0325797D01*
X0174988Y0325592D01*
X0174399Y0325292D01*
X0173864Y0324904D01*
X0173396Y0324436D01*
X0173008Y0323901D01*
X0172708Y0323312D01*
X0172503Y0322684D01*
X0172400Y0322031D01*
X0172400Y0319300D01*
X0176400Y0319300D01*
X0176400Y0318900D01*
X0172400Y0318900D01*
X0172400Y0316169D01*
X0172503Y0315516D01*
X0172708Y0314888D01*
X0173008Y0314299D01*
X0173396Y0313764D01*
X0173864Y0313296D01*
X0174399Y0312908D01*
X0174988Y0312608D01*
X0175616Y0312403D01*
X0176269Y0312300D01*
X0176400Y0312300D01*
X0176400Y0318900D01*
X0176800Y0318900D01*
X0176800Y0312300D01*
X0176931Y0312300D01*
X0176800Y0312323D02*
X0176400Y0312323D01*
X0176122Y0312323D02*
X0155493Y0312323D01*
X0155493Y0311125D02*
X0165514Y0311125D01*
X0164315Y0309926D02*
X0155493Y0309926D01*
X0155493Y0308728D02*
X0163117Y0308728D01*
X0161918Y0307529D02*
X0154723Y0307529D01*
X0155224Y0305132D02*
X0159521Y0305132D01*
X0158323Y0303934D02*
X0155493Y0303934D01*
X0155493Y0302735D02*
X0157124Y0302735D01*
X0155926Y0301537D02*
X0150950Y0301537D01*
X0150950Y0302735D02*
X0149750Y0302735D01*
X0149750Y0303934D02*
X0150950Y0303934D01*
X0150950Y0305132D02*
X0149750Y0305132D01*
X0147919Y0309681D02*
X0150350Y0312112D01*
X0147919Y0309681D02*
X0140340Y0309681D01*
X0140340Y0320340D01*
X0140350Y0320350D01*
X0142684Y0318316D02*
X0172400Y0318316D01*
X0172400Y0319514D02*
X0143347Y0319514D01*
X0143439Y0320713D02*
X0172400Y0320713D01*
X0172400Y0321911D02*
X0143047Y0321911D01*
X0141759Y0323110D02*
X0145722Y0323110D01*
X0147850Y0325350D02*
X0157850Y0325350D01*
X0160350Y0327850D01*
X0160350Y0333850D01*
X0160100Y0334100D01*
X0156600Y0334100D02*
X0156600Y0329100D01*
X0153125Y0330301D02*
X0153075Y0330301D01*
X0153075Y0331500D02*
X0153125Y0331500D01*
X0153125Y0332698D02*
X0153075Y0332698D01*
X0161118Y0325507D02*
X0174820Y0325507D01*
X0176400Y0325507D02*
X0176800Y0325507D01*
X0176800Y0325900D02*
X0176800Y0319300D01*
X0180800Y0319300D01*
X0180800Y0322031D01*
X0180697Y0322684D01*
X0180492Y0323312D01*
X0180192Y0323901D01*
X0179804Y0324436D01*
X0179336Y0324904D01*
X0178801Y0325292D01*
X0178212Y0325592D01*
X0177584Y0325797D01*
X0176931Y0325900D01*
X0176800Y0325900D01*
X0176800Y0324308D02*
X0176400Y0324308D01*
X0176400Y0323110D02*
X0176800Y0323110D01*
X0176800Y0321911D02*
X0176400Y0321911D01*
X0176400Y0320713D02*
X0176800Y0320713D01*
X0176800Y0319514D02*
X0176400Y0319514D01*
X0176400Y0318316D02*
X0176800Y0318316D01*
X0176800Y0317117D02*
X0176400Y0317117D01*
X0176400Y0315919D02*
X0176800Y0315919D01*
X0176800Y0314720D02*
X0176400Y0314720D01*
X0176400Y0313522D02*
X0176800Y0313522D01*
X0179562Y0313522D02*
X0183638Y0313522D01*
X0182791Y0314720D02*
X0180407Y0314720D01*
X0180760Y0315919D02*
X0182400Y0315919D01*
X0182400Y0317117D02*
X0180800Y0317117D01*
X0180800Y0318316D02*
X0182400Y0318316D01*
X0182400Y0319514D02*
X0180800Y0319514D01*
X0180800Y0320713D02*
X0182400Y0320713D01*
X0182400Y0321911D02*
X0180800Y0321911D01*
X0180558Y0323110D02*
X0182638Y0323110D01*
X0183269Y0324308D02*
X0179896Y0324308D01*
X0178380Y0325507D02*
X0184816Y0325507D01*
X0188384Y0325507D02*
X0194816Y0325507D01*
X0193269Y0324308D02*
X0189931Y0324308D01*
X0190562Y0323110D02*
X0192638Y0323110D01*
X0192400Y0321911D02*
X0190800Y0321911D01*
X0190800Y0320713D02*
X0192400Y0320713D01*
X0192400Y0319514D02*
X0190800Y0319514D01*
X0190800Y0318316D02*
X0192400Y0318316D01*
X0192400Y0317117D02*
X0190800Y0317117D01*
X0190800Y0315919D02*
X0192400Y0315919D01*
X0192791Y0314720D02*
X0190409Y0314720D01*
X0189562Y0313522D02*
X0193638Y0313522D01*
X0199562Y0313522D02*
X0203638Y0313522D01*
X0202791Y0314720D02*
X0200409Y0314720D01*
X0200800Y0315919D02*
X0202400Y0315919D01*
X0202400Y0317117D02*
X0200800Y0317117D01*
X0200800Y0318316D02*
X0202400Y0318316D01*
X0202400Y0319514D02*
X0200800Y0319514D01*
X0200800Y0320713D02*
X0202400Y0320713D01*
X0202400Y0321911D02*
X0200800Y0321911D01*
X0200562Y0323110D02*
X0202638Y0323110D01*
X0203269Y0324308D02*
X0199931Y0324308D01*
X0198384Y0325507D02*
X0204816Y0325507D01*
X0208384Y0325507D02*
X0214816Y0325507D01*
X0213269Y0324308D02*
X0209931Y0324308D01*
X0210562Y0323110D02*
X0212638Y0323110D01*
X0212400Y0321911D02*
X0210800Y0321911D01*
X0210800Y0320713D02*
X0212400Y0320713D01*
X0212400Y0319514D02*
X0210800Y0319514D01*
X0210800Y0318316D02*
X0212400Y0318316D01*
X0212400Y0317117D02*
X0210800Y0317117D01*
X0210800Y0315919D02*
X0212400Y0315919D01*
X0212791Y0314720D02*
X0210409Y0314720D01*
X0209562Y0313522D02*
X0213638Y0313522D01*
X0220800Y0317117D02*
X0221506Y0317117D01*
X0220800Y0318316D02*
X0222400Y0318316D01*
X0222400Y0319514D02*
X0220800Y0319514D01*
X0220800Y0320713D02*
X0222400Y0320713D01*
X0222400Y0321911D02*
X0220800Y0321911D01*
X0220562Y0323110D02*
X0222638Y0323110D01*
X0223269Y0324308D02*
X0219931Y0324308D01*
X0218384Y0325507D02*
X0224816Y0325507D01*
X0188528Y0299140D02*
X0174751Y0299140D01*
X0173552Y0297941D02*
X0187330Y0297941D01*
X0182400Y0288353D02*
X0180800Y0288353D01*
X0180800Y0287155D02*
X0182400Y0287155D01*
X0182400Y0285956D02*
X0180800Y0285956D01*
X0180424Y0284758D02*
X0182776Y0284758D01*
X0183601Y0283559D02*
X0179599Y0283559D01*
X0193455Y0263184D02*
X0197573Y0263184D01*
X0196375Y0261986D02*
X0194654Y0261986D01*
X0195632Y0257192D02*
X0195650Y0257192D01*
X0195650Y0239214D02*
X0160050Y0239214D01*
X0169991Y0211648D02*
X0195650Y0211648D01*
X0195650Y0210450D02*
X0170800Y0210450D01*
X0163827Y0197266D02*
X0160050Y0197266D01*
X0160050Y0196068D02*
X0162628Y0196068D01*
X0162400Y0194869D02*
X0160050Y0194869D01*
X0160050Y0193671D02*
X0162400Y0193671D01*
X0162400Y0192472D02*
X0160050Y0192472D01*
X0160050Y0191274D02*
X0163487Y0191274D01*
X0164685Y0190075D02*
X0160050Y0190075D01*
X0155650Y0188877D02*
X0113800Y0188877D01*
X0113800Y0190075D02*
X0114685Y0190075D01*
X0114239Y0187678D02*
X0113800Y0187678D01*
X0113800Y0197266D02*
X0113827Y0197266D01*
X0113800Y0205656D02*
X0114104Y0205656D01*
X0107200Y0209251D02*
X0073800Y0209251D01*
X0073800Y0208053D02*
X0074613Y0208053D01*
X0073800Y0210450D02*
X0107200Y0210450D01*
X0107200Y0211648D02*
X0073800Y0211648D01*
X0073800Y0212847D02*
X0107200Y0212847D01*
X0107200Y0214045D02*
X0073800Y0214045D01*
X0073800Y0215244D02*
X0107200Y0215244D01*
X0107200Y0216442D02*
X0073800Y0216442D01*
X0073800Y0217641D02*
X0107200Y0217641D01*
X0107200Y0218839D02*
X0073800Y0218839D01*
X0073800Y0220038D02*
X0107200Y0220038D01*
X0107200Y0221237D02*
X0073800Y0221237D01*
X0073800Y0222435D02*
X0107200Y0222435D01*
X0107200Y0223634D02*
X0073800Y0223634D01*
X0073800Y0224832D02*
X0107200Y0224832D01*
X0107200Y0226031D02*
X0073800Y0226031D01*
X0073800Y0227229D02*
X0107200Y0227229D01*
X0107200Y0228428D02*
X0073800Y0228428D01*
X0073800Y0229626D02*
X0107200Y0229626D01*
X0107200Y0230825D02*
X0099264Y0230825D01*
X0098340Y0229900D02*
X0100800Y0232360D01*
X0100800Y0235840D01*
X0098340Y0238300D01*
X0094860Y0238300D01*
X0092400Y0235840D01*
X0092400Y0232360D01*
X0094860Y0229900D01*
X0098340Y0229900D01*
X0100463Y0232023D02*
X0107200Y0232023D01*
X0107200Y0233222D02*
X0100800Y0233222D01*
X0100800Y0234420D02*
X0107200Y0234420D01*
X0107200Y0235619D02*
X0100800Y0235619D01*
X0099823Y0236817D02*
X0107200Y0236817D01*
X0107200Y0238016D02*
X0098624Y0238016D01*
X0094576Y0238016D02*
X0078624Y0238016D01*
X0079823Y0236817D02*
X0093377Y0236817D01*
X0092400Y0235619D02*
X0080800Y0235619D01*
X0080800Y0234420D02*
X0092400Y0234420D01*
X0092400Y0233222D02*
X0080800Y0233222D01*
X0080463Y0232023D02*
X0092737Y0232023D01*
X0093936Y0230825D02*
X0079264Y0230825D01*
X0073936Y0230825D02*
X0073800Y0230825D01*
X0073800Y0238016D02*
X0074576Y0238016D01*
X0073800Y0239214D02*
X0107200Y0239214D01*
X0107200Y0240413D02*
X0073800Y0240413D01*
X0073800Y0241611D02*
X0107200Y0241611D01*
X0107200Y0242810D02*
X0073800Y0242810D01*
X0073800Y0244008D02*
X0107200Y0244008D01*
X0107200Y0245207D02*
X0073800Y0245207D01*
X0073800Y0246405D02*
X0107200Y0246405D01*
X0107200Y0247604D02*
X0073800Y0247604D01*
X0073800Y0248802D02*
X0107200Y0248802D01*
X0107200Y0250001D02*
X0073800Y0250001D01*
X0073800Y0251199D02*
X0107200Y0251199D01*
X0107200Y0252398D02*
X0073800Y0252398D01*
X0073800Y0253596D02*
X0107200Y0253596D01*
X0085040Y0279964D02*
X0073800Y0279964D01*
X0073800Y0281162D02*
X0083841Y0281162D01*
X0082643Y0282361D02*
X0073800Y0282361D01*
X0073800Y0283559D02*
X0081444Y0283559D01*
X0080246Y0284758D02*
X0073800Y0284758D01*
X0073800Y0285956D02*
X0079047Y0285956D01*
X0078150Y0287155D02*
X0073800Y0287155D01*
X0073800Y0288353D02*
X0078150Y0288353D01*
X0078150Y0289552D02*
X0073800Y0289552D01*
X0073061Y0290750D02*
X0078150Y0290750D01*
X0078150Y0291949D02*
X0071863Y0291949D01*
X0070664Y0293147D02*
X0078150Y0293147D01*
X0078150Y0294346D02*
X0069466Y0294346D01*
X0068267Y0295544D02*
X0078150Y0295544D01*
X0078150Y0296743D02*
X0065755Y0296743D01*
X0066150Y0297941D02*
X0078150Y0297941D01*
X0078150Y0299140D02*
X0066150Y0299140D01*
X0066150Y0300338D02*
X0078150Y0300338D01*
X0078150Y0301537D02*
X0072155Y0301537D01*
X0073128Y0302735D02*
X0078150Y0302735D01*
X0078150Y0303934D02*
X0073439Y0303934D01*
X0073266Y0305132D02*
X0078150Y0305132D01*
X0078150Y0306331D02*
X0072488Y0306331D01*
X0070350Y0304100D02*
X0058550Y0304100D01*
X0065676Y0301537D02*
X0068545Y0301537D01*
X0068212Y0306331D02*
X0065882Y0306331D01*
X0066150Y0307529D02*
X0078150Y0307529D01*
X0078150Y0308728D02*
X0066150Y0308728D01*
X0066150Y0309926D02*
X0078150Y0309926D01*
X0077714Y0311125D02*
X0066087Y0311125D01*
X0066150Y0290750D02*
X0066839Y0290750D01*
X0066150Y0289552D02*
X0068037Y0289552D01*
X0069236Y0288353D02*
X0066150Y0288353D01*
X0066150Y0287155D02*
X0069400Y0287155D01*
X0069400Y0285956D02*
X0055242Y0285956D01*
X0056441Y0284758D02*
X0069400Y0284758D01*
X0069400Y0283559D02*
X0057639Y0283559D01*
X0058838Y0282361D02*
X0069400Y0282361D01*
X0069400Y0281162D02*
X0060036Y0281162D01*
X0060050Y0279964D02*
X0069400Y0279964D01*
X0069400Y0278765D02*
X0060050Y0278765D01*
X0060050Y0277567D02*
X0069400Y0277567D01*
X0069400Y0276368D02*
X0060050Y0276368D01*
X0060050Y0275170D02*
X0069400Y0275170D01*
X0069400Y0273971D02*
X0060050Y0273971D01*
X0060050Y0272772D02*
X0069400Y0272772D01*
X0069400Y0271574D02*
X0060050Y0271574D01*
X0060050Y0270375D02*
X0069400Y0270375D01*
X0069400Y0269177D02*
X0060050Y0269177D01*
X0060050Y0267978D02*
X0069400Y0267978D01*
X0069400Y0266780D02*
X0060050Y0266780D01*
X0060050Y0265581D02*
X0069400Y0265581D01*
X0069400Y0264383D02*
X0060050Y0264383D01*
X0060050Y0263184D02*
X0064745Y0263184D01*
X0063546Y0261986D02*
X0060050Y0261986D01*
X0060050Y0260787D02*
X0062400Y0260787D01*
X0062400Y0259589D02*
X0060050Y0259589D01*
X0060050Y0258390D02*
X0062400Y0258390D01*
X0062568Y0257192D02*
X0060050Y0257192D01*
X0060050Y0255993D02*
X0063767Y0255993D01*
X0068455Y0263184D02*
X0069400Y0263184D01*
X0101813Y0331500D02*
X0105250Y0331500D01*
X0126743Y0296743D02*
X0133889Y0296743D01*
X0143909Y0306331D02*
X0160720Y0306331D01*
X0155493Y0313522D02*
X0173638Y0313522D01*
X0172793Y0314720D02*
X0155493Y0314720D01*
X0155493Y0315919D02*
X0172440Y0315919D01*
X0172400Y0317117D02*
X0142540Y0317117D01*
X0142540Y0315919D02*
X0145207Y0315919D01*
X0145207Y0314720D02*
X0142540Y0314720D01*
X0143486Y0313522D02*
X0145207Y0313522D01*
X0145207Y0312323D02*
X0143909Y0312323D01*
X0149978Y0323110D02*
X0172642Y0323110D01*
X0173304Y0324308D02*
X0159920Y0324308D01*
X0162950Y0336294D02*
X0175303Y0336294D01*
X0173923Y0337492D02*
X0162721Y0337492D01*
X0173511Y0338691D02*
X0020842Y0338691D01*
X0017358Y0338691D02*
X0011500Y0338691D01*
X0011500Y0339889D02*
X0014043Y0339889D01*
X0012255Y0341088D02*
X0011500Y0341088D01*
X0024157Y0339889D02*
X0173583Y0339889D01*
X0174200Y0341088D02*
X0025945Y0341088D01*
X0027143Y0342286D02*
X0174200Y0342286D01*
X0174200Y0343485D02*
X0027989Y0343485D01*
X0028681Y0344683D02*
X0174200Y0344683D01*
X0174200Y0345882D02*
X0029114Y0345882D01*
X0029435Y0347080D02*
X0174200Y0347080D01*
X0174200Y0348279D02*
X0029605Y0348279D01*
X0029605Y0349477D02*
X0174200Y0349477D01*
X0174200Y0350676D02*
X0029554Y0350676D01*
X0029233Y0351874D02*
X0174200Y0351874D01*
X0174200Y0353073D02*
X0028912Y0353073D01*
X0028245Y0354271D02*
X0174200Y0354271D01*
X0174200Y0355470D02*
X0027553Y0355470D01*
X0026389Y0356668D02*
X0174200Y0356668D01*
X0174200Y0357867D02*
X0024926Y0357867D01*
X0022499Y0359065D02*
X0174200Y0359065D01*
X0174200Y0360264D02*
X0011500Y0360264D01*
X0011500Y0361462D02*
X0174200Y0361462D01*
X0173853Y0362661D02*
X0011500Y0362661D01*
X0011500Y0363859D02*
X0173511Y0363859D01*
X0173653Y0365058D02*
X0011500Y0365058D01*
X0011500Y0366256D02*
X0174388Y0366256D01*
X0193624Y0238016D02*
X0195650Y0238016D01*
X0195650Y0236817D02*
X0194823Y0236817D01*
X0213624Y0238016D02*
X0219400Y0238016D01*
X0219400Y0236817D02*
X0214823Y0236817D01*
X0215800Y0235619D02*
X0219400Y0235619D01*
X0219400Y0234420D02*
X0215800Y0234420D01*
X0215800Y0233222D02*
X0219400Y0233222D01*
X0219400Y0232023D02*
X0215463Y0232023D01*
X0214264Y0230825D02*
X0219400Y0230825D01*
X0114350Y0097790D02*
X0111600Y0097790D01*
X0111600Y0096591D02*
X0113152Y0096591D01*
X0112400Y0095393D02*
X0111600Y0095393D01*
X0111600Y0094194D02*
X0112400Y0094194D01*
X0112400Y0092996D02*
X0111600Y0092996D01*
X0111600Y0091797D02*
X0112963Y0091797D01*
X0114162Y0090599D02*
X0111600Y0090599D01*
X0229599Y0057040D02*
X0271700Y0057040D01*
X0271700Y0055842D02*
X0230798Y0055842D01*
X0230800Y0054643D02*
X0271700Y0054643D01*
X0271700Y0053445D02*
X0230800Y0053445D01*
X0230686Y0052246D02*
X0271700Y0052246D01*
X0271700Y0051048D02*
X0229488Y0051048D01*
X0243458Y0075018D02*
X0271700Y0075018D01*
X0271700Y0042658D02*
X0270288Y0042658D01*
X0271597Y0041460D02*
X0271700Y0041460D01*
X0271700Y0025879D02*
X0270736Y0025879D01*
X0271700Y0024681D02*
X0268796Y0024681D01*
X0015701Y0359065D02*
X0011500Y0359065D01*
X0011500Y0357867D02*
X0013274Y0357867D01*
X0011811Y0356668D02*
X0011500Y0356668D01*
D17*
X0070350Y0304100D03*
X0103818Y0305068D03*
X0105054Y0310054D03*
X0103811Y0318872D03*
X0105122Y0322850D03*
X0109100Y0324100D03*
X0111600Y0329100D03*
X0126600Y0329100D03*
X0131600Y0317850D03*
X0140350Y0320350D03*
X0141600Y0329100D03*
X0147850Y0325350D03*
X0156600Y0329100D03*
X0157850Y0311600D03*
X0156600Y0294100D03*
X0161600Y0294100D03*
X0165578Y0294100D03*
X0169556Y0294100D03*
X0176600Y0339100D03*
X0176600Y0364100D03*
X0121600Y0282850D03*
X0107596Y0288846D03*
X0105350Y0292354D03*
X0106332Y0296332D03*
X0104100Y0300350D03*
X0057850Y0197850D03*
X0171600Y0169100D03*
D18*
X0135350Y0024100D03*
D19*
X0176600Y0339100D02*
X0176600Y0364100D01*
M02*
