%
M48
M72
T01C0.01378
T02C0.03200
T03C0.04500
T04C0.11811
%
T01
X57850Y197850
X121600Y282850
X107596Y288846
X105350Y292354
X106332Y296332
X104100Y300350
X103818Y305068
X105054Y310054
X103811Y318872
X105122Y322850
X109100Y324100
X111600Y329100
X126600Y329100
X131600Y317850
X140350Y320350
X141600Y329100
X147850Y325350
X156600Y329100
X157850Y311600
X156600Y294100
X161600Y294100
X165578Y294100
X169556Y294100
X176600Y339100
X176600Y364100
X70350Y304100
X171600Y169100
T02
X181600Y169100
X191600Y169100
X206600Y169100
X216600Y169100
X231600Y169100
X241600Y169100
X256600Y154100
X256600Y144100
X256600Y129100
X256600Y119100
X256600Y104100
X256600Y94100
X241600Y79100
X231600Y79100
X216600Y79100
X206600Y79100
X191600Y79100
X181600Y79100
X166600Y94100
X166600Y104100
X166600Y119100
X166600Y129100
X166600Y144100
X166600Y154100
X146600Y144100
X136600Y144100
X116600Y144100
X116600Y154100
X101600Y169100
X91600Y169100
X76600Y169100
X66600Y169100
X51600Y169100
X41600Y169100
X26600Y154100
X26600Y144100
X26600Y129100
X26600Y119100
X26600Y104100
X26600Y94100
X41600Y79100
X51600Y79100
X66600Y79100
X76600Y79100
X91600Y79100
X101600Y79100
X116600Y94100
X116600Y104100
X116600Y119100
X116600Y129100
X96600Y139100
X96600Y109100
X71600Y104100
X71600Y114100
X71600Y134100
X71600Y144100
X46600Y139100
X46600Y109100
X56600Y54100
X86600Y54100
X136600Y114100
X146600Y114100
X186600Y109100
X186600Y139100
X211600Y134100
X211600Y144100
X211600Y114100
X211600Y104100
X236600Y109100
X236600Y139100
X256600Y184100
X256600Y194100
X256600Y209100
X256600Y219100
X256600Y234100
X256600Y244100
X241600Y259100
X231600Y259100
X216600Y259100
X206600Y259100
X191600Y259100
X181600Y259100
X166600Y244100
X166600Y234100
X166600Y219100
X166600Y209100
X166600Y194100
X166600Y184100
X191600Y204100
X196600Y189100
X211600Y204100
X226600Y189100
X231600Y204100
X231600Y234100
X211600Y234100
X191600Y234100
X186600Y289100
X176600Y289100
X196600Y289100
X206600Y289100
X216600Y289100
X226600Y289100
X236600Y289100
X246600Y289100
X256600Y289100
X256600Y319100
X246600Y319100
X236600Y319100
X226600Y319100
X216600Y319100
X206600Y319100
X196600Y319100
X186600Y319100
X176600Y319100
X116600Y244100
X116600Y234100
X116600Y219100
X116600Y209100
X116600Y194100
X116600Y184100
X96600Y204100
X86600Y189100
X76600Y204100
X56600Y189100
X51600Y204100
X51600Y234100
X51600Y259100
X41600Y259100
X26600Y244100
X26600Y234100
X26600Y219100
X26600Y209100
X26600Y194100
X26600Y184100
X76600Y234100
X96600Y234100
X91600Y259100
X101600Y259100
X76600Y259100
X66600Y259100
X196600Y54100
X226600Y54100
T03
X135350Y24100
T04
X19100Y34100
X19100Y349100
X264100Y349100
X264100Y34100
M30
