  0
SECTION
  2
HEADER
  9
$ACADVER
  1
AC1009
  9
$INSBASE
 10
0.0
 20
0.0
 30
0.0
  9
$EXTMIN
 10
0.0
 20
0.0
 30
0.0
  9
$EXTMAX
 10
0.0
 20
0.0
 30
0.0
  0
ENDSEC
  0
SECTION
  2
TABLES
  0
TABLE
  2
VPORT
 70
0
  0
ENDTAB
  0
TABLE
  2
LTYPE
 70
1
  0
LTYPE
  2
CONTINUOUS
 70
0
  3
Solid line
 72
65
 73
0
 40
0.0
  0
ENDTAB
  0
TABLE
  2
LAYER
 70
1
  0
LAYER
  2
0
 70
64
 62
7
  6
continuous
  0
ENDTAB
  0
TABLE
  2
STYLE
 70
1
  0
STYLE
  2
STANDARD
 70
0
 40
0
 41
1.0
 50
0.0
 71
0
 42
1
 3
ARIAL.TTF
 4

  0
ENDTAB
  0
TABLE
  2
VIEW
 70
0
  0
ENDTAB
  0
ENDSEC
  0
SECTION
  2
BLOCKS
  0
ENDSEC
  0
SECTION
  2
ENTITIES
  0
POLYLINE
  8
0
 62
7
 70
1
 66
1
 10
0.0
 20
0.0
 30
0.0
  0
VERTEX
  8
0
 10
17.5
 20
315.0
 30
0.0
  0
VERTEX
  8
0
 10
432.5
 20
315.0
 30
0.0
 42
-0.414213562373
  0
VERTEX
  8
0
 10
450.0
 20
297.5
 30
0.0
  0
VERTEX
  8
0
 10
450.0
 20
80.0
 30
0.0
  0
VERTEX
  8
0
 10
430.0
 20
80.0
 30
0.0
  0
VERTEX
  8
0
 10
430.0
 20
0.0
 30
0.0
  0
VERTEX
  8
0
 10
20.0
 20
0.0
 30
0.0
  0
VERTEX
  8
0
 10
20.0
 20
80.0
 30
0.0
  0
VERTEX
  8
0
 10
2.19984030991e-11
 20
80.0
 30
0.0
  0
VERTEX
  8
0
 10
2.19984030991e-11
 20
297.5
 30
0.0
 42
-0.414213562373
  0
SEQEND
  8
0
  0
CIRCLE
  8
cardReaderHoles
 62
0
 10
133.55
 20
221.55
 30
0.0
 40
1.55
  0
CIRCLE
  8
cardReaderHoles
 62
0
 10
133.55
 20
305.45
 30
0.0
 40
1.55
  0
CIRCLE
  8
cardReaderHoles
 62
0
 10
200.95
 20
221.55
 30
0.0
 40
1.55
  0
CIRCLE
  8
cardReaderHoles
 62
0
 10
200.95
 20
305.45
 30
0.0
 40
1.55
  0
CIRCLE
  8
0
 62
0
 10
382.0
 20
50.0
 30
0.0
 40
32.6
  0
CIRCLE
  8
0
 62
0
 10
68.0
 20
50.0
 30
0.0
 40
32.6
  0
CIRCLE
  8
0
 62
0
 10
65.0
 20
160.0
 30
0.0
 40
51.6
  0
CIRCLE
  8
0
 62
0
 10
385.0
 20
160.0
 30
0.0
 40
51.6
  0
POLYLINE
  8
0
 62
0
 70
1
 66
1
 10
0.0
 20
0.0
 30
0.0
  0
VERTEX
  8
0
 10
110.723
 20
262.96
 30
0.0
  0
VERTEX
  8
0
 10
117.40256543
 20
262.96
 30
0.0
  0
VERTEX
  8
0
 10
117.40256543
 20
227.506890259
 30
0.0
  0
VERTEX
  8
0
 10
110.723
 20
227.506890259
 30
0.0
  0
SEQEND
  8
0
  0
POLYLINE
  8
0
 62
0
 70
1
 66
1
 10
0.0
 20
0.0
 30
0.0
  0
VERTEX
  8
0
 10
216.723
 20
272.96
 30
0.0
  0
VERTEX
  8
0
 10
223.40256543
 20
272.96
 30
0.0
  0
VERTEX
  8
0
 10
223.40256543
 20
237.506890259
 30
0.0
  0
VERTEX
  8
0
 10
216.723
 20
237.506890259
 30
0.0
  0
SEQEND
  8
0
  0
CIRCLE
  8
0
 62
0
 10
113.612
 20
284.512
 30
0.0
 40
3.0
  0
CIRCLE
  8
0
 62
0
 10
355.612
 20
233.512
 30
0.0
 40
6.0
  0
CIRCLE
  8
ampliHoles
 62
0
 10
330.95
 20
284.45
 30
0.0
 40
1.55
  0
CIRCLE
  8
ampliHoles
 62
0
 10
330.95
 20
221.55
 30
0.0
 40
1.55
  0
CIRCLE
  8
ampliHoles
 62
0
 10
238.05
 20
284.45
 30
0.0
 40
1.55
  0
CIRCLE
  8
ampliHoles
 62
0
 10
238.05
 20
221.55
 30
0.0
 40
1.55
  0
CIRCLE
  8
0
 62
0
 10
225.0
 20
105.0
 30
0.0
 40
92.4
  0
ENDSEC
  0
EOF
