%
M48
M72
T01C0.03000
%
T01
X23250Y49600
X38850Y49600
X54450Y49600
X70050Y49600
X85650Y49600
X85650Y65200
X70050Y65200
X54450Y65200
X38850Y65200
X23250Y65200
X23250Y80800
X38850Y80800
X54450Y80800
X70050Y80800
X85650Y80800
X85650Y96400
X70050Y96400
X54450Y96400
X38850Y96400
X23250Y96400
X23250Y112000
X38850Y112000
X54450Y112000
X70050Y112000
X85650Y112000
X116850Y112000
X132450Y112000
X148050Y112000
X163650Y112000
X179250Y112000
X179250Y96400
X163650Y96400
X148050Y96400
X132450Y96400
X116850Y96400
X116850Y80800
X132450Y80800
X148050Y80800
X163650Y80800
X179250Y80800
X179250Y65200
X163650Y65200
X148050Y65200
X132450Y65200
X116850Y65200
X116850Y49600
X132450Y49600
X148050Y49600
X163650Y49600
X179250Y49600
M30
