G75*
%MOIN*%
%OFA0B0*%
%FSLAX25Y25*%
%IPPOS*%
%LPD*%
%AMOC8*
5,1,8,0,0,1.08239X$1,22.5*
%
%ADD10R,0.08000X0.34000*%
%ADD11R,0.06300X0.04600*%
%ADD12C,0.04600*%
%ADD13C,0.03200*%
D10*
X0031050Y0018400D03*
X0046650Y0018400D03*
X0062250Y0018400D03*
X0077850Y0018400D03*
X0093450Y0018400D03*
X0109050Y0018400D03*
X0124650Y0018400D03*
X0140250Y0018400D03*
X0155850Y0018400D03*
X0171450Y0018400D03*
D11*
X0163650Y0042700D03*
X0163650Y0048700D03*
X0163650Y0058300D03*
X0163650Y0064300D03*
X0148050Y0064300D03*
X0148050Y0058300D03*
X0148050Y0048700D03*
X0148050Y0042700D03*
X0132450Y0042700D03*
X0132450Y0048700D03*
X0132450Y0058300D03*
X0132450Y0064300D03*
X0132450Y0073900D03*
X0132450Y0079900D03*
X0132450Y0089500D03*
X0132450Y0095500D03*
X0132450Y0105100D03*
X0132450Y0111100D03*
X0116850Y0111100D03*
X0116850Y0105100D03*
X0116850Y0095500D03*
X0116850Y0089500D03*
X0116850Y0079900D03*
X0116850Y0073900D03*
X0116850Y0064300D03*
X0116850Y0058300D03*
X0116850Y0048700D03*
X0116850Y0042700D03*
X0085650Y0042700D03*
X0085650Y0048700D03*
X0085650Y0058300D03*
X0085650Y0064300D03*
X0085650Y0073900D03*
X0085650Y0079900D03*
X0085650Y0089500D03*
X0085650Y0095500D03*
X0085650Y0105100D03*
X0085650Y0111100D03*
X0070050Y0111100D03*
X0070050Y0105100D03*
X0070050Y0095500D03*
X0070050Y0089500D03*
X0070050Y0079900D03*
X0070050Y0073900D03*
X0070050Y0064300D03*
X0070050Y0058300D03*
X0070050Y0048700D03*
X0070050Y0042700D03*
X0054450Y0042700D03*
X0054450Y0048700D03*
X0054450Y0058300D03*
X0054450Y0064300D03*
X0038850Y0064300D03*
X0038850Y0058300D03*
X0038850Y0048700D03*
X0038850Y0042700D03*
X0023250Y0042700D03*
X0023250Y0048700D03*
X0023250Y0058300D03*
X0023250Y0064300D03*
X0023250Y0073900D03*
X0023250Y0079900D03*
X0023250Y0089500D03*
X0023250Y0095500D03*
X0023250Y0105100D03*
X0023250Y0111100D03*
X0038850Y0111100D03*
X0038850Y0105100D03*
X0038850Y0095500D03*
X0038850Y0089500D03*
X0038850Y0079900D03*
X0038850Y0073900D03*
X0054450Y0073900D03*
X0054450Y0079900D03*
X0054450Y0089500D03*
X0054450Y0095500D03*
X0054450Y0105100D03*
X0054450Y0111100D03*
X0148050Y0111100D03*
X0148050Y0105100D03*
X0148050Y0095500D03*
X0148050Y0089500D03*
X0148050Y0079900D03*
X0148050Y0073900D03*
X0163650Y0073900D03*
X0163650Y0079900D03*
X0163650Y0089500D03*
X0163650Y0095500D03*
X0163650Y0105100D03*
X0163650Y0111100D03*
X0179250Y0111100D03*
X0179250Y0105100D03*
X0179250Y0095500D03*
X0179250Y0089500D03*
X0179250Y0079900D03*
X0179250Y0073900D03*
X0179250Y0064300D03*
X0179250Y0058300D03*
X0179250Y0048700D03*
X0179250Y0042700D03*
D12*
X0179250Y0049600D03*
X0163650Y0049600D03*
X0148050Y0049600D03*
X0132450Y0049600D03*
X0116850Y0049600D03*
X0116850Y0065200D03*
X0132450Y0065200D03*
X0148050Y0065200D03*
X0163650Y0065200D03*
X0179250Y0065200D03*
X0179250Y0080800D03*
X0163650Y0080800D03*
X0148050Y0080800D03*
X0132450Y0080800D03*
X0116850Y0080800D03*
X0116850Y0096400D03*
X0132450Y0096400D03*
X0148050Y0096400D03*
X0163650Y0096400D03*
X0179250Y0096400D03*
X0179250Y0112000D03*
X0163650Y0112000D03*
X0148050Y0112000D03*
X0132450Y0112000D03*
X0116850Y0112000D03*
X0085650Y0112000D03*
X0070050Y0112000D03*
X0054450Y0112000D03*
X0038850Y0112000D03*
X0023250Y0112000D03*
X0023250Y0096400D03*
X0038850Y0096400D03*
X0054450Y0096400D03*
X0070050Y0096400D03*
X0085650Y0096400D03*
X0085650Y0080800D03*
X0070050Y0080800D03*
X0054450Y0080800D03*
X0038850Y0080800D03*
X0023250Y0080800D03*
X0023250Y0065200D03*
X0038850Y0065200D03*
X0054450Y0065200D03*
X0070050Y0065200D03*
X0085650Y0065200D03*
X0085650Y0049600D03*
X0070050Y0049600D03*
X0054450Y0049600D03*
X0038850Y0049600D03*
X0023250Y0049600D03*
D13*
X0023250Y0026200D02*
X0031050Y0018400D01*
X0031050Y0104200D01*
X0023250Y0104200D01*
X0038850Y0104200D02*
X0046650Y0104200D01*
X0046650Y0018400D01*
X0038850Y0026200D01*
X0038850Y0041800D01*
X0054450Y0041800D02*
X0054450Y0026200D01*
X0062250Y0018400D01*
X0062250Y0104200D01*
X0054450Y0104200D01*
X0070050Y0104200D02*
X0077850Y0104200D01*
X0077850Y0018400D01*
X0070050Y0026200D01*
X0070050Y0041800D01*
X0085650Y0041800D02*
X0085650Y0026200D01*
X0093450Y0018400D01*
X0093450Y0104200D01*
X0085650Y0104200D01*
X0085650Y0088600D02*
X0093450Y0088600D01*
X0109050Y0088600D02*
X0116850Y0088600D01*
X0124650Y0088600D02*
X0132450Y0088600D01*
X0140250Y0088600D02*
X0148050Y0088600D01*
X0155850Y0088600D02*
X0163650Y0088600D01*
X0171450Y0088600D02*
X0179250Y0088600D01*
X0179250Y0104200D02*
X0171450Y0104200D01*
X0171450Y0018400D01*
X0179250Y0026200D01*
X0179250Y0041800D01*
X0163650Y0041800D02*
X0163650Y0026200D01*
X0155850Y0018400D01*
X0155850Y0104200D01*
X0163650Y0104200D01*
X0148050Y0104200D02*
X0140250Y0104200D01*
X0140250Y0018400D01*
X0148050Y0026200D01*
X0148050Y0041800D01*
X0132450Y0041800D02*
X0132450Y0026200D01*
X0124650Y0018400D01*
X0124650Y0026200D01*
X0116850Y0026200D02*
X0116850Y0041800D01*
X0116850Y0057400D02*
X0109050Y0057400D01*
X0093450Y0057400D02*
X0085650Y0057400D01*
X0077850Y0057400D02*
X0070050Y0057400D01*
X0062250Y0057400D02*
X0054450Y0057400D01*
X0046650Y0057400D02*
X0038850Y0057400D01*
X0031050Y0057400D02*
X0023250Y0057400D01*
X0023250Y0041800D02*
X0023250Y0026200D01*
X0077850Y0026200D02*
X0077850Y0018400D01*
X0109050Y0018400D02*
X0116850Y0026200D01*
X0109050Y0026200D02*
X0109050Y0018400D01*
X0109050Y0104200D01*
X0116850Y0104200D01*
X0124650Y0104200D02*
X0132450Y0104200D01*
X0124650Y0104200D02*
X0124650Y0018400D01*
X0124650Y0057400D02*
X0132450Y0057400D01*
X0140250Y0057400D02*
X0148050Y0057400D01*
X0155850Y0057400D02*
X0163650Y0057400D01*
X0171450Y0057400D02*
X0179250Y0057400D01*
X0179250Y0073000D02*
X0171450Y0073000D01*
X0163650Y0073000D02*
X0155850Y0073000D01*
X0148050Y0073000D02*
X0140250Y0073000D01*
X0132450Y0073000D02*
X0124650Y0073000D01*
X0116850Y0073000D02*
X0109050Y0073000D01*
X0093450Y0073000D02*
X0085650Y0073000D01*
X0077850Y0073000D02*
X0070050Y0073000D01*
X0062250Y0073000D02*
X0054450Y0073000D01*
X0046650Y0073000D02*
X0038850Y0073000D01*
X0031050Y0073000D02*
X0023250Y0073000D01*
X0023250Y0088600D02*
X0031050Y0088600D01*
X0038850Y0088600D02*
X0046650Y0088600D01*
X0054450Y0088600D02*
X0062250Y0088600D01*
X0070050Y0088600D02*
X0077850Y0088600D01*
M02*
