  0
SECTION
  2
HEADER
  9
$ACADVER
  1
AC1009
  9
$INSBASE
 10
0.0
 20
0.0
 30
0.0
  9
$EXTMIN
 10
0.0
 20
0.0
 30
0.0
  9
$EXTMAX
 10
0.0
 20
0.0
 30
0.0
  0
ENDSEC
  0
SECTION
  2
TABLES
  0
TABLE
  2
VPORT
 70
0
  0
ENDTAB
  0
TABLE
  2
LTYPE
 70
1
  0
LTYPE
  2
CONTINUOUS
 70
0
  3
Solid line
 72
65
 73
0
 40
0.0
  0
ENDTAB
  0
TABLE
  2
LAYER
 70
1
  0
LAYER
  2
0
 70
64
 62
7
  6
continuous
  0
ENDTAB
  0
TABLE
  2
STYLE
 70
1
  0
STYLE
  2
STANDARD
 70
0
 40
0
 41
1.0
 50
0.0
 71
0
 42
1
 3
ARIAL.TTF
 4

  0
ENDTAB
  0
TABLE
  2
VIEW
 70
0
  0
ENDTAB
  0
ENDSEC
  0
SECTION
  2
BLOCKS
  0
BLOCK
  8
0
  2
ARRAY001
 70
0
 10
0.0
 20
0.0
 30
0.0
  3
ARRAY001
  0
CIRCLE
  8
0
 62
0
 10
21.075
 20
117.5
 30
0.0
 40
1.5
  0
CIRCLE
  8
0
 62
0
 10
83.305
 20
117.5
 30
0.0
 40
1.5
  0
CIRCLE
  8
0
 62
0
 10
83.305
 20
197.51
 30
0.0
 40
1.5
  0
CIRCLE
  8
0
 62
0
 10
21.075
 20
197.51
 30
0.0
 40
1.5
  0
POLYLINE
  8
0
 62
0
 70
1
 66
1
 10
0.0
 20
0.0
 30
0.0
  0
VERTEX
  8
0
 10
17.9
 20
111.15
 30
0.0
  0
VERTEX
  8
0
 10
86.48
 20
111.15
 30
0.0
  0
VERTEX
  8
0
 10
86.48
 20
203.86
 30
0.0
  0
VERTEX
  8
0
 10
17.9
 20
203.86
 30
0.0
  0
SEQEND
  8
0
  0
CIRCLE
  8
0
 62
0
 10
21.075
 20
220.2
 30
0.0
 40
1.5
  0
CIRCLE
  8
0
 62
0
 10
83.305
 20
220.2
 30
0.0
 40
1.5
  0
CIRCLE
  8
0
 62
0
 10
83.305
 20
300.21
 30
0.0
 40
1.5
  0
CIRCLE
  8
0
 62
0
 10
21.075
 20
300.21
 30
0.0
 40
1.5
  0
POLYLINE
  8
0
 62
0
 70
1
 66
1
 10
0.0
 20
0.0
 30
0.0
  0
VERTEX
  8
0
 10
17.9
 20
213.85
 30
0.0
  0
VERTEX
  8
0
 10
86.48
 20
213.85
 30
0.0
  0
VERTEX
  8
0
 10
86.48
 20
306.56
 30
0.0
  0
VERTEX
  8
0
 10
17.9
 20
306.56
 30
0.0
  0
SEQEND
  8
0
  0
CIRCLE
  8
0
 62
0
 10
90.275
 20
117.5
 30
0.0
 40
1.5
  0
CIRCLE
  8
0
 62
0
 10
152.505
 20
117.5
 30
0.0
 40
1.5
  0
CIRCLE
  8
0
 62
0
 10
152.505
 20
197.51
 30
0.0
 40
1.5
  0
CIRCLE
  8
0
 62
0
 10
90.275
 20
197.51
 30
0.0
 40
1.5
  0
POLYLINE
  8
0
 62
0
 70
1
 66
1
 10
0.0
 20
0.0
 30
0.0
  0
VERTEX
  8
0
 10
87.1
 20
111.15
 30
0.0
  0
VERTEX
  8
0
 10
155.68
 20
111.15
 30
0.0
  0
VERTEX
  8
0
 10
155.68
 20
203.86
 30
0.0
  0
VERTEX
  8
0
 10
87.1
 20
203.86
 30
0.0
  0
SEQEND
  8
0
  0
CIRCLE
  8
0
 62
0
 10
90.275
 20
220.2
 30
0.0
 40
1.5
  0
CIRCLE
  8
0
 62
0
 10
152.505
 20
220.2
 30
0.0
 40
1.5
  0
CIRCLE
  8
0
 62
0
 10
152.505
 20
300.21
 30
0.0
 40
1.5
  0
CIRCLE
  8
0
 62
0
 10
90.275
 20
300.21
 30
0.0
 40
1.5
  0
POLYLINE
  8
0
 62
0
 70
1
 66
1
 10
0.0
 20
0.0
 30
0.0
  0
VERTEX
  8
0
 10
87.1
 20
213.85
 30
0.0
  0
VERTEX
  8
0
 10
155.68
 20
213.85
 30
0.0
  0
VERTEX
  8
0
 10
155.68
 20
306.56
 30
0.0
  0
VERTEX
  8
0
 10
87.1
 20
306.56
 30
0.0
  0
SEQEND
  8
0
  0
CIRCLE
  8
0
 62
0
 10
159.475
 20
117.5
 30
0.0
 40
1.5
  0
CIRCLE
  8
0
 62
0
 10
221.705
 20
117.5
 30
0.0
 40
1.5
  0
CIRCLE
  8
0
 62
0
 10
221.705
 20
197.51
 30
0.0
 40
1.5
  0
CIRCLE
  8
0
 62
0
 10
159.475
 20
197.51
 30
0.0
 40
1.5
  0
POLYLINE
  8
0
 62
0
 70
1
 66
1
 10
0.0
 20
0.0
 30
0.0
  0
VERTEX
  8
0
 10
156.3
 20
111.15
 30
0.0
  0
VERTEX
  8
0
 10
224.88
 20
111.15
 30
0.0
  0
VERTEX
  8
0
 10
224.88
 20
203.86
 30
0.0
  0
VERTEX
  8
0
 10
156.3
 20
203.86
 30
0.0
  0
SEQEND
  8
0
  0
CIRCLE
  8
0
 62
0
 10
159.475
 20
220.2
 30
0.0
 40
1.5
  0
CIRCLE
  8
0
 62
0
 10
221.705
 20
220.2
 30
0.0
 40
1.5
  0
CIRCLE
  8
0
 62
0
 10
221.705
 20
300.21
 30
0.0
 40
1.5
  0
CIRCLE
  8
0
 62
0
 10
159.475
 20
300.21
 30
0.0
 40
1.5
  0
POLYLINE
  8
0
 62
0
 70
1
 66
1
 10
0.0
 20
0.0
 30
0.0
  0
VERTEX
  8
0
 10
156.3
 20
213.85
 30
0.0
  0
VERTEX
  8
0
 10
224.88
 20
213.85
 30
0.0
  0
VERTEX
  8
0
 10
224.88
 20
306.56
 30
0.0
  0
VERTEX
  8
0
 10
156.3
 20
306.56
 30
0.0
  0
SEQEND
  8
0
  0
CIRCLE
  8
0
 62
0
 10
228.675
 20
117.5
 30
0.0
 40
1.5
  0
CIRCLE
  8
0
 62
0
 10
290.905
 20
117.5
 30
0.0
 40
1.5
  0
CIRCLE
  8
0
 62
0
 10
290.905
 20
197.51
 30
0.0
 40
1.5
  0
CIRCLE
  8
0
 62
0
 10
228.675
 20
197.51
 30
0.0
 40
1.5
  0
POLYLINE
  8
0
 62
0
 70
1
 66
1
 10
0.0
 20
0.0
 30
0.0
  0
VERTEX
  8
0
 10
225.5
 20
111.15
 30
0.0
  0
VERTEX
  8
0
 10
294.08
 20
111.15
 30
0.0
  0
VERTEX
  8
0
 10
294.08
 20
203.86
 30
0.0
  0
VERTEX
  8
0
 10
225.5
 20
203.86
 30
0.0
  0
SEQEND
  8
0
  0
CIRCLE
  8
0
 62
0
 10
228.675
 20
220.2
 30
0.0
 40
1.5
  0
CIRCLE
  8
0
 62
0
 10
290.905
 20
220.2
 30
0.0
 40
1.5
  0
CIRCLE
  8
0
 62
0
 10
290.905
 20
300.21
 30
0.0
 40
1.5
  0
CIRCLE
  8
0
 62
0
 10
228.675
 20
300.21
 30
0.0
 40
1.5
  0
POLYLINE
  8
0
 62
0
 70
1
 66
1
 10
0.0
 20
0.0
 30
0.0
  0
VERTEX
  8
0
 10
225.5
 20
213.85
 30
0.0
  0
VERTEX
  8
0
 10
294.08
 20
213.85
 30
0.0
  0
VERTEX
  8
0
 10
294.08
 20
306.56
 30
0.0
  0
VERTEX
  8
0
 10
225.5
 20
306.56
 30
0.0
  0
SEQEND
  8
0
  0
CIRCLE
  8
0
 62
0
 10
297.875
 20
117.5
 30
0.0
 40
1.5
  0
CIRCLE
  8
0
 62
0
 10
360.105
 20
117.5
 30
0.0
 40
1.5
  0
CIRCLE
  8
0
 62
0
 10
360.105
 20
197.51
 30
0.0
 40
1.5
  0
CIRCLE
  8
0
 62
0
 10
297.875
 20
197.51
 30
0.0
 40
1.5
  0
POLYLINE
  8
0
 62
0
 70
1
 66
1
 10
0.0
 20
0.0
 30
0.0
  0
VERTEX
  8
0
 10
294.7
 20
111.15
 30
0.0
  0
VERTEX
  8
0
 10
363.28
 20
111.15
 30
0.0
  0
VERTEX
  8
0
 10
363.28
 20
203.86
 30
0.0
  0
VERTEX
  8
0
 10
294.7
 20
203.86
 30
0.0
  0
SEQEND
  8
0
  0
CIRCLE
  8
0
 62
0
 10
297.875
 20
220.2
 30
0.0
 40
1.5
  0
CIRCLE
  8
0
 62
0
 10
360.105
 20
220.2
 30
0.0
 40
1.5
  0
CIRCLE
  8
0
 62
0
 10
360.105
 20
300.21
 30
0.0
 40
1.5
  0
CIRCLE
  8
0
 62
0
 10
297.875
 20
300.21
 30
0.0
 40
1.5
  0
POLYLINE
  8
0
 62
0
 70
1
 66
1
 10
0.0
 20
0.0
 30
0.0
  0
VERTEX
  8
0
 10
294.7
 20
213.85
 30
0.0
  0
VERTEX
  8
0
 10
363.28
 20
213.85
 30
0.0
  0
VERTEX
  8
0
 10
363.28
 20
306.56
 30
0.0
  0
VERTEX
  8
0
 10
294.7
 20
306.56
 30
0.0
  0
SEQEND
  8
0
  0
CIRCLE
  8
0
 62
0
 10
367.075
 20
117.5
 30
0.0
 40
1.5
  0
CIRCLE
  8
0
 62
0
 10
429.305
 20
117.5
 30
0.0
 40
1.5
  0
CIRCLE
  8
0
 62
0
 10
429.305
 20
197.51
 30
0.0
 40
1.5
  0
CIRCLE
  8
0
 62
0
 10
367.075
 20
197.51
 30
0.0
 40
1.5
  0
POLYLINE
  8
0
 62
0
 70
1
 66
1
 10
0.0
 20
0.0
 30
0.0
  0
VERTEX
  8
0
 10
363.9
 20
111.15
 30
0.0
  0
VERTEX
  8
0
 10
432.48
 20
111.15
 30
0.0
  0
VERTEX
  8
0
 10
432.48
 20
203.86
 30
0.0
  0
VERTEX
  8
0
 10
363.9
 20
203.86
 30
0.0
  0
SEQEND
  8
0
  0
CIRCLE
  8
0
 62
0
 10
367.075
 20
220.2
 30
0.0
 40
1.5
  0
CIRCLE
  8
0
 62
0
 10
429.305
 20
220.2
 30
0.0
 40
1.5
  0
CIRCLE
  8
0
 62
0
 10
429.305
 20
300.21
 30
0.0
 40
1.5
  0
CIRCLE
  8
0
 62
0
 10
367.075
 20
300.21
 30
0.0
 40
1.5
  0
POLYLINE
  8
0
 62
0
 70
1
 66
1
 10
0.0
 20
0.0
 30
0.0
  0
VERTEX
  8
0
 10
363.9
 20
213.85
 30
0.0
  0
VERTEX
  8
0
 10
432.48
 20
213.85
 30
0.0
  0
VERTEX
  8
0
 10
432.48
 20
306.56
 30
0.0
  0
VERTEX
  8
0
 10
363.9
 20
306.56
 30
0.0
  0
SEQEND
  8
0
  0
ENDBLK
  0
BLOCK
  8
0
  2
ARRAY
 70
0
 10
0.0
 20
0.0
 30
0.0
  3
ARRAY
  0
CIRCLE
  8
0
 62
0
 10
90.275
 20
14.8
 30
0.0
 40
1.5
  0
CIRCLE
  8
0
 62
0
 10
152.505
 20
14.8
 30
0.0
 40
1.5
  0
CIRCLE
  8
0
 62
0
 10
152.505
 20
94.81
 30
0.0
 40
1.5
  0
CIRCLE
  8
0
 62
0
 10
90.275
 20
94.81
 30
0.0
 40
1.5
  0
POLYLINE
  8
0
 62
0
 70
1
 66
1
 10
0.0
 20
0.0
 30
0.0
  0
VERTEX
  8
0
 10
87.1
 20
8.45
 30
0.0
  0
VERTEX
  8
0
 10
155.68
 20
8.45
 30
0.0
  0
VERTEX
  8
0
 10
155.68
 20
101.16
 30
0.0
  0
VERTEX
  8
0
 10
87.1
 20
101.16
 30
0.0
  0
SEQEND
  8
0
  0
CIRCLE
  8
0
 62
0
 10
159.475
 20
14.8
 30
0.0
 40
1.5
  0
CIRCLE
  8
0
 62
0
 10
221.705
 20
14.8
 30
0.0
 40
1.5
  0
CIRCLE
  8
0
 62
0
 10
221.705
 20
94.81
 30
0.0
 40
1.5
  0
CIRCLE
  8
0
 62
0
 10
159.475
 20
94.81
 30
0.0
 40
1.5
  0
POLYLINE
  8
0
 62
0
 70
1
 66
1
 10
0.0
 20
0.0
 30
0.0
  0
VERTEX
  8
0
 10
156.3
 20
8.45
 30
0.0
  0
VERTEX
  8
0
 10
224.88
 20
8.45
 30
0.0
  0
VERTEX
  8
0
 10
224.88
 20
101.16
 30
0.0
  0
VERTEX
  8
0
 10
156.3
 20
101.16
 30
0.0
  0
SEQEND
  8
0
  0
CIRCLE
  8
0
 62
0
 10
228.675
 20
14.8
 30
0.0
 40
1.5
  0
CIRCLE
  8
0
 62
0
 10
290.905
 20
14.8
 30
0.0
 40
1.5
  0
CIRCLE
  8
0
 62
0
 10
290.905
 20
94.81
 30
0.0
 40
1.5
  0
CIRCLE
  8
0
 62
0
 10
228.675
 20
94.81
 30
0.0
 40
1.5
  0
POLYLINE
  8
0
 62
0
 70
1
 66
1
 10
0.0
 20
0.0
 30
0.0
  0
VERTEX
  8
0
 10
225.5
 20
8.45
 30
0.0
  0
VERTEX
  8
0
 10
294.08
 20
8.45
 30
0.0
  0
VERTEX
  8
0
 10
294.08
 20
101.16
 30
0.0
  0
VERTEX
  8
0
 10
225.5
 20
101.16
 30
0.0
  0
SEQEND
  8
0
  0
CIRCLE
  8
0
 62
0
 10
297.875
 20
14.8
 30
0.0
 40
1.5
  0
CIRCLE
  8
0
 62
0
 10
360.105
 20
14.8
 30
0.0
 40
1.5
  0
CIRCLE
  8
0
 62
0
 10
360.105
 20
94.81
 30
0.0
 40
1.5
  0
CIRCLE
  8
0
 62
0
 10
297.875
 20
94.81
 30
0.0
 40
1.5
  0
POLYLINE
  8
0
 62
0
 70
1
 66
1
 10
0.0
 20
0.0
 30
0.0
  0
VERTEX
  8
0
 10
294.7
 20
8.45
 30
0.0
  0
VERTEX
  8
0
 10
363.28
 20
8.45
 30
0.0
  0
VERTEX
  8
0
 10
363.28
 20
101.16
 30
0.0
  0
VERTEX
  8
0
 10
294.7
 20
101.16
 30
0.0
  0
SEQEND
  8
0
  0
ENDBLK
  0
ENDSEC
  0
SECTION
  2
ENTITIES
  0
POLYLINE
  8
0
 62
7
 70
1
 66
1
 10
0.0
 20
0.0
 30
0.0
  0
VERTEX
  8
0
 10
17.5
 20
315.0
 30
0.0
  0
VERTEX
  8
0
 10
432.5
 20
315.0
 30
0.0
 42
-0.414213562373
  0
VERTEX
  8
0
 10
450.0
 20
297.5
 30
0.0
  0
VERTEX
  8
0
 10
450.0
 20
80.0
 30
0.0
  0
VERTEX
  8
0
 10
430.0
 20
80.0
 30
0.0
  0
VERTEX
  8
0
 10
430.0
 20
0.0
 30
0.0
  0
VERTEX
  8
0
 10
20.0
 20
0.0
 30
0.0
  0
VERTEX
  8
0
 10
20.0
 20
80.0
 30
0.0
  0
VERTEX
  8
0
 10
2.2e-11
 20
80.0
 30
0.0
  0
VERTEX
  8
0
 10
2.19984030991e-11
 20
297.5
 30
0.0
 42
-0.414213562373
  0
SEQEND
  8
0
  0
INSERT
  2
ARRAY001
  8
0
 62
0
 10
0.0
 20
0.0
 30
0.0
  0
INSERT
  2
ARRAY
  8
0
 62
0
 10
0.0
 20
0.0
 30
0.0
  0
ENDSEC
  0
EOF
