%
M48
M72
T01C0.01200
T02C0.01378
T03C0.01772
T04C0.02165
T05C0.02362
T06C0.02953
T07C0.03150
T08C0.03200
T09C0.03500
T10C0.03543
T11C0.07800
T12C0.12126
T13C0.12598
T14C0.13000
T15C0.14173
%
T01
X181200Y212334
X196898Y212334
X211830Y243069
X218600Y251084
X219300Y265384
X224300Y265384
X194400Y253534
X154300Y246931
X146800Y255384
X142660Y251245
X78050Y230384
T02
X100000Y230234
X153400Y205584
X169300Y225384
X153501Y233833
X153700Y243458
X186600Y270384
X190650Y274434
X214300Y272434
X211336Y252908
X213600Y250134
X224300Y245384
X223050Y240684
X227100Y235284
X232950Y221884
X196450Y201984
X250475Y301559
X260950Y307034
X269300Y354584
X255500Y358234
X239300Y361884
X219300Y366334
X180650Y351334
X164300Y347684
X144300Y344034
T03
X209300Y275384
X175655Y256804
X164300Y205384
X64300Y125384
T04
X104300Y190384
T05
X164300Y260384
X312150Y185334
T06
X253050Y277884
X204300Y215384
T07
X185100Y279184
X185100Y286684
X185100Y294184
T08
X144300Y270384
X134300Y270384
X124300Y260384
X109300Y270384
X99300Y270384
X88850Y258934
X88850Y288934
X124300Y290384
X71900Y100784
X61900Y100784
T09
X145200Y193084
X145200Y201084
X165200Y197084
T10
X167550Y165934
X157550Y165934
X157550Y155934
X167550Y155934
X177550Y155934
X187550Y155934
X197550Y155934
X207550Y155934
X217550Y155934
X227550Y155934
X237550Y155934
X247550Y155934
X257550Y155934
X267550Y155934
X277550Y155934
X287550Y155934
X297550Y155934
X307550Y155934
X317550Y155934
X317550Y165934
X307550Y165934
X297550Y165934
X287550Y165934
X277550Y165934
X267550Y165934
X257550Y165934
X247550Y165934
X237550Y165934
X227550Y165934
X217550Y165934
X207550Y165934
X197550Y165934
X187550Y165934
X177550Y165934
X147550Y165934
X147550Y155934
X137550Y155934
X127550Y155934
X127550Y165934
X137550Y165934
X137550Y25934
X137550Y15934
X127550Y15934
X127550Y25934
X147550Y25934
X147550Y15934
X157550Y15934
X167550Y15934
X167550Y25934
X157550Y25934
X177550Y25934
X177550Y15934
X187550Y15934
X187550Y25934
X197550Y25934
X197550Y15934
X207550Y15934
X207550Y25934
X217550Y25934
X217550Y15934
X227550Y15934
X227550Y25934
X237550Y25934
X237550Y15934
X247550Y15934
X247550Y25934
X257550Y25934
X257550Y15934
X267550Y15934
X277550Y15934
X277550Y25934
X267550Y25934
X287550Y25934
X287550Y15934
X297550Y15934
X297550Y25934
X307550Y25934
X307550Y15934
X317550Y15934
X317550Y25934
X329300Y186723
X329300Y204046
T11
X269500Y313734
X253900Y313734
X238300Y313734
X238300Y329334
X253900Y329334
X269500Y329334
X222700Y329334
X222700Y313734
X207100Y313734
X191500Y313734
X175900Y313734
X175900Y329334
X191500Y329334
X207100Y329334
X160300Y329334
X160300Y313734
X144700Y313734
X129100Y313734
X129100Y329334
X144700Y329334
T12
X100857Y155856
T13
X69300Y25384
X317174Y263888
X328985Y245384
X334300Y355384
X69300Y355384
X334300Y25384
T14
X304600Y321534
X94000Y321534
T15
X305363Y245384
M30
