G75*
%MOIN*%
%OFA0B0*%
%FSLAX25Y25*%
%IPPOS*%
%LPD*%
%AMOC8*
5,1,8,0,0,1.08239X$1,22.5*
%
%ADD10C,0.12998*%
%ADD11C,0.03900*%
%ADD12C,0.03943*%
%ADD13OC8,0.05200*%
%ADD14C,0.05124*%
%ADD15R,0.20400X0.10400*%
%ADD16C,0.12100*%
%ADD17C,0.13400*%
%ADD18C,0.07800*%
%ADD19R,0.05715X0.05715*%
%ADD20C,0.05715*%
%ADD21C,0.12526*%
%ADD22OC8,0.18573*%
%ADD23OC8,0.16998*%
%ADD24R,0.05518X0.06306*%
%ADD25R,0.05124X0.05912*%
%ADD26R,0.06306X0.05518*%
%ADD27C,0.04829*%
D10*
X0069300Y0025384D03*
X0334300Y0025384D03*
X0334300Y0355384D03*
X0069300Y0355384D03*
D11*
X0145200Y0201084D03*
X0145200Y0193084D03*
X0165200Y0197084D03*
D12*
X0329300Y0204046D03*
X0329300Y0186723D03*
D13*
X0124300Y0260384D03*
X0124300Y0290384D03*
X0088850Y0288934D03*
X0088850Y0258934D03*
X0071900Y0100784D03*
X0061900Y0100784D03*
D14*
X0185100Y0279184D03*
X0185100Y0286684D03*
X0185100Y0294184D03*
D15*
X0064300Y0280384D03*
X0064300Y0268084D03*
X0064300Y0255384D03*
X0064300Y0237884D03*
X0064300Y0225384D03*
X0339300Y0285384D03*
X0339300Y0297884D03*
D16*
X0269500Y0313734D03*
X0253900Y0313734D03*
X0238300Y0313734D03*
X0238300Y0329334D03*
X0253900Y0329334D03*
X0269500Y0329334D03*
X0222700Y0329334D03*
X0222700Y0313734D03*
X0207100Y0313734D03*
X0191500Y0313734D03*
X0175900Y0313734D03*
X0175900Y0329334D03*
X0191500Y0329334D03*
X0207100Y0329334D03*
X0160300Y0329334D03*
X0160300Y0313734D03*
X0144700Y0313734D03*
X0129100Y0313734D03*
X0129100Y0329334D03*
X0144700Y0329334D03*
D17*
X0094000Y0321534D03*
X0304600Y0321534D03*
D18*
X0144300Y0270384D03*
X0134300Y0270384D03*
X0109300Y0270384D03*
X0099300Y0270384D03*
D19*
X0127550Y0165934D03*
X0177550Y0165934D03*
X0227550Y0165934D03*
X0277550Y0165934D03*
X0277550Y0025934D03*
X0227550Y0025934D03*
X0177550Y0025934D03*
X0127550Y0025934D03*
D20*
X0127550Y0015934D03*
X0137550Y0015934D03*
X0137550Y0025934D03*
X0147550Y0025934D03*
X0147550Y0015934D03*
X0157550Y0015934D03*
X0167550Y0015934D03*
X0167550Y0025934D03*
X0157550Y0025934D03*
X0177550Y0015934D03*
X0187550Y0015934D03*
X0187550Y0025934D03*
X0197550Y0025934D03*
X0197550Y0015934D03*
X0207550Y0015934D03*
X0207550Y0025934D03*
X0217550Y0025934D03*
X0217550Y0015934D03*
X0227550Y0015934D03*
X0237550Y0015934D03*
X0247550Y0015934D03*
X0247550Y0025934D03*
X0237550Y0025934D03*
X0257550Y0025934D03*
X0257550Y0015934D03*
X0267550Y0015934D03*
X0277550Y0015934D03*
X0267550Y0025934D03*
X0287550Y0025934D03*
X0287550Y0015934D03*
X0297550Y0015934D03*
X0297550Y0025934D03*
X0307550Y0025934D03*
X0307550Y0015934D03*
X0317550Y0015934D03*
X0317550Y0025934D03*
X0317550Y0155934D03*
X0307550Y0155934D03*
X0297550Y0155934D03*
X0287550Y0155934D03*
X0277550Y0155934D03*
X0267550Y0155934D03*
X0257550Y0155934D03*
X0247550Y0155934D03*
X0237550Y0155934D03*
X0227550Y0155934D03*
X0217550Y0155934D03*
X0207550Y0155934D03*
X0197550Y0155934D03*
X0187550Y0155934D03*
X0177550Y0155934D03*
X0167550Y0155934D03*
X0157550Y0155934D03*
X0147550Y0155934D03*
X0137550Y0155934D03*
X0127550Y0155934D03*
X0137550Y0165934D03*
X0147550Y0165934D03*
X0157550Y0165934D03*
X0167550Y0165934D03*
X0187550Y0165934D03*
X0197550Y0165934D03*
X0207550Y0165934D03*
X0217550Y0165934D03*
X0237550Y0165934D03*
X0247550Y0165934D03*
X0257550Y0165934D03*
X0267550Y0165934D03*
X0287550Y0165934D03*
X0297550Y0165934D03*
X0307550Y0165934D03*
X0317550Y0165934D03*
D21*
X0100857Y0155856D03*
D22*
X0305363Y0245384D03*
D23*
X0317174Y0263888D03*
X0328985Y0245384D03*
D24*
X0153040Y0140384D03*
X0145560Y0140384D03*
D25*
X0178394Y0140384D03*
X0190206Y0140384D03*
X0130206Y0190384D03*
X0118394Y0190384D03*
D26*
X0089300Y0219144D03*
X0089300Y0226625D03*
X0089300Y0236644D03*
X0089300Y0244125D03*
D27*
X0204300Y0215384D03*
X0253050Y0277884D03*
M02*
