G75*
%MOIN*%
%OFA0B0*%
%FSLAX25Y25*%
%IPPOS*%
%LPD*%
%AMOC8*
5,1,8,0,0,1.08239X$1,22.5*
%
%ADD10C,0.03100*%
%ADD11R,0.09843X0.07874*%
%ADD12R,0.12992X0.07874*%
%ADD13R,0.12205X0.01969*%
%ADD14R,0.05118X0.05906*%
%ADD15R,0.05118X0.06299*%
%ADD16R,0.01969X0.05906*%
%ADD17R,0.05906X0.01969*%
%ADD18R,0.06299X0.05118*%
%ADD19R,0.11811X0.09843*%
%ADD20R,0.05906X0.05118*%
%ADD21R,0.05900X0.07900*%
%ADD22R,0.15000X0.07900*%
%ADD23OC8,0.04800*%
%ADD24C,0.04724*%
%ADD25C,0.11700*%
%ADD26C,0.07400*%
%ADD27R,0.05315X0.05315*%
%ADD28C,0.05315*%
%ADD29OC8,0.18173*%
%ADD30OC8,0.16598*%
%ADD31R,0.07098X0.06299*%
%ADD32R,0.05512X0.04724*%
%ADD33R,0.04724X0.05512*%
%ADD34C,0.01600*%
%ADD35C,0.02578*%
%ADD36C,0.01000*%
%ADD37C,0.03562*%
%ADD38C,0.05000*%
%ADD39C,0.04429*%
%ADD40C,0.02972*%
%ADD41C,0.02400*%
%ADD42C,0.03365*%
D10*
X0150200Y0194584D03*
X0155200Y0194584D03*
X0160200Y0194584D03*
X0160200Y0199584D03*
X0155200Y0199584D03*
X0150200Y0199584D03*
D11*
X0341111Y0212904D03*
X0341111Y0177865D03*
D12*
X0317883Y0177865D03*
X0317883Y0212904D03*
D13*
X0317489Y0201684D03*
X0317489Y0198534D03*
X0317489Y0195384D03*
X0317489Y0192235D03*
X0317489Y0189085D03*
D14*
X0300940Y0192034D03*
X0293460Y0192034D03*
X0293660Y0200584D03*
X0301140Y0200584D03*
X0213840Y0266384D03*
X0206360Y0266384D03*
X0071490Y0116534D03*
X0064010Y0116534D03*
D15*
X0187563Y0196434D03*
X0195437Y0196434D03*
X0221113Y0215784D03*
X0228987Y0215784D03*
X0228987Y0226934D03*
X0221113Y0226934D03*
X0259213Y0282584D03*
X0267087Y0282584D03*
X0267087Y0290934D03*
X0259213Y0290934D03*
D16*
X0200048Y0263219D03*
X0196898Y0263219D03*
X0193749Y0263219D03*
X0190599Y0263219D03*
X0187450Y0263219D03*
X0184300Y0263219D03*
X0181150Y0263219D03*
X0178001Y0263219D03*
X0174851Y0263219D03*
X0171702Y0263219D03*
X0168552Y0263219D03*
X0168552Y0217550D03*
X0171702Y0217550D03*
X0174851Y0217550D03*
X0178001Y0217550D03*
X0181150Y0217550D03*
X0184300Y0217550D03*
X0187450Y0217550D03*
X0190599Y0217550D03*
X0193749Y0217550D03*
X0196898Y0217550D03*
X0200048Y0217550D03*
D17*
X0207135Y0224636D03*
X0207135Y0227786D03*
X0207135Y0230936D03*
X0207135Y0234085D03*
X0207135Y0237235D03*
X0207135Y0240384D03*
X0207135Y0243534D03*
X0207135Y0246684D03*
X0207135Y0249833D03*
X0207135Y0252983D03*
X0207135Y0256132D03*
X0161465Y0256132D03*
X0161465Y0252983D03*
X0161465Y0249833D03*
X0161465Y0246684D03*
X0161465Y0243534D03*
X0161465Y0240384D03*
X0161465Y0237235D03*
X0161465Y0234085D03*
X0161465Y0230936D03*
X0161465Y0227786D03*
X0161465Y0224636D03*
D18*
X0106800Y0221447D03*
X0106800Y0229321D03*
X0106800Y0236447D03*
X0106800Y0244321D03*
X0284900Y0249597D03*
X0284900Y0257471D03*
D19*
X0134300Y0245483D03*
X0134300Y0224892D03*
D20*
X0144900Y0217775D03*
X0144900Y0210294D03*
X0119300Y0231644D03*
X0119300Y0239125D03*
X0193300Y0286594D03*
X0193300Y0294075D03*
D21*
X0257900Y0270284D03*
X0266900Y0270284D03*
X0275900Y0270284D03*
D22*
X0266800Y0245484D03*
D23*
X0061900Y0100784D03*
X0071900Y0100784D03*
X0088850Y0258934D03*
X0088850Y0288934D03*
X0124300Y0290384D03*
X0124300Y0260384D03*
D24*
X0185100Y0279184D03*
X0185100Y0286684D03*
X0185100Y0294184D03*
D25*
X0191500Y0313734D03*
X0175900Y0313734D03*
X0175900Y0329334D03*
X0191500Y0329334D03*
X0207100Y0329334D03*
X0207100Y0313734D03*
X0222700Y0313734D03*
X0222700Y0329334D03*
X0238300Y0329334D03*
X0238300Y0313734D03*
X0253900Y0313734D03*
X0269500Y0313734D03*
X0269500Y0329334D03*
X0253900Y0329334D03*
X0160300Y0329334D03*
X0160300Y0313734D03*
X0144700Y0313734D03*
X0129100Y0313734D03*
X0129100Y0329334D03*
X0144700Y0329334D03*
D26*
X0144300Y0270384D03*
X0134300Y0270384D03*
X0109300Y0270384D03*
X0099300Y0270384D03*
D27*
X0127550Y0165934D03*
X0177550Y0165934D03*
X0227550Y0165934D03*
X0277550Y0165934D03*
X0277550Y0025934D03*
X0227550Y0025934D03*
X0177550Y0025934D03*
X0127550Y0025934D03*
D28*
X0127550Y0015934D03*
X0137550Y0015934D03*
X0137550Y0025934D03*
X0147550Y0025934D03*
X0147550Y0015934D03*
X0157550Y0015934D03*
X0167550Y0015934D03*
X0167550Y0025934D03*
X0157550Y0025934D03*
X0177550Y0015934D03*
X0187550Y0015934D03*
X0187550Y0025934D03*
X0197550Y0025934D03*
X0197550Y0015934D03*
X0207550Y0015934D03*
X0207550Y0025934D03*
X0217550Y0025934D03*
X0217550Y0015934D03*
X0227550Y0015934D03*
X0237550Y0015934D03*
X0247550Y0015934D03*
X0247550Y0025934D03*
X0237550Y0025934D03*
X0257550Y0025934D03*
X0257550Y0015934D03*
X0267550Y0015934D03*
X0277550Y0015934D03*
X0267550Y0025934D03*
X0287550Y0025934D03*
X0287550Y0015934D03*
X0297550Y0015934D03*
X0297550Y0025934D03*
X0307550Y0025934D03*
X0307550Y0015934D03*
X0317550Y0015934D03*
X0317550Y0025934D03*
X0317550Y0155934D03*
X0307550Y0155934D03*
X0297550Y0155934D03*
X0287550Y0155934D03*
X0277550Y0155934D03*
X0267550Y0155934D03*
X0257550Y0155934D03*
X0247550Y0155934D03*
X0237550Y0155934D03*
X0227550Y0155934D03*
X0217550Y0155934D03*
X0207550Y0155934D03*
X0197550Y0155934D03*
X0187550Y0155934D03*
X0177550Y0155934D03*
X0167550Y0155934D03*
X0157550Y0155934D03*
X0147550Y0155934D03*
X0137550Y0155934D03*
X0127550Y0155934D03*
X0137550Y0165934D03*
X0147550Y0165934D03*
X0157550Y0165934D03*
X0167550Y0165934D03*
X0187550Y0165934D03*
X0197550Y0165934D03*
X0207550Y0165934D03*
X0217550Y0165934D03*
X0237550Y0165934D03*
X0247550Y0165934D03*
X0257550Y0165934D03*
X0267550Y0165934D03*
X0287550Y0165934D03*
X0297550Y0165934D03*
X0307550Y0165934D03*
X0317550Y0165934D03*
D29*
X0305363Y0245384D03*
D30*
X0317174Y0263888D03*
X0328985Y0245384D03*
D31*
X0234300Y0269786D03*
X0234300Y0280983D03*
D32*
X0254300Y0233790D03*
X0254300Y0221979D03*
D33*
X0246456Y0260384D03*
X0234644Y0260384D03*
D34*
X0229300Y0250384D02*
X0219300Y0260384D01*
X0218279Y0260384D01*
X0213840Y0266384D02*
X0210703Y0269521D01*
X0210703Y0270076D01*
X0209300Y0271479D01*
X0209300Y0275384D01*
X0206360Y0266384D02*
X0203060Y0266644D01*
X0200048Y0263632D01*
X0200048Y0263219D01*
X0196898Y0263219D02*
X0196800Y0263219D01*
X0193800Y0263219D02*
X0193749Y0263219D01*
X0199950Y0256132D02*
X0207135Y0256132D01*
X0204517Y0259947D02*
X0204513Y0259947D01*
X0199950Y0255384D01*
X0199950Y0256132D01*
X0199950Y0255384D02*
X0199950Y0252884D01*
X0194400Y0252884D01*
X0194400Y0253534D01*
X0174300Y0253534D01*
X0174300Y0235384D01*
X0170144Y0231228D01*
X0169437Y0230936D02*
X0161465Y0230936D01*
X0154950Y0230936D01*
X0154774Y0230760D01*
X0154675Y0230760D01*
X0149300Y0225384D01*
X0149300Y0222175D01*
X0144900Y0217775D01*
X0131690Y0217775D01*
X0116800Y0202884D01*
X0083050Y0211634D01*
X0078050Y0230384D01*
X0100000Y0230234D02*
X0100620Y0229614D01*
X0101327Y0229321D02*
X0106800Y0229321D01*
X0106800Y0236447D01*
X0106800Y0244321D02*
X0107765Y0245483D01*
X0119300Y0245483D01*
X0119300Y0239125D01*
X0119300Y0245483D02*
X0134300Y0245483D01*
X0134300Y0245384D01*
X0140550Y0245384D01*
X0143050Y0242884D01*
X0149300Y0240384D01*
X0161465Y0240384D01*
X0161465Y0237235D02*
X0146800Y0237235D01*
X0144300Y0235384D01*
X0134300Y0225384D01*
X0134300Y0224892D01*
X0134300Y0225384D02*
X0121800Y0225384D01*
X0119300Y0227884D01*
X0119300Y0231644D01*
X0119300Y0230896D01*
X0106800Y0221447D01*
X0101327Y0229321D02*
X0101267Y0229323D01*
X0101206Y0229328D01*
X0101147Y0229337D01*
X0101088Y0229350D01*
X0101029Y0229366D01*
X0100972Y0229386D01*
X0100917Y0229409D01*
X0100862Y0229436D01*
X0100810Y0229465D01*
X0100759Y0229498D01*
X0100710Y0229534D01*
X0100664Y0229572D01*
X0100620Y0229614D01*
X0116800Y0202884D02*
X0104300Y0190384D01*
X0071490Y0157575D01*
X0071490Y0116534D01*
X0064300Y0116825D02*
X0064300Y0125384D01*
X0064300Y0116825D02*
X0064010Y0116534D01*
X0060650Y0113175D01*
X0061900Y0100784D01*
X0146886Y0197484D02*
X0146946Y0197482D01*
X0147007Y0197477D01*
X0147066Y0197468D01*
X0147125Y0197455D01*
X0147184Y0197439D01*
X0147241Y0197419D01*
X0147296Y0197396D01*
X0147351Y0197369D01*
X0147403Y0197340D01*
X0147454Y0197307D01*
X0147503Y0197271D01*
X0147549Y0197233D01*
X0147593Y0197191D01*
X0150200Y0194584D01*
X0146886Y0197484D02*
X0141250Y0197484D01*
X0139593Y0199141D01*
X0139300Y0199849D02*
X0139300Y0205384D01*
X0140267Y0206351D01*
X0140974Y0206644D02*
X0144900Y0210294D01*
X0144990Y0210384D01*
X0149300Y0210384D01*
X0154300Y0215384D01*
X0154300Y0225384D01*
X0156702Y0227786D01*
X0161465Y0227786D01*
X0161465Y0234085D02*
X0154565Y0234085D01*
X0153858Y0233792D02*
X0153700Y0233634D01*
X0153501Y0233833D01*
X0153858Y0233792D02*
X0153902Y0233834D01*
X0153948Y0233872D01*
X0153997Y0233908D01*
X0154048Y0233941D01*
X0154100Y0233970D01*
X0154155Y0233997D01*
X0154210Y0234020D01*
X0154267Y0234040D01*
X0154326Y0234056D01*
X0154385Y0234069D01*
X0154444Y0234078D01*
X0154505Y0234083D01*
X0154565Y0234085D01*
X0153857Y0243241D02*
X0153901Y0243283D01*
X0153947Y0243321D01*
X0153996Y0243357D01*
X0154047Y0243390D01*
X0154099Y0243419D01*
X0154154Y0243446D01*
X0154209Y0243469D01*
X0154266Y0243489D01*
X0154325Y0243505D01*
X0154384Y0243518D01*
X0154443Y0243527D01*
X0154504Y0243532D01*
X0154564Y0243534D01*
X0161465Y0243534D01*
X0161465Y0246684D02*
X0161218Y0246931D01*
X0154300Y0246931D01*
X0153700Y0243458D02*
X0153700Y0243084D01*
X0153857Y0243241D01*
X0157351Y0249833D02*
X0155940Y0251245D01*
X0142660Y0251245D01*
X0146800Y0255384D02*
X0151706Y0255479D01*
X0156610Y0254229D01*
X0157856Y0252983D01*
X0161465Y0252983D01*
X0161465Y0249833D02*
X0157351Y0249833D01*
X0159300Y0260384D02*
X0159300Y0263334D01*
X0165000Y0267684D01*
X0166078Y0267956D01*
X0179724Y0267956D01*
X0180769Y0266911D01*
X0180769Y0266765D01*
X0181200Y0266334D01*
X0181150Y0266285D01*
X0181150Y0263219D01*
X0184300Y0263219D02*
X0184300Y0264603D01*
X0184681Y0264984D01*
X0184681Y0266903D01*
X0179850Y0271734D01*
X0145650Y0271734D01*
X0144300Y0270384D01*
X0134300Y0270384D02*
X0134300Y0280384D01*
X0124300Y0290384D01*
X0109300Y0270384D02*
X0115116Y0264569D01*
X0126033Y0264569D01*
X0130217Y0260384D01*
X0159300Y0260384D01*
X0164300Y0260384D02*
X0167135Y0263219D01*
X0168552Y0263219D01*
X0171702Y0263219D02*
X0171800Y0263219D01*
X0171800Y0256034D01*
X0174300Y0253534D01*
X0175202Y0256287D02*
X0175202Y0256352D01*
X0175655Y0256804D01*
X0175202Y0256287D02*
X0174851Y0256638D01*
X0174851Y0263219D01*
X0185100Y0286684D02*
X0193300Y0286594D01*
X0193300Y0294075D02*
X0185100Y0294184D01*
X0199950Y0252884D02*
X0200625Y0224636D01*
X0207135Y0224636D01*
X0209634Y0224636D01*
X0210341Y0224343D02*
X0219300Y0215384D01*
X0219408Y0215429D02*
X0221113Y0215784D01*
X0219407Y0215429D02*
X0219389Y0215413D01*
X0219369Y0215401D01*
X0219347Y0215391D01*
X0219324Y0215386D01*
X0219300Y0215384D01*
X0216850Y0221884D02*
X0229000Y0221884D01*
X0232950Y0221884D01*
X0229000Y0221884D02*
X0228900Y0217344D01*
X0228901Y0217344D02*
X0228873Y0217259D01*
X0228849Y0217173D01*
X0228829Y0217087D01*
X0228813Y0216999D01*
X0228800Y0216911D01*
X0228792Y0216822D01*
X0228787Y0216733D01*
X0228786Y0216644D01*
X0228789Y0216555D01*
X0228796Y0216467D01*
X0228807Y0216378D01*
X0228821Y0216290D01*
X0228840Y0216203D01*
X0228862Y0216117D01*
X0228888Y0216032D01*
X0228918Y0215948D01*
X0228951Y0215865D01*
X0228988Y0215784D01*
X0229000Y0221884D02*
X0228900Y0226724D01*
X0228902Y0226757D01*
X0228907Y0226790D01*
X0228917Y0226822D01*
X0228929Y0226853D01*
X0228946Y0226882D01*
X0228965Y0226909D01*
X0228987Y0226934D01*
X0221113Y0226934D02*
X0220407Y0226228D01*
X0219700Y0225936D02*
X0214700Y0230936D01*
X0207135Y0230936D01*
X0207135Y0227786D02*
X0210434Y0227786D01*
X0211141Y0227493D02*
X0216850Y0221884D01*
X0219700Y0225936D02*
X0219760Y0225938D01*
X0219821Y0225943D01*
X0219880Y0225952D01*
X0219939Y0225965D01*
X0219998Y0225981D01*
X0220055Y0226001D01*
X0220110Y0226024D01*
X0220165Y0226051D01*
X0220217Y0226080D01*
X0220268Y0226113D01*
X0220317Y0226149D01*
X0220363Y0226187D01*
X0220407Y0226229D01*
X0211141Y0227493D02*
X0211097Y0227535D01*
X0211051Y0227573D01*
X0211002Y0227609D01*
X0210951Y0227642D01*
X0210899Y0227671D01*
X0210844Y0227698D01*
X0210789Y0227721D01*
X0210732Y0227741D01*
X0210673Y0227757D01*
X0210614Y0227770D01*
X0210555Y0227779D01*
X0210494Y0227784D01*
X0210434Y0227786D01*
X0209634Y0224636D02*
X0209694Y0224634D01*
X0209755Y0224629D01*
X0209814Y0224620D01*
X0209873Y0224607D01*
X0209932Y0224591D01*
X0209989Y0224571D01*
X0210044Y0224548D01*
X0210099Y0224521D01*
X0210151Y0224492D01*
X0210202Y0224459D01*
X0210251Y0224423D01*
X0210297Y0224385D01*
X0210341Y0224343D01*
X0202135Y0217550D02*
X0200048Y0217550D01*
X0202135Y0217550D02*
X0204300Y0215384D01*
X0196898Y0217550D02*
X0196898Y0212334D01*
X0196898Y0210569D01*
X0254300Y0210569D01*
X0254300Y0221979D01*
X0254300Y0210569D02*
X0294320Y0210569D01*
X0294505Y0210384D01*
X0299300Y0210384D01*
X0299300Y0205384D01*
X0314300Y0205384D01*
X0314300Y0201684D01*
X0317489Y0201684D01*
X0317489Y0198534D02*
X0308191Y0198534D01*
X0301140Y0200584D01*
X0293250Y0200384D02*
X0293250Y0207984D01*
X0194416Y0207984D01*
X0194300Y0207869D01*
X0193749Y0208420D01*
X0193749Y0217550D01*
X0190599Y0217550D02*
X0190599Y0206284D01*
X0190601Y0206224D01*
X0190606Y0206163D01*
X0190615Y0206104D01*
X0190628Y0206045D01*
X0190644Y0205986D01*
X0190664Y0205929D01*
X0190687Y0205874D01*
X0190714Y0205819D01*
X0190743Y0205767D01*
X0190776Y0205716D01*
X0190812Y0205667D01*
X0190850Y0205621D01*
X0190892Y0205577D01*
X0190936Y0205535D01*
X0190982Y0205497D01*
X0191031Y0205461D01*
X0191082Y0205428D01*
X0191134Y0205399D01*
X0191189Y0205372D01*
X0191244Y0205349D01*
X0191301Y0205329D01*
X0191360Y0205313D01*
X0191419Y0205300D01*
X0191478Y0205291D01*
X0191539Y0205286D01*
X0191599Y0205284D01*
X0275050Y0205284D01*
X0292050Y0193284D01*
X0293460Y0192034D01*
X0300940Y0192034D02*
X0308040Y0195384D01*
X0317489Y0195384D01*
X0319300Y0195384D01*
X0317489Y0189085D02*
X0315901Y0189085D01*
X0312150Y0185334D01*
X0293250Y0200184D02*
X0293250Y0200384D01*
X0254300Y0233790D02*
X0254300Y0240384D01*
X0244300Y0250384D01*
X0229300Y0250384D01*
X0207135Y0237384D02*
X0207135Y0237235D01*
X0187450Y0217550D02*
X0187450Y0210685D01*
X0187450Y0210684D02*
X0187450Y0201984D01*
X0196450Y0201984D01*
X0196300Y0197784D01*
X0195437Y0196434D01*
X0187563Y0196434D02*
X0184300Y0200896D01*
X0184300Y0217550D01*
X0181150Y0217550D02*
X0181150Y0212334D01*
X0181200Y0212334D01*
X0187450Y0210685D02*
X0187450Y0210685D01*
X0187450Y0210684D01*
X0174851Y0217550D02*
X0174851Y0192486D01*
X0171750Y0189384D01*
X0160400Y0189384D01*
X0159951Y0189833D01*
X0159350Y0190434D01*
X0155200Y0194584D01*
X0160200Y0194584D02*
X0161286Y0194584D01*
X0161993Y0194291D02*
X0162850Y0193434D01*
X0169300Y0193434D01*
X0170400Y0194534D01*
X0170400Y0211534D01*
X0168552Y0213382D01*
X0168552Y0217550D01*
X0168551Y0217548D01*
X0168550Y0217545D01*
X0171702Y0217550D02*
X0171702Y0220860D01*
X0170275Y0222287D01*
X0166829Y0222287D01*
X0164671Y0220129D01*
X0162961Y0220129D01*
X0161916Y0219084D01*
X0161916Y0218900D01*
X0160450Y0217434D01*
X0159850Y0204234D01*
X0155200Y0199584D01*
X0150200Y0199584D02*
X0150200Y0202384D01*
X0153400Y0205584D01*
X0160200Y0199584D02*
X0164300Y0203684D01*
X0164300Y0205384D01*
X0161286Y0194584D02*
X0161346Y0194582D01*
X0161407Y0194577D01*
X0161466Y0194568D01*
X0161525Y0194555D01*
X0161584Y0194539D01*
X0161641Y0194519D01*
X0161696Y0194496D01*
X0161751Y0194469D01*
X0161803Y0194440D01*
X0161854Y0194407D01*
X0161903Y0194371D01*
X0161949Y0194333D01*
X0161993Y0194291D01*
X0169300Y0193434D02*
X0169600Y0193434D01*
X0139593Y0199142D02*
X0139551Y0199186D01*
X0139513Y0199232D01*
X0139477Y0199281D01*
X0139444Y0199332D01*
X0139415Y0199384D01*
X0139388Y0199439D01*
X0139365Y0199494D01*
X0139345Y0199551D01*
X0139329Y0199610D01*
X0139316Y0199669D01*
X0139307Y0199728D01*
X0139302Y0199789D01*
X0139300Y0199849D01*
X0140267Y0206351D02*
X0140311Y0206393D01*
X0140357Y0206431D01*
X0140406Y0206467D01*
X0140457Y0206500D01*
X0140509Y0206529D01*
X0140564Y0206556D01*
X0140619Y0206579D01*
X0140676Y0206599D01*
X0140735Y0206615D01*
X0140794Y0206628D01*
X0140853Y0206637D01*
X0140914Y0206642D01*
X0140974Y0206644D01*
X0169437Y0230936D02*
X0169497Y0230938D01*
X0169558Y0230943D01*
X0169617Y0230952D01*
X0169676Y0230965D01*
X0169735Y0230981D01*
X0169792Y0231001D01*
X0169847Y0231024D01*
X0169902Y0231051D01*
X0169954Y0231080D01*
X0170005Y0231113D01*
X0170054Y0231149D01*
X0170100Y0231187D01*
X0170144Y0231229D01*
X0124300Y0260384D02*
X0090300Y0260384D01*
X0088850Y0258934D01*
X0099300Y0270384D02*
X0088850Y0288934D01*
D35*
X0144300Y0344034D03*
X0164300Y0347684D03*
X0180650Y0351334D03*
X0219300Y0366334D03*
X0239300Y0361884D03*
X0255500Y0358234D03*
X0269300Y0354584D03*
X0260950Y0307034D03*
X0250475Y0301559D03*
X0214300Y0272434D03*
X0211336Y0252908D03*
X0213600Y0250134D03*
X0224300Y0245384D03*
X0223050Y0240684D03*
X0227100Y0235284D03*
X0232950Y0221884D03*
X0196450Y0201984D03*
X0169300Y0225384D03*
X0153501Y0233833D03*
X0153700Y0243458D03*
X0186600Y0270384D03*
X0190650Y0274434D03*
X0153400Y0205584D03*
X0100000Y0230234D03*
D36*
X0161465Y0224636D02*
X0168552Y0224636D01*
X0169300Y0225384D01*
X0207135Y0234085D02*
X0213449Y0234085D01*
X0213600Y0233934D01*
X0214916Y0235251D01*
X0215022Y0235251D01*
X0215056Y0235284D01*
X0227100Y0235284D01*
X0222750Y0240384D02*
X0223050Y0240684D01*
X0222750Y0240384D02*
X0217350Y0240384D01*
X0214200Y0237235D01*
X0207135Y0237235D01*
X0207135Y0240384D02*
X0214300Y0240384D01*
X0219300Y0245384D01*
X0224300Y0245384D01*
X0218600Y0251084D02*
X0213600Y0246084D01*
X0209617Y0246084D01*
X0209374Y0246327D01*
X0207135Y0246684D01*
X0209374Y0246327D02*
X0210900Y0246084D01*
X0211830Y0243069D02*
X0207600Y0243069D01*
X0207135Y0243534D01*
X0207135Y0249833D02*
X0207436Y0250134D01*
X0213600Y0250134D01*
X0211336Y0252908D02*
X0210973Y0252908D01*
X0210900Y0252834D01*
X0207283Y0252834D01*
X0207135Y0252983D01*
X0196800Y0263219D02*
X0196800Y0267084D01*
X0199300Y0269584D01*
X0199300Y0300384D01*
X0189250Y0300384D01*
X0175900Y0313734D01*
X0174000Y0313734D01*
X0152950Y0296734D01*
X0117950Y0296734D01*
X0108350Y0307684D01*
X0108350Y0340384D01*
X0142400Y0366334D01*
X0219300Y0366334D01*
X0239300Y0361884D02*
X0144300Y0361884D01*
X0112000Y0339034D01*
X0112000Y0309034D01*
X0119300Y0300384D01*
X0146950Y0300384D01*
X0160300Y0313734D01*
X0144700Y0313734D02*
X0144050Y0313734D01*
X0134350Y0304034D01*
X0124300Y0304034D01*
X0118350Y0308634D01*
X0116450Y0309984D01*
X0116450Y0337134D01*
X0147000Y0358234D01*
X0255500Y0358234D01*
X0269300Y0354584D02*
X0147950Y0354584D01*
X0120250Y0334984D01*
X0120626Y0320419D01*
X0120650Y0319484D01*
X0126400Y0313734D01*
X0129100Y0313734D01*
X0134350Y0304034D02*
X0135000Y0304034D01*
X0129100Y0329334D02*
X0140800Y0341034D01*
X0272300Y0341034D01*
X0279300Y0334034D01*
X0279300Y0323534D01*
X0269500Y0313734D01*
X0260950Y0307034D02*
X0254250Y0313734D01*
X0253900Y0313734D01*
X0260950Y0307034D02*
X0263950Y0304034D01*
X0274300Y0304034D01*
X0282950Y0314034D01*
X0282950Y0334034D01*
X0274300Y0344034D01*
X0144300Y0344034D01*
X0164300Y0347684D02*
X0274300Y0347684D01*
X0286600Y0334034D01*
X0286600Y0314034D01*
X0274300Y0300384D01*
X0251650Y0300384D01*
X0250475Y0301559D01*
X0238300Y0313734D01*
X0222700Y0313734D02*
X0239700Y0296734D01*
X0238350Y0295384D01*
X0224300Y0295384D01*
X0224300Y0265384D01*
X0219300Y0265384D02*
X0219300Y0301534D01*
X0207100Y0313734D01*
X0191500Y0329334D01*
X0191500Y0313734D02*
X0209850Y0295384D01*
X0214300Y0295384D01*
X0214300Y0272434D01*
X0193749Y0263219D02*
X0193749Y0286145D01*
X0193300Y0286594D01*
X0190650Y0274434D02*
X0190599Y0269085D01*
X0190599Y0263219D01*
X0187450Y0263219D02*
X0187450Y0268185D01*
X0186600Y0270384D01*
X0239700Y0296734D02*
X0274300Y0296734D01*
X0290250Y0314034D01*
X0290250Y0334034D01*
X0275650Y0351334D01*
X0180650Y0351334D01*
X0263600Y0304034D02*
X0263950Y0304034D01*
X0293450Y0200584D02*
X0293250Y0200384D01*
X0293450Y0200584D02*
X0293660Y0200584D01*
D37*
X0312150Y0185334D03*
X0164300Y0260384D03*
D38*
X0204517Y0259947D02*
X0217842Y0259947D01*
X0218279Y0260384D01*
X0234644Y0260384D01*
X0234300Y0260729D01*
X0234300Y0269786D01*
X0237398Y0277884D02*
X0253050Y0277884D01*
X0256713Y0277884D01*
X0259213Y0275384D01*
X0259213Y0271597D01*
X0257900Y0270284D01*
X0259213Y0275384D02*
X0259213Y0282584D01*
X0259213Y0290934D01*
X0267087Y0290934D02*
X0267087Y0282584D01*
X0266900Y0282397D01*
X0266900Y0270284D01*
X0266800Y0270184D01*
X0266800Y0260384D01*
X0246456Y0260384D01*
X0237398Y0277884D02*
X0234300Y0280983D01*
X0275900Y0271570D02*
X0275900Y0270284D01*
X0275900Y0271570D02*
X0275902Y0271630D01*
X0275907Y0271691D01*
X0275916Y0271750D01*
X0275929Y0271809D01*
X0275945Y0271868D01*
X0275965Y0271925D01*
X0275988Y0271980D01*
X0276015Y0272035D01*
X0276044Y0272087D01*
X0276077Y0272138D01*
X0276113Y0272187D01*
X0276151Y0272233D01*
X0276193Y0272277D01*
X0279300Y0275384D01*
X0284300Y0275384D01*
X0284300Y0258071D01*
X0284900Y0257471D01*
X0284900Y0249597D02*
X0284900Y0235984D01*
X0284300Y0235384D01*
X0289300Y0230384D01*
X0324300Y0230384D01*
X0328985Y0235069D01*
X0328985Y0245384D01*
X0305363Y0245384D02*
X0300363Y0250384D01*
X0299300Y0250384D01*
X0299300Y0270384D01*
X0294300Y0275384D01*
X0284300Y0275384D01*
D39*
X0253050Y0277884D03*
X0204300Y0215384D03*
D40*
X0164300Y0205384D03*
X0175655Y0256804D03*
X0209300Y0275384D03*
X0064300Y0125384D03*
D41*
X0078050Y0230384D03*
X0142660Y0251245D03*
X0146800Y0255384D03*
X0154300Y0246931D03*
X0181200Y0212334D03*
X0196898Y0212334D03*
X0211830Y0243069D03*
X0218600Y0251084D03*
X0219300Y0265384D03*
X0224300Y0265384D03*
X0194400Y0253534D03*
D42*
X0104300Y0190384D03*
M02*
