G75*
%MOIN*%
%OFA0B0*%
%FSLAX25Y25*%
%IPPOS*%
%LPD*%
%AMOC8*
5,1,8,0,0,1.08239X$1,22.5*
%
%ADD10OC8,0.04800*%
%ADD11C,0.04724*%
%ADD12R,0.20000X0.10000*%
%ADD13C,0.11700*%
%ADD14C,0.07400*%
%ADD15R,0.05315X0.05315*%
%ADD16C,0.05315*%
%ADD17OC8,0.18173*%
%ADD18OC8,0.16598*%
%ADD19R,0.05118X0.05906*%
%ADD20R,0.04724X0.05512*%
%ADD21R,0.05906X0.05118*%
%ADD22C,0.01600*%
%ADD23C,0.02578*%
%ADD24C,0.10000*%
%ADD25C,0.03562*%
%ADD26C,0.04429*%
%ADD27C,0.02972*%
%ADD28C,0.01000*%
%ADD29C,0.02400*%
%ADD30C,0.03365*%
%ADD31C,0.05000*%
D10*
X0061900Y0100784D03*
X0071900Y0100784D03*
X0088850Y0258934D03*
X0088850Y0288934D03*
X0124300Y0290384D03*
X0124300Y0260384D03*
D11*
X0185100Y0279184D03*
X0185100Y0286684D03*
X0185100Y0294184D03*
D12*
X0064300Y0280384D03*
X0064300Y0268084D03*
X0064300Y0255384D03*
X0064300Y0237884D03*
X0064300Y0225384D03*
X0339300Y0285384D03*
X0339300Y0297884D03*
D13*
X0269500Y0313734D03*
X0253900Y0313734D03*
X0238300Y0313734D03*
X0238300Y0329334D03*
X0253900Y0329334D03*
X0269500Y0329334D03*
X0222700Y0329334D03*
X0222700Y0313734D03*
X0207100Y0313734D03*
X0191500Y0313734D03*
X0175900Y0313734D03*
X0175900Y0329334D03*
X0191500Y0329334D03*
X0207100Y0329334D03*
X0160300Y0329334D03*
X0160300Y0313734D03*
X0144700Y0313734D03*
X0129100Y0313734D03*
X0129100Y0329334D03*
X0144700Y0329334D03*
D14*
X0144300Y0270384D03*
X0134300Y0270384D03*
X0109300Y0270384D03*
X0099300Y0270384D03*
D15*
X0127550Y0165934D03*
X0177550Y0165934D03*
X0227550Y0165934D03*
X0277550Y0165934D03*
X0277550Y0025934D03*
X0227550Y0025934D03*
X0177550Y0025934D03*
X0127550Y0025934D03*
D16*
X0127550Y0015934D03*
X0137550Y0015934D03*
X0137550Y0025934D03*
X0147550Y0025934D03*
X0147550Y0015934D03*
X0157550Y0015934D03*
X0167550Y0015934D03*
X0167550Y0025934D03*
X0157550Y0025934D03*
X0177550Y0015934D03*
X0187550Y0015934D03*
X0187550Y0025934D03*
X0197550Y0025934D03*
X0197550Y0015934D03*
X0207550Y0015934D03*
X0207550Y0025934D03*
X0217550Y0025934D03*
X0217550Y0015934D03*
X0227550Y0015934D03*
X0237550Y0015934D03*
X0247550Y0015934D03*
X0247550Y0025934D03*
X0237550Y0025934D03*
X0257550Y0025934D03*
X0257550Y0015934D03*
X0267550Y0015934D03*
X0277550Y0015934D03*
X0267550Y0025934D03*
X0287550Y0025934D03*
X0287550Y0015934D03*
X0297550Y0015934D03*
X0297550Y0025934D03*
X0307550Y0025934D03*
X0307550Y0015934D03*
X0317550Y0015934D03*
X0317550Y0025934D03*
X0317550Y0155934D03*
X0307550Y0155934D03*
X0297550Y0155934D03*
X0287550Y0155934D03*
X0277550Y0155934D03*
X0267550Y0155934D03*
X0257550Y0155934D03*
X0247550Y0155934D03*
X0237550Y0155934D03*
X0227550Y0155934D03*
X0217550Y0155934D03*
X0207550Y0155934D03*
X0197550Y0155934D03*
X0187550Y0155934D03*
X0177550Y0155934D03*
X0167550Y0155934D03*
X0157550Y0155934D03*
X0147550Y0155934D03*
X0137550Y0155934D03*
X0127550Y0155934D03*
X0137550Y0165934D03*
X0147550Y0165934D03*
X0157550Y0165934D03*
X0167550Y0165934D03*
X0187550Y0165934D03*
X0197550Y0165934D03*
X0207550Y0165934D03*
X0217550Y0165934D03*
X0237550Y0165934D03*
X0247550Y0165934D03*
X0257550Y0165934D03*
X0267550Y0165934D03*
X0287550Y0165934D03*
X0297550Y0165934D03*
X0307550Y0165934D03*
X0317550Y0165934D03*
D17*
X0305363Y0245384D03*
D18*
X0317174Y0263888D03*
X0328985Y0245384D03*
D19*
X0153040Y0140384D03*
X0145560Y0140384D03*
D20*
X0178394Y0140384D03*
X0190206Y0140384D03*
X0130206Y0190384D03*
X0118394Y0190384D03*
D21*
X0089300Y0219144D03*
X0089300Y0226625D03*
X0089300Y0236644D03*
X0089300Y0244125D03*
D22*
X0056900Y0218600D02*
X0056900Y0021461D01*
X0065377Y0012984D01*
X0124218Y0012984D01*
X0123784Y0013418D01*
X0123108Y0015051D01*
X0123108Y0016818D01*
X0123784Y0018450D01*
X0125034Y0019700D01*
X0126666Y0020376D01*
X0128434Y0020376D01*
X0130066Y0019700D01*
X0131316Y0018450D01*
X0131992Y0016818D01*
X0131992Y0015051D01*
X0131316Y0013418D01*
X0130882Y0012984D01*
X0134218Y0012984D01*
X0133784Y0013418D01*
X0133108Y0015051D01*
X0133108Y0016818D01*
X0133784Y0018450D01*
X0135034Y0019700D01*
X0136666Y0020376D01*
X0138434Y0020376D01*
X0140066Y0019700D01*
X0141316Y0018450D01*
X0141992Y0016818D01*
X0141992Y0015051D01*
X0141316Y0013418D01*
X0140882Y0012984D01*
X0144218Y0012984D01*
X0143784Y0013418D01*
X0143108Y0015051D01*
X0143108Y0016818D01*
X0143784Y0018450D01*
X0145034Y0019700D01*
X0146666Y0020376D01*
X0148434Y0020376D01*
X0150066Y0019700D01*
X0151316Y0018450D01*
X0151992Y0016818D01*
X0151992Y0015051D01*
X0151316Y0013418D01*
X0150882Y0012984D01*
X0154218Y0012984D01*
X0153784Y0013418D01*
X0153108Y0015051D01*
X0153108Y0016818D01*
X0153784Y0018450D01*
X0155034Y0019700D01*
X0156666Y0020376D01*
X0158434Y0020376D01*
X0160066Y0019700D01*
X0161316Y0018450D01*
X0161992Y0016818D01*
X0161992Y0015051D01*
X0161316Y0013418D01*
X0160882Y0012984D01*
X0164218Y0012984D01*
X0163784Y0013418D01*
X0163108Y0015051D01*
X0163108Y0016818D01*
X0163784Y0018450D01*
X0165034Y0019700D01*
X0166666Y0020376D01*
X0168434Y0020376D01*
X0170066Y0019700D01*
X0171316Y0018450D01*
X0171992Y0016818D01*
X0171992Y0015051D01*
X0171316Y0013418D01*
X0170882Y0012984D01*
X0174218Y0012984D01*
X0173784Y0013418D01*
X0173108Y0015051D01*
X0173108Y0016818D01*
X0173784Y0018450D01*
X0175034Y0019700D01*
X0176666Y0020376D01*
X0178434Y0020376D01*
X0180066Y0019700D01*
X0181316Y0018450D01*
X0181992Y0016818D01*
X0181992Y0015051D01*
X0181316Y0013418D01*
X0180882Y0012984D01*
X0184218Y0012984D01*
X0183784Y0013418D01*
X0183108Y0015051D01*
X0183108Y0016818D01*
X0183784Y0018450D01*
X0185034Y0019700D01*
X0186666Y0020376D01*
X0188434Y0020376D01*
X0190066Y0019700D01*
X0191316Y0018450D01*
X0191992Y0016818D01*
X0191992Y0015051D01*
X0191316Y0013418D01*
X0190882Y0012984D01*
X0194218Y0012984D01*
X0193784Y0013418D01*
X0193108Y0015051D01*
X0193108Y0016818D01*
X0193784Y0018450D01*
X0195034Y0019700D01*
X0196666Y0020376D01*
X0198434Y0020376D01*
X0200066Y0019700D01*
X0201316Y0018450D01*
X0201992Y0016818D01*
X0201992Y0015051D01*
X0201316Y0013418D01*
X0200882Y0012984D01*
X0204218Y0012984D01*
X0203784Y0013418D01*
X0203108Y0015051D01*
X0203108Y0016818D01*
X0203784Y0018450D01*
X0205034Y0019700D01*
X0206666Y0020376D01*
X0208434Y0020376D01*
X0210066Y0019700D01*
X0211316Y0018450D01*
X0211992Y0016818D01*
X0211992Y0015051D01*
X0211316Y0013418D01*
X0210882Y0012984D01*
X0214218Y0012984D01*
X0213784Y0013418D01*
X0213108Y0015051D01*
X0213108Y0016818D01*
X0213784Y0018450D01*
X0215034Y0019700D01*
X0216666Y0020376D01*
X0218434Y0020376D01*
X0220066Y0019700D01*
X0221316Y0018450D01*
X0221992Y0016818D01*
X0221992Y0015051D01*
X0221316Y0013418D01*
X0220882Y0012984D01*
X0224196Y0012984D01*
X0224150Y0013031D01*
X0223738Y0013598D01*
X0223419Y0014223D01*
X0223202Y0014891D01*
X0223093Y0015584D01*
X0223093Y0015849D01*
X0227464Y0015849D01*
X0227464Y0016020D01*
X0223093Y0016020D01*
X0223093Y0016285D01*
X0223202Y0016978D01*
X0223419Y0017645D01*
X0223738Y0018271D01*
X0224150Y0018838D01*
X0224646Y0019334D01*
X0225214Y0019747D01*
X0225839Y0020065D01*
X0226506Y0020282D01*
X0227199Y0020392D01*
X0227464Y0020392D01*
X0227464Y0016020D01*
X0227636Y0016020D01*
X0232007Y0016020D01*
X0232007Y0016285D01*
X0231898Y0016978D01*
X0231681Y0017645D01*
X0231362Y0018271D01*
X0230950Y0018838D01*
X0230454Y0019334D01*
X0229886Y0019747D01*
X0229261Y0020065D01*
X0228594Y0020282D01*
X0227901Y0020392D01*
X0227636Y0020392D01*
X0227636Y0016020D01*
X0227636Y0015849D01*
X0232007Y0015849D01*
X0232007Y0015584D01*
X0231898Y0014891D01*
X0231681Y0014223D01*
X0231362Y0013598D01*
X0230950Y0013031D01*
X0230904Y0012984D01*
X0234218Y0012984D01*
X0233784Y0013418D01*
X0233108Y0015051D01*
X0233108Y0016818D01*
X0233784Y0018450D01*
X0235034Y0019700D01*
X0236666Y0020376D01*
X0238434Y0020376D01*
X0240066Y0019700D01*
X0241316Y0018450D01*
X0241992Y0016818D01*
X0241992Y0015051D01*
X0241316Y0013418D01*
X0240882Y0012984D01*
X0244218Y0012984D01*
X0243784Y0013418D01*
X0243108Y0015051D01*
X0243108Y0016818D01*
X0243784Y0018450D01*
X0245034Y0019700D01*
X0246666Y0020376D01*
X0248434Y0020376D01*
X0250066Y0019700D01*
X0251316Y0018450D01*
X0251992Y0016818D01*
X0251992Y0015051D01*
X0251316Y0013418D01*
X0250882Y0012984D01*
X0254218Y0012984D01*
X0253784Y0013418D01*
X0253108Y0015051D01*
X0253108Y0016818D01*
X0253784Y0018450D01*
X0255034Y0019700D01*
X0256666Y0020376D01*
X0258434Y0020376D01*
X0260066Y0019700D01*
X0261316Y0018450D01*
X0261992Y0016818D01*
X0261992Y0015051D01*
X0261316Y0013418D01*
X0260882Y0012984D01*
X0264218Y0012984D01*
X0263784Y0013418D01*
X0263108Y0015051D01*
X0263108Y0016818D01*
X0263784Y0018450D01*
X0265034Y0019700D01*
X0266666Y0020376D01*
X0268434Y0020376D01*
X0270066Y0019700D01*
X0271316Y0018450D01*
X0271992Y0016818D01*
X0271992Y0015051D01*
X0271316Y0013418D01*
X0270882Y0012984D01*
X0274218Y0012984D01*
X0273784Y0013418D01*
X0273108Y0015051D01*
X0273108Y0016818D01*
X0273784Y0018450D01*
X0275034Y0019700D01*
X0276666Y0020376D01*
X0278434Y0020376D01*
X0280066Y0019700D01*
X0281316Y0018450D01*
X0281992Y0016818D01*
X0281992Y0015051D01*
X0281316Y0013418D01*
X0280882Y0012984D01*
X0284218Y0012984D01*
X0283784Y0013418D01*
X0283108Y0015051D01*
X0283108Y0016818D01*
X0283784Y0018450D01*
X0285034Y0019700D01*
X0286666Y0020376D01*
X0288434Y0020376D01*
X0290066Y0019700D01*
X0291316Y0018450D01*
X0291992Y0016818D01*
X0291992Y0015051D01*
X0291316Y0013418D01*
X0290882Y0012984D01*
X0294218Y0012984D01*
X0293784Y0013418D01*
X0293108Y0015051D01*
X0293108Y0016818D01*
X0293784Y0018450D01*
X0295034Y0019700D01*
X0296666Y0020376D01*
X0298434Y0020376D01*
X0300066Y0019700D01*
X0301316Y0018450D01*
X0301992Y0016818D01*
X0301992Y0015051D01*
X0301316Y0013418D01*
X0300882Y0012984D01*
X0304218Y0012984D01*
X0303784Y0013418D01*
X0303108Y0015051D01*
X0303108Y0016818D01*
X0303784Y0018450D01*
X0305034Y0019700D01*
X0306666Y0020376D01*
X0308434Y0020376D01*
X0310066Y0019700D01*
X0311316Y0018450D01*
X0311992Y0016818D01*
X0311992Y0015051D01*
X0311316Y0013418D01*
X0310882Y0012984D01*
X0314196Y0012984D01*
X0314150Y0013031D01*
X0313738Y0013598D01*
X0313419Y0014223D01*
X0313202Y0014891D01*
X0313093Y0015584D01*
X0313093Y0015849D01*
X0317464Y0015849D01*
X0317464Y0016020D01*
X0313093Y0016020D01*
X0313093Y0016285D01*
X0313202Y0016978D01*
X0313419Y0017645D01*
X0313738Y0018271D01*
X0314150Y0018838D01*
X0314646Y0019334D01*
X0315214Y0019747D01*
X0315839Y0020065D01*
X0316506Y0020282D01*
X0317199Y0020392D01*
X0317464Y0020392D01*
X0317464Y0016020D01*
X0317636Y0016020D01*
X0322007Y0016020D01*
X0322007Y0016285D01*
X0321898Y0016978D01*
X0321681Y0017645D01*
X0321362Y0018271D01*
X0320950Y0018838D01*
X0320454Y0019334D01*
X0319886Y0019747D01*
X0319261Y0020065D01*
X0318594Y0020282D01*
X0317901Y0020392D01*
X0317636Y0020392D01*
X0317636Y0016020D01*
X0317636Y0015849D01*
X0322007Y0015849D01*
X0322007Y0015584D01*
X0321898Y0014891D01*
X0321681Y0014223D01*
X0321362Y0013598D01*
X0320950Y0013031D01*
X0320904Y0012984D01*
X0338223Y0012984D01*
X0346700Y0021461D01*
X0346700Y0278600D01*
X0306084Y0278600D01*
X0306084Y0256255D01*
X0309866Y0256255D01*
X0316234Y0249887D01*
X0316234Y0240882D01*
X0309866Y0234514D01*
X0300860Y0234514D01*
X0294492Y0240882D01*
X0294492Y0246661D01*
X0293549Y0247604D01*
X0292516Y0250098D01*
X0292516Y0286734D01*
X0293549Y0289227D01*
X0295457Y0291136D01*
X0297951Y0292169D01*
X0327635Y0292169D01*
X0327623Y0292190D01*
X0327500Y0292647D01*
X0327500Y0297084D01*
X0338500Y0297084D01*
X0338500Y0298684D01*
X0327500Y0298684D01*
X0327500Y0303121D01*
X0327623Y0303579D01*
X0327860Y0303990D01*
X0328195Y0304325D01*
X0328605Y0304562D01*
X0329063Y0304684D01*
X0338500Y0304684D01*
X0338500Y0298684D01*
X0340100Y0298684D01*
X0340100Y0304684D01*
X0346700Y0304684D01*
X0346700Y0358993D01*
X0333513Y0367784D01*
X0222026Y0367784D01*
X0222373Y0366946D01*
X0222373Y0365723D01*
X0221905Y0364594D01*
X0221584Y0364272D01*
X0221584Y0336969D01*
X0224219Y0336969D01*
X0227024Y0335806D01*
X0229172Y0333659D01*
X0230334Y0330853D01*
X0230334Y0327816D01*
X0229172Y0325010D01*
X0227024Y0322862D01*
X0224219Y0321700D01*
X0221181Y0321700D01*
X0218376Y0322862D01*
X0216228Y0325010D01*
X0215066Y0327816D01*
X0215066Y0330853D01*
X0216228Y0333659D01*
X0217016Y0334447D01*
X0217016Y0364272D01*
X0216695Y0364594D01*
X0216227Y0365723D01*
X0216227Y0366946D01*
X0216574Y0367784D01*
X0065377Y0367784D01*
X0056900Y0359307D01*
X0056900Y0287169D01*
X0075039Y0287169D01*
X0076084Y0286123D01*
X0076084Y0279578D01*
X0087235Y0278730D01*
X0087296Y0278746D01*
X0087745Y0278691D01*
X0088197Y0278656D01*
X0088253Y0278628D01*
X0088316Y0278620D01*
X0088710Y0278396D01*
X0089114Y0278192D01*
X0089155Y0278144D01*
X0089210Y0278112D01*
X0089489Y0277755D01*
X0089783Y0277412D01*
X0089803Y0277352D01*
X0094012Y0271950D01*
X0094651Y0273491D01*
X0096193Y0275034D01*
X0098209Y0275869D01*
X0100391Y0275869D01*
X0102407Y0275034D01*
X0103949Y0273491D01*
X0104300Y0272644D01*
X0104651Y0273491D01*
X0106193Y0275034D01*
X0108209Y0275869D01*
X0110391Y0275869D01*
X0112407Y0275034D01*
X0113949Y0273491D01*
X0114784Y0271475D01*
X0114784Y0269293D01*
X0113949Y0267278D01*
X0112407Y0265735D01*
X0110391Y0264900D01*
X0108209Y0264900D01*
X0106193Y0265735D01*
X0104651Y0267278D01*
X0104300Y0268124D01*
X0103949Y0267278D01*
X0102407Y0265735D01*
X0100391Y0264900D01*
X0099506Y0264900D01*
X0102475Y0261090D01*
X0107533Y0257969D01*
X0120776Y0257969D01*
X0120100Y0258645D01*
X0120100Y0260384D01*
X0124300Y0260384D01*
X0124300Y0260384D01*
X0124300Y0260384D01*
X0128500Y0260384D01*
X0128500Y0258645D01*
X0127824Y0257969D01*
X0145241Y0257969D01*
X0146206Y0258369D01*
X0147394Y0258369D01*
X0148490Y0257914D01*
X0149330Y0257075D01*
X0149784Y0255978D01*
X0149784Y0254791D01*
X0149330Y0253694D01*
X0148490Y0252854D01*
X0147394Y0252400D01*
X0146206Y0252400D01*
X0145247Y0252797D01*
X0145644Y0251838D01*
X0145644Y0250651D01*
X0145190Y0249554D01*
X0144351Y0248715D01*
X0143254Y0248260D01*
X0142067Y0248260D01*
X0140970Y0248715D01*
X0140634Y0249050D01*
X0106877Y0249050D01*
X0106442Y0249024D01*
X0106366Y0249050D01*
X0106286Y0249050D01*
X0105882Y0249217D01*
X0098987Y0251601D01*
X0098754Y0251628D01*
X0098506Y0251767D01*
X0098237Y0251860D01*
X0098062Y0252016D01*
X0097856Y0252131D01*
X0097681Y0252354D01*
X0097468Y0252542D01*
X0097365Y0252753D01*
X0093050Y0258226D01*
X0093050Y0257195D01*
X0090590Y0254734D01*
X0088850Y0254734D01*
X0088850Y0258934D01*
X0088850Y0254734D01*
X0087110Y0254734D01*
X0084650Y0257195D01*
X0084650Y0258934D01*
X0088850Y0258934D01*
X0088850Y0258934D01*
X0088850Y0258934D01*
X0067850Y0258934D01*
X0064300Y0255384D01*
X0065100Y0256146D02*
X0085698Y0256146D01*
X0084650Y0257745D02*
X0076100Y0257745D01*
X0076100Y0256184D02*
X0076100Y0260621D01*
X0075977Y0261079D01*
X0075740Y0261490D01*
X0075484Y0261746D01*
X0076084Y0262345D01*
X0076084Y0269284D01*
X0084330Y0269284D01*
X0089180Y0263134D01*
X0088850Y0263134D01*
X0087110Y0263134D01*
X0084650Y0260674D01*
X0084650Y0258934D01*
X0088850Y0258934D01*
X0088850Y0263134D01*
X0088850Y0258934D01*
X0088850Y0258934D01*
X0088850Y0259343D02*
X0088850Y0259343D01*
X0088850Y0257745D02*
X0088850Y0257745D01*
X0088850Y0256146D02*
X0088850Y0256146D01*
X0092002Y0256146D02*
X0094690Y0256146D01*
X0095950Y0254548D02*
X0076100Y0254548D01*
X0076100Y0254584D02*
X0065100Y0254584D01*
X0065100Y0248584D01*
X0074537Y0248584D01*
X0074995Y0248707D01*
X0075405Y0248944D01*
X0075740Y0249279D01*
X0075977Y0249690D01*
X0076100Y0250147D01*
X0076100Y0254584D01*
X0076100Y0256184D02*
X0065100Y0256184D01*
X0065100Y0254584D01*
X0063500Y0254584D01*
X0063500Y0248584D01*
X0056900Y0248584D01*
X0056900Y0244669D01*
X0075039Y0244669D01*
X0076084Y0243623D01*
X0076084Y0240823D01*
X0080859Y0245598D01*
X0081586Y0246325D01*
X0082536Y0246719D01*
X0084563Y0246719D01*
X0084563Y0247423D01*
X0085608Y0248468D01*
X0092992Y0248468D01*
X0094037Y0247423D01*
X0094037Y0246709D01*
X0148909Y0246709D01*
X0150195Y0247995D01*
X0150922Y0248722D01*
X0151872Y0249115D01*
X0152264Y0249115D01*
X0152610Y0249461D01*
X0153706Y0249915D01*
X0154894Y0249915D01*
X0155990Y0249461D01*
X0156830Y0248621D01*
X0157284Y0247524D01*
X0157284Y0246337D01*
X0156830Y0245240D01*
X0156447Y0244857D01*
X0156773Y0244069D01*
X0156773Y0242846D01*
X0156305Y0241717D01*
X0155441Y0240852D01*
X0154311Y0240384D01*
X0154308Y0240384D01*
X0153950Y0240236D01*
X0153401Y0240236D01*
X0151358Y0238194D01*
X0150408Y0237800D01*
X0096884Y0237800D01*
X0096884Y0219870D01*
X0096491Y0218921D01*
X0095764Y0218194D01*
X0094524Y0216953D01*
X0094037Y0216752D01*
X0094037Y0215846D01*
X0092992Y0214801D01*
X0085608Y0214801D01*
X0084563Y0215846D01*
X0084563Y0216550D01*
X0082536Y0216550D01*
X0081586Y0216944D01*
X0080859Y0217671D01*
X0076084Y0222445D01*
X0076084Y0219645D01*
X0075039Y0218600D01*
X0056900Y0218600D01*
X0056900Y0217782D02*
X0080748Y0217782D01*
X0079149Y0219380D02*
X0075819Y0219380D01*
X0076084Y0220979D02*
X0077551Y0220979D01*
X0076800Y0225384D02*
X0083050Y0219134D01*
X0089290Y0219134D01*
X0089300Y0219144D01*
X0093060Y0219144D01*
X0094300Y0220384D01*
X0094300Y0240384D01*
X0149894Y0240384D01*
X0152967Y0243458D01*
X0153700Y0243458D01*
X0153700Y0243084D02*
X0153436Y0242820D01*
X0153436Y0242821D02*
X0153476Y0242864D01*
X0153514Y0242910D01*
X0153548Y0242957D01*
X0153579Y0243007D01*
X0153607Y0243059D01*
X0153631Y0243113D01*
X0153652Y0243168D01*
X0153669Y0243225D01*
X0153683Y0243282D01*
X0153692Y0243340D01*
X0153698Y0243399D01*
X0153700Y0243458D01*
X0156773Y0243358D02*
X0167016Y0243358D01*
X0167016Y0241760D02*
X0156323Y0241760D01*
X0156546Y0244957D02*
X0167016Y0244957D01*
X0167016Y0246555D02*
X0157284Y0246555D01*
X0157024Y0248154D02*
X0167016Y0248154D01*
X0167016Y0249752D02*
X0155287Y0249752D01*
X0153313Y0249752D02*
X0145272Y0249752D01*
X0145644Y0251351D02*
X0167016Y0251351D01*
X0167016Y0252949D02*
X0148585Y0252949D01*
X0149684Y0254548D02*
X0167016Y0254548D01*
X0167016Y0256146D02*
X0149715Y0256146D01*
X0148660Y0257745D02*
X0167016Y0257745D01*
X0166227Y0258458D02*
X0166227Y0224111D01*
X0168027Y0222311D01*
X0170573Y0222311D01*
X0172373Y0224111D01*
X0172373Y0259363D01*
X0178362Y0265352D01*
X0193164Y0250550D01*
X0195636Y0250550D01*
X0197384Y0252298D01*
X0197384Y0294755D01*
X0193808Y0298331D01*
X0183382Y0298331D01*
X0179300Y0294248D01*
X0179300Y0284984D01*
X0185100Y0279184D01*
X0185100Y0279184D01*
X0189262Y0279184D01*
X0189262Y0278857D01*
X0189160Y0278210D01*
X0188957Y0277587D01*
X0188660Y0277003D01*
X0188453Y0276719D01*
X0188588Y0276719D01*
X0188909Y0277040D01*
X0190039Y0277508D01*
X0191261Y0277508D01*
X0191716Y0277319D01*
X0191716Y0291600D01*
X0188380Y0291600D01*
X0187449Y0290669D01*
X0186882Y0290434D01*
X0187449Y0290200D01*
X0188615Y0289033D01*
X0189246Y0287509D01*
X0189246Y0285860D01*
X0188615Y0284336D01*
X0187449Y0283169D01*
X0186896Y0282940D01*
X0187281Y0282744D01*
X0187811Y0282359D01*
X0188275Y0281896D01*
X0188660Y0281366D01*
X0188957Y0280782D01*
X0189160Y0280159D01*
X0189262Y0279512D01*
X0189262Y0279184D01*
X0185100Y0279184D01*
X0189210Y0278525D02*
X0191716Y0278525D01*
X0191716Y0280124D02*
X0189165Y0280124D01*
X0188401Y0281722D02*
X0191716Y0281722D01*
X0191716Y0283321D02*
X0187600Y0283321D01*
X0188857Y0284919D02*
X0191716Y0284919D01*
X0191716Y0286518D02*
X0189246Y0286518D01*
X0188995Y0288116D02*
X0191716Y0288116D01*
X0191716Y0289715D02*
X0187933Y0289715D01*
X0188093Y0291313D02*
X0191716Y0291313D01*
X0194300Y0294184D02*
X0194300Y0255384D01*
X0194400Y0255384D01*
X0194400Y0253534D01*
X0196437Y0251351D02*
X0210777Y0251351D01*
X0210995Y0251875D02*
X0210527Y0250746D01*
X0210527Y0249523D01*
X0210995Y0248394D01*
X0211859Y0247529D01*
X0212989Y0247061D01*
X0214211Y0247061D01*
X0215341Y0247529D01*
X0216205Y0248394D01*
X0216459Y0249005D01*
X0216900Y0248564D01*
X0216195Y0247860D01*
X0213078Y0245782D01*
X0212423Y0246053D01*
X0211236Y0246053D01*
X0210139Y0245599D01*
X0209300Y0244759D01*
X0208845Y0243662D01*
X0208845Y0242475D01*
X0209300Y0241378D01*
X0210139Y0240539D01*
X0211236Y0240084D01*
X0212423Y0240084D01*
X0213520Y0240539D01*
X0213766Y0240784D01*
X0214230Y0240784D01*
X0215055Y0241609D01*
X0218342Y0243800D01*
X0218596Y0243800D01*
X0219105Y0244309D01*
X0219704Y0244709D01*
X0219754Y0244958D01*
X0221534Y0246738D01*
X0221227Y0245996D01*
X0221227Y0244773D01*
X0221695Y0243644D01*
X0221832Y0243506D01*
X0221309Y0243290D01*
X0220445Y0242425D01*
X0219977Y0241296D01*
X0219977Y0240073D01*
X0220445Y0238944D01*
X0221309Y0238079D01*
X0222439Y0237611D01*
X0223661Y0237611D01*
X0224791Y0238079D01*
X0225655Y0238944D01*
X0225989Y0239750D01*
X0227345Y0239750D01*
X0227850Y0239681D01*
X0227802Y0239312D01*
X0227681Y0239192D01*
X0227681Y0239096D01*
X0226943Y0238358D01*
X0226489Y0238358D01*
X0225359Y0237890D01*
X0224495Y0237025D01*
X0224027Y0235896D01*
X0224027Y0234673D01*
X0224495Y0233544D01*
X0225359Y0232679D01*
X0226489Y0232211D01*
X0227711Y0232211D01*
X0228841Y0232679D01*
X0229705Y0233544D01*
X0230173Y0234673D01*
X0230173Y0235127D01*
X0231891Y0236845D01*
X0232108Y0237012D01*
X0232115Y0237069D01*
X0232250Y0237204D01*
X0232250Y0238097D01*
X0235039Y0259416D01*
X0236074Y0263970D01*
X0236143Y0264019D01*
X0236282Y0264881D01*
X0236475Y0265733D01*
X0236431Y0265804D01*
X0237237Y0270803D01*
X0238601Y0275955D01*
X0268534Y0305888D01*
X0268534Y0306100D01*
X0271019Y0306100D01*
X0273824Y0307262D01*
X0275972Y0309410D01*
X0277134Y0312216D01*
X0277134Y0315253D01*
X0275972Y0318059D01*
X0273824Y0320206D01*
X0271019Y0321369D01*
X0267981Y0321369D01*
X0265176Y0320206D01*
X0263028Y0318059D01*
X0261866Y0315253D01*
X0261866Y0312216D01*
X0263028Y0309410D01*
X0263966Y0308472D01*
X0263966Y0307784D01*
X0263555Y0308775D01*
X0262691Y0309640D01*
X0261561Y0310108D01*
X0260661Y0310108D01*
X0261534Y0312216D01*
X0261534Y0315253D01*
X0260372Y0318059D01*
X0258224Y0320206D01*
X0255419Y0321369D01*
X0252381Y0321369D01*
X0249576Y0320206D01*
X0247428Y0318059D01*
X0246266Y0315253D01*
X0246266Y0312216D01*
X0247428Y0309410D01*
X0249576Y0307262D01*
X0252381Y0306100D01*
X0255419Y0306100D01*
X0257752Y0307067D01*
X0253345Y0302660D01*
X0253080Y0303300D01*
X0252216Y0304165D01*
X0251086Y0304633D01*
X0249864Y0304633D01*
X0248734Y0304165D01*
X0247870Y0303300D01*
X0247402Y0302171D01*
X0247402Y0301717D01*
X0227800Y0282114D01*
X0227173Y0281644D01*
X0227146Y0281461D01*
X0227016Y0281331D01*
X0227016Y0280547D01*
X0225255Y0268219D01*
X0224894Y0268369D01*
X0223706Y0268369D01*
X0222610Y0267914D01*
X0221800Y0267105D01*
X0220990Y0267914D01*
X0219894Y0268369D01*
X0218706Y0268369D01*
X0217610Y0267914D01*
X0216770Y0267075D01*
X0216584Y0266626D01*
X0216584Y0270372D01*
X0216905Y0270694D01*
X0217373Y0271823D01*
X0217373Y0273046D01*
X0216905Y0274175D01*
X0216041Y0275040D01*
X0214911Y0275508D01*
X0213689Y0275508D01*
X0212559Y0275040D01*
X0211695Y0274175D01*
X0211227Y0273046D01*
X0211227Y0271823D01*
X0211695Y0270694D01*
X0212016Y0270372D01*
X0212016Y0252805D01*
X0211859Y0252740D01*
X0210995Y0251875D01*
X0212016Y0252949D02*
X0197384Y0252949D01*
X0197384Y0252941D02*
X0197384Y0254128D01*
X0196984Y0255094D01*
X0196984Y0255898D01*
X0196884Y0256140D01*
X0196884Y0294698D01*
X0196491Y0295648D01*
X0195764Y0296375D01*
X0194814Y0296769D01*
X0188380Y0296769D01*
X0187449Y0297700D01*
X0185925Y0298331D01*
X0184275Y0298331D01*
X0182751Y0297700D01*
X0181585Y0296533D01*
X0180954Y0295009D01*
X0180954Y0293360D01*
X0181585Y0291836D01*
X0182751Y0290669D01*
X0183318Y0290434D01*
X0182751Y0290200D01*
X0181585Y0289033D01*
X0180954Y0287509D01*
X0180954Y0285860D01*
X0181585Y0284336D01*
X0182751Y0283169D01*
X0183304Y0282940D01*
X0182919Y0282744D01*
X0182388Y0282359D01*
X0181925Y0281896D01*
X0181540Y0281366D01*
X0181243Y0280782D01*
X0181044Y0280171D01*
X0177934Y0282796D01*
X0177934Y0294613D01*
X0178021Y0295434D01*
X0177934Y0295542D01*
X0177934Y0295681D01*
X0177351Y0296264D01*
X0166749Y0309387D01*
X0166772Y0309410D01*
X0167934Y0312216D01*
X0167934Y0315253D01*
X0166772Y0318059D01*
X0164624Y0320206D01*
X0161819Y0321369D01*
X0158781Y0321369D01*
X0155976Y0320206D01*
X0153828Y0318059D01*
X0152666Y0315253D01*
X0152666Y0312216D01*
X0153828Y0309410D01*
X0155976Y0307262D01*
X0158254Y0306319D01*
X0154098Y0306319D01*
X0151258Y0309617D01*
X0152334Y0312216D01*
X0152334Y0315253D01*
X0151172Y0318059D01*
X0149024Y0320206D01*
X0146219Y0321369D01*
X0143181Y0321369D01*
X0140376Y0320206D01*
X0138228Y0318059D01*
X0137066Y0315253D01*
X0137066Y0312216D01*
X0138228Y0309410D01*
X0140376Y0307262D01*
X0143181Y0306100D01*
X0146219Y0306100D01*
X0147722Y0306723D01*
X0150766Y0303187D01*
X0150766Y0303088D01*
X0151185Y0302669D01*
X0143396Y0302669D01*
X0135889Y0310176D01*
X0136734Y0312216D01*
X0136734Y0315253D01*
X0135572Y0318059D01*
X0133424Y0320206D01*
X0130619Y0321369D01*
X0127581Y0321369D01*
X0124776Y0320206D01*
X0122628Y0318059D01*
X0121466Y0315253D01*
X0121466Y0312216D01*
X0122628Y0309410D01*
X0124776Y0307262D01*
X0127581Y0306100D01*
X0130619Y0306100D01*
X0132659Y0306945D01*
X0140166Y0299438D01*
X0141504Y0298100D01*
X0161695Y0298100D01*
X0167016Y0289720D01*
X0167016Y0227446D01*
X0166695Y0227125D01*
X0166227Y0225996D01*
X0166227Y0224773D01*
X0166695Y0223644D01*
X0167559Y0222779D01*
X0168689Y0222311D01*
X0169911Y0222311D01*
X0171041Y0222779D01*
X0171905Y0223644D01*
X0172373Y0224773D01*
X0172373Y0225996D01*
X0171905Y0227125D01*
X0171584Y0227446D01*
X0171584Y0278264D01*
X0172265Y0277757D01*
X0172964Y0277192D01*
X0173018Y0277197D01*
X0182206Y0270366D01*
X0182251Y0270205D01*
X0182948Y0269814D01*
X0183590Y0269337D01*
X0183701Y0269353D01*
X0183995Y0268644D01*
X0184859Y0267779D01*
X0185989Y0267311D01*
X0187211Y0267311D01*
X0188341Y0267779D01*
X0189205Y0268644D01*
X0189673Y0269773D01*
X0189673Y0270996D01*
X0189415Y0271620D01*
X0190039Y0271361D01*
X0191261Y0271361D01*
X0191716Y0271549D01*
X0191716Y0254870D01*
X0191720Y0254861D01*
X0191416Y0254128D01*
X0191416Y0252941D01*
X0191870Y0251844D01*
X0192710Y0251004D01*
X0193806Y0250550D01*
X0194994Y0250550D01*
X0196090Y0251004D01*
X0196930Y0251844D01*
X0197384Y0252941D01*
X0197210Y0254548D02*
X0212016Y0254548D01*
X0212016Y0256146D02*
X0196884Y0256146D01*
X0196884Y0257745D02*
X0212016Y0257745D01*
X0212016Y0259343D02*
X0196884Y0259343D01*
X0196884Y0260942D02*
X0212016Y0260942D01*
X0212016Y0262540D02*
X0196884Y0262540D01*
X0196884Y0264139D02*
X0212016Y0264139D01*
X0212016Y0265737D02*
X0196884Y0265737D01*
X0196884Y0267336D02*
X0212016Y0267336D01*
X0212016Y0268934D02*
X0196884Y0268934D01*
X0196884Y0270533D02*
X0211855Y0270533D01*
X0211227Y0272131D02*
X0196884Y0272131D01*
X0196884Y0273730D02*
X0211510Y0273730D01*
X0213256Y0275328D02*
X0196884Y0275328D01*
X0196884Y0276927D02*
X0226499Y0276927D01*
X0226727Y0278525D02*
X0196884Y0278525D01*
X0196884Y0280124D02*
X0226955Y0280124D01*
X0227277Y0281722D02*
X0196884Y0281722D01*
X0196884Y0283321D02*
X0229006Y0283321D01*
X0230605Y0284919D02*
X0196884Y0284919D01*
X0196884Y0286518D02*
X0232203Y0286518D01*
X0233802Y0288116D02*
X0196884Y0288116D01*
X0196884Y0289715D02*
X0235400Y0289715D01*
X0236999Y0291313D02*
X0196884Y0291313D01*
X0196884Y0292912D02*
X0238597Y0292912D01*
X0240196Y0294510D02*
X0196884Y0294510D01*
X0196030Y0296109D02*
X0241794Y0296109D01*
X0243393Y0297707D02*
X0187430Y0297707D01*
X0185100Y0294184D02*
X0194300Y0294184D01*
X0193019Y0306100D02*
X0195824Y0307262D01*
X0197972Y0309410D01*
X0199134Y0312216D01*
X0199134Y0315253D01*
X0198289Y0317293D01*
X0203541Y0322545D01*
X0205581Y0321700D01*
X0208619Y0321700D01*
X0211424Y0322862D01*
X0213572Y0325010D01*
X0214734Y0327816D01*
X0214734Y0330853D01*
X0213572Y0333659D01*
X0211424Y0335806D01*
X0208619Y0336969D01*
X0205581Y0336969D01*
X0202776Y0335806D01*
X0200628Y0333659D01*
X0199466Y0330853D01*
X0199466Y0327816D01*
X0200311Y0325776D01*
X0195059Y0320524D01*
X0193019Y0321369D01*
X0189981Y0321369D01*
X0187176Y0320206D01*
X0185028Y0318059D01*
X0183866Y0315253D01*
X0183866Y0312216D01*
X0185028Y0309410D01*
X0187176Y0307262D01*
X0189981Y0306100D01*
X0193019Y0306100D01*
X0195861Y0307299D02*
X0202739Y0307299D01*
X0202776Y0307262D02*
X0205581Y0306100D01*
X0208619Y0306100D01*
X0211424Y0307262D01*
X0213572Y0309410D01*
X0214734Y0312216D01*
X0214734Y0315253D01*
X0213572Y0318059D01*
X0211424Y0320206D01*
X0208619Y0321369D01*
X0205581Y0321369D01*
X0202776Y0320206D01*
X0200628Y0318059D01*
X0199466Y0315253D01*
X0199466Y0312216D01*
X0200628Y0309410D01*
X0202776Y0307262D01*
X0201141Y0308897D02*
X0197459Y0308897D01*
X0198422Y0310496D02*
X0200178Y0310496D01*
X0199516Y0312094D02*
X0199084Y0312094D01*
X0199134Y0313693D02*
X0199466Y0313693D01*
X0199482Y0315291D02*
X0199118Y0315291D01*
X0198456Y0316890D02*
X0200144Y0316890D01*
X0199484Y0318488D02*
X0201057Y0318488D01*
X0201083Y0320087D02*
X0202656Y0320087D01*
X0202681Y0321685D02*
X0296300Y0321685D01*
X0296300Y0323185D02*
X0296300Y0319883D01*
X0297564Y0316833D01*
X0299898Y0314498D01*
X0302949Y0313234D01*
X0306251Y0313234D01*
X0309302Y0314498D01*
X0311636Y0316833D01*
X0312900Y0319883D01*
X0312900Y0323185D01*
X0311636Y0326236D01*
X0309302Y0328571D01*
X0306251Y0329834D01*
X0302949Y0329834D01*
X0299898Y0328571D01*
X0297564Y0326236D01*
X0296300Y0323185D01*
X0296341Y0323284D02*
X0274246Y0323284D01*
X0273824Y0322862D02*
X0275972Y0325010D01*
X0277134Y0327816D01*
X0277134Y0330853D01*
X0275972Y0333659D01*
X0273824Y0335806D01*
X0271584Y0336734D01*
X0271584Y0352522D01*
X0271905Y0352844D01*
X0272373Y0353973D01*
X0272373Y0355196D01*
X0271905Y0356325D01*
X0271041Y0357190D01*
X0269911Y0357658D01*
X0268689Y0357658D01*
X0267559Y0357190D01*
X0266695Y0356325D01*
X0266227Y0355196D01*
X0266227Y0353973D01*
X0266695Y0352844D01*
X0267016Y0352522D01*
X0267016Y0336569D01*
X0265176Y0335806D01*
X0263028Y0333659D01*
X0261866Y0330853D01*
X0261866Y0327816D01*
X0263028Y0325010D01*
X0265176Y0322862D01*
X0267981Y0321700D01*
X0271019Y0321700D01*
X0273824Y0322862D01*
X0273944Y0320087D02*
X0296300Y0320087D01*
X0296878Y0318488D02*
X0275543Y0318488D01*
X0276456Y0316890D02*
X0297540Y0316890D01*
X0299105Y0315291D02*
X0277118Y0315291D01*
X0277134Y0313693D02*
X0301843Y0313693D01*
X0307357Y0313693D02*
X0346700Y0313693D01*
X0346700Y0315291D02*
X0310095Y0315291D01*
X0311660Y0316890D02*
X0346700Y0316890D01*
X0346700Y0318488D02*
X0312322Y0318488D01*
X0312900Y0320087D02*
X0346700Y0320087D01*
X0346700Y0321685D02*
X0312900Y0321685D01*
X0312859Y0323284D02*
X0346700Y0323284D01*
X0346700Y0324882D02*
X0312197Y0324882D01*
X0311392Y0326481D02*
X0346700Y0326481D01*
X0346700Y0328079D02*
X0309793Y0328079D01*
X0306629Y0329678D02*
X0346700Y0329678D01*
X0346700Y0331276D02*
X0276959Y0331276D01*
X0277134Y0329678D02*
X0302571Y0329678D01*
X0299407Y0328079D02*
X0277134Y0328079D01*
X0276581Y0326481D02*
X0297808Y0326481D01*
X0297003Y0324882D02*
X0275844Y0324882D01*
X0276297Y0332875D02*
X0346700Y0332875D01*
X0346700Y0334473D02*
X0275158Y0334473D01*
X0273184Y0336072D02*
X0346700Y0336072D01*
X0346700Y0337670D02*
X0271584Y0337670D01*
X0271584Y0339269D02*
X0346700Y0339269D01*
X0346700Y0340867D02*
X0271584Y0340867D01*
X0271584Y0342466D02*
X0346700Y0342466D01*
X0346700Y0344064D02*
X0271584Y0344064D01*
X0271584Y0345663D02*
X0346700Y0345663D01*
X0346700Y0347261D02*
X0271584Y0347261D01*
X0271584Y0348860D02*
X0329371Y0348860D01*
X0329712Y0348518D02*
X0332689Y0347285D01*
X0335911Y0347285D01*
X0338888Y0348518D01*
X0341166Y0350797D01*
X0342399Y0353773D01*
X0342399Y0356995D01*
X0341166Y0359972D01*
X0338888Y0362251D01*
X0335911Y0363484D01*
X0332689Y0363484D01*
X0329712Y0362251D01*
X0327434Y0359972D01*
X0326201Y0356995D01*
X0326201Y0353773D01*
X0327434Y0350797D01*
X0329712Y0348518D01*
X0327772Y0350458D02*
X0271584Y0350458D01*
X0271584Y0352057D02*
X0326912Y0352057D01*
X0326250Y0353655D02*
X0272242Y0353655D01*
X0272349Y0355254D02*
X0326201Y0355254D01*
X0326201Y0356852D02*
X0271378Y0356852D01*
X0267222Y0356852D02*
X0258254Y0356852D01*
X0258105Y0356494D02*
X0258573Y0357623D01*
X0258573Y0358846D01*
X0258105Y0359975D01*
X0257241Y0360840D01*
X0256111Y0361308D01*
X0254889Y0361308D01*
X0253759Y0360840D01*
X0252895Y0359975D01*
X0252427Y0358846D01*
X0252427Y0357623D01*
X0252895Y0356494D01*
X0253216Y0356172D01*
X0253216Y0336969D01*
X0252381Y0336969D01*
X0249576Y0335806D01*
X0247428Y0333659D01*
X0246266Y0330853D01*
X0246266Y0327816D01*
X0247428Y0325010D01*
X0249576Y0322862D01*
X0252381Y0321700D01*
X0255419Y0321700D01*
X0258224Y0322862D01*
X0260372Y0325010D01*
X0261534Y0327816D01*
X0261534Y0330853D01*
X0260372Y0333659D01*
X0258224Y0335806D01*
X0257784Y0335989D01*
X0257784Y0356172D01*
X0258105Y0356494D01*
X0257784Y0355254D02*
X0266251Y0355254D01*
X0266358Y0353655D02*
X0257784Y0353655D01*
X0257784Y0352057D02*
X0267016Y0352057D01*
X0267016Y0350458D02*
X0257784Y0350458D01*
X0257784Y0348860D02*
X0267016Y0348860D01*
X0267016Y0347261D02*
X0257784Y0347261D01*
X0257784Y0345663D02*
X0267016Y0345663D01*
X0267016Y0344064D02*
X0257784Y0344064D01*
X0257784Y0342466D02*
X0267016Y0342466D01*
X0267016Y0340867D02*
X0257784Y0340867D01*
X0257784Y0339269D02*
X0267016Y0339269D01*
X0267016Y0337670D02*
X0257784Y0337670D01*
X0257784Y0336072D02*
X0265816Y0336072D01*
X0263842Y0334473D02*
X0259558Y0334473D01*
X0260697Y0332875D02*
X0262703Y0332875D01*
X0262041Y0331276D02*
X0261359Y0331276D01*
X0261534Y0329678D02*
X0261866Y0329678D01*
X0261866Y0328079D02*
X0261534Y0328079D01*
X0260981Y0326481D02*
X0262419Y0326481D01*
X0263156Y0324882D02*
X0260244Y0324882D01*
X0258646Y0323284D02*
X0264754Y0323284D01*
X0265056Y0320087D02*
X0258344Y0320087D01*
X0259943Y0318488D02*
X0263457Y0318488D01*
X0262544Y0316890D02*
X0260856Y0316890D01*
X0261518Y0315291D02*
X0261882Y0315291D01*
X0261866Y0313693D02*
X0261534Y0313693D01*
X0261484Y0312094D02*
X0261916Y0312094D01*
X0262578Y0310496D02*
X0260822Y0310496D01*
X0263434Y0308897D02*
X0263541Y0308897D01*
X0266748Y0304102D02*
X0327972Y0304102D01*
X0327500Y0302503D02*
X0265149Y0302503D01*
X0263551Y0300905D02*
X0327500Y0300905D01*
X0327500Y0299306D02*
X0261952Y0299306D01*
X0260354Y0297707D02*
X0338500Y0297707D01*
X0338500Y0299306D02*
X0340100Y0299306D01*
X0340100Y0300905D02*
X0338500Y0300905D01*
X0338500Y0302503D02*
X0340100Y0302503D01*
X0340100Y0304102D02*
X0338500Y0304102D01*
X0346700Y0305700D02*
X0268346Y0305700D01*
X0273861Y0307299D02*
X0346700Y0307299D01*
X0346700Y0308897D02*
X0275459Y0308897D01*
X0276422Y0310496D02*
X0346700Y0310496D01*
X0346700Y0312094D02*
X0277084Y0312094D01*
X0256385Y0305700D02*
X0169727Y0305700D01*
X0168436Y0307299D02*
X0171539Y0307299D01*
X0171576Y0307262D02*
X0174381Y0306100D01*
X0177419Y0306100D01*
X0180224Y0307262D01*
X0182372Y0309410D01*
X0183534Y0312216D01*
X0183534Y0315253D01*
X0182372Y0318059D01*
X0180224Y0320206D01*
X0177419Y0321369D01*
X0174381Y0321369D01*
X0171576Y0320206D01*
X0169428Y0318059D01*
X0168266Y0315253D01*
X0168266Y0312216D01*
X0169428Y0309410D01*
X0171576Y0307262D01*
X0169941Y0308897D02*
X0167145Y0308897D01*
X0167222Y0310496D02*
X0168978Y0310496D01*
X0168316Y0312094D02*
X0167884Y0312094D01*
X0167934Y0313693D02*
X0168266Y0313693D01*
X0168282Y0315291D02*
X0167918Y0315291D01*
X0167256Y0316890D02*
X0168944Y0316890D01*
X0169857Y0318488D02*
X0166343Y0318488D01*
X0164744Y0320087D02*
X0171456Y0320087D01*
X0171576Y0322862D02*
X0174381Y0321700D01*
X0177419Y0321700D01*
X0180224Y0322862D01*
X0182372Y0325010D01*
X0183534Y0327816D01*
X0183534Y0330853D01*
X0182689Y0332893D01*
X0182934Y0333138D01*
X0182934Y0349272D01*
X0183255Y0349594D01*
X0183723Y0350723D01*
X0183723Y0351946D01*
X0183255Y0353075D01*
X0182391Y0353940D01*
X0181261Y0354408D01*
X0180039Y0354408D01*
X0178909Y0353940D01*
X0178045Y0353075D01*
X0177577Y0351946D01*
X0177577Y0350723D01*
X0178045Y0349594D01*
X0178366Y0349272D01*
X0178366Y0336576D01*
X0177419Y0336969D01*
X0174381Y0336969D01*
X0171576Y0335806D01*
X0169428Y0333659D01*
X0168266Y0330853D01*
X0168266Y0327816D01*
X0169428Y0325010D01*
X0171576Y0322862D01*
X0171154Y0323284D02*
X0165046Y0323284D01*
X0164624Y0322862D02*
X0166772Y0325010D01*
X0167934Y0327816D01*
X0167934Y0330853D01*
X0166772Y0333659D01*
X0166584Y0333847D01*
X0166584Y0345622D01*
X0166905Y0345944D01*
X0167373Y0347073D01*
X0167373Y0348296D01*
X0166905Y0349425D01*
X0166041Y0350290D01*
X0164911Y0350758D01*
X0163689Y0350758D01*
X0162559Y0350290D01*
X0161695Y0349425D01*
X0161227Y0348296D01*
X0161227Y0347073D01*
X0161695Y0345944D01*
X0162016Y0345622D01*
X0162016Y0336887D01*
X0161819Y0336969D01*
X0158781Y0336969D01*
X0155976Y0335806D01*
X0153828Y0333659D01*
X0152666Y0330853D01*
X0152666Y0327816D01*
X0153828Y0325010D01*
X0155976Y0322862D01*
X0158781Y0321700D01*
X0161819Y0321700D01*
X0164624Y0322862D01*
X0166644Y0324882D02*
X0169556Y0324882D01*
X0168819Y0326481D02*
X0167381Y0326481D01*
X0167934Y0328079D02*
X0168266Y0328079D01*
X0168266Y0329678D02*
X0167934Y0329678D01*
X0167759Y0331276D02*
X0168441Y0331276D01*
X0169103Y0332875D02*
X0167097Y0332875D01*
X0166584Y0334473D02*
X0170242Y0334473D01*
X0172216Y0336072D02*
X0166584Y0336072D01*
X0166584Y0337670D02*
X0178366Y0337670D01*
X0178366Y0339269D02*
X0166584Y0339269D01*
X0166584Y0340867D02*
X0178366Y0340867D01*
X0178366Y0342466D02*
X0166584Y0342466D01*
X0166584Y0344064D02*
X0178366Y0344064D01*
X0178366Y0345663D02*
X0166625Y0345663D01*
X0167373Y0347261D02*
X0178366Y0347261D01*
X0178366Y0348860D02*
X0167140Y0348860D01*
X0165634Y0350458D02*
X0177686Y0350458D01*
X0177623Y0352057D02*
X0076688Y0352057D01*
X0076166Y0350797D02*
X0077399Y0353773D01*
X0077399Y0356995D01*
X0076166Y0359972D01*
X0073888Y0362251D01*
X0070911Y0363484D01*
X0067689Y0363484D01*
X0064712Y0362251D01*
X0062434Y0359972D01*
X0061201Y0356995D01*
X0061201Y0353773D01*
X0062434Y0350797D01*
X0064712Y0348518D01*
X0067689Y0347285D01*
X0070911Y0347285D01*
X0073888Y0348518D01*
X0076166Y0350797D01*
X0075828Y0350458D02*
X0162966Y0350458D01*
X0161460Y0348860D02*
X0074229Y0348860D01*
X0077350Y0353655D02*
X0178625Y0353655D01*
X0182675Y0353655D02*
X0217016Y0353655D01*
X0217016Y0352057D02*
X0183677Y0352057D01*
X0183614Y0350458D02*
X0217016Y0350458D01*
X0217016Y0348860D02*
X0182934Y0348860D01*
X0182934Y0347261D02*
X0217016Y0347261D01*
X0217016Y0345663D02*
X0182934Y0345663D01*
X0182934Y0344064D02*
X0217016Y0344064D01*
X0217016Y0342466D02*
X0182934Y0342466D01*
X0182934Y0340867D02*
X0217016Y0340867D01*
X0217016Y0339269D02*
X0182934Y0339269D01*
X0182934Y0337670D02*
X0217016Y0337670D01*
X0217016Y0336072D02*
X0210784Y0336072D01*
X0212758Y0334473D02*
X0217016Y0334473D01*
X0215903Y0332875D02*
X0213897Y0332875D01*
X0214559Y0331276D02*
X0215241Y0331276D01*
X0215066Y0329678D02*
X0214734Y0329678D01*
X0214734Y0328079D02*
X0215066Y0328079D01*
X0215619Y0326481D02*
X0214181Y0326481D01*
X0213444Y0324882D02*
X0216356Y0324882D01*
X0217954Y0323284D02*
X0211846Y0323284D01*
X0211544Y0320087D02*
X0218256Y0320087D01*
X0218376Y0320206D02*
X0216228Y0318059D01*
X0215066Y0315253D01*
X0215066Y0312216D01*
X0216228Y0309410D01*
X0218376Y0307262D01*
X0221181Y0306100D01*
X0224219Y0306100D01*
X0227024Y0307262D01*
X0229172Y0309410D01*
X0230334Y0312216D01*
X0230334Y0315253D01*
X0229172Y0318059D01*
X0227024Y0320206D01*
X0224219Y0321369D01*
X0221181Y0321369D01*
X0218376Y0320206D01*
X0216657Y0318488D02*
X0213143Y0318488D01*
X0214056Y0316890D02*
X0215744Y0316890D01*
X0215082Y0315291D02*
X0214718Y0315291D01*
X0214734Y0313693D02*
X0215066Y0313693D01*
X0215116Y0312094D02*
X0214684Y0312094D01*
X0214022Y0310496D02*
X0215778Y0310496D01*
X0216741Y0308897D02*
X0213059Y0308897D01*
X0211461Y0307299D02*
X0218339Y0307299D01*
X0227061Y0307299D02*
X0233939Y0307299D01*
X0233976Y0307262D02*
X0236781Y0306100D01*
X0239819Y0306100D01*
X0242624Y0307262D01*
X0244772Y0309410D01*
X0245934Y0312216D01*
X0245934Y0315253D01*
X0244772Y0318059D01*
X0242624Y0320206D01*
X0239819Y0321369D01*
X0236781Y0321369D01*
X0233976Y0320206D01*
X0231828Y0318059D01*
X0230666Y0315253D01*
X0230666Y0312216D01*
X0231828Y0309410D01*
X0233976Y0307262D01*
X0232341Y0308897D02*
X0228659Y0308897D01*
X0229622Y0310496D02*
X0231378Y0310496D01*
X0230716Y0312094D02*
X0230284Y0312094D01*
X0230334Y0313693D02*
X0230666Y0313693D01*
X0230682Y0315291D02*
X0230318Y0315291D01*
X0229656Y0316890D02*
X0231344Y0316890D01*
X0232257Y0318488D02*
X0228743Y0318488D01*
X0227144Y0320087D02*
X0233856Y0320087D01*
X0233976Y0322862D02*
X0236781Y0321700D01*
X0239819Y0321700D01*
X0242624Y0322862D01*
X0244772Y0325010D01*
X0245934Y0327816D01*
X0245934Y0330853D01*
X0244772Y0333659D01*
X0242624Y0335806D01*
X0241584Y0336237D01*
X0241584Y0359822D01*
X0241905Y0360144D01*
X0242373Y0361273D01*
X0242373Y0362496D01*
X0241905Y0363625D01*
X0241041Y0364490D01*
X0239911Y0364958D01*
X0238689Y0364958D01*
X0237559Y0364490D01*
X0236695Y0363625D01*
X0236227Y0362496D01*
X0236227Y0361273D01*
X0236695Y0360144D01*
X0237016Y0359822D01*
X0237016Y0336969D01*
X0236781Y0336969D01*
X0233976Y0335806D01*
X0231828Y0333659D01*
X0230666Y0330853D01*
X0230666Y0327816D01*
X0231828Y0325010D01*
X0233976Y0322862D01*
X0233554Y0323284D02*
X0227446Y0323284D01*
X0229044Y0324882D02*
X0231956Y0324882D01*
X0231219Y0326481D02*
X0229781Y0326481D01*
X0230334Y0328079D02*
X0230666Y0328079D01*
X0230666Y0329678D02*
X0230334Y0329678D01*
X0230159Y0331276D02*
X0230841Y0331276D01*
X0231503Y0332875D02*
X0229497Y0332875D01*
X0228358Y0334473D02*
X0232642Y0334473D01*
X0234616Y0336072D02*
X0226384Y0336072D01*
X0221584Y0337670D02*
X0237016Y0337670D01*
X0237016Y0339269D02*
X0221584Y0339269D01*
X0221584Y0340867D02*
X0237016Y0340867D01*
X0237016Y0342466D02*
X0221584Y0342466D01*
X0221584Y0344064D02*
X0237016Y0344064D01*
X0237016Y0345663D02*
X0221584Y0345663D01*
X0221584Y0347261D02*
X0237016Y0347261D01*
X0237016Y0348860D02*
X0221584Y0348860D01*
X0221584Y0350458D02*
X0237016Y0350458D01*
X0237016Y0352057D02*
X0221584Y0352057D01*
X0221584Y0353655D02*
X0237016Y0353655D01*
X0237016Y0355254D02*
X0221584Y0355254D01*
X0221584Y0356852D02*
X0237016Y0356852D01*
X0237016Y0358451D02*
X0221584Y0358451D01*
X0221584Y0360049D02*
X0236789Y0360049D01*
X0236227Y0361648D02*
X0221584Y0361648D01*
X0221584Y0363246D02*
X0236538Y0363246D01*
X0238417Y0364845D02*
X0222009Y0364845D01*
X0222373Y0366443D02*
X0335524Y0366443D01*
X0337922Y0364845D02*
X0240183Y0364845D01*
X0242062Y0363246D02*
X0332116Y0363246D01*
X0329110Y0361648D02*
X0242373Y0361648D01*
X0241811Y0360049D02*
X0252969Y0360049D01*
X0252427Y0358451D02*
X0241584Y0358451D01*
X0241584Y0356852D02*
X0252746Y0356852D01*
X0253216Y0355254D02*
X0241584Y0355254D01*
X0241584Y0353655D02*
X0253216Y0353655D01*
X0253216Y0352057D02*
X0241584Y0352057D01*
X0241584Y0350458D02*
X0253216Y0350458D01*
X0253216Y0348860D02*
X0241584Y0348860D01*
X0241584Y0347261D02*
X0253216Y0347261D01*
X0253216Y0345663D02*
X0241584Y0345663D01*
X0241584Y0344064D02*
X0253216Y0344064D01*
X0253216Y0342466D02*
X0241584Y0342466D01*
X0241584Y0340867D02*
X0253216Y0340867D01*
X0253216Y0339269D02*
X0241584Y0339269D01*
X0241584Y0337670D02*
X0253216Y0337670D01*
X0250216Y0336072D02*
X0241984Y0336072D01*
X0243958Y0334473D02*
X0248242Y0334473D01*
X0247103Y0332875D02*
X0245097Y0332875D01*
X0245759Y0331276D02*
X0246441Y0331276D01*
X0246266Y0329678D02*
X0245934Y0329678D01*
X0245934Y0328079D02*
X0246266Y0328079D01*
X0246819Y0326481D02*
X0245381Y0326481D01*
X0244644Y0324882D02*
X0247556Y0324882D01*
X0249154Y0323284D02*
X0243046Y0323284D01*
X0242744Y0320087D02*
X0249456Y0320087D01*
X0247857Y0318488D02*
X0244343Y0318488D01*
X0245256Y0316890D02*
X0246944Y0316890D01*
X0246282Y0315291D02*
X0245918Y0315291D01*
X0245934Y0313693D02*
X0246266Y0313693D01*
X0246316Y0312094D02*
X0245884Y0312094D01*
X0245222Y0310496D02*
X0246978Y0310496D01*
X0247941Y0308897D02*
X0244259Y0308897D01*
X0242661Y0307299D02*
X0249539Y0307299D01*
X0248671Y0304102D02*
X0171019Y0304102D01*
X0172310Y0302503D02*
X0247539Y0302503D01*
X0246590Y0300905D02*
X0173602Y0300905D01*
X0174893Y0299306D02*
X0244991Y0299306D01*
X0252279Y0304102D02*
X0254787Y0304102D01*
X0258755Y0296109D02*
X0327500Y0296109D01*
X0327500Y0294510D02*
X0257156Y0294510D01*
X0255558Y0292912D02*
X0327500Y0292912D01*
X0321351Y0273972D02*
X0312997Y0273972D01*
X0307091Y0268065D01*
X0307091Y0259712D01*
X0312997Y0253805D01*
X0321351Y0253805D01*
X0327257Y0259712D01*
X0327257Y0268065D01*
X0321351Y0273972D01*
X0321593Y0273730D02*
X0346700Y0273730D01*
X0346700Y0275328D02*
X0306084Y0275328D01*
X0306084Y0273730D02*
X0312755Y0273730D01*
X0311157Y0272131D02*
X0306084Y0272131D01*
X0306084Y0270533D02*
X0309558Y0270533D01*
X0307960Y0268934D02*
X0306084Y0268934D01*
X0306084Y0267336D02*
X0307091Y0267336D01*
X0307091Y0265737D02*
X0306084Y0265737D01*
X0306084Y0264139D02*
X0307091Y0264139D01*
X0307091Y0262540D02*
X0306084Y0262540D01*
X0306084Y0260942D02*
X0307091Y0260942D01*
X0307459Y0259343D02*
X0306084Y0259343D01*
X0306084Y0257745D02*
X0309057Y0257745D01*
X0309975Y0256146D02*
X0310656Y0256146D01*
X0311573Y0254548D02*
X0312254Y0254548D01*
X0313172Y0252949D02*
X0346700Y0252949D01*
X0346700Y0251351D02*
X0314770Y0251351D01*
X0316234Y0249752D02*
X0346700Y0249752D01*
X0346700Y0248154D02*
X0316234Y0248154D01*
X0316234Y0246555D02*
X0346700Y0246555D01*
X0346700Y0244957D02*
X0316234Y0244957D01*
X0316234Y0243358D02*
X0346700Y0243358D01*
X0346700Y0241760D02*
X0316234Y0241760D01*
X0315513Y0240161D02*
X0346700Y0240161D01*
X0346700Y0238563D02*
X0313915Y0238563D01*
X0312316Y0236964D02*
X0346700Y0236964D01*
X0346700Y0235366D02*
X0310718Y0235366D01*
X0300008Y0235366D02*
X0230412Y0235366D01*
X0229798Y0233767D02*
X0346700Y0233767D01*
X0346700Y0232169D02*
X0178239Y0232169D01*
X0178239Y0233767D02*
X0224402Y0233767D01*
X0224027Y0235366D02*
X0178239Y0235366D01*
X0178239Y0236964D02*
X0224469Y0236964D01*
X0225274Y0238563D02*
X0227148Y0238563D01*
X0232046Y0236964D02*
X0298410Y0236964D01*
X0296811Y0238563D02*
X0232311Y0238563D01*
X0232520Y0240161D02*
X0295213Y0240161D01*
X0294492Y0241760D02*
X0232729Y0241760D01*
X0232938Y0243358D02*
X0294492Y0243358D01*
X0294492Y0244957D02*
X0233147Y0244957D01*
X0233357Y0246555D02*
X0294492Y0246555D01*
X0293321Y0248154D02*
X0233566Y0248154D01*
X0233775Y0249752D02*
X0292659Y0249752D01*
X0292516Y0251351D02*
X0233984Y0251351D01*
X0234193Y0252949D02*
X0292516Y0252949D01*
X0292516Y0254548D02*
X0234402Y0254548D01*
X0234611Y0256146D02*
X0292516Y0256146D01*
X0292516Y0257745D02*
X0234820Y0257745D01*
X0235030Y0259343D02*
X0292516Y0259343D01*
X0292516Y0260942D02*
X0235386Y0260942D01*
X0235749Y0262540D02*
X0292516Y0262540D01*
X0292516Y0264139D02*
X0236162Y0264139D01*
X0236473Y0265737D02*
X0292516Y0265737D01*
X0292516Y0267336D02*
X0236678Y0267336D01*
X0236936Y0268934D02*
X0292516Y0268934D01*
X0292516Y0270533D02*
X0237193Y0270533D01*
X0237589Y0272131D02*
X0292516Y0272131D01*
X0292516Y0273730D02*
X0238012Y0273730D01*
X0238435Y0275328D02*
X0292516Y0275328D01*
X0292516Y0276927D02*
X0239573Y0276927D01*
X0241171Y0278525D02*
X0292516Y0278525D01*
X0292516Y0280124D02*
X0242770Y0280124D01*
X0244368Y0281722D02*
X0292516Y0281722D01*
X0292516Y0283321D02*
X0245967Y0283321D01*
X0247565Y0284919D02*
X0292516Y0284919D01*
X0292516Y0286518D02*
X0249164Y0286518D01*
X0250762Y0288116D02*
X0293088Y0288116D01*
X0294036Y0289715D02*
X0252361Y0289715D01*
X0253959Y0291313D02*
X0295886Y0291313D01*
X0306084Y0278525D02*
X0346700Y0278525D01*
X0346700Y0276927D02*
X0306084Y0276927D01*
X0323191Y0272131D02*
X0346700Y0272131D01*
X0346700Y0270533D02*
X0324790Y0270533D01*
X0326388Y0268934D02*
X0346700Y0268934D01*
X0346700Y0267336D02*
X0327257Y0267336D01*
X0327257Y0265737D02*
X0346700Y0265737D01*
X0346700Y0264139D02*
X0327257Y0264139D01*
X0327257Y0262540D02*
X0346700Y0262540D01*
X0346700Y0260942D02*
X0327257Y0260942D01*
X0326889Y0259343D02*
X0346700Y0259343D01*
X0346700Y0257745D02*
X0325291Y0257745D01*
X0323692Y0256146D02*
X0346700Y0256146D01*
X0346700Y0254548D02*
X0322094Y0254548D01*
X0346700Y0230570D02*
X0178239Y0230570D01*
X0178239Y0228971D02*
X0346700Y0228971D01*
X0346700Y0227373D02*
X0178239Y0227373D01*
X0178239Y0225774D02*
X0346700Y0225774D01*
X0346700Y0224176D02*
X0178239Y0224176D01*
X0178239Y0222577D02*
X0346700Y0222577D01*
X0346700Y0220979D02*
X0178239Y0220979D01*
X0178239Y0219380D02*
X0203498Y0219380D01*
X0203505Y0219383D02*
X0202035Y0218774D01*
X0200910Y0217650D01*
X0200301Y0216180D01*
X0200301Y0214589D01*
X0200910Y0213119D01*
X0201716Y0212313D01*
X0201716Y0191455D01*
X0189801Y0179540D01*
X0189407Y0178590D01*
X0189407Y0169973D01*
X0188434Y0170376D01*
X0186666Y0170376D01*
X0185034Y0169700D01*
X0183784Y0168450D01*
X0183108Y0166818D01*
X0183108Y0165051D01*
X0183784Y0163418D01*
X0185034Y0162169D01*
X0186666Y0161493D01*
X0188434Y0161493D01*
X0189407Y0161896D01*
X0189407Y0159973D01*
X0188434Y0160376D01*
X0186666Y0160376D01*
X0185034Y0159700D01*
X0183784Y0158450D01*
X0183108Y0156818D01*
X0183108Y0155051D01*
X0183784Y0153418D01*
X0185034Y0152169D01*
X0186666Y0151493D01*
X0187621Y0151493D01*
X0187621Y0144925D01*
X0187104Y0144925D01*
X0186059Y0143879D01*
X0186059Y0136889D01*
X0187104Y0135844D01*
X0193307Y0135844D01*
X0194352Y0136889D01*
X0194352Y0143879D01*
X0193307Y0144925D01*
X0192790Y0144925D01*
X0192790Y0151238D01*
X0193456Y0151904D01*
X0194183Y0152631D01*
X0194297Y0152906D01*
X0195034Y0152169D01*
X0196666Y0151493D01*
X0198434Y0151493D01*
X0200066Y0152169D01*
X0201316Y0153418D01*
X0201992Y0155051D01*
X0201992Y0156818D01*
X0201316Y0158450D01*
X0200066Y0159700D01*
X0198434Y0160376D01*
X0196666Y0160376D01*
X0195034Y0159700D01*
X0194576Y0159242D01*
X0194576Y0162627D01*
X0195034Y0162169D01*
X0196666Y0161493D01*
X0198434Y0161493D01*
X0200066Y0162169D01*
X0201316Y0163418D01*
X0201992Y0165051D01*
X0201992Y0166818D01*
X0201316Y0168450D01*
X0200066Y0169700D01*
X0198434Y0170376D01*
X0196666Y0170376D01*
X0195034Y0169700D01*
X0194576Y0169242D01*
X0194576Y0177006D01*
X0206491Y0188921D01*
X0206884Y0189870D01*
X0206884Y0212313D01*
X0207690Y0213119D01*
X0208299Y0214589D01*
X0208299Y0216180D01*
X0207690Y0217650D01*
X0206565Y0218774D01*
X0205095Y0219383D01*
X0203505Y0219383D01*
X0205102Y0219380D02*
X0346700Y0219380D01*
X0346700Y0217782D02*
X0207558Y0217782D01*
X0208297Y0216183D02*
X0346700Y0216183D01*
X0346700Y0214585D02*
X0208297Y0214585D01*
X0207557Y0212986D02*
X0346700Y0212986D01*
X0346700Y0211388D02*
X0206884Y0211388D01*
X0206884Y0209789D02*
X0346700Y0209789D01*
X0346700Y0208191D02*
X0206884Y0208191D01*
X0206884Y0206592D02*
X0326795Y0206592D01*
X0327277Y0207074D02*
X0326272Y0206069D01*
X0325728Y0204756D01*
X0325728Y0203335D01*
X0326272Y0202023D01*
X0327277Y0201018D01*
X0328590Y0200474D01*
X0330010Y0200474D01*
X0331323Y0201018D01*
X0332328Y0202023D01*
X0332872Y0203335D01*
X0332872Y0204756D01*
X0332328Y0206069D01*
X0331323Y0207074D01*
X0330010Y0207617D01*
X0328590Y0207617D01*
X0327277Y0207074D01*
X0325827Y0204994D02*
X0206884Y0204994D01*
X0206884Y0203395D02*
X0325728Y0203395D01*
X0326498Y0201797D02*
X0206884Y0201797D01*
X0206884Y0200198D02*
X0346700Y0200198D01*
X0346700Y0198600D02*
X0206884Y0198600D01*
X0206884Y0197001D02*
X0346700Y0197001D01*
X0346700Y0195403D02*
X0206884Y0195403D01*
X0206884Y0193804D02*
X0346700Y0193804D01*
X0346700Y0192206D02*
X0206884Y0192206D01*
X0206884Y0190607D02*
X0346700Y0190607D01*
X0346700Y0189009D02*
X0332065Y0189009D01*
X0332328Y0188746D02*
X0331323Y0189751D01*
X0330010Y0190295D01*
X0328590Y0190295D01*
X0327277Y0189751D01*
X0326272Y0188746D01*
X0325728Y0187433D01*
X0325728Y0186012D01*
X0326272Y0184700D01*
X0327277Y0183695D01*
X0328590Y0183151D01*
X0330010Y0183151D01*
X0331323Y0183695D01*
X0332328Y0184700D01*
X0332872Y0186012D01*
X0332872Y0187433D01*
X0332328Y0188746D01*
X0332872Y0187410D02*
X0346700Y0187410D01*
X0346700Y0185812D02*
X0332788Y0185812D01*
X0331841Y0184213D02*
X0346700Y0184213D01*
X0346700Y0182615D02*
X0200185Y0182615D01*
X0201783Y0184213D02*
X0326759Y0184213D01*
X0325812Y0185812D02*
X0203382Y0185812D01*
X0204980Y0187410D02*
X0325728Y0187410D01*
X0326535Y0189009D02*
X0206527Y0189009D01*
X0204300Y0190384D02*
X0191992Y0178076D01*
X0191992Y0154095D01*
X0190206Y0152308D01*
X0190206Y0140384D01*
X0194352Y0141053D02*
X0346700Y0141053D01*
X0346700Y0139455D02*
X0194352Y0139455D01*
X0194352Y0137856D02*
X0346700Y0137856D01*
X0346700Y0136258D02*
X0193720Y0136258D01*
X0194352Y0142652D02*
X0346700Y0142652D01*
X0346700Y0144250D02*
X0193981Y0144250D01*
X0192790Y0145849D02*
X0346700Y0145849D01*
X0346700Y0147447D02*
X0192790Y0147447D01*
X0192790Y0149046D02*
X0346700Y0149046D01*
X0346700Y0150644D02*
X0192790Y0150644D01*
X0193795Y0152243D02*
X0194960Y0152243D01*
X0200140Y0152243D02*
X0204960Y0152243D01*
X0205034Y0152169D02*
X0206666Y0151493D01*
X0208434Y0151493D01*
X0210066Y0152169D01*
X0211316Y0153418D01*
X0211992Y0155051D01*
X0211992Y0156818D01*
X0211316Y0158450D01*
X0210066Y0159700D01*
X0208434Y0160376D01*
X0206666Y0160376D01*
X0205034Y0159700D01*
X0203784Y0158450D01*
X0203108Y0156818D01*
X0203108Y0155051D01*
X0203784Y0153418D01*
X0205034Y0152169D01*
X0203609Y0153841D02*
X0201491Y0153841D01*
X0201992Y0155440D02*
X0203108Y0155440D01*
X0203200Y0157038D02*
X0201900Y0157038D01*
X0201129Y0158637D02*
X0203971Y0158637D01*
X0206327Y0160236D02*
X0198773Y0160236D01*
X0199258Y0161834D02*
X0205842Y0161834D01*
X0205034Y0162169D02*
X0206666Y0161493D01*
X0208434Y0161493D01*
X0210066Y0162169D01*
X0211316Y0163418D01*
X0211992Y0165051D01*
X0211992Y0166818D01*
X0211316Y0168450D01*
X0210066Y0169700D01*
X0208434Y0170376D01*
X0206666Y0170376D01*
X0205034Y0169700D01*
X0203784Y0168450D01*
X0203108Y0166818D01*
X0203108Y0165051D01*
X0203784Y0163418D01*
X0205034Y0162169D01*
X0203779Y0163433D02*
X0201321Y0163433D01*
X0201984Y0165031D02*
X0203116Y0165031D01*
X0203108Y0166630D02*
X0201992Y0166630D01*
X0201408Y0168228D02*
X0203692Y0168228D01*
X0205340Y0169827D02*
X0199760Y0169827D01*
X0195340Y0169827D02*
X0194576Y0169827D01*
X0194576Y0171425D02*
X0346700Y0171425D01*
X0346700Y0169827D02*
X0319730Y0169827D01*
X0319886Y0169747D02*
X0319261Y0170065D01*
X0318594Y0170282D01*
X0317901Y0170392D01*
X0317636Y0170392D01*
X0317636Y0166020D01*
X0322007Y0166020D01*
X0322007Y0166285D01*
X0321898Y0166978D01*
X0321681Y0167645D01*
X0321362Y0168271D01*
X0320950Y0168838D01*
X0320454Y0169334D01*
X0319886Y0169747D01*
X0321384Y0168228D02*
X0346700Y0168228D01*
X0346700Y0166630D02*
X0321953Y0166630D01*
X0322007Y0165849D02*
X0317636Y0165849D01*
X0317636Y0166020D01*
X0317464Y0166020D01*
X0317464Y0165849D01*
X0313093Y0165849D01*
X0313093Y0165584D01*
X0313202Y0164891D01*
X0313419Y0164223D01*
X0313738Y0163598D01*
X0314150Y0163031D01*
X0314646Y0162534D01*
X0315214Y0162122D01*
X0315839Y0161803D01*
X0316506Y0161587D01*
X0317199Y0161477D01*
X0317464Y0161477D01*
X0317464Y0165848D01*
X0317636Y0165848D01*
X0317636Y0161477D01*
X0317901Y0161477D01*
X0318594Y0161587D01*
X0319261Y0161803D01*
X0319886Y0162122D01*
X0320454Y0162534D01*
X0320950Y0163031D01*
X0321362Y0163598D01*
X0321681Y0164223D01*
X0321898Y0164891D01*
X0322007Y0165584D01*
X0322007Y0165849D01*
X0321920Y0165031D02*
X0346700Y0165031D01*
X0346700Y0163433D02*
X0321242Y0163433D01*
X0319321Y0161834D02*
X0346700Y0161834D01*
X0346700Y0160236D02*
X0318773Y0160236D01*
X0318434Y0160376D02*
X0316666Y0160376D01*
X0315034Y0159700D01*
X0313784Y0158450D01*
X0313108Y0156818D01*
X0313108Y0155051D01*
X0313784Y0153418D01*
X0315034Y0152169D01*
X0316666Y0151493D01*
X0318434Y0151493D01*
X0320066Y0152169D01*
X0321316Y0153418D01*
X0321992Y0155051D01*
X0321992Y0156818D01*
X0321316Y0158450D01*
X0320066Y0159700D01*
X0318434Y0160376D01*
X0317636Y0161834D02*
X0317464Y0161834D01*
X0317464Y0163433D02*
X0317636Y0163433D01*
X0317636Y0165031D02*
X0317464Y0165031D01*
X0317464Y0166020D02*
X0313093Y0166020D01*
X0313093Y0166285D01*
X0313202Y0166978D01*
X0313419Y0167645D01*
X0313738Y0168271D01*
X0314150Y0168838D01*
X0314646Y0169334D01*
X0315214Y0169747D01*
X0315839Y0170065D01*
X0316506Y0170282D01*
X0317199Y0170392D01*
X0317464Y0170392D01*
X0317464Y0166020D01*
X0317464Y0166630D02*
X0317636Y0166630D01*
X0317636Y0168228D02*
X0317464Y0168228D01*
X0317464Y0169827D02*
X0317636Y0169827D01*
X0315370Y0169827D02*
X0309760Y0169827D01*
X0310066Y0169700D02*
X0308434Y0170376D01*
X0306666Y0170376D01*
X0305034Y0169700D01*
X0303784Y0168450D01*
X0303108Y0166818D01*
X0303108Y0165051D01*
X0303784Y0163418D01*
X0305034Y0162169D01*
X0306666Y0161493D01*
X0308434Y0161493D01*
X0310066Y0162169D01*
X0311316Y0163418D01*
X0311992Y0165051D01*
X0311992Y0166818D01*
X0311316Y0168450D01*
X0310066Y0169700D01*
X0311408Y0168228D02*
X0313716Y0168228D01*
X0313147Y0166630D02*
X0311992Y0166630D01*
X0311984Y0165031D02*
X0313180Y0165031D01*
X0313858Y0163433D02*
X0311321Y0163433D01*
X0309258Y0161834D02*
X0315779Y0161834D01*
X0316327Y0160236D02*
X0308773Y0160236D01*
X0308434Y0160376D02*
X0306666Y0160376D01*
X0305034Y0159700D01*
X0303784Y0158450D01*
X0303108Y0156818D01*
X0303108Y0155051D01*
X0303784Y0153418D01*
X0305034Y0152169D01*
X0306666Y0151493D01*
X0308434Y0151493D01*
X0310066Y0152169D01*
X0311316Y0153418D01*
X0311992Y0155051D01*
X0311992Y0156818D01*
X0311316Y0158450D01*
X0310066Y0159700D01*
X0308434Y0160376D01*
X0306327Y0160236D02*
X0298773Y0160236D01*
X0298434Y0160376D02*
X0296666Y0160376D01*
X0295034Y0159700D01*
X0293784Y0158450D01*
X0293108Y0156818D01*
X0293108Y0155051D01*
X0293784Y0153418D01*
X0295034Y0152169D01*
X0296666Y0151493D01*
X0298434Y0151493D01*
X0300066Y0152169D01*
X0301316Y0153418D01*
X0301992Y0155051D01*
X0301992Y0156818D01*
X0301316Y0158450D01*
X0300066Y0159700D01*
X0298434Y0160376D01*
X0298434Y0161493D02*
X0300066Y0162169D01*
X0301316Y0163418D01*
X0301992Y0165051D01*
X0301992Y0166818D01*
X0301316Y0168450D01*
X0300066Y0169700D01*
X0298434Y0170376D01*
X0296666Y0170376D01*
X0295034Y0169700D01*
X0293784Y0168450D01*
X0293108Y0166818D01*
X0293108Y0165051D01*
X0293784Y0163418D01*
X0295034Y0162169D01*
X0296666Y0161493D01*
X0298434Y0161493D01*
X0299258Y0161834D02*
X0305842Y0161834D01*
X0303779Y0163433D02*
X0301321Y0163433D01*
X0301984Y0165031D02*
X0303116Y0165031D01*
X0303108Y0166630D02*
X0301992Y0166630D01*
X0301408Y0168228D02*
X0303692Y0168228D01*
X0305340Y0169827D02*
X0299760Y0169827D01*
X0295340Y0169827D02*
X0289760Y0169827D01*
X0290066Y0169700D02*
X0288434Y0170376D01*
X0286666Y0170376D01*
X0285034Y0169700D01*
X0283784Y0168450D01*
X0283108Y0166818D01*
X0283108Y0165051D01*
X0283784Y0163418D01*
X0285034Y0162169D01*
X0286666Y0161493D01*
X0288434Y0161493D01*
X0290066Y0162169D01*
X0291316Y0163418D01*
X0291992Y0165051D01*
X0291992Y0166818D01*
X0291316Y0168450D01*
X0290066Y0169700D01*
X0291408Y0168228D02*
X0293692Y0168228D01*
X0293108Y0166630D02*
X0291992Y0166630D01*
X0291984Y0165031D02*
X0293116Y0165031D01*
X0293779Y0163433D02*
X0291321Y0163433D01*
X0289258Y0161834D02*
X0295842Y0161834D01*
X0296327Y0160236D02*
X0288773Y0160236D01*
X0288434Y0160376D02*
X0290066Y0159700D01*
X0291316Y0158450D01*
X0291992Y0156818D01*
X0291992Y0155051D01*
X0291316Y0153418D01*
X0290066Y0152169D01*
X0288434Y0151493D01*
X0286666Y0151493D01*
X0285034Y0152169D01*
X0283784Y0153418D01*
X0283108Y0155051D01*
X0283108Y0156818D01*
X0283784Y0158450D01*
X0285034Y0159700D01*
X0286666Y0160376D01*
X0288434Y0160376D01*
X0286327Y0160236D02*
X0278773Y0160236D01*
X0278434Y0160376D02*
X0276666Y0160376D01*
X0275034Y0159700D01*
X0273784Y0158450D01*
X0273108Y0156818D01*
X0273108Y0155051D01*
X0273784Y0153418D01*
X0275034Y0152169D01*
X0276666Y0151493D01*
X0278434Y0151493D01*
X0280066Y0152169D01*
X0281316Y0153418D01*
X0281992Y0155051D01*
X0281992Y0156818D01*
X0281316Y0158450D01*
X0280066Y0159700D01*
X0278434Y0160376D01*
X0276327Y0160236D02*
X0268773Y0160236D01*
X0268434Y0160376D02*
X0266666Y0160376D01*
X0265034Y0159700D01*
X0263784Y0158450D01*
X0263108Y0156818D01*
X0263108Y0155051D01*
X0263784Y0153418D01*
X0265034Y0152169D01*
X0266666Y0151493D01*
X0268434Y0151493D01*
X0270066Y0152169D01*
X0271316Y0153418D01*
X0271992Y0155051D01*
X0271992Y0156818D01*
X0271316Y0158450D01*
X0270066Y0159700D01*
X0268434Y0160376D01*
X0268434Y0161493D02*
X0270066Y0162169D01*
X0271316Y0163418D01*
X0271992Y0165051D01*
X0271992Y0166818D01*
X0271316Y0168450D01*
X0270066Y0169700D01*
X0268434Y0170376D01*
X0266666Y0170376D01*
X0265034Y0169700D01*
X0263784Y0168450D01*
X0263108Y0166818D01*
X0263108Y0165051D01*
X0263784Y0163418D01*
X0265034Y0162169D01*
X0266666Y0161493D01*
X0268434Y0161493D01*
X0269258Y0161834D02*
X0273812Y0161834D01*
X0274153Y0161493D02*
X0273108Y0162538D01*
X0273108Y0169331D01*
X0274153Y0170376D01*
X0280947Y0170376D01*
X0281992Y0169331D01*
X0281992Y0162538D01*
X0280947Y0161493D01*
X0274153Y0161493D01*
X0273108Y0163433D02*
X0271321Y0163433D01*
X0271984Y0165031D02*
X0273108Y0165031D01*
X0273108Y0166630D02*
X0271992Y0166630D01*
X0271408Y0168228D02*
X0273108Y0168228D01*
X0273604Y0169827D02*
X0269760Y0169827D01*
X0265340Y0169827D02*
X0259760Y0169827D01*
X0260066Y0169700D02*
X0258434Y0170376D01*
X0256666Y0170376D01*
X0255034Y0169700D01*
X0253784Y0168450D01*
X0253108Y0166818D01*
X0253108Y0165051D01*
X0253784Y0163418D01*
X0255034Y0162169D01*
X0256666Y0161493D01*
X0258434Y0161493D01*
X0260066Y0162169D01*
X0261316Y0163418D01*
X0261992Y0165051D01*
X0261992Y0166818D01*
X0261316Y0168450D01*
X0260066Y0169700D01*
X0261408Y0168228D02*
X0263692Y0168228D01*
X0263108Y0166630D02*
X0261992Y0166630D01*
X0261984Y0165031D02*
X0263116Y0165031D01*
X0263779Y0163433D02*
X0261321Y0163433D01*
X0259258Y0161834D02*
X0265842Y0161834D01*
X0266327Y0160236D02*
X0258773Y0160236D01*
X0258434Y0160376D02*
X0256666Y0160376D01*
X0255034Y0159700D01*
X0253784Y0158450D01*
X0253108Y0156818D01*
X0253108Y0155051D01*
X0253784Y0153418D01*
X0255034Y0152169D01*
X0256666Y0151493D01*
X0258434Y0151493D01*
X0260066Y0152169D01*
X0261316Y0153418D01*
X0261992Y0155051D01*
X0261992Y0156818D01*
X0261316Y0158450D01*
X0260066Y0159700D01*
X0258434Y0160376D01*
X0256327Y0160236D02*
X0248773Y0160236D01*
X0248434Y0160376D02*
X0246666Y0160376D01*
X0245034Y0159700D01*
X0243784Y0158450D01*
X0243108Y0156818D01*
X0243108Y0155051D01*
X0243784Y0153418D01*
X0245034Y0152169D01*
X0246666Y0151493D01*
X0248434Y0151493D01*
X0250066Y0152169D01*
X0251316Y0153418D01*
X0251992Y0155051D01*
X0251992Y0156818D01*
X0251316Y0158450D01*
X0250066Y0159700D01*
X0248434Y0160376D01*
X0248434Y0161493D02*
X0250066Y0162169D01*
X0251316Y0163418D01*
X0251992Y0165051D01*
X0251992Y0166818D01*
X0251316Y0168450D01*
X0250066Y0169700D01*
X0248434Y0170376D01*
X0246666Y0170376D01*
X0245034Y0169700D01*
X0243784Y0168450D01*
X0243108Y0166818D01*
X0243108Y0165051D01*
X0243784Y0163418D01*
X0245034Y0162169D01*
X0246666Y0161493D01*
X0248434Y0161493D01*
X0249258Y0161834D02*
X0255842Y0161834D01*
X0253779Y0163433D02*
X0251321Y0163433D01*
X0251984Y0165031D02*
X0253116Y0165031D01*
X0253108Y0166630D02*
X0251992Y0166630D01*
X0251408Y0168228D02*
X0253692Y0168228D01*
X0255340Y0169827D02*
X0249760Y0169827D01*
X0245340Y0169827D02*
X0239760Y0169827D01*
X0240066Y0169700D02*
X0238434Y0170376D01*
X0236666Y0170376D01*
X0235034Y0169700D01*
X0233784Y0168450D01*
X0233108Y0166818D01*
X0233108Y0165051D01*
X0233784Y0163418D01*
X0235034Y0162169D01*
X0236666Y0161493D01*
X0238434Y0161493D01*
X0240066Y0162169D01*
X0241316Y0163418D01*
X0241992Y0165051D01*
X0241992Y0166818D01*
X0241316Y0168450D01*
X0240066Y0169700D01*
X0241408Y0168228D02*
X0243692Y0168228D01*
X0243108Y0166630D02*
X0241992Y0166630D01*
X0241984Y0165031D02*
X0243116Y0165031D01*
X0243779Y0163433D02*
X0241321Y0163433D01*
X0239258Y0161834D02*
X0245842Y0161834D01*
X0246327Y0160236D02*
X0238773Y0160236D01*
X0238434Y0160376D02*
X0236666Y0160376D01*
X0235034Y0159700D01*
X0233784Y0158450D01*
X0233108Y0156818D01*
X0233108Y0155051D01*
X0233784Y0153418D01*
X0235034Y0152169D01*
X0236666Y0151493D01*
X0238434Y0151493D01*
X0240066Y0152169D01*
X0241316Y0153418D01*
X0241992Y0155051D01*
X0241992Y0156818D01*
X0241316Y0158450D01*
X0240066Y0159700D01*
X0238434Y0160376D01*
X0236327Y0160236D02*
X0228773Y0160236D01*
X0228434Y0160376D02*
X0226666Y0160376D01*
X0225034Y0159700D01*
X0223784Y0158450D01*
X0223108Y0156818D01*
X0223108Y0155051D01*
X0223784Y0153418D01*
X0225034Y0152169D01*
X0226666Y0151493D01*
X0228434Y0151493D01*
X0230066Y0152169D01*
X0231316Y0153418D01*
X0231992Y0155051D01*
X0231992Y0156818D01*
X0231316Y0158450D01*
X0230066Y0159700D01*
X0228434Y0160376D01*
X0226327Y0160236D02*
X0218773Y0160236D01*
X0218434Y0160376D02*
X0216666Y0160376D01*
X0215034Y0159700D01*
X0213784Y0158450D01*
X0213108Y0156818D01*
X0213108Y0155051D01*
X0213784Y0153418D01*
X0215034Y0152169D01*
X0216666Y0151493D01*
X0218434Y0151493D01*
X0220066Y0152169D01*
X0221316Y0153418D01*
X0221992Y0155051D01*
X0221992Y0156818D01*
X0221316Y0158450D01*
X0220066Y0159700D01*
X0218434Y0160376D01*
X0218434Y0161493D02*
X0220066Y0162169D01*
X0221316Y0163418D01*
X0221992Y0165051D01*
X0221992Y0166818D01*
X0221316Y0168450D01*
X0220066Y0169700D01*
X0218434Y0170376D01*
X0216666Y0170376D01*
X0215034Y0169700D01*
X0213784Y0168450D01*
X0213108Y0166818D01*
X0213108Y0165051D01*
X0213784Y0163418D01*
X0215034Y0162169D01*
X0216666Y0161493D01*
X0218434Y0161493D01*
X0219258Y0161834D02*
X0223812Y0161834D01*
X0224153Y0161493D02*
X0230947Y0161493D01*
X0231992Y0162538D01*
X0231992Y0169331D01*
X0230947Y0170376D01*
X0224153Y0170376D01*
X0223108Y0169331D01*
X0223108Y0162538D01*
X0224153Y0161493D01*
X0223108Y0163433D02*
X0221321Y0163433D01*
X0221984Y0165031D02*
X0223108Y0165031D01*
X0223108Y0166630D02*
X0221992Y0166630D01*
X0221408Y0168228D02*
X0223108Y0168228D01*
X0223604Y0169827D02*
X0219760Y0169827D01*
X0215340Y0169827D02*
X0209760Y0169827D01*
X0211408Y0168228D02*
X0213692Y0168228D01*
X0213108Y0166630D02*
X0211992Y0166630D01*
X0211984Y0165031D02*
X0213116Y0165031D01*
X0213779Y0163433D02*
X0211321Y0163433D01*
X0209258Y0161834D02*
X0215842Y0161834D01*
X0216327Y0160236D02*
X0208773Y0160236D01*
X0211129Y0158637D02*
X0213971Y0158637D01*
X0213200Y0157038D02*
X0211900Y0157038D01*
X0211992Y0155440D02*
X0213108Y0155440D01*
X0213609Y0153841D02*
X0211491Y0153841D01*
X0210140Y0152243D02*
X0214960Y0152243D01*
X0220140Y0152243D02*
X0224960Y0152243D01*
X0223609Y0153841D02*
X0221491Y0153841D01*
X0221992Y0155440D02*
X0223108Y0155440D01*
X0223200Y0157038D02*
X0221900Y0157038D01*
X0221129Y0158637D02*
X0223971Y0158637D01*
X0231129Y0158637D02*
X0233971Y0158637D01*
X0233200Y0157038D02*
X0231900Y0157038D01*
X0231992Y0155440D02*
X0233108Y0155440D01*
X0233609Y0153841D02*
X0231491Y0153841D01*
X0230140Y0152243D02*
X0234960Y0152243D01*
X0240140Y0152243D02*
X0244960Y0152243D01*
X0243609Y0153841D02*
X0241491Y0153841D01*
X0241992Y0155440D02*
X0243108Y0155440D01*
X0243200Y0157038D02*
X0241900Y0157038D01*
X0241129Y0158637D02*
X0243971Y0158637D01*
X0251129Y0158637D02*
X0253971Y0158637D01*
X0253200Y0157038D02*
X0251900Y0157038D01*
X0251992Y0155440D02*
X0253108Y0155440D01*
X0253609Y0153841D02*
X0251491Y0153841D01*
X0250140Y0152243D02*
X0254960Y0152243D01*
X0260140Y0152243D02*
X0264960Y0152243D01*
X0263609Y0153841D02*
X0261491Y0153841D01*
X0261992Y0155440D02*
X0263108Y0155440D01*
X0263200Y0157038D02*
X0261900Y0157038D01*
X0261129Y0158637D02*
X0263971Y0158637D01*
X0271129Y0158637D02*
X0273971Y0158637D01*
X0273200Y0157038D02*
X0271900Y0157038D01*
X0271992Y0155440D02*
X0273108Y0155440D01*
X0273609Y0153841D02*
X0271491Y0153841D01*
X0270140Y0152243D02*
X0274960Y0152243D01*
X0280140Y0152243D02*
X0284960Y0152243D01*
X0283609Y0153841D02*
X0281491Y0153841D01*
X0281992Y0155440D02*
X0283108Y0155440D01*
X0283200Y0157038D02*
X0281900Y0157038D01*
X0281129Y0158637D02*
X0283971Y0158637D01*
X0285842Y0161834D02*
X0281288Y0161834D01*
X0281992Y0163433D02*
X0283779Y0163433D01*
X0283116Y0165031D02*
X0281992Y0165031D01*
X0281992Y0166630D02*
X0283108Y0166630D01*
X0283692Y0168228D02*
X0281992Y0168228D01*
X0281496Y0169827D02*
X0285340Y0169827D01*
X0291129Y0158637D02*
X0293971Y0158637D01*
X0293200Y0157038D02*
X0291900Y0157038D01*
X0291992Y0155440D02*
X0293108Y0155440D01*
X0293609Y0153841D02*
X0291491Y0153841D01*
X0290140Y0152243D02*
X0294960Y0152243D01*
X0300140Y0152243D02*
X0304960Y0152243D01*
X0303609Y0153841D02*
X0301491Y0153841D01*
X0301992Y0155440D02*
X0303108Y0155440D01*
X0303200Y0157038D02*
X0301900Y0157038D01*
X0301129Y0158637D02*
X0303971Y0158637D01*
X0311129Y0158637D02*
X0313971Y0158637D01*
X0313200Y0157038D02*
X0311900Y0157038D01*
X0311992Y0155440D02*
X0313108Y0155440D01*
X0313609Y0153841D02*
X0311491Y0153841D01*
X0310140Y0152243D02*
X0314960Y0152243D01*
X0320140Y0152243D02*
X0346700Y0152243D01*
X0346700Y0153841D02*
X0321491Y0153841D01*
X0321992Y0155440D02*
X0346700Y0155440D01*
X0346700Y0157038D02*
X0321900Y0157038D01*
X0321129Y0158637D02*
X0346700Y0158637D01*
X0346700Y0173024D02*
X0194576Y0173024D01*
X0194576Y0174622D02*
X0346700Y0174622D01*
X0346700Y0176221D02*
X0194576Y0176221D01*
X0195389Y0177819D02*
X0346700Y0177819D01*
X0346700Y0179418D02*
X0196988Y0179418D01*
X0198586Y0181016D02*
X0346700Y0181016D01*
X0346700Y0201797D02*
X0332102Y0201797D01*
X0332872Y0203395D02*
X0346700Y0203395D01*
X0346700Y0204994D02*
X0332773Y0204994D01*
X0331805Y0206592D02*
X0346700Y0206592D01*
X0346700Y0134659D02*
X0066884Y0134659D01*
X0066884Y0133061D02*
X0346700Y0133061D01*
X0346700Y0131462D02*
X0066884Y0131462D01*
X0066884Y0129864D02*
X0346700Y0129864D01*
X0346700Y0128265D02*
X0066884Y0128265D01*
X0066884Y0127425D02*
X0066884Y0159314D01*
X0080370Y0172800D01*
X0154814Y0172800D01*
X0155764Y0173194D01*
X0156491Y0173921D01*
X0177845Y0195275D01*
X0178239Y0196225D01*
X0178239Y0211685D01*
X0178670Y0210644D01*
X0179510Y0209804D01*
X0180606Y0209350D01*
X0181794Y0209350D01*
X0182759Y0209750D01*
X0195339Y0209750D01*
X0196305Y0209350D01*
X0197492Y0209350D01*
X0198589Y0209804D01*
X0199428Y0210644D01*
X0199883Y0211741D01*
X0199883Y0212928D01*
X0199428Y0214025D01*
X0198589Y0214864D01*
X0197492Y0215319D01*
X0196305Y0215319D01*
X0195339Y0214919D01*
X0182759Y0214919D01*
X0181794Y0215319D01*
X0180606Y0215319D01*
X0179510Y0214864D01*
X0178670Y0214025D01*
X0178239Y0212984D01*
X0178239Y0254764D01*
X0178427Y0254952D01*
X0178925Y0256154D01*
X0178925Y0257455D01*
X0178427Y0258657D01*
X0177507Y0259577D01*
X0176305Y0260075D01*
X0175004Y0260075D01*
X0173802Y0259577D01*
X0172882Y0258657D01*
X0172384Y0257455D01*
X0172384Y0256154D01*
X0172882Y0254952D01*
X0173070Y0254764D01*
X0173070Y0197809D01*
X0153230Y0177969D01*
X0078786Y0177969D01*
X0077836Y0177575D01*
X0062836Y0162575D01*
X0062109Y0161848D01*
X0061716Y0160898D01*
X0061716Y0127425D01*
X0061528Y0127237D01*
X0061030Y0126035D01*
X0061030Y0124734D01*
X0061528Y0123532D01*
X0062448Y0122612D01*
X0063650Y0122114D01*
X0064950Y0122114D01*
X0066152Y0122612D01*
X0067072Y0123532D01*
X0067570Y0124734D01*
X0067570Y0126035D01*
X0067072Y0127237D01*
X0066884Y0127425D01*
X0067308Y0126667D02*
X0346700Y0126667D01*
X0346700Y0125068D02*
X0067570Y0125068D01*
X0067010Y0123470D02*
X0346700Y0123470D01*
X0346700Y0121871D02*
X0056900Y0121871D01*
X0056900Y0120273D02*
X0346700Y0120273D01*
X0346700Y0118674D02*
X0056900Y0118674D01*
X0056900Y0117076D02*
X0346700Y0117076D01*
X0346700Y0115477D02*
X0056900Y0115477D01*
X0056900Y0113879D02*
X0346700Y0113879D01*
X0346700Y0112280D02*
X0056900Y0112280D01*
X0056900Y0110682D02*
X0346700Y0110682D01*
X0346700Y0109083D02*
X0056900Y0109083D01*
X0056900Y0107485D02*
X0346700Y0107485D01*
X0346700Y0105886D02*
X0056900Y0105886D01*
X0056900Y0104288D02*
X0059486Y0104288D01*
X0060167Y0104969D02*
X0057716Y0102518D01*
X0057716Y0099051D01*
X0060167Y0096600D01*
X0063633Y0096600D01*
X0066084Y0099051D01*
X0066084Y0102518D01*
X0063633Y0104969D01*
X0060167Y0104969D01*
X0057887Y0102689D02*
X0056900Y0102689D01*
X0056900Y0101091D02*
X0057716Y0101091D01*
X0057716Y0099492D02*
X0056900Y0099492D01*
X0056900Y0097894D02*
X0058873Y0097894D01*
X0056900Y0096295D02*
X0346700Y0096295D01*
X0346700Y0094697D02*
X0056900Y0094697D01*
X0056900Y0093098D02*
X0346700Y0093098D01*
X0346700Y0091500D02*
X0056900Y0091500D01*
X0056900Y0089901D02*
X0346700Y0089901D01*
X0346700Y0088302D02*
X0056900Y0088302D01*
X0056900Y0086704D02*
X0346700Y0086704D01*
X0346700Y0085105D02*
X0056900Y0085105D01*
X0056900Y0083507D02*
X0346700Y0083507D01*
X0346700Y0081908D02*
X0056900Y0081908D01*
X0056900Y0080310D02*
X0346700Y0080310D01*
X0346700Y0078711D02*
X0056900Y0078711D01*
X0056900Y0077113D02*
X0346700Y0077113D01*
X0346700Y0075514D02*
X0056900Y0075514D01*
X0056900Y0073916D02*
X0346700Y0073916D01*
X0346700Y0072317D02*
X0056900Y0072317D01*
X0056900Y0070719D02*
X0346700Y0070719D01*
X0346700Y0069120D02*
X0056900Y0069120D01*
X0056900Y0067522D02*
X0346700Y0067522D01*
X0346700Y0065923D02*
X0056900Y0065923D01*
X0056900Y0064325D02*
X0346700Y0064325D01*
X0346700Y0062726D02*
X0056900Y0062726D01*
X0056900Y0061128D02*
X0346700Y0061128D01*
X0346700Y0059529D02*
X0056900Y0059529D01*
X0056900Y0057931D02*
X0346700Y0057931D01*
X0346700Y0056332D02*
X0056900Y0056332D01*
X0056900Y0054734D02*
X0346700Y0054734D01*
X0346700Y0053135D02*
X0056900Y0053135D01*
X0056900Y0051537D02*
X0346700Y0051537D01*
X0346700Y0049938D02*
X0056900Y0049938D01*
X0056900Y0048340D02*
X0346700Y0048340D01*
X0346700Y0046741D02*
X0056900Y0046741D01*
X0056900Y0045143D02*
X0346700Y0045143D01*
X0346700Y0043544D02*
X0056900Y0043544D01*
X0056900Y0041946D02*
X0346700Y0041946D01*
X0346700Y0040347D02*
X0056900Y0040347D01*
X0056900Y0038749D02*
X0346700Y0038749D01*
X0346700Y0037150D02*
X0056900Y0037150D01*
X0056900Y0035552D02*
X0346700Y0035552D01*
X0346700Y0033953D02*
X0056900Y0033953D01*
X0056900Y0032355D02*
X0064963Y0032355D01*
X0064712Y0032251D02*
X0062434Y0029972D01*
X0061201Y0026995D01*
X0061201Y0023773D01*
X0062434Y0020797D01*
X0064712Y0018518D01*
X0067689Y0017285D01*
X0070911Y0017285D01*
X0073888Y0018518D01*
X0076166Y0020797D01*
X0077399Y0023773D01*
X0077399Y0026995D01*
X0076166Y0029972D01*
X0073888Y0032251D01*
X0070911Y0033484D01*
X0067689Y0033484D01*
X0064712Y0032251D01*
X0063218Y0030756D02*
X0056900Y0030756D01*
X0056900Y0029158D02*
X0062096Y0029158D01*
X0061434Y0027559D02*
X0056900Y0027559D01*
X0056900Y0025961D02*
X0061201Y0025961D01*
X0061201Y0024362D02*
X0056900Y0024362D01*
X0056900Y0022764D02*
X0061619Y0022764D01*
X0062281Y0021165D02*
X0057196Y0021165D01*
X0058795Y0019567D02*
X0063664Y0019567D01*
X0066040Y0017968D02*
X0060393Y0017968D01*
X0061992Y0016369D02*
X0123108Y0016369D01*
X0123224Y0014771D02*
X0063590Y0014771D01*
X0065189Y0013172D02*
X0124030Y0013172D01*
X0123585Y0017968D02*
X0072560Y0017968D01*
X0074936Y0019567D02*
X0124901Y0019567D01*
X0124656Y0021477D02*
X0127464Y0021477D01*
X0127464Y0025848D01*
X0127636Y0025848D01*
X0127636Y0021477D01*
X0130444Y0021477D01*
X0130902Y0021600D01*
X0131313Y0021837D01*
X0131648Y0022172D01*
X0131885Y0022582D01*
X0132007Y0023040D01*
X0132007Y0025849D01*
X0127636Y0025849D01*
X0127636Y0026020D01*
X0132007Y0026020D01*
X0132007Y0028829D01*
X0131885Y0029287D01*
X0131648Y0029697D01*
X0131313Y0030032D01*
X0130902Y0030269D01*
X0130444Y0030392D01*
X0127636Y0030392D01*
X0127636Y0026020D01*
X0127464Y0026020D01*
X0127464Y0025849D01*
X0123093Y0025849D01*
X0123093Y0023040D01*
X0123215Y0022582D01*
X0123452Y0022172D01*
X0123787Y0021837D01*
X0124198Y0021600D01*
X0124656Y0021477D01*
X0123167Y0022764D02*
X0076981Y0022764D01*
X0077399Y0024362D02*
X0123093Y0024362D01*
X0123093Y0026020D02*
X0127464Y0026020D01*
X0127464Y0030392D01*
X0124656Y0030392D01*
X0124198Y0030269D01*
X0123787Y0030032D01*
X0123452Y0029697D01*
X0123215Y0029287D01*
X0123093Y0028829D01*
X0123093Y0026020D01*
X0123093Y0027559D02*
X0077166Y0027559D01*
X0077399Y0025961D02*
X0127464Y0025961D01*
X0127636Y0025961D02*
X0133108Y0025961D01*
X0133108Y0026818D02*
X0133108Y0025051D01*
X0133784Y0023418D01*
X0135034Y0022169D01*
X0136666Y0021493D01*
X0138434Y0021493D01*
X0140066Y0022169D01*
X0141316Y0023418D01*
X0141992Y0025051D01*
X0141992Y0026818D01*
X0141316Y0028450D01*
X0140066Y0029700D01*
X0138434Y0030376D01*
X0136666Y0030376D01*
X0135034Y0029700D01*
X0133784Y0028450D01*
X0133108Y0026818D01*
X0133415Y0027559D02*
X0132007Y0027559D01*
X0131919Y0029158D02*
X0134492Y0029158D01*
X0133394Y0024362D02*
X0132007Y0024362D01*
X0131933Y0022764D02*
X0134439Y0022764D01*
X0134901Y0019567D02*
X0130199Y0019567D01*
X0131515Y0017968D02*
X0133585Y0017968D01*
X0133108Y0016369D02*
X0131992Y0016369D01*
X0131876Y0014771D02*
X0133224Y0014771D01*
X0134030Y0013172D02*
X0131070Y0013172D01*
X0141070Y0013172D02*
X0144030Y0013172D01*
X0143224Y0014771D02*
X0141876Y0014771D01*
X0141992Y0016369D02*
X0143108Y0016369D01*
X0143585Y0017968D02*
X0141515Y0017968D01*
X0140199Y0019567D02*
X0144901Y0019567D01*
X0145034Y0022169D02*
X0146666Y0021493D01*
X0148434Y0021493D01*
X0150066Y0022169D01*
X0151316Y0023418D01*
X0151992Y0025051D01*
X0151992Y0026818D01*
X0151316Y0028450D01*
X0150066Y0029700D01*
X0148434Y0030376D01*
X0146666Y0030376D01*
X0145034Y0029700D01*
X0143784Y0028450D01*
X0143108Y0026818D01*
X0143108Y0025051D01*
X0143784Y0023418D01*
X0145034Y0022169D01*
X0144439Y0022764D02*
X0140661Y0022764D01*
X0141706Y0024362D02*
X0143394Y0024362D01*
X0143108Y0025961D02*
X0141992Y0025961D01*
X0141685Y0027559D02*
X0143415Y0027559D01*
X0144492Y0029158D02*
X0140608Y0029158D01*
X0150608Y0029158D02*
X0154492Y0029158D01*
X0155034Y0029700D02*
X0153784Y0028450D01*
X0153108Y0026818D01*
X0153108Y0025051D01*
X0153784Y0023418D01*
X0155034Y0022169D01*
X0156666Y0021493D01*
X0158434Y0021493D01*
X0160066Y0022169D01*
X0161316Y0023418D01*
X0161992Y0025051D01*
X0161992Y0026818D01*
X0161316Y0028450D01*
X0160066Y0029700D01*
X0158434Y0030376D01*
X0156666Y0030376D01*
X0155034Y0029700D01*
X0153415Y0027559D02*
X0151685Y0027559D01*
X0151992Y0025961D02*
X0153108Y0025961D01*
X0153394Y0024362D02*
X0151706Y0024362D01*
X0150661Y0022764D02*
X0154439Y0022764D01*
X0154901Y0019567D02*
X0150199Y0019567D01*
X0151515Y0017968D02*
X0153585Y0017968D01*
X0153108Y0016369D02*
X0151992Y0016369D01*
X0151876Y0014771D02*
X0153224Y0014771D01*
X0154030Y0013172D02*
X0151070Y0013172D01*
X0160199Y0019567D02*
X0164901Y0019567D01*
X0163585Y0017968D02*
X0161515Y0017968D01*
X0161992Y0016369D02*
X0163108Y0016369D01*
X0163224Y0014771D02*
X0161876Y0014771D01*
X0161070Y0013172D02*
X0164030Y0013172D01*
X0171070Y0013172D02*
X0174030Y0013172D01*
X0173224Y0014771D02*
X0171876Y0014771D01*
X0171992Y0016369D02*
X0173108Y0016369D01*
X0173585Y0017968D02*
X0171515Y0017968D01*
X0170199Y0019567D02*
X0174901Y0019567D01*
X0174153Y0021493D02*
X0180947Y0021493D01*
X0181992Y0022538D01*
X0181992Y0029331D01*
X0180947Y0030376D01*
X0174153Y0030376D01*
X0173108Y0029331D01*
X0173108Y0022538D01*
X0174153Y0021493D01*
X0173108Y0022764D02*
X0170661Y0022764D01*
X0170066Y0022169D02*
X0171316Y0023418D01*
X0171992Y0025051D01*
X0171992Y0026818D01*
X0171316Y0028450D01*
X0170066Y0029700D01*
X0168434Y0030376D01*
X0166666Y0030376D01*
X0165034Y0029700D01*
X0163784Y0028450D01*
X0163108Y0026818D01*
X0163108Y0025051D01*
X0163784Y0023418D01*
X0165034Y0022169D01*
X0166666Y0021493D01*
X0168434Y0021493D01*
X0170066Y0022169D01*
X0171706Y0024362D02*
X0173108Y0024362D01*
X0173108Y0025961D02*
X0171992Y0025961D01*
X0171685Y0027559D02*
X0173108Y0027559D01*
X0173108Y0029158D02*
X0170608Y0029158D01*
X0164492Y0029158D02*
X0160608Y0029158D01*
X0161685Y0027559D02*
X0163415Y0027559D01*
X0163108Y0025961D02*
X0161992Y0025961D01*
X0161706Y0024362D02*
X0163394Y0024362D01*
X0164439Y0022764D02*
X0160661Y0022764D01*
X0180199Y0019567D02*
X0184901Y0019567D01*
X0183585Y0017968D02*
X0181515Y0017968D01*
X0181992Y0016369D02*
X0183108Y0016369D01*
X0183224Y0014771D02*
X0181876Y0014771D01*
X0181070Y0013172D02*
X0184030Y0013172D01*
X0191070Y0013172D02*
X0194030Y0013172D01*
X0193224Y0014771D02*
X0191876Y0014771D01*
X0191992Y0016369D02*
X0193108Y0016369D01*
X0193585Y0017968D02*
X0191515Y0017968D01*
X0190199Y0019567D02*
X0194901Y0019567D01*
X0195034Y0022169D02*
X0196666Y0021493D01*
X0198434Y0021493D01*
X0200066Y0022169D01*
X0201316Y0023418D01*
X0201992Y0025051D01*
X0201992Y0026818D01*
X0201316Y0028450D01*
X0200066Y0029700D01*
X0198434Y0030376D01*
X0196666Y0030376D01*
X0195034Y0029700D01*
X0193784Y0028450D01*
X0193108Y0026818D01*
X0193108Y0025051D01*
X0193784Y0023418D01*
X0195034Y0022169D01*
X0194439Y0022764D02*
X0190661Y0022764D01*
X0190066Y0022169D02*
X0191316Y0023418D01*
X0191992Y0025051D01*
X0191992Y0026818D01*
X0191316Y0028450D01*
X0190066Y0029700D01*
X0188434Y0030376D01*
X0186666Y0030376D01*
X0185034Y0029700D01*
X0183784Y0028450D01*
X0183108Y0026818D01*
X0183108Y0025051D01*
X0183784Y0023418D01*
X0185034Y0022169D01*
X0186666Y0021493D01*
X0188434Y0021493D01*
X0190066Y0022169D01*
X0191706Y0024362D02*
X0193394Y0024362D01*
X0193108Y0025961D02*
X0191992Y0025961D01*
X0191685Y0027559D02*
X0193415Y0027559D01*
X0194492Y0029158D02*
X0190608Y0029158D01*
X0184492Y0029158D02*
X0181992Y0029158D01*
X0181992Y0027559D02*
X0183415Y0027559D01*
X0183108Y0025961D02*
X0181992Y0025961D01*
X0181992Y0024362D02*
X0183394Y0024362D01*
X0184439Y0022764D02*
X0181992Y0022764D01*
X0200199Y0019567D02*
X0204901Y0019567D01*
X0203585Y0017968D02*
X0201515Y0017968D01*
X0201992Y0016369D02*
X0203108Y0016369D01*
X0203224Y0014771D02*
X0201876Y0014771D01*
X0201070Y0013172D02*
X0204030Y0013172D01*
X0211070Y0013172D02*
X0214030Y0013172D01*
X0213224Y0014771D02*
X0211876Y0014771D01*
X0211992Y0016369D02*
X0213108Y0016369D01*
X0213585Y0017968D02*
X0211515Y0017968D01*
X0210199Y0019567D02*
X0214901Y0019567D01*
X0215034Y0022169D02*
X0216666Y0021493D01*
X0218434Y0021493D01*
X0220066Y0022169D01*
X0221316Y0023418D01*
X0221992Y0025051D01*
X0221992Y0026818D01*
X0221316Y0028450D01*
X0220066Y0029700D01*
X0218434Y0030376D01*
X0216666Y0030376D01*
X0215034Y0029700D01*
X0213784Y0028450D01*
X0213108Y0026818D01*
X0213108Y0025051D01*
X0213784Y0023418D01*
X0215034Y0022169D01*
X0214439Y0022764D02*
X0210661Y0022764D01*
X0210066Y0022169D02*
X0211316Y0023418D01*
X0211992Y0025051D01*
X0211992Y0026818D01*
X0211316Y0028450D01*
X0210066Y0029700D01*
X0208434Y0030376D01*
X0206666Y0030376D01*
X0205034Y0029700D01*
X0203784Y0028450D01*
X0203108Y0026818D01*
X0203108Y0025051D01*
X0203784Y0023418D01*
X0205034Y0022169D01*
X0206666Y0021493D01*
X0208434Y0021493D01*
X0210066Y0022169D01*
X0211706Y0024362D02*
X0213394Y0024362D01*
X0213108Y0025961D02*
X0211992Y0025961D01*
X0211685Y0027559D02*
X0213415Y0027559D01*
X0214492Y0029158D02*
X0210608Y0029158D01*
X0204492Y0029158D02*
X0200608Y0029158D01*
X0201685Y0027559D02*
X0203415Y0027559D01*
X0203108Y0025961D02*
X0201992Y0025961D01*
X0201706Y0024362D02*
X0203394Y0024362D01*
X0204439Y0022764D02*
X0200661Y0022764D01*
X0220199Y0019567D02*
X0224966Y0019567D01*
X0224656Y0021477D02*
X0227464Y0021477D01*
X0227464Y0025848D01*
X0227636Y0025848D01*
X0227636Y0021477D01*
X0230444Y0021477D01*
X0230902Y0021600D01*
X0231313Y0021837D01*
X0231648Y0022172D01*
X0231885Y0022582D01*
X0232007Y0023040D01*
X0232007Y0025849D01*
X0227636Y0025849D01*
X0227636Y0026020D01*
X0232007Y0026020D01*
X0232007Y0028829D01*
X0231885Y0029287D01*
X0231648Y0029697D01*
X0231313Y0030032D01*
X0230902Y0030269D01*
X0230444Y0030392D01*
X0227636Y0030392D01*
X0227636Y0026020D01*
X0227464Y0026020D01*
X0227464Y0025849D01*
X0223093Y0025849D01*
X0223093Y0023040D01*
X0223215Y0022582D01*
X0223452Y0022172D01*
X0223787Y0021837D01*
X0224198Y0021600D01*
X0224656Y0021477D01*
X0223167Y0022764D02*
X0220661Y0022764D01*
X0221706Y0024362D02*
X0223093Y0024362D01*
X0223093Y0026020D02*
X0227464Y0026020D01*
X0227464Y0030392D01*
X0224656Y0030392D01*
X0224198Y0030269D01*
X0223787Y0030032D01*
X0223452Y0029697D01*
X0223215Y0029287D01*
X0223093Y0028829D01*
X0223093Y0026020D01*
X0221992Y0025961D02*
X0227464Y0025961D01*
X0227636Y0025961D02*
X0233108Y0025961D01*
X0233108Y0026818D02*
X0233108Y0025051D01*
X0233784Y0023418D01*
X0235034Y0022169D01*
X0236666Y0021493D01*
X0238434Y0021493D01*
X0240066Y0022169D01*
X0241316Y0023418D01*
X0241992Y0025051D01*
X0241992Y0026818D01*
X0241316Y0028450D01*
X0240066Y0029700D01*
X0238434Y0030376D01*
X0236666Y0030376D01*
X0235034Y0029700D01*
X0233784Y0028450D01*
X0233108Y0026818D01*
X0233415Y0027559D02*
X0232007Y0027559D01*
X0231919Y0029158D02*
X0234492Y0029158D01*
X0233394Y0024362D02*
X0232007Y0024362D01*
X0231933Y0022764D02*
X0234439Y0022764D01*
X0234901Y0019567D02*
X0230134Y0019567D01*
X0231517Y0017968D02*
X0233585Y0017968D01*
X0233108Y0016369D02*
X0231994Y0016369D01*
X0231859Y0014771D02*
X0233224Y0014771D01*
X0234030Y0013172D02*
X0231053Y0013172D01*
X0227636Y0016369D02*
X0227464Y0016369D01*
X0227464Y0017968D02*
X0227636Y0017968D01*
X0227636Y0019567D02*
X0227464Y0019567D01*
X0227464Y0022764D02*
X0227636Y0022764D01*
X0227636Y0024362D02*
X0227464Y0024362D01*
X0227464Y0027559D02*
X0227636Y0027559D01*
X0227636Y0029158D02*
X0227464Y0029158D01*
X0223181Y0029158D02*
X0220608Y0029158D01*
X0221685Y0027559D02*
X0223093Y0027559D01*
X0223583Y0017968D02*
X0221515Y0017968D01*
X0221992Y0016369D02*
X0223106Y0016369D01*
X0223241Y0014771D02*
X0221876Y0014771D01*
X0221070Y0013172D02*
X0224047Y0013172D01*
X0241070Y0013172D02*
X0244030Y0013172D01*
X0243224Y0014771D02*
X0241876Y0014771D01*
X0241992Y0016369D02*
X0243108Y0016369D01*
X0243585Y0017968D02*
X0241515Y0017968D01*
X0240199Y0019567D02*
X0244901Y0019567D01*
X0245034Y0022169D02*
X0246666Y0021493D01*
X0248434Y0021493D01*
X0250066Y0022169D01*
X0251316Y0023418D01*
X0251992Y0025051D01*
X0251992Y0026818D01*
X0251316Y0028450D01*
X0250066Y0029700D01*
X0248434Y0030376D01*
X0246666Y0030376D01*
X0245034Y0029700D01*
X0243784Y0028450D01*
X0243108Y0026818D01*
X0243108Y0025051D01*
X0243784Y0023418D01*
X0245034Y0022169D01*
X0244439Y0022764D02*
X0240661Y0022764D01*
X0241706Y0024362D02*
X0243394Y0024362D01*
X0243108Y0025961D02*
X0241992Y0025961D01*
X0241685Y0027559D02*
X0243415Y0027559D01*
X0244492Y0029158D02*
X0240608Y0029158D01*
X0250608Y0029158D02*
X0254492Y0029158D01*
X0255034Y0029700D02*
X0253784Y0028450D01*
X0253108Y0026818D01*
X0253108Y0025051D01*
X0253784Y0023418D01*
X0255034Y0022169D01*
X0256666Y0021493D01*
X0258434Y0021493D01*
X0260066Y0022169D01*
X0261316Y0023418D01*
X0261992Y0025051D01*
X0261992Y0026818D01*
X0261316Y0028450D01*
X0260066Y0029700D01*
X0258434Y0030376D01*
X0256666Y0030376D01*
X0255034Y0029700D01*
X0253415Y0027559D02*
X0251685Y0027559D01*
X0251992Y0025961D02*
X0253108Y0025961D01*
X0253394Y0024362D02*
X0251706Y0024362D01*
X0250661Y0022764D02*
X0254439Y0022764D01*
X0254901Y0019567D02*
X0250199Y0019567D01*
X0251515Y0017968D02*
X0253585Y0017968D01*
X0253108Y0016369D02*
X0251992Y0016369D01*
X0251876Y0014771D02*
X0253224Y0014771D01*
X0254030Y0013172D02*
X0251070Y0013172D01*
X0261070Y0013172D02*
X0264030Y0013172D01*
X0263224Y0014771D02*
X0261876Y0014771D01*
X0261992Y0016369D02*
X0263108Y0016369D01*
X0263585Y0017968D02*
X0261515Y0017968D01*
X0260199Y0019567D02*
X0264901Y0019567D01*
X0265034Y0022169D02*
X0266666Y0021493D01*
X0268434Y0021493D01*
X0270066Y0022169D01*
X0271316Y0023418D01*
X0271992Y0025051D01*
X0271992Y0026818D01*
X0271316Y0028450D01*
X0270066Y0029700D01*
X0268434Y0030376D01*
X0266666Y0030376D01*
X0265034Y0029700D01*
X0263784Y0028450D01*
X0263108Y0026818D01*
X0263108Y0025051D01*
X0263784Y0023418D01*
X0265034Y0022169D01*
X0264439Y0022764D02*
X0260661Y0022764D01*
X0261706Y0024362D02*
X0263394Y0024362D01*
X0263108Y0025961D02*
X0261992Y0025961D01*
X0261685Y0027559D02*
X0263415Y0027559D01*
X0264492Y0029158D02*
X0260608Y0029158D01*
X0270199Y0019567D02*
X0274901Y0019567D01*
X0274153Y0021493D02*
X0280947Y0021493D01*
X0281992Y0022538D01*
X0281992Y0029331D01*
X0280947Y0030376D01*
X0274153Y0030376D01*
X0273108Y0029331D01*
X0273108Y0022538D01*
X0274153Y0021493D01*
X0273108Y0022764D02*
X0270661Y0022764D01*
X0271706Y0024362D02*
X0273108Y0024362D01*
X0273108Y0025961D02*
X0271992Y0025961D01*
X0271685Y0027559D02*
X0273108Y0027559D01*
X0273108Y0029158D02*
X0270608Y0029158D01*
X0280199Y0019567D02*
X0284901Y0019567D01*
X0283585Y0017968D02*
X0281515Y0017968D01*
X0281992Y0016369D02*
X0283108Y0016369D01*
X0283224Y0014771D02*
X0281876Y0014771D01*
X0281070Y0013172D02*
X0284030Y0013172D01*
X0291070Y0013172D02*
X0294030Y0013172D01*
X0293224Y0014771D02*
X0291876Y0014771D01*
X0291992Y0016369D02*
X0293108Y0016369D01*
X0293585Y0017968D02*
X0291515Y0017968D01*
X0290199Y0019567D02*
X0294901Y0019567D01*
X0295034Y0022169D02*
X0296666Y0021493D01*
X0298434Y0021493D01*
X0300066Y0022169D01*
X0301316Y0023418D01*
X0301992Y0025051D01*
X0301992Y0026818D01*
X0301316Y0028450D01*
X0300066Y0029700D01*
X0298434Y0030376D01*
X0296666Y0030376D01*
X0295034Y0029700D01*
X0293784Y0028450D01*
X0293108Y0026818D01*
X0293108Y0025051D01*
X0293784Y0023418D01*
X0295034Y0022169D01*
X0294439Y0022764D02*
X0290661Y0022764D01*
X0290066Y0022169D02*
X0291316Y0023418D01*
X0291992Y0025051D01*
X0291992Y0026818D01*
X0291316Y0028450D01*
X0290066Y0029700D01*
X0288434Y0030376D01*
X0286666Y0030376D01*
X0285034Y0029700D01*
X0283784Y0028450D01*
X0283108Y0026818D01*
X0283108Y0025051D01*
X0283784Y0023418D01*
X0285034Y0022169D01*
X0286666Y0021493D01*
X0288434Y0021493D01*
X0290066Y0022169D01*
X0291706Y0024362D02*
X0293394Y0024362D01*
X0293108Y0025961D02*
X0291992Y0025961D01*
X0291685Y0027559D02*
X0293415Y0027559D01*
X0294492Y0029158D02*
X0290608Y0029158D01*
X0284492Y0029158D02*
X0281992Y0029158D01*
X0281992Y0027559D02*
X0283415Y0027559D01*
X0283108Y0025961D02*
X0281992Y0025961D01*
X0281992Y0024362D02*
X0283394Y0024362D01*
X0284439Y0022764D02*
X0281992Y0022764D01*
X0273585Y0017968D02*
X0271515Y0017968D01*
X0271992Y0016369D02*
X0273108Y0016369D01*
X0273224Y0014771D02*
X0271876Y0014771D01*
X0271070Y0013172D02*
X0274030Y0013172D01*
X0300199Y0019567D02*
X0304901Y0019567D01*
X0303585Y0017968D02*
X0301515Y0017968D01*
X0301992Y0016369D02*
X0303108Y0016369D01*
X0303224Y0014771D02*
X0301876Y0014771D01*
X0301070Y0013172D02*
X0304030Y0013172D01*
X0311070Y0013172D02*
X0314047Y0013172D01*
X0313241Y0014771D02*
X0311876Y0014771D01*
X0311992Y0016369D02*
X0313106Y0016369D01*
X0313583Y0017968D02*
X0311515Y0017968D01*
X0310199Y0019567D02*
X0314966Y0019567D01*
X0317464Y0019567D02*
X0317636Y0019567D01*
X0317636Y0017968D02*
X0317464Y0017968D01*
X0317464Y0016369D02*
X0317636Y0016369D01*
X0320134Y0019567D02*
X0328664Y0019567D01*
X0329712Y0018518D02*
X0327434Y0020797D01*
X0326201Y0023773D01*
X0326201Y0026995D01*
X0327434Y0029972D01*
X0329712Y0032251D01*
X0332689Y0033484D01*
X0335911Y0033484D01*
X0338888Y0032251D01*
X0341166Y0029972D01*
X0342399Y0026995D01*
X0342399Y0023773D01*
X0341166Y0020797D01*
X0338888Y0018518D01*
X0335911Y0017285D01*
X0332689Y0017285D01*
X0329712Y0018518D01*
X0331040Y0017968D02*
X0321517Y0017968D01*
X0321994Y0016369D02*
X0341608Y0016369D01*
X0340010Y0014771D02*
X0321859Y0014771D01*
X0321053Y0013172D02*
X0338411Y0013172D01*
X0337560Y0017968D02*
X0343207Y0017968D01*
X0344805Y0019567D02*
X0339936Y0019567D01*
X0341319Y0021165D02*
X0346404Y0021165D01*
X0346700Y0022764D02*
X0341981Y0022764D01*
X0342399Y0024362D02*
X0346700Y0024362D01*
X0346700Y0025961D02*
X0342399Y0025961D01*
X0342166Y0027559D02*
X0346700Y0027559D01*
X0346700Y0029158D02*
X0341504Y0029158D01*
X0340382Y0030756D02*
X0346700Y0030756D01*
X0346700Y0032355D02*
X0338637Y0032355D01*
X0329963Y0032355D02*
X0073637Y0032355D01*
X0075382Y0030756D02*
X0328218Y0030756D01*
X0327096Y0029158D02*
X0320608Y0029158D01*
X0320066Y0029700D02*
X0318434Y0030376D01*
X0316666Y0030376D01*
X0315034Y0029700D01*
X0313784Y0028450D01*
X0313108Y0026818D01*
X0313108Y0025051D01*
X0313784Y0023418D01*
X0315034Y0022169D01*
X0316666Y0021493D01*
X0318434Y0021493D01*
X0320066Y0022169D01*
X0321316Y0023418D01*
X0321992Y0025051D01*
X0321992Y0026818D01*
X0321316Y0028450D01*
X0320066Y0029700D01*
X0321685Y0027559D02*
X0326434Y0027559D01*
X0326201Y0025961D02*
X0321992Y0025961D01*
X0321706Y0024362D02*
X0326201Y0024362D01*
X0326619Y0022764D02*
X0320661Y0022764D01*
X0314439Y0022764D02*
X0310661Y0022764D01*
X0310066Y0022169D02*
X0311316Y0023418D01*
X0311992Y0025051D01*
X0311992Y0026818D01*
X0311316Y0028450D01*
X0310066Y0029700D01*
X0308434Y0030376D01*
X0306666Y0030376D01*
X0305034Y0029700D01*
X0303784Y0028450D01*
X0303108Y0026818D01*
X0303108Y0025051D01*
X0303784Y0023418D01*
X0305034Y0022169D01*
X0306666Y0021493D01*
X0308434Y0021493D01*
X0310066Y0022169D01*
X0311706Y0024362D02*
X0313394Y0024362D01*
X0313108Y0025961D02*
X0311992Y0025961D01*
X0311685Y0027559D02*
X0313415Y0027559D01*
X0314492Y0029158D02*
X0310608Y0029158D01*
X0304492Y0029158D02*
X0300608Y0029158D01*
X0301685Y0027559D02*
X0303415Y0027559D01*
X0303108Y0025961D02*
X0301992Y0025961D01*
X0301706Y0024362D02*
X0303394Y0024362D01*
X0304439Y0022764D02*
X0300661Y0022764D01*
X0327281Y0021165D02*
X0076319Y0021165D01*
X0076504Y0029158D02*
X0123181Y0029158D01*
X0127464Y0029158D02*
X0127636Y0029158D01*
X0127636Y0027559D02*
X0127464Y0027559D01*
X0127464Y0024362D02*
X0127636Y0024362D01*
X0127636Y0022764D02*
X0127464Y0022764D01*
X0073640Y0096584D02*
X0071900Y0096584D01*
X0071900Y0100784D01*
X0071900Y0100784D01*
X0071900Y0096584D01*
X0070160Y0096584D01*
X0067700Y0099045D01*
X0067700Y0100784D01*
X0071900Y0100784D01*
X0071900Y0100784D01*
X0076100Y0100784D01*
X0076100Y0099045D01*
X0073640Y0096584D01*
X0074949Y0097894D02*
X0346700Y0097894D01*
X0346700Y0099492D02*
X0076100Y0099492D01*
X0076100Y0100784D02*
X0071900Y0100784D01*
X0071900Y0100784D01*
X0067700Y0100784D01*
X0067700Y0102524D01*
X0070160Y0104984D01*
X0071900Y0104984D01*
X0073640Y0104984D01*
X0076100Y0102524D01*
X0076100Y0100784D01*
X0076100Y0101091D02*
X0346700Y0101091D01*
X0346700Y0102689D02*
X0075935Y0102689D01*
X0074336Y0104288D02*
X0346700Y0104288D01*
X0235842Y0161834D02*
X0231288Y0161834D01*
X0231992Y0163433D02*
X0233779Y0163433D01*
X0233116Y0165031D02*
X0231992Y0165031D01*
X0231992Y0166630D02*
X0233108Y0166630D01*
X0233692Y0168228D02*
X0231992Y0168228D01*
X0231496Y0169827D02*
X0235340Y0169827D01*
X0204300Y0190384D02*
X0204300Y0215384D01*
X0201043Y0212986D02*
X0199858Y0212986D01*
X0199736Y0211388D02*
X0201716Y0211388D01*
X0201716Y0209789D02*
X0198552Y0209789D01*
X0196898Y0212334D02*
X0181200Y0212334D01*
X0179230Y0214585D02*
X0178239Y0214585D01*
X0178239Y0216183D02*
X0200303Y0216183D01*
X0200303Y0214585D02*
X0198868Y0214585D01*
X0201042Y0217782D02*
X0178239Y0217782D01*
X0178239Y0212986D02*
X0178240Y0212986D01*
X0178239Y0211388D02*
X0178362Y0211388D01*
X0178239Y0209789D02*
X0179546Y0209789D01*
X0178239Y0208191D02*
X0201716Y0208191D01*
X0201716Y0206592D02*
X0178239Y0206592D01*
X0178239Y0204994D02*
X0201716Y0204994D01*
X0201716Y0203395D02*
X0178239Y0203395D01*
X0178239Y0201797D02*
X0201716Y0201797D01*
X0201716Y0200198D02*
X0178239Y0200198D01*
X0178239Y0198600D02*
X0201716Y0198600D01*
X0201716Y0197001D02*
X0178239Y0197001D01*
X0177898Y0195403D02*
X0201716Y0195403D01*
X0201716Y0193804D02*
X0176375Y0193804D01*
X0174776Y0192206D02*
X0201716Y0192206D01*
X0200868Y0190607D02*
X0173178Y0190607D01*
X0171579Y0189009D02*
X0199270Y0189009D01*
X0197671Y0187410D02*
X0169980Y0187410D01*
X0168382Y0185812D02*
X0196073Y0185812D01*
X0194474Y0184213D02*
X0166783Y0184213D01*
X0165185Y0182615D02*
X0192876Y0182615D01*
X0191277Y0181016D02*
X0163586Y0181016D01*
X0161988Y0179418D02*
X0189750Y0179418D01*
X0189407Y0177819D02*
X0160389Y0177819D01*
X0158791Y0176221D02*
X0189407Y0176221D01*
X0189407Y0174622D02*
X0157192Y0174622D01*
X0155354Y0173024D02*
X0189407Y0173024D01*
X0189407Y0171425D02*
X0078995Y0171425D01*
X0077397Y0169827D02*
X0123604Y0169827D01*
X0123108Y0169331D02*
X0124153Y0170376D01*
X0130947Y0170376D01*
X0131992Y0169331D01*
X0131992Y0162538D01*
X0130947Y0161493D01*
X0124153Y0161493D01*
X0123108Y0162538D01*
X0123108Y0169331D01*
X0123108Y0168228D02*
X0075798Y0168228D01*
X0074200Y0166630D02*
X0123108Y0166630D01*
X0123108Y0165031D02*
X0072601Y0165031D01*
X0071003Y0163433D02*
X0098602Y0163433D01*
X0099293Y0163719D02*
X0096403Y0162522D01*
X0094191Y0160310D01*
X0092994Y0157420D01*
X0092994Y0154292D01*
X0094191Y0151402D01*
X0096403Y0149190D01*
X0099293Y0147993D01*
X0102421Y0147993D01*
X0105311Y0149190D01*
X0107523Y0151402D01*
X0108720Y0154292D01*
X0108720Y0157420D01*
X0107523Y0160310D01*
X0105311Y0162522D01*
X0102421Y0163719D01*
X0099293Y0163719D01*
X0103112Y0163433D02*
X0123108Y0163433D01*
X0123812Y0161834D02*
X0105999Y0161834D01*
X0107554Y0160236D02*
X0126327Y0160236D01*
X0126666Y0160376D02*
X0125034Y0159700D01*
X0123784Y0158450D01*
X0123108Y0156818D01*
X0123108Y0155051D01*
X0123784Y0153418D01*
X0125034Y0152169D01*
X0126666Y0151493D01*
X0128434Y0151493D01*
X0130066Y0152169D01*
X0131316Y0153418D01*
X0131992Y0155051D01*
X0131992Y0156818D01*
X0131316Y0158450D01*
X0130066Y0159700D01*
X0128434Y0160376D01*
X0126666Y0160376D01*
X0128773Y0160236D02*
X0136327Y0160236D01*
X0136666Y0160376D02*
X0135034Y0159700D01*
X0133784Y0158450D01*
X0133108Y0156818D01*
X0133108Y0155051D01*
X0133784Y0153418D01*
X0135034Y0152169D01*
X0136666Y0151493D01*
X0138434Y0151493D01*
X0140066Y0152169D01*
X0140803Y0152906D01*
X0140917Y0152631D01*
X0141644Y0151904D01*
X0142976Y0150573D01*
X0142976Y0145121D01*
X0142262Y0145121D01*
X0141217Y0144076D01*
X0141217Y0136693D01*
X0142262Y0135647D01*
X0148858Y0135647D01*
X0149300Y0136089D01*
X0149742Y0135647D01*
X0156338Y0135647D01*
X0157383Y0136693D01*
X0157383Y0141073D01*
X0167550Y0151240D01*
X0174579Y0144210D01*
X0174248Y0143879D01*
X0174248Y0136889D01*
X0175293Y0135844D01*
X0181496Y0135844D01*
X0182541Y0136889D01*
X0182541Y0143879D01*
X0181496Y0144925D01*
X0180829Y0144925D01*
X0180585Y0145514D01*
X0171715Y0154384D01*
X0171992Y0155051D01*
X0171992Y0156818D01*
X0171316Y0158450D01*
X0170066Y0159700D01*
X0168434Y0160376D01*
X0166666Y0160376D01*
X0165034Y0159700D01*
X0163784Y0158450D01*
X0163108Y0156818D01*
X0163108Y0155051D01*
X0163385Y0154384D01*
X0154122Y0145121D01*
X0149742Y0145121D01*
X0149300Y0144679D01*
X0148858Y0145121D01*
X0148144Y0145121D01*
X0148144Y0151493D01*
X0148434Y0151493D01*
X0150066Y0152169D01*
X0151316Y0153418D01*
X0151992Y0155051D01*
X0151992Y0156818D01*
X0151316Y0158450D01*
X0150066Y0159700D01*
X0148434Y0160376D01*
X0146666Y0160376D01*
X0145693Y0159973D01*
X0145693Y0160422D01*
X0146763Y0161493D01*
X0148434Y0161493D01*
X0150066Y0162169D01*
X0151316Y0163418D01*
X0151992Y0165051D01*
X0151992Y0166818D01*
X0151316Y0168450D01*
X0150066Y0169700D01*
X0148434Y0170376D01*
X0146666Y0170376D01*
X0145034Y0169700D01*
X0143784Y0168450D01*
X0143108Y0166818D01*
X0143108Y0165147D01*
X0141644Y0163683D01*
X0140917Y0162956D01*
X0140524Y0162007D01*
X0140524Y0159242D01*
X0140066Y0159700D01*
X0138434Y0160376D01*
X0136666Y0160376D01*
X0136666Y0161493D02*
X0138434Y0161493D01*
X0140066Y0162169D01*
X0141316Y0163418D01*
X0141992Y0165051D01*
X0141992Y0166818D01*
X0141316Y0168450D01*
X0140066Y0169700D01*
X0138434Y0170376D01*
X0136666Y0170376D01*
X0135034Y0169700D01*
X0133784Y0168450D01*
X0133108Y0166818D01*
X0133108Y0165051D01*
X0133784Y0163418D01*
X0135034Y0162169D01*
X0136666Y0161493D01*
X0135842Y0161834D02*
X0131288Y0161834D01*
X0131992Y0163433D02*
X0133779Y0163433D01*
X0133116Y0165031D02*
X0131992Y0165031D01*
X0131992Y0166630D02*
X0133108Y0166630D01*
X0133692Y0168228D02*
X0131992Y0168228D01*
X0131496Y0169827D02*
X0135340Y0169827D01*
X0139760Y0169827D02*
X0145340Y0169827D01*
X0143692Y0168228D02*
X0141408Y0168228D01*
X0141992Y0166630D02*
X0143108Y0166630D01*
X0142992Y0165031D02*
X0141984Y0165031D01*
X0141393Y0163433D02*
X0141321Y0163433D01*
X0140524Y0161834D02*
X0139258Y0161834D01*
X0138773Y0160236D02*
X0140524Y0160236D01*
X0143108Y0161493D02*
X0143108Y0154095D01*
X0145560Y0151643D01*
X0145560Y0140384D01*
X0141217Y0141053D02*
X0066884Y0141053D01*
X0066884Y0139455D02*
X0141217Y0139455D01*
X0141217Y0137856D02*
X0066884Y0137856D01*
X0066884Y0136258D02*
X0141651Y0136258D01*
X0141217Y0142652D02*
X0066884Y0142652D01*
X0066884Y0144250D02*
X0141391Y0144250D01*
X0142976Y0145849D02*
X0066884Y0145849D01*
X0066884Y0147447D02*
X0142976Y0147447D01*
X0142976Y0149046D02*
X0104964Y0149046D01*
X0106766Y0150644D02*
X0142904Y0150644D01*
X0141305Y0152243D02*
X0140140Y0152243D01*
X0134960Y0152243D02*
X0130140Y0152243D01*
X0131491Y0153841D02*
X0133609Y0153841D01*
X0133108Y0155440D02*
X0131992Y0155440D01*
X0131900Y0157038D02*
X0133200Y0157038D01*
X0133971Y0158637D02*
X0131129Y0158637D01*
X0123971Y0158637D02*
X0108216Y0158637D01*
X0108720Y0157038D02*
X0123200Y0157038D01*
X0123108Y0155440D02*
X0108720Y0155440D01*
X0108534Y0153841D02*
X0123609Y0153841D01*
X0124960Y0152243D02*
X0107871Y0152243D01*
X0096750Y0149046D02*
X0066884Y0149046D01*
X0066884Y0150644D02*
X0094948Y0150644D01*
X0093843Y0152243D02*
X0066884Y0152243D01*
X0066884Y0153841D02*
X0093181Y0153841D01*
X0092994Y0155440D02*
X0066884Y0155440D01*
X0066884Y0157038D02*
X0092994Y0157038D01*
X0093498Y0158637D02*
X0066884Y0158637D01*
X0067806Y0160236D02*
X0094160Y0160236D01*
X0095716Y0161834D02*
X0069404Y0161834D01*
X0065292Y0165031D02*
X0056900Y0165031D01*
X0056900Y0163433D02*
X0063693Y0163433D01*
X0062103Y0161834D02*
X0056900Y0161834D01*
X0056900Y0160236D02*
X0061716Y0160236D01*
X0061716Y0158637D02*
X0056900Y0158637D01*
X0056900Y0157038D02*
X0061716Y0157038D01*
X0061716Y0155440D02*
X0056900Y0155440D01*
X0056900Y0153841D02*
X0061716Y0153841D01*
X0061716Y0152243D02*
X0056900Y0152243D01*
X0056900Y0150644D02*
X0061716Y0150644D01*
X0061716Y0149046D02*
X0056900Y0149046D01*
X0056900Y0147447D02*
X0061716Y0147447D01*
X0061716Y0145849D02*
X0056900Y0145849D01*
X0056900Y0144250D02*
X0061716Y0144250D01*
X0061716Y0142652D02*
X0056900Y0142652D01*
X0056900Y0141053D02*
X0061716Y0141053D01*
X0061716Y0139455D02*
X0056900Y0139455D01*
X0056900Y0137856D02*
X0061716Y0137856D01*
X0061716Y0136258D02*
X0056900Y0136258D01*
X0056900Y0134659D02*
X0061716Y0134659D01*
X0061716Y0133061D02*
X0056900Y0133061D01*
X0056900Y0131462D02*
X0061716Y0131462D01*
X0061716Y0129864D02*
X0056900Y0129864D01*
X0056900Y0128265D02*
X0061716Y0128265D01*
X0061292Y0126667D02*
X0056900Y0126667D01*
X0056900Y0125068D02*
X0061030Y0125068D01*
X0061590Y0123470D02*
X0056900Y0123470D01*
X0064300Y0125384D02*
X0064300Y0160384D01*
X0079300Y0175384D01*
X0154300Y0175384D01*
X0175655Y0196739D01*
X0175655Y0256804D01*
X0177740Y0259343D02*
X0191716Y0259343D01*
X0191716Y0257745D02*
X0178805Y0257745D01*
X0178921Y0256146D02*
X0191716Y0256146D01*
X0191590Y0254548D02*
X0178239Y0254548D01*
X0178239Y0252949D02*
X0191416Y0252949D01*
X0192363Y0251351D02*
X0178239Y0251351D01*
X0178239Y0249752D02*
X0210527Y0249752D01*
X0211235Y0248154D02*
X0178239Y0248154D01*
X0178239Y0246555D02*
X0214238Y0246555D01*
X0215965Y0248154D02*
X0216489Y0248154D01*
X0219754Y0244957D02*
X0221227Y0244957D01*
X0221351Y0246555D02*
X0221459Y0246555D01*
X0221474Y0243358D02*
X0217679Y0243358D01*
X0215281Y0241760D02*
X0220169Y0241760D01*
X0219977Y0240161D02*
X0212608Y0240161D01*
X0211051Y0240161D02*
X0178239Y0240161D01*
X0178239Y0238563D02*
X0220826Y0238563D01*
X0209142Y0241760D02*
X0178239Y0241760D01*
X0178239Y0243358D02*
X0208845Y0243358D01*
X0209497Y0244957D02*
X0178239Y0244957D01*
X0173070Y0244957D02*
X0171584Y0244957D01*
X0171584Y0246555D02*
X0173070Y0246555D01*
X0173070Y0248154D02*
X0171584Y0248154D01*
X0171584Y0249752D02*
X0173070Y0249752D01*
X0173070Y0251351D02*
X0171584Y0251351D01*
X0171584Y0252949D02*
X0173070Y0252949D01*
X0173070Y0254548D02*
X0171584Y0254548D01*
X0171584Y0256146D02*
X0172388Y0256146D01*
X0172504Y0257745D02*
X0171584Y0257745D01*
X0171584Y0259343D02*
X0173569Y0259343D01*
X0171584Y0260942D02*
X0191716Y0260942D01*
X0191716Y0262540D02*
X0171584Y0262540D01*
X0171584Y0264139D02*
X0191716Y0264139D01*
X0191716Y0265737D02*
X0171584Y0265737D01*
X0171584Y0267336D02*
X0185929Y0267336D01*
X0187271Y0267336D02*
X0191716Y0267336D01*
X0191716Y0268934D02*
X0189326Y0268934D01*
X0189673Y0270533D02*
X0191716Y0270533D01*
X0188796Y0276927D02*
X0188605Y0276927D01*
X0181799Y0281722D02*
X0179206Y0281722D01*
X0177934Y0283321D02*
X0182600Y0283321D01*
X0181343Y0284919D02*
X0177934Y0284919D01*
X0177934Y0286518D02*
X0180954Y0286518D01*
X0181205Y0288116D02*
X0177934Y0288116D01*
X0177934Y0289715D02*
X0182267Y0289715D01*
X0182107Y0291313D02*
X0177934Y0291313D01*
X0177934Y0292912D02*
X0181139Y0292912D01*
X0180954Y0294510D02*
X0177934Y0294510D01*
X0177506Y0296109D02*
X0181409Y0296109D01*
X0182770Y0297707D02*
X0176185Y0297707D01*
X0180261Y0307299D02*
X0187139Y0307299D01*
X0185541Y0308897D02*
X0181859Y0308897D01*
X0182822Y0310496D02*
X0184578Y0310496D01*
X0183916Y0312094D02*
X0183484Y0312094D01*
X0183534Y0313693D02*
X0183866Y0313693D01*
X0183882Y0315291D02*
X0183518Y0315291D01*
X0182856Y0316890D02*
X0184544Y0316890D01*
X0185457Y0318488D02*
X0181943Y0318488D01*
X0180344Y0320087D02*
X0187056Y0320087D01*
X0187176Y0322862D02*
X0189981Y0321700D01*
X0193019Y0321700D01*
X0195824Y0322862D01*
X0197972Y0325010D01*
X0199134Y0327816D01*
X0199134Y0330853D01*
X0197972Y0333659D01*
X0195824Y0335806D01*
X0193019Y0336969D01*
X0189981Y0336969D01*
X0187176Y0335806D01*
X0185028Y0333659D01*
X0183866Y0330853D01*
X0183866Y0327816D01*
X0185028Y0325010D01*
X0187176Y0322862D01*
X0186754Y0323284D02*
X0180646Y0323284D01*
X0182244Y0324882D02*
X0185156Y0324882D01*
X0184419Y0326481D02*
X0182981Y0326481D01*
X0183534Y0328079D02*
X0183866Y0328079D01*
X0183866Y0329678D02*
X0183534Y0329678D01*
X0183359Y0331276D02*
X0184041Y0331276D01*
X0184703Y0332875D02*
X0182697Y0332875D01*
X0182934Y0334473D02*
X0185842Y0334473D01*
X0187816Y0336072D02*
X0182934Y0336072D01*
X0195184Y0336072D02*
X0203416Y0336072D01*
X0201442Y0334473D02*
X0197158Y0334473D01*
X0198297Y0332875D02*
X0200303Y0332875D01*
X0199641Y0331276D02*
X0198959Y0331276D01*
X0199134Y0329678D02*
X0199466Y0329678D01*
X0199466Y0328079D02*
X0199134Y0328079D01*
X0198581Y0326481D02*
X0200019Y0326481D01*
X0199417Y0324882D02*
X0197844Y0324882D01*
X0197819Y0323284D02*
X0196246Y0323284D01*
X0196220Y0321685D02*
X0102300Y0321685D01*
X0102300Y0323185D02*
X0101036Y0326236D01*
X0098702Y0328571D01*
X0095651Y0329834D01*
X0092349Y0329834D01*
X0089298Y0328571D01*
X0086964Y0326236D01*
X0085700Y0323185D01*
X0085700Y0319883D01*
X0086964Y0316833D01*
X0089298Y0314498D01*
X0092349Y0313234D01*
X0095651Y0313234D01*
X0098702Y0314498D01*
X0101036Y0316833D01*
X0102300Y0319883D01*
X0102300Y0323185D01*
X0102259Y0323284D02*
X0124354Y0323284D01*
X0124776Y0322862D02*
X0127581Y0321700D01*
X0130619Y0321700D01*
X0133424Y0322862D01*
X0135572Y0325010D01*
X0136734Y0327816D01*
X0136734Y0330853D01*
X0135572Y0333659D01*
X0133424Y0335806D01*
X0130619Y0336969D01*
X0127581Y0336969D01*
X0124776Y0335806D01*
X0122628Y0333659D01*
X0121466Y0330853D01*
X0121466Y0327816D01*
X0122628Y0325010D01*
X0124776Y0322862D01*
X0124656Y0320087D02*
X0102300Y0320087D01*
X0101722Y0318488D02*
X0123057Y0318488D01*
X0122144Y0316890D02*
X0101060Y0316890D01*
X0099495Y0315291D02*
X0121482Y0315291D01*
X0121466Y0313693D02*
X0096757Y0313693D01*
X0091243Y0313693D02*
X0056900Y0313693D01*
X0056900Y0315291D02*
X0088505Y0315291D01*
X0086940Y0316890D02*
X0056900Y0316890D01*
X0056900Y0318488D02*
X0086278Y0318488D01*
X0085700Y0320087D02*
X0056900Y0320087D01*
X0056900Y0321685D02*
X0085700Y0321685D01*
X0085741Y0323284D02*
X0056900Y0323284D01*
X0056900Y0324882D02*
X0086403Y0324882D01*
X0087208Y0326481D02*
X0056900Y0326481D01*
X0056900Y0328079D02*
X0088807Y0328079D01*
X0091971Y0329678D02*
X0056900Y0329678D01*
X0056900Y0331276D02*
X0121641Y0331276D01*
X0121466Y0329678D02*
X0096029Y0329678D01*
X0099193Y0328079D02*
X0121466Y0328079D01*
X0122019Y0326481D02*
X0100792Y0326481D01*
X0101597Y0324882D02*
X0122756Y0324882D01*
X0122303Y0332875D02*
X0056900Y0332875D01*
X0056900Y0334473D02*
X0123442Y0334473D01*
X0125416Y0336072D02*
X0056900Y0336072D01*
X0056900Y0337670D02*
X0142016Y0337670D01*
X0142016Y0336486D02*
X0140376Y0335806D01*
X0138228Y0333659D01*
X0137066Y0330853D01*
X0137066Y0327816D01*
X0138228Y0325010D01*
X0140376Y0322862D01*
X0143181Y0321700D01*
X0146219Y0321700D01*
X0149024Y0322862D01*
X0151172Y0325010D01*
X0152334Y0327816D01*
X0152334Y0330853D01*
X0151172Y0333659D01*
X0149024Y0335806D01*
X0146584Y0336817D01*
X0146584Y0341972D01*
X0146905Y0342294D01*
X0147373Y0343423D01*
X0147373Y0344646D01*
X0146905Y0345775D01*
X0146041Y0346640D01*
X0144911Y0347108D01*
X0143689Y0347108D01*
X0142559Y0346640D01*
X0141695Y0345775D01*
X0141227Y0344646D01*
X0141227Y0343423D01*
X0141695Y0342294D01*
X0142016Y0341972D01*
X0142016Y0336486D01*
X0141016Y0336072D02*
X0132784Y0336072D01*
X0134758Y0334473D02*
X0139042Y0334473D01*
X0137903Y0332875D02*
X0135897Y0332875D01*
X0136559Y0331276D02*
X0137241Y0331276D01*
X0137066Y0329678D02*
X0136734Y0329678D01*
X0136734Y0328079D02*
X0137066Y0328079D01*
X0137619Y0326481D02*
X0136181Y0326481D01*
X0135444Y0324882D02*
X0138356Y0324882D01*
X0139954Y0323284D02*
X0133846Y0323284D01*
X0133544Y0320087D02*
X0140256Y0320087D01*
X0138657Y0318488D02*
X0135143Y0318488D01*
X0136056Y0316890D02*
X0137744Y0316890D01*
X0137082Y0315291D02*
X0136718Y0315291D01*
X0136734Y0313693D02*
X0137066Y0313693D01*
X0137116Y0312094D02*
X0136684Y0312094D01*
X0136022Y0310496D02*
X0137778Y0310496D01*
X0137168Y0308897D02*
X0138741Y0308897D01*
X0138766Y0307299D02*
X0140339Y0307299D01*
X0140365Y0305700D02*
X0148602Y0305700D01*
X0149978Y0304102D02*
X0141963Y0304102D01*
X0138699Y0300905D02*
X0056900Y0300905D01*
X0056900Y0302503D02*
X0137101Y0302503D01*
X0135502Y0304102D02*
X0056900Y0304102D01*
X0056900Y0305700D02*
X0133904Y0305700D01*
X0140298Y0299306D02*
X0056900Y0299306D01*
X0056900Y0297707D02*
X0161944Y0297707D01*
X0162959Y0296109D02*
X0056900Y0296109D01*
X0056900Y0294510D02*
X0122509Y0294510D01*
X0122567Y0294569D02*
X0120116Y0292118D01*
X0120116Y0288651D01*
X0122567Y0286200D01*
X0126033Y0286200D01*
X0128484Y0288651D01*
X0128484Y0292118D01*
X0126033Y0294569D01*
X0122567Y0294569D01*
X0120910Y0292912D02*
X0090790Y0292912D01*
X0090583Y0293119D02*
X0087117Y0293119D01*
X0084666Y0290668D01*
X0084666Y0287201D01*
X0087117Y0284750D01*
X0090583Y0284750D01*
X0093034Y0287201D01*
X0093034Y0290668D01*
X0090583Y0293119D01*
X0092388Y0291313D02*
X0120116Y0291313D01*
X0120116Y0289715D02*
X0093034Y0289715D01*
X0093034Y0288116D02*
X0120651Y0288116D01*
X0122249Y0286518D02*
X0092351Y0286518D01*
X0090752Y0284919D02*
X0167016Y0284919D01*
X0167016Y0283321D02*
X0076084Y0283321D01*
X0076084Y0284919D02*
X0086948Y0284919D01*
X0085349Y0286518D02*
X0075690Y0286518D01*
X0076084Y0281722D02*
X0167016Y0281722D01*
X0167016Y0280124D02*
X0076084Y0280124D01*
X0071066Y0277369D02*
X0087488Y0276119D01*
X0100722Y0259134D01*
X0106800Y0255384D01*
X0146800Y0255384D01*
X0142660Y0251245D02*
X0142270Y0251634D01*
X0106800Y0251634D01*
X0099567Y0254134D01*
X0085583Y0271869D01*
X0063016Y0271869D01*
X0064300Y0268084D01*
X0071066Y0277369D02*
X0064300Y0280384D01*
X0056900Y0288116D02*
X0084666Y0288116D01*
X0084666Y0289715D02*
X0056900Y0289715D01*
X0056900Y0291313D02*
X0085312Y0291313D01*
X0086910Y0292912D02*
X0056900Y0292912D01*
X0056900Y0307299D02*
X0124739Y0307299D01*
X0123141Y0308897D02*
X0056900Y0308897D01*
X0056900Y0310496D02*
X0122178Y0310496D01*
X0121516Y0312094D02*
X0056900Y0312094D01*
X0056900Y0339269D02*
X0142016Y0339269D01*
X0142016Y0340867D02*
X0056900Y0340867D01*
X0056900Y0342466D02*
X0141623Y0342466D01*
X0141227Y0344064D02*
X0056900Y0344064D01*
X0056900Y0345663D02*
X0141648Y0345663D01*
X0146952Y0345663D02*
X0161975Y0345663D01*
X0162016Y0344064D02*
X0147373Y0344064D01*
X0146977Y0342466D02*
X0162016Y0342466D01*
X0162016Y0340867D02*
X0146584Y0340867D01*
X0146584Y0339269D02*
X0162016Y0339269D01*
X0162016Y0337670D02*
X0146584Y0337670D01*
X0148384Y0336072D02*
X0156616Y0336072D01*
X0154642Y0334473D02*
X0150358Y0334473D01*
X0151497Y0332875D02*
X0153503Y0332875D01*
X0152841Y0331276D02*
X0152159Y0331276D01*
X0152334Y0329678D02*
X0152666Y0329678D01*
X0152666Y0328079D02*
X0152334Y0328079D01*
X0151781Y0326481D02*
X0153219Y0326481D01*
X0153956Y0324882D02*
X0151044Y0324882D01*
X0149446Y0323284D02*
X0155554Y0323284D01*
X0155856Y0320087D02*
X0149144Y0320087D01*
X0150743Y0318488D02*
X0154257Y0318488D01*
X0153344Y0316890D02*
X0151656Y0316890D01*
X0152318Y0315291D02*
X0152682Y0315291D01*
X0152666Y0313693D02*
X0152334Y0313693D01*
X0152284Y0312094D02*
X0152716Y0312094D01*
X0153378Y0310496D02*
X0151622Y0310496D01*
X0151878Y0308897D02*
X0154341Y0308897D01*
X0153254Y0307299D02*
X0155939Y0307299D01*
X0163974Y0294510D02*
X0126091Y0294510D01*
X0127690Y0292912D02*
X0164989Y0292912D01*
X0166004Y0291313D02*
X0128484Y0291313D01*
X0128484Y0289715D02*
X0167016Y0289715D01*
X0167016Y0288116D02*
X0127949Y0288116D01*
X0126351Y0286518D02*
X0167016Y0286518D01*
X0167016Y0278525D02*
X0088483Y0278525D01*
X0090134Y0276927D02*
X0167016Y0276927D01*
X0167016Y0275328D02*
X0146695Y0275328D01*
X0147407Y0275034D02*
X0145391Y0275869D01*
X0143209Y0275869D01*
X0141193Y0275034D01*
X0139651Y0273491D01*
X0139300Y0272644D01*
X0138949Y0273491D01*
X0137407Y0275034D01*
X0135391Y0275869D01*
X0133209Y0275869D01*
X0131193Y0275034D01*
X0129651Y0273491D01*
X0128816Y0271475D01*
X0128816Y0269293D01*
X0129651Y0267278D01*
X0131193Y0265735D01*
X0133209Y0264900D01*
X0135391Y0264900D01*
X0137407Y0265735D01*
X0138949Y0267278D01*
X0139300Y0268124D01*
X0139651Y0267278D01*
X0141193Y0265735D01*
X0143209Y0264900D01*
X0145391Y0264900D01*
X0147407Y0265735D01*
X0148949Y0267278D01*
X0149784Y0269293D01*
X0149784Y0271475D01*
X0148949Y0273491D01*
X0147407Y0275034D01*
X0148710Y0273730D02*
X0167016Y0273730D01*
X0167016Y0272131D02*
X0149513Y0272131D01*
X0149784Y0270533D02*
X0167016Y0270533D01*
X0167016Y0268934D02*
X0149635Y0268934D01*
X0148973Y0267336D02*
X0167016Y0267336D01*
X0167016Y0265737D02*
X0147409Y0265737D01*
X0141191Y0265737D02*
X0137409Y0265737D01*
X0138973Y0267336D02*
X0139627Y0267336D01*
X0139890Y0273730D02*
X0138710Y0273730D01*
X0136695Y0275328D02*
X0141905Y0275328D01*
X0131905Y0275328D02*
X0111695Y0275328D01*
X0113710Y0273730D02*
X0129890Y0273730D01*
X0129087Y0272131D02*
X0114512Y0272131D01*
X0114784Y0270533D02*
X0128816Y0270533D01*
X0128965Y0268934D02*
X0114635Y0268934D01*
X0113973Y0267336D02*
X0129627Y0267336D01*
X0131191Y0265737D02*
X0112409Y0265737D01*
X0106191Y0265737D02*
X0102409Y0265737D01*
X0103973Y0267336D02*
X0104627Y0267336D01*
X0100099Y0264139D02*
X0122115Y0264139D01*
X0122560Y0264584D02*
X0120100Y0262124D01*
X0120100Y0260384D01*
X0124300Y0260384D01*
X0128500Y0260384D01*
X0128500Y0262124D01*
X0126040Y0264584D01*
X0124300Y0264584D01*
X0122560Y0264584D01*
X0124300Y0264584D02*
X0124300Y0260384D01*
X0124300Y0260384D01*
X0124300Y0264584D01*
X0124300Y0264139D02*
X0124300Y0264139D01*
X0124300Y0262540D02*
X0124300Y0262540D01*
X0124300Y0260942D02*
X0124300Y0260942D01*
X0126485Y0264139D02*
X0167016Y0264139D01*
X0167016Y0262540D02*
X0128084Y0262540D01*
X0128500Y0260942D02*
X0167016Y0260942D01*
X0167016Y0259343D02*
X0128500Y0259343D01*
X0120100Y0259343D02*
X0105305Y0259343D01*
X0102714Y0260942D02*
X0120100Y0260942D01*
X0120516Y0262540D02*
X0101344Y0262540D01*
X0093429Y0257745D02*
X0093050Y0257745D01*
X0088850Y0260942D02*
X0088850Y0260942D01*
X0088850Y0262540D02*
X0088850Y0262540D01*
X0088388Y0264139D02*
X0076084Y0264139D01*
X0076084Y0265737D02*
X0087127Y0265737D01*
X0085867Y0267336D02*
X0076084Y0267336D01*
X0076084Y0268934D02*
X0084606Y0268934D01*
X0086516Y0262540D02*
X0076084Y0262540D01*
X0076014Y0260942D02*
X0084918Y0260942D01*
X0084650Y0259343D02*
X0076100Y0259343D01*
X0076100Y0252949D02*
X0097211Y0252949D01*
X0099710Y0251351D02*
X0076100Y0251351D01*
X0075994Y0249752D02*
X0104335Y0249752D01*
X0093306Y0248154D02*
X0150354Y0248154D01*
X0152386Y0246531D02*
X0154300Y0246531D01*
X0154300Y0246931D01*
X0152386Y0246531D02*
X0149980Y0244125D01*
X0089300Y0244125D01*
X0089290Y0244134D01*
X0083050Y0244134D01*
X0076800Y0237884D01*
X0064300Y0237884D01*
X0056900Y0244957D02*
X0080218Y0244957D01*
X0078619Y0243358D02*
X0076084Y0243358D01*
X0076084Y0241760D02*
X0077021Y0241760D01*
X0082141Y0246555D02*
X0056900Y0246555D01*
X0056900Y0248154D02*
X0085294Y0248154D01*
X0089300Y0236644D02*
X0089300Y0230384D01*
X0078050Y0230384D01*
X0076800Y0225384D02*
X0064300Y0225384D01*
X0056900Y0216183D02*
X0084563Y0216183D01*
X0094037Y0216183D02*
X0173070Y0216183D01*
X0173070Y0214585D02*
X0056900Y0214585D01*
X0056900Y0212986D02*
X0173070Y0212986D01*
X0173070Y0211388D02*
X0056900Y0211388D01*
X0056900Y0209789D02*
X0173070Y0209789D01*
X0173070Y0208191D02*
X0166070Y0208191D01*
X0166152Y0208157D02*
X0164950Y0208654D01*
X0163650Y0208654D01*
X0162448Y0208157D01*
X0161528Y0207237D01*
X0161030Y0206035D01*
X0161030Y0205769D01*
X0148750Y0193489D01*
X0148750Y0193791D01*
X0148210Y0195095D01*
X0147211Y0196094D01*
X0145906Y0196634D01*
X0144494Y0196634D01*
X0143189Y0196094D01*
X0142190Y0195095D01*
X0141650Y0193791D01*
X0141650Y0192378D01*
X0142190Y0191073D01*
X0143189Y0190075D01*
X0144494Y0189534D01*
X0144795Y0189534D01*
X0143230Y0187969D01*
X0136276Y0187969D01*
X0135764Y0188481D01*
X0134352Y0189893D01*
X0134352Y0193879D01*
X0133307Y0194925D01*
X0127104Y0194925D01*
X0126059Y0193879D01*
X0126059Y0186889D01*
X0127104Y0185844D01*
X0131091Y0185844D01*
X0131716Y0185219D01*
X0131716Y0184870D01*
X0132109Y0183921D01*
X0132836Y0183194D01*
X0133786Y0182800D01*
X0144814Y0182800D01*
X0145764Y0183194D01*
X0146491Y0183921D01*
X0164685Y0202114D01*
X0164950Y0202114D01*
X0166152Y0202612D01*
X0167072Y0203532D01*
X0167570Y0204734D01*
X0167570Y0206035D01*
X0167072Y0207237D01*
X0166152Y0208157D01*
X0167339Y0206592D02*
X0173070Y0206592D01*
X0173070Y0204994D02*
X0167570Y0204994D01*
X0166936Y0203395D02*
X0173070Y0203395D01*
X0173070Y0201797D02*
X0164367Y0201797D01*
X0164494Y0200634D02*
X0163189Y0200094D01*
X0162190Y0199095D01*
X0161650Y0197791D01*
X0161650Y0196378D01*
X0162190Y0195073D01*
X0163189Y0194075D01*
X0164494Y0193534D01*
X0165906Y0193534D01*
X0167211Y0194075D01*
X0168210Y0195073D01*
X0168750Y0196378D01*
X0168750Y0197791D01*
X0168210Y0199095D01*
X0167211Y0200094D01*
X0165906Y0200634D01*
X0164494Y0200634D01*
X0163441Y0200198D02*
X0162769Y0200198D01*
X0161985Y0198600D02*
X0161170Y0198600D01*
X0161650Y0197001D02*
X0159572Y0197001D01*
X0157973Y0195403D02*
X0162054Y0195403D01*
X0163842Y0193804D02*
X0156375Y0193804D01*
X0154776Y0192206D02*
X0167467Y0192206D01*
X0166558Y0193804D02*
X0169065Y0193804D01*
X0168346Y0195403D02*
X0170664Y0195403D01*
X0172262Y0197001D02*
X0168750Y0197001D01*
X0168415Y0198600D02*
X0173070Y0198600D01*
X0173070Y0200198D02*
X0166959Y0200198D01*
X0164300Y0205384D02*
X0144300Y0185384D01*
X0134300Y0185384D01*
X0134300Y0186290D01*
X0130206Y0190384D01*
X0134352Y0190607D02*
X0142657Y0190607D01*
X0141721Y0192206D02*
X0134352Y0192206D01*
X0134352Y0193804D02*
X0141656Y0193804D01*
X0142498Y0195403D02*
X0056900Y0195403D01*
X0056900Y0197001D02*
X0152262Y0197001D01*
X0150664Y0195403D02*
X0147902Y0195403D01*
X0148744Y0193804D02*
X0149065Y0193804D01*
X0147211Y0198075D02*
X0145906Y0197534D01*
X0144494Y0197534D01*
X0143189Y0198075D01*
X0142190Y0199073D01*
X0141650Y0200378D01*
X0141650Y0201791D01*
X0142190Y0203095D01*
X0143189Y0204094D01*
X0144494Y0204634D01*
X0145906Y0204634D01*
X0147211Y0204094D01*
X0148210Y0203095D01*
X0148750Y0201791D01*
X0148750Y0200378D01*
X0148210Y0199073D01*
X0147211Y0198075D01*
X0147736Y0198600D02*
X0153861Y0198600D01*
X0155459Y0200198D02*
X0148675Y0200198D01*
X0148747Y0201797D02*
X0157058Y0201797D01*
X0158656Y0203395D02*
X0147909Y0203395D01*
X0142490Y0203395D02*
X0056900Y0203395D01*
X0056900Y0201797D02*
X0141653Y0201797D01*
X0141725Y0200198D02*
X0056900Y0200198D01*
X0056900Y0198600D02*
X0142664Y0198600D01*
X0153178Y0190607D02*
X0165868Y0190607D01*
X0164270Y0189009D02*
X0151579Y0189009D01*
X0149980Y0187410D02*
X0162671Y0187410D01*
X0161073Y0185812D02*
X0148382Y0185812D01*
X0146783Y0184213D02*
X0159474Y0184213D01*
X0157876Y0182615D02*
X0056900Y0182615D01*
X0056900Y0184213D02*
X0131988Y0184213D01*
X0131124Y0185812D02*
X0056900Y0185812D01*
X0056900Y0187410D02*
X0102421Y0187410D01*
X0102336Y0187445D02*
X0103610Y0186917D01*
X0104990Y0186917D01*
X0106264Y0187445D01*
X0106619Y0187800D01*
X0114248Y0187800D01*
X0114248Y0186889D01*
X0115293Y0185844D01*
X0121496Y0185844D01*
X0122541Y0186889D01*
X0122541Y0193879D01*
X0121496Y0194925D01*
X0115293Y0194925D01*
X0114248Y0193879D01*
X0114248Y0192969D01*
X0106619Y0192969D01*
X0106264Y0193323D01*
X0104990Y0193851D01*
X0103610Y0193851D01*
X0102336Y0193323D01*
X0101361Y0192348D01*
X0100833Y0191074D01*
X0100833Y0189695D01*
X0101361Y0188421D01*
X0102336Y0187445D01*
X0101117Y0189009D02*
X0056900Y0189009D01*
X0056900Y0190607D02*
X0100833Y0190607D01*
X0101302Y0192206D02*
X0056900Y0192206D01*
X0056900Y0193804D02*
X0103497Y0193804D01*
X0105103Y0193804D02*
X0114248Y0193804D01*
X0118394Y0190384D02*
X0104300Y0190384D01*
X0106179Y0187410D02*
X0114248Y0187410D01*
X0122541Y0187410D02*
X0126059Y0187410D01*
X0126059Y0189009D02*
X0122541Y0189009D01*
X0122541Y0190607D02*
X0126059Y0190607D01*
X0126059Y0192206D02*
X0122541Y0192206D01*
X0122541Y0193804D02*
X0126059Y0193804D01*
X0135236Y0189009D02*
X0144270Y0189009D01*
X0146491Y0183921D02*
X0146491Y0183921D01*
X0154679Y0179418D02*
X0056900Y0179418D01*
X0056900Y0181016D02*
X0156277Y0181016D01*
X0156666Y0170376D02*
X0155034Y0169700D01*
X0153784Y0168450D01*
X0153108Y0166818D01*
X0153108Y0165051D01*
X0153784Y0163418D01*
X0155034Y0162169D01*
X0156666Y0161493D01*
X0158434Y0161493D01*
X0160066Y0162169D01*
X0161316Y0163418D01*
X0161992Y0165051D01*
X0161992Y0166818D01*
X0161316Y0168450D01*
X0160066Y0169700D01*
X0158434Y0170376D01*
X0156666Y0170376D01*
X0155340Y0169827D02*
X0149760Y0169827D01*
X0151408Y0168228D02*
X0153692Y0168228D01*
X0153108Y0166630D02*
X0151992Y0166630D01*
X0151984Y0165031D02*
X0153116Y0165031D01*
X0153779Y0163433D02*
X0151321Y0163433D01*
X0149258Y0161834D02*
X0155842Y0161834D01*
X0156327Y0160236D02*
X0148773Y0160236D01*
X0146327Y0160236D02*
X0145693Y0160236D01*
X0143108Y0161493D02*
X0147550Y0165934D01*
X0151129Y0158637D02*
X0153971Y0158637D01*
X0153784Y0158450D02*
X0153108Y0156818D01*
X0153108Y0155051D01*
X0153784Y0153418D01*
X0155034Y0152169D01*
X0156666Y0151493D01*
X0158434Y0151493D01*
X0160066Y0152169D01*
X0161316Y0153418D01*
X0161992Y0155051D01*
X0161992Y0156818D01*
X0161316Y0158450D01*
X0160066Y0159700D01*
X0158434Y0160376D01*
X0156666Y0160376D01*
X0155034Y0159700D01*
X0153784Y0158450D01*
X0153200Y0157038D02*
X0151900Y0157038D01*
X0151992Y0155440D02*
X0153108Y0155440D01*
X0153609Y0153841D02*
X0151491Y0153841D01*
X0150140Y0152243D02*
X0154960Y0152243D01*
X0158047Y0149046D02*
X0148144Y0149046D01*
X0148144Y0150644D02*
X0159646Y0150644D01*
X0160140Y0152243D02*
X0161244Y0152243D01*
X0161491Y0153841D02*
X0162843Y0153841D01*
X0163108Y0155440D02*
X0161992Y0155440D01*
X0161900Y0157038D02*
X0163200Y0157038D01*
X0163971Y0158637D02*
X0161129Y0158637D01*
X0158773Y0160236D02*
X0166327Y0160236D01*
X0166666Y0161493D02*
X0168434Y0161493D01*
X0170066Y0162169D01*
X0171316Y0163418D01*
X0171992Y0165051D01*
X0171992Y0166818D01*
X0171316Y0168450D01*
X0170066Y0169700D01*
X0168434Y0170376D01*
X0166666Y0170376D01*
X0165034Y0169700D01*
X0163784Y0168450D01*
X0163108Y0166818D01*
X0163108Y0165051D01*
X0163784Y0163418D01*
X0165034Y0162169D01*
X0166666Y0161493D01*
X0165842Y0161834D02*
X0159258Y0161834D01*
X0161321Y0163433D02*
X0163779Y0163433D01*
X0163116Y0165031D02*
X0161984Y0165031D01*
X0161992Y0166630D02*
X0163108Y0166630D01*
X0163692Y0168228D02*
X0161408Y0168228D01*
X0159760Y0169827D02*
X0165340Y0169827D01*
X0169760Y0169827D02*
X0173604Y0169827D01*
X0173108Y0169331D02*
X0174153Y0170376D01*
X0180947Y0170376D01*
X0181992Y0169331D01*
X0181992Y0162538D01*
X0180947Y0161493D01*
X0174153Y0161493D01*
X0173108Y0162538D01*
X0173108Y0169331D01*
X0173108Y0168228D02*
X0171408Y0168228D01*
X0171992Y0166630D02*
X0173108Y0166630D01*
X0173108Y0165031D02*
X0171984Y0165031D01*
X0171321Y0163433D02*
X0173108Y0163433D01*
X0173812Y0161834D02*
X0169258Y0161834D01*
X0168773Y0160236D02*
X0176363Y0160236D01*
X0176506Y0160282D02*
X0175839Y0160065D01*
X0175214Y0159747D01*
X0174646Y0159334D01*
X0174150Y0158838D01*
X0173738Y0158271D01*
X0173419Y0157645D01*
X0173202Y0156978D01*
X0173093Y0156285D01*
X0173093Y0156020D01*
X0177464Y0156020D01*
X0177464Y0155849D01*
X0173093Y0155849D01*
X0173093Y0155584D01*
X0173202Y0154891D01*
X0173419Y0154223D01*
X0173738Y0153598D01*
X0174150Y0153031D01*
X0174646Y0152534D01*
X0175214Y0152122D01*
X0175839Y0151803D01*
X0176506Y0151587D01*
X0177199Y0151477D01*
X0177464Y0151477D01*
X0177464Y0155848D01*
X0177636Y0155848D01*
X0177636Y0151477D01*
X0177901Y0151477D01*
X0178594Y0151587D01*
X0179261Y0151803D01*
X0179886Y0152122D01*
X0180454Y0152534D01*
X0180950Y0153031D01*
X0181362Y0153598D01*
X0181681Y0154223D01*
X0181898Y0154891D01*
X0182007Y0155584D01*
X0182007Y0155849D01*
X0177636Y0155849D01*
X0177636Y0156020D01*
X0182007Y0156020D01*
X0182007Y0156285D01*
X0181898Y0156978D01*
X0181681Y0157645D01*
X0181362Y0158271D01*
X0180950Y0158838D01*
X0180454Y0159334D01*
X0179886Y0159747D01*
X0179261Y0160065D01*
X0178594Y0160282D01*
X0177901Y0160392D01*
X0177636Y0160392D01*
X0177636Y0156020D01*
X0177464Y0156020D01*
X0177464Y0160392D01*
X0177199Y0160392D01*
X0176506Y0160282D01*
X0177464Y0160236D02*
X0177636Y0160236D01*
X0178737Y0160236D02*
X0186327Y0160236D01*
X0185842Y0161834D02*
X0181288Y0161834D01*
X0181992Y0163433D02*
X0183779Y0163433D01*
X0183116Y0165031D02*
X0181992Y0165031D01*
X0181992Y0166630D02*
X0183108Y0166630D01*
X0183692Y0168228D02*
X0181992Y0168228D01*
X0181496Y0169827D02*
X0185340Y0169827D01*
X0189258Y0161834D02*
X0189407Y0161834D01*
X0189407Y0160236D02*
X0188773Y0160236D01*
X0183971Y0158637D02*
X0181096Y0158637D01*
X0181878Y0157038D02*
X0183200Y0157038D01*
X0183108Y0155440D02*
X0181985Y0155440D01*
X0181486Y0153841D02*
X0183609Y0153841D01*
X0184960Y0152243D02*
X0180053Y0152243D01*
X0177636Y0152243D02*
X0177464Y0152243D01*
X0177464Y0153841D02*
X0177636Y0153841D01*
X0177636Y0155440D02*
X0177464Y0155440D01*
X0177464Y0157038D02*
X0177636Y0157038D01*
X0177636Y0158637D02*
X0177464Y0158637D01*
X0174004Y0158637D02*
X0171129Y0158637D01*
X0171900Y0157038D02*
X0173222Y0157038D01*
X0173115Y0155440D02*
X0171992Y0155440D01*
X0172257Y0153841D02*
X0173614Y0153841D01*
X0173856Y0152243D02*
X0175047Y0152243D01*
X0175454Y0150644D02*
X0187621Y0150644D01*
X0187621Y0149046D02*
X0177053Y0149046D01*
X0178651Y0147447D02*
X0187621Y0147447D01*
X0187621Y0145849D02*
X0180250Y0145849D01*
X0182170Y0144250D02*
X0186430Y0144250D01*
X0186059Y0142652D02*
X0182541Y0142652D01*
X0182541Y0141053D02*
X0186059Y0141053D01*
X0186059Y0139455D02*
X0182541Y0139455D01*
X0182541Y0137856D02*
X0186059Y0137856D01*
X0186691Y0136258D02*
X0181909Y0136258D01*
X0178394Y0140384D02*
X0178394Y0144050D01*
X0167550Y0154894D01*
X0167550Y0155934D01*
X0167550Y0154894D02*
X0153040Y0140384D01*
X0156949Y0136258D02*
X0174880Y0136258D01*
X0174248Y0137856D02*
X0157383Y0137856D01*
X0157383Y0139455D02*
X0174248Y0139455D01*
X0174248Y0141053D02*
X0157383Y0141053D01*
X0158962Y0142652D02*
X0174248Y0142652D01*
X0174539Y0144250D02*
X0160561Y0144250D01*
X0162159Y0145849D02*
X0172941Y0145849D01*
X0171342Y0147447D02*
X0163758Y0147447D01*
X0165356Y0149046D02*
X0169744Y0149046D01*
X0168145Y0150644D02*
X0166955Y0150644D01*
X0156449Y0147447D02*
X0148144Y0147447D01*
X0148144Y0145849D02*
X0154850Y0145849D01*
X0194576Y0160236D02*
X0196327Y0160236D01*
X0195842Y0161834D02*
X0194576Y0161834D01*
X0160255Y0204994D02*
X0056900Y0204994D01*
X0056900Y0206592D02*
X0161261Y0206592D01*
X0162530Y0208191D02*
X0056900Y0208191D01*
X0056900Y0177819D02*
X0078425Y0177819D01*
X0076482Y0176221D02*
X0056900Y0176221D01*
X0056900Y0174622D02*
X0074883Y0174622D01*
X0073285Y0173024D02*
X0056900Y0173024D01*
X0056900Y0171425D02*
X0071686Y0171425D01*
X0070088Y0169827D02*
X0056900Y0169827D01*
X0056900Y0168228D02*
X0068489Y0168228D01*
X0066891Y0166630D02*
X0056900Y0166630D01*
X0095352Y0217782D02*
X0173070Y0217782D01*
X0173070Y0219380D02*
X0096681Y0219380D01*
X0096884Y0220979D02*
X0173070Y0220979D01*
X0173070Y0222577D02*
X0170554Y0222577D01*
X0172126Y0224176D02*
X0173070Y0224176D01*
X0173070Y0225774D02*
X0172373Y0225774D01*
X0173070Y0227373D02*
X0171658Y0227373D01*
X0171584Y0228971D02*
X0173070Y0228971D01*
X0173070Y0230570D02*
X0171584Y0230570D01*
X0171584Y0232169D02*
X0173070Y0232169D01*
X0173070Y0233767D02*
X0171584Y0233767D01*
X0171584Y0235366D02*
X0173070Y0235366D01*
X0173070Y0236964D02*
X0171584Y0236964D01*
X0171584Y0238563D02*
X0173070Y0238563D01*
X0173070Y0240161D02*
X0171584Y0240161D01*
X0171584Y0241760D02*
X0173070Y0241760D01*
X0173070Y0243358D02*
X0171584Y0243358D01*
X0167016Y0240161D02*
X0153326Y0240161D01*
X0151727Y0238563D02*
X0167016Y0238563D01*
X0167016Y0236964D02*
X0096884Y0236964D01*
X0096884Y0235366D02*
X0167016Y0235366D01*
X0167016Y0233767D02*
X0096884Y0233767D01*
X0096884Y0232169D02*
X0167016Y0232169D01*
X0167016Y0230570D02*
X0096884Y0230570D01*
X0096884Y0228971D02*
X0167016Y0228971D01*
X0166942Y0227373D02*
X0096884Y0227373D01*
X0096884Y0225774D02*
X0166227Y0225774D01*
X0166474Y0224176D02*
X0096884Y0224176D01*
X0096884Y0222577D02*
X0168046Y0222577D01*
X0166227Y0258458D02*
X0164300Y0260384D01*
X0171584Y0268934D02*
X0183874Y0268934D01*
X0181982Y0270533D02*
X0171584Y0270533D01*
X0171584Y0272131D02*
X0179832Y0272131D01*
X0177682Y0273730D02*
X0171584Y0273730D01*
X0171584Y0275328D02*
X0175532Y0275328D01*
X0173382Y0276927D02*
X0171584Y0276927D01*
X0215344Y0275328D02*
X0226270Y0275328D01*
X0226042Y0273730D02*
X0217090Y0273730D01*
X0217373Y0272131D02*
X0225814Y0272131D01*
X0225585Y0270533D02*
X0216745Y0270533D01*
X0216584Y0268934D02*
X0225357Y0268934D01*
X0222031Y0267336D02*
X0221569Y0267336D01*
X0217031Y0267336D02*
X0216584Y0267336D01*
X0161227Y0347261D02*
X0056900Y0347261D01*
X0056900Y0348860D02*
X0064371Y0348860D01*
X0062772Y0350458D02*
X0056900Y0350458D01*
X0056900Y0352057D02*
X0061912Y0352057D01*
X0061250Y0353655D02*
X0056900Y0353655D01*
X0056900Y0355254D02*
X0061201Y0355254D01*
X0061201Y0356852D02*
X0056900Y0356852D01*
X0056900Y0358451D02*
X0061804Y0358451D01*
X0062511Y0360049D02*
X0057642Y0360049D01*
X0059241Y0361648D02*
X0064110Y0361648D01*
X0067116Y0363246D02*
X0060839Y0363246D01*
X0062438Y0364845D02*
X0216590Y0364845D01*
X0216227Y0366443D02*
X0064036Y0366443D01*
X0071484Y0363246D02*
X0217016Y0363246D01*
X0217016Y0361648D02*
X0074490Y0361648D01*
X0076089Y0360049D02*
X0217016Y0360049D01*
X0217016Y0358451D02*
X0076796Y0358451D01*
X0077399Y0356852D02*
X0217016Y0356852D01*
X0217016Y0355254D02*
X0077399Y0355254D01*
X0091380Y0275328D02*
X0096905Y0275328D01*
X0094890Y0273730D02*
X0092625Y0273730D01*
X0093871Y0272131D02*
X0094087Y0272131D01*
X0101695Y0275328D02*
X0106905Y0275328D01*
X0104890Y0273730D02*
X0103710Y0273730D01*
X0065100Y0254548D02*
X0063500Y0254548D01*
X0063500Y0252949D02*
X0065100Y0252949D01*
X0065100Y0251351D02*
X0063500Y0251351D01*
X0063500Y0249752D02*
X0065100Y0249752D01*
X0089300Y0230384D02*
X0089300Y0226625D01*
X0071900Y0104984D02*
X0071900Y0100784D01*
X0071900Y0104984D01*
X0071900Y0104288D02*
X0071900Y0104288D01*
X0071900Y0102689D02*
X0071900Y0102689D01*
X0071900Y0101091D02*
X0071900Y0101091D01*
X0071900Y0100784D02*
X0071900Y0100784D01*
X0071900Y0099492D02*
X0071900Y0099492D01*
X0071900Y0097894D02*
X0071900Y0097894D01*
X0068851Y0097894D02*
X0064927Y0097894D01*
X0066084Y0099492D02*
X0067700Y0099492D01*
X0067700Y0101091D02*
X0066084Y0101091D01*
X0065913Y0102689D02*
X0067865Y0102689D01*
X0069464Y0104288D02*
X0064314Y0104288D01*
X0258573Y0358451D02*
X0326804Y0358451D01*
X0327511Y0360049D02*
X0258031Y0360049D01*
X0336484Y0363246D02*
X0340320Y0363246D01*
X0339490Y0361648D02*
X0342717Y0361648D01*
X0341089Y0360049D02*
X0345115Y0360049D01*
X0346700Y0358451D02*
X0341796Y0358451D01*
X0342399Y0356852D02*
X0346700Y0356852D01*
X0346700Y0355254D02*
X0342399Y0355254D01*
X0342350Y0353655D02*
X0346700Y0353655D01*
X0346700Y0352057D02*
X0341688Y0352057D01*
X0340828Y0350458D02*
X0346700Y0350458D01*
X0346700Y0348860D02*
X0339229Y0348860D01*
D23*
X0269300Y0354584D03*
X0255500Y0358234D03*
X0239300Y0361884D03*
X0219300Y0366334D03*
X0180650Y0351334D03*
X0164300Y0347684D03*
X0144300Y0344034D03*
X0190650Y0274434D03*
X0186600Y0270384D03*
X0211336Y0252908D03*
X0213600Y0250134D03*
X0224300Y0245384D03*
X0223050Y0240684D03*
X0227100Y0235284D03*
X0232950Y0221884D03*
X0196450Y0201984D03*
X0169300Y0225384D03*
X0153501Y0233833D03*
X0153700Y0243458D03*
X0153400Y0205584D03*
X0100000Y0230234D03*
X0214300Y0272434D03*
X0250475Y0301559D03*
X0260950Y0307034D03*
D24*
X0299300Y0285384D02*
X0334300Y0285384D01*
X0339300Y0297884D02*
X0329200Y0297884D01*
X0328350Y0298734D01*
X0328350Y0302784D01*
X0342500Y0302784D01*
X0299300Y0285384D02*
X0299300Y0251447D01*
X0305363Y0245384D01*
X0074300Y0250384D02*
X0074300Y0255384D01*
X0074300Y0250384D02*
X0061100Y0250384D01*
X0061100Y0252184D01*
X0064300Y0255384D01*
D25*
X0164300Y0260384D03*
X0312150Y0185334D03*
D26*
X0253050Y0277884D03*
X0204300Y0215384D03*
D27*
X0164300Y0205384D03*
X0175655Y0256804D03*
X0209300Y0275384D03*
X0064300Y0125384D03*
D28*
X0169300Y0225384D02*
X0169300Y0290384D01*
X0162950Y0300384D01*
X0142450Y0300384D01*
X0129100Y0313734D01*
X0144700Y0313734D02*
X0153050Y0304034D01*
X0164300Y0304034D01*
X0172316Y0292369D01*
X0173666Y0279562D01*
X0184194Y0271734D01*
X0186600Y0270384D01*
X0184300Y0274434D02*
X0190650Y0274434D01*
X0184300Y0274434D02*
X0175650Y0281734D01*
X0175650Y0294734D01*
X0160300Y0313734D01*
X0160300Y0329334D02*
X0164300Y0333334D01*
X0164300Y0347684D01*
X0180650Y0351334D02*
X0180650Y0334084D01*
X0175900Y0329334D01*
X0191500Y0313734D02*
X0207100Y0329334D01*
X0219300Y0332734D02*
X0222700Y0329334D01*
X0219300Y0332734D02*
X0219300Y0366334D01*
X0239300Y0361884D02*
X0239300Y0330334D01*
X0238300Y0329334D01*
X0253900Y0329334D02*
X0255500Y0330934D01*
X0255500Y0358234D01*
X0269300Y0354584D02*
X0269300Y0329534D01*
X0269500Y0329334D01*
X0269500Y0313734D02*
X0266250Y0310484D01*
X0266250Y0306834D01*
X0236550Y0277134D01*
X0235000Y0271279D01*
X0234038Y0265317D01*
X0232788Y0259819D01*
X0229966Y0238246D01*
X0229966Y0238150D01*
X0227100Y0235284D01*
X0223050Y0240684D02*
X0224400Y0242034D01*
X0227500Y0242034D01*
X0232500Y0278584D01*
X0260950Y0307034D01*
X0250475Y0301559D02*
X0229300Y0280384D01*
X0224300Y0245384D01*
X0221742Y0250176D02*
X0217650Y0246084D01*
X0213600Y0243384D01*
X0213284Y0243069D01*
X0211830Y0243069D01*
X0213600Y0250134D02*
X0214050Y0250134D01*
X0214300Y0250384D01*
X0214300Y0272434D01*
X0219300Y0265384D02*
X0219300Y0251784D01*
X0218600Y0251084D01*
X0221742Y0250176D02*
X0224300Y0265384D01*
X0144700Y0329334D02*
X0144300Y0329734D01*
X0144300Y0344034D01*
D29*
X0219300Y0265384D03*
X0224300Y0265384D03*
X0218600Y0251084D03*
X0211830Y0243069D03*
X0194400Y0253534D03*
X0154300Y0246931D03*
X0146800Y0255384D03*
X0142660Y0251245D03*
X0181200Y0212334D03*
X0196898Y0212334D03*
X0078050Y0230384D03*
D30*
X0104300Y0190384D03*
D31*
X0334300Y0285384D02*
X0339300Y0285384D01*
M02*
