G75*
%MOIN*%
%OFA0B0*%
%FSLAX25Y25*%
%IPPOS*%
%LPD*%
%AMOC8*
5,1,8,0,0,1.08239X$1,22.5*
%
%ADD10C,0.12998*%
%ADD11C,0.03500*%
%ADD12C,0.03900*%
%ADD13R,0.10243X0.08274*%
%ADD14R,0.13392X0.08274*%
%ADD15R,0.12605X0.02369*%
%ADD16C,0.03943*%
%ADD17R,0.05518X0.06306*%
%ADD18R,0.05518X0.06699*%
%ADD19R,0.02369X0.06306*%
%ADD20R,0.06306X0.02369*%
%ADD21R,0.06699X0.05518*%
%ADD22R,0.12211X0.10243*%
%ADD23R,0.06306X0.05518*%
%ADD24R,0.06300X0.08300*%
%ADD25R,0.15400X0.08300*%
%ADD26OC8,0.05200*%
%ADD27C,0.05124*%
%ADD28C,0.12100*%
%ADD29C,0.13400*%
%ADD30C,0.07800*%
%ADD31R,0.05715X0.05715*%
%ADD32C,0.05715*%
%ADD33C,0.12526*%
%ADD34OC8,0.18573*%
%ADD35OC8,0.16998*%
%ADD36R,0.07498X0.06699*%
%ADD37R,0.05912X0.05124*%
%ADD38R,0.05124X0.05912*%
%ADD39C,0.04829*%
D10*
X0069300Y0025384D03*
X0334300Y0025384D03*
X0334300Y0355384D03*
X0069300Y0355384D03*
D11*
X0150200Y0199584D03*
X0150200Y0194584D03*
X0155200Y0194584D03*
X0160200Y0194584D03*
X0160200Y0199584D03*
X0155200Y0199584D03*
D12*
X0145200Y0201084D03*
X0145200Y0193084D03*
X0165200Y0197084D03*
D13*
X0341111Y0212904D03*
X0341111Y0177865D03*
D14*
X0317883Y0177865D03*
X0317883Y0212904D03*
D15*
X0317489Y0201684D03*
X0317489Y0198534D03*
X0317489Y0195384D03*
X0317489Y0192235D03*
X0317489Y0189085D03*
D16*
X0329300Y0186723D03*
X0329300Y0204046D03*
D17*
X0301140Y0200584D03*
X0293660Y0200584D03*
X0293460Y0192034D03*
X0300940Y0192034D03*
X0213840Y0266384D03*
X0206360Y0266384D03*
X0071490Y0116534D03*
X0064010Y0116534D03*
D18*
X0187563Y0196434D03*
X0195437Y0196434D03*
X0221113Y0215784D03*
X0228987Y0215784D03*
X0228987Y0226934D03*
X0221113Y0226934D03*
X0259213Y0282584D03*
X0267087Y0282584D03*
X0267087Y0290934D03*
X0259213Y0290934D03*
D19*
X0200048Y0263219D03*
X0196898Y0263219D03*
X0193749Y0263219D03*
X0190599Y0263219D03*
X0187450Y0263219D03*
X0184300Y0263219D03*
X0181150Y0263219D03*
X0178001Y0263219D03*
X0174851Y0263219D03*
X0171702Y0263219D03*
X0168552Y0263219D03*
X0168552Y0217550D03*
X0171702Y0217550D03*
X0174851Y0217550D03*
X0178001Y0217550D03*
X0181150Y0217550D03*
X0184300Y0217550D03*
X0187450Y0217550D03*
X0190599Y0217550D03*
X0193749Y0217550D03*
X0196898Y0217550D03*
X0200048Y0217550D03*
D20*
X0207135Y0224636D03*
X0207135Y0227786D03*
X0207135Y0230936D03*
X0207135Y0234085D03*
X0207135Y0237235D03*
X0207135Y0240384D03*
X0207135Y0243534D03*
X0207135Y0246684D03*
X0207135Y0249833D03*
X0207135Y0252983D03*
X0207135Y0256132D03*
X0161465Y0256132D03*
X0161465Y0252983D03*
X0161465Y0249833D03*
X0161465Y0246684D03*
X0161465Y0243534D03*
X0161465Y0240384D03*
X0161465Y0237235D03*
X0161465Y0234085D03*
X0161465Y0230936D03*
X0161465Y0227786D03*
X0161465Y0224636D03*
D21*
X0106800Y0221447D03*
X0106800Y0229321D03*
X0106800Y0236447D03*
X0106800Y0244321D03*
X0284900Y0249597D03*
X0284900Y0257471D03*
D22*
X0134300Y0245483D03*
X0134300Y0224892D03*
D23*
X0144900Y0217775D03*
X0144900Y0210294D03*
X0119300Y0231644D03*
X0119300Y0239125D03*
X0193300Y0286594D03*
X0193300Y0294075D03*
D24*
X0257900Y0270284D03*
X0266900Y0270284D03*
X0275900Y0270284D03*
D25*
X0266800Y0245484D03*
D26*
X0124300Y0260384D03*
X0124300Y0290384D03*
X0088850Y0288934D03*
X0088850Y0258934D03*
X0071900Y0100784D03*
X0061900Y0100784D03*
D27*
X0185100Y0279184D03*
X0185100Y0286684D03*
X0185100Y0294184D03*
D28*
X0191500Y0313734D03*
X0175900Y0313734D03*
X0175900Y0329334D03*
X0191500Y0329334D03*
X0207100Y0329334D03*
X0207100Y0313734D03*
X0222700Y0313734D03*
X0222700Y0329334D03*
X0238300Y0329334D03*
X0238300Y0313734D03*
X0253900Y0313734D03*
X0269500Y0313734D03*
X0269500Y0329334D03*
X0253900Y0329334D03*
X0160300Y0329334D03*
X0160300Y0313734D03*
X0144700Y0313734D03*
X0129100Y0313734D03*
X0129100Y0329334D03*
X0144700Y0329334D03*
D29*
X0094000Y0321534D03*
X0304600Y0321534D03*
D30*
X0144300Y0270384D03*
X0134300Y0270384D03*
X0109300Y0270384D03*
X0099300Y0270384D03*
D31*
X0127550Y0165934D03*
X0177550Y0165934D03*
X0227550Y0165934D03*
X0277550Y0165934D03*
X0277550Y0025934D03*
X0227550Y0025934D03*
X0177550Y0025934D03*
X0127550Y0025934D03*
D32*
X0127550Y0015934D03*
X0137550Y0015934D03*
X0137550Y0025934D03*
X0147550Y0025934D03*
X0147550Y0015934D03*
X0157550Y0015934D03*
X0167550Y0015934D03*
X0167550Y0025934D03*
X0157550Y0025934D03*
X0177550Y0015934D03*
X0187550Y0015934D03*
X0187550Y0025934D03*
X0197550Y0025934D03*
X0197550Y0015934D03*
X0207550Y0015934D03*
X0207550Y0025934D03*
X0217550Y0025934D03*
X0217550Y0015934D03*
X0227550Y0015934D03*
X0237550Y0015934D03*
X0247550Y0015934D03*
X0247550Y0025934D03*
X0237550Y0025934D03*
X0257550Y0025934D03*
X0257550Y0015934D03*
X0267550Y0015934D03*
X0277550Y0015934D03*
X0267550Y0025934D03*
X0287550Y0025934D03*
X0287550Y0015934D03*
X0297550Y0015934D03*
X0297550Y0025934D03*
X0307550Y0025934D03*
X0307550Y0015934D03*
X0317550Y0015934D03*
X0317550Y0025934D03*
X0317550Y0155934D03*
X0307550Y0155934D03*
X0297550Y0155934D03*
X0287550Y0155934D03*
X0277550Y0155934D03*
X0267550Y0155934D03*
X0257550Y0155934D03*
X0247550Y0155934D03*
X0237550Y0155934D03*
X0227550Y0155934D03*
X0217550Y0155934D03*
X0207550Y0155934D03*
X0197550Y0155934D03*
X0187550Y0155934D03*
X0177550Y0155934D03*
X0167550Y0155934D03*
X0157550Y0155934D03*
X0147550Y0155934D03*
X0137550Y0155934D03*
X0127550Y0155934D03*
X0137550Y0165934D03*
X0147550Y0165934D03*
X0157550Y0165934D03*
X0167550Y0165934D03*
X0187550Y0165934D03*
X0197550Y0165934D03*
X0207550Y0165934D03*
X0217550Y0165934D03*
X0237550Y0165934D03*
X0247550Y0165934D03*
X0257550Y0165934D03*
X0267550Y0165934D03*
X0287550Y0165934D03*
X0297550Y0165934D03*
X0307550Y0165934D03*
X0317550Y0165934D03*
D33*
X0100857Y0155856D03*
D34*
X0305363Y0245384D03*
D35*
X0317174Y0263888D03*
X0328985Y0245384D03*
D36*
X0234300Y0269786D03*
X0234300Y0280983D03*
D37*
X0254300Y0233790D03*
X0254300Y0221979D03*
D38*
X0246456Y0260384D03*
X0234644Y0260384D03*
D39*
X0253050Y0277884D03*
X0204300Y0215384D03*
M02*
